<svg width="380" height="132" viewBox="0 0 380 132" fill="none" xmlns="http://www.w3.org/2000/svg">
<path d="M284.932 113.897C311.485 113.765 332.969 92.212 332.969 65.628C332.969 39.044 311.485 17.4905 284.932 17.3589V113.897Z" fill="#3B5446" style="fill:#3B5446;fill:color(display-p3 0.2314 0.3294 0.2745);fill-opacity:1;"/>
<path d="M350.351 95.6247C366.743 95.5473 380 82.2359 380 65.8289C380 49.4219 366.735 36.1106 350.351 36.0332V95.6247Z" fill="#EE7254" style="fill:#EE7254;fill:color(display-p3 0.9333 0.4471 0.3294);fill-opacity:1;"/>
<path d="M109.749 53.8335C105.91 49.786 103.991 44.7246 103.991 38.6416C103.991 32.5586 105.91 27.4972 109.749 23.4496C113.588 19.4021 118.239 17.3821 123.703 17.3821C125.56 17.3821 127.309 17.6375 128.957 18.1561C130.606 18.6746 131.937 19.2782 132.935 19.9748C133.941 20.6713 134.816 21.3833 135.567 22.103C136.31 22.8228 136.844 23.4419 137.153 23.9604L137.618 24.7343H138.005V0H146.897V58.7556H138.391L138.005 52.5721H137.618C137.517 52.781 137.362 53.0519 137.153 53.3847C136.944 53.7174 136.433 54.2979 135.605 55.126C134.777 55.9541 133.895 56.6815 132.935 57.3316C131.983 57.974 130.668 58.5699 128.996 59.1116C127.325 59.6534 125.552 59.9243 123.703 59.9243C118.239 59.9243 113.588 57.9043 109.749 53.8568M134.452 48.0756C136.82 45.5991 138.005 42.457 138.005 38.6416C138.005 34.8262 136.82 31.6841 134.452 29.2076C132.084 26.7388 129.143 25.5005 125.637 25.5005C122.132 25.5005 119.191 26.7388 116.822 29.2076C114.454 31.6841 113.262 34.8262 113.262 38.6416C113.262 42.457 114.447 45.5991 116.822 48.0756C119.191 50.5521 122.132 51.7904 125.637 51.7904C129.143 51.7904 132.076 50.5521 134.452 48.0756Z" fill="#3B5446" style="fill:#3B5446;fill:color(display-p3 0.2314 0.3294 0.2745);fill-opacity:1;"/>
<path d="M170.888 17.3823C176.453 17.3823 180.748 18.8295 183.758 21.7162C186.769 24.603 188.278 28.5731 188.278 33.6191V58.7481H179.773L179.386 52.5645H178.999C178.945 52.7735 178.829 53.0443 178.651 53.3771C178.473 53.7099 178.047 54.2903 177.374 55.1184C176.7 55.9465 175.942 56.674 175.091 57.3241C174.239 57.9664 173.016 58.5623 171.414 59.1041C169.82 59.6458 168.094 59.9167 166.237 59.9167C162.267 59.9167 159.024 58.7558 156.493 56.4418C153.97 54.1201 152.701 51.2334 152.701 47.7817C152.701 43.9199 154.025 40.7855 156.679 38.3864C159.334 35.9872 163.033 34.7954 167.769 34.7954C169.936 34.7954 171.979 35.0276 173.914 35.4919C175.849 35.9563 177.227 36.3974 178.055 36.8076L179.37 37.5041V34.0215C179.37 31.2896 178.534 29.1923 176.855 27.7218C175.183 26.2514 172.8 25.5162 169.704 25.5162C167.073 25.5162 164.534 26.0115 162.089 26.9866C159.643 27.9695 157.848 28.9214 156.718 29.8501L155.015 31.3205H153.854V23.2022C154.373 22.792 155.093 22.258 156.021 21.6156C156.95 20.9733 158.892 20.1065 161.857 19.023C164.821 17.9395 167.823 17.3978 170.865 17.3978M168.179 52.1698C169.929 52.1698 171.507 51.8757 172.893 51.2798C174.286 50.6916 175.361 49.9796 176.135 49.1515C176.909 48.3234 177.552 47.5031 178.07 46.675C178.589 45.8469 178.945 45.1272 179.154 44.508L179.386 43.6567C179.177 43.4478 178.829 43.1924 178.341 42.8828C177.853 42.5733 176.739 42.1786 175.013 41.6833C173.287 41.1957 171.391 40.948 169.333 40.948C167.065 40.948 165.277 41.4743 163.962 42.5346C162.646 43.5948 161.988 44.9956 161.988 46.7524C161.988 48.5092 162.53 49.8403 163.613 50.769C164.697 51.6977 166.214 52.1621 168.172 52.1621" fill="#3B5446" style="fill:#3B5446;fill:color(display-p3 0.2314 0.3294 0.2745);fill-opacity:1;"/>
<path d="M198.153 45.2117V26.661H190.809V23.5653L206.659 6.55469H207.046V18.5349H219.8V26.6533H207.046V44.8171C207.046 47.0382 207.626 48.7485 208.787 49.9558C209.948 51.1709 211.426 51.7745 213.229 51.7745C214.467 51.7745 215.636 51.5192 216.75 51.0006C217.857 50.4821 218.646 49.9713 219.111 49.4528L219.807 48.6789H220.968V56.4103C220.713 56.6657 220.334 56.9907 219.846 57.3777C219.358 57.7646 218.275 58.2832 216.596 58.9255C214.924 59.5679 213.159 59.8929 211.302 59.8929C207.386 59.8929 204.213 58.5927 201.791 55.9924C199.368 53.392 198.161 49.7933 198.161 45.2117" fill="#3B5446" style="fill:#3B5446;fill:color(display-p3 0.2314 0.3294 0.2745);fill-opacity:1;"/>
<path d="M243.125 17.3823C248.69 17.3823 252.985 18.8295 255.996 21.7162C259.014 24.603 260.515 28.5731 260.515 33.6191V58.7481H252.01L251.623 52.5645H251.236C251.182 52.7735 251.066 53.0443 250.888 53.3771C250.71 53.7099 250.284 54.2903 249.611 55.1184C248.945 55.9465 248.179 56.674 247.328 57.3241C246.476 57.9664 245.254 58.5623 243.659 59.1041C242.057 59.6458 240.339 59.9167 238.482 59.9167C234.512 59.9167 231.269 58.7558 228.738 56.4418C226.215 54.1201 224.954 51.2334 224.954 47.7817C224.954 43.9199 226.277 40.7855 228.932 38.3864C231.586 35.9872 235.286 34.7954 240.03 34.7954C242.197 34.7954 244.24 35.0276 246.175 35.4919C248.109 35.9563 249.487 36.3974 250.315 36.8076L251.631 37.5041V34.0215C251.631 31.2896 250.795 29.1923 249.115 27.7218C247.436 26.2514 245.06 25.5162 241.965 25.5162C239.333 25.5162 236.795 26.0115 234.349 26.9866C231.904 27.9695 230.108 28.9214 228.978 29.8501L227.276 31.3205H226.115V23.2022C226.633 22.792 227.353 22.258 228.282 21.6156C229.21 20.9733 231.153 20.1065 234.117 19.023C237.081 17.9395 240.084 17.3978 243.125 17.3978M240.417 52.1698C242.166 52.1698 243.737 51.8757 245.13 51.2798C246.523 50.6916 247.606 49.9796 248.38 49.1593C249.154 48.3312 249.797 47.5108 250.315 46.6828C250.834 45.8547 251.19 45.1349 251.399 44.5158L251.631 43.6645C251.422 43.4555 251.073 43.2001 250.586 42.8906C250.098 42.581 248.984 42.1863 247.266 41.691C245.54 41.2034 243.644 40.9558 241.585 40.9558C239.318 40.9558 237.53 41.482 236.214 42.5423C234.899 43.6026 234.241 45.0034 234.241 46.7601C234.241 48.5169 234.783 49.8481 235.866 50.7768C236.95 51.7055 238.466 52.1698 240.424 52.1698" fill="#3B5446" style="fill:#3B5446;fill:color(display-p3 0.2314 0.3294 0.2745);fill-opacity:1;"/>
<path d="M5.75793 108.185C1.91931 104.138 0 99.0761 0 92.9931C0 86.9102 1.91931 81.8488 5.75793 77.8012C9.59655 73.7536 14.2478 71.7337 19.7116 71.7337C21.569 71.7337 23.3181 71.9891 24.9665 72.5076C26.6149 73.0261 27.9461 73.6298 28.9444 74.3263C29.9505 75.0228 30.825 75.7348 31.5757 76.4546C32.3187 77.1743 32.8527 77.7935 33.1623 78.312L33.6266 79.0859H34.0136V54.3516H42.9058V113.107H34.4005L34.0136 106.924H33.6266C33.526 107.133 33.3712 107.403 33.1623 107.736C32.9533 108.069 32.4425 108.649 31.6144 109.478C30.7863 110.306 29.9041 111.033 28.9444 111.683C27.9925 112.326 26.6768 112.921 25.0052 113.463C23.3335 114.005 21.5613 114.276 19.7116 114.276C14.2478 114.276 9.59655 112.256 5.75793 108.208M30.4613 102.427C32.8295 99.9506 34.0136 96.8086 34.0136 92.9931C34.0136 89.1777 32.8295 86.0357 30.4613 83.5591C28.0931 81.0903 25.1522 79.8521 21.6464 79.8521C18.1406 79.8521 15.1997 81.0903 12.8315 83.5591C10.4633 86.0357 9.2715 89.1777 9.2715 92.9931C9.2715 96.8086 10.4556 99.9506 12.8315 102.427C15.1997 104.904 18.1406 106.142 21.6464 106.142C25.1522 106.142 28.0854 104.904 30.4613 102.427Z" fill="#3B5446" style="fill:#3B5446;fill:color(display-p3 0.2314 0.3294 0.2745);fill-opacity:1;"/>
<path d="M50.5599 63.3845C49.577 62.4558 49.0894 61.1944 49.0894 59.6001C49.0894 58.0058 49.577 56.7289 50.5599 55.777C51.535 54.825 52.7733 54.3452 54.2669 54.3452C55.7606 54.3452 57.0143 54.825 58.0127 55.777C59.0188 56.7289 59.5218 58.0058 59.5218 59.6001C59.5218 61.1944 59.0188 62.4636 58.0127 63.3845C57.0066 64.3132 55.7606 64.7776 54.2669 64.7776C52.7733 64.7776 51.535 64.3132 50.5599 63.3845ZM58.7556 72.509V113.093H49.8633V72.509C51.148 73.0275 52.6185 73.2829 54.2669 73.2829C55.0408 73.2829 55.7993 73.221 56.55 73.0894C57.2929 72.9579 57.8502 72.8418 58.2139 72.7412L58.7556 72.509Z" fill="#3B5446" style="fill:#3B5446;fill:color(display-p3 0.2314 0.3294 0.2745);fill-opacity:1;"/>
<path d="M65.5352 86.4228C65.5352 82.2436 67.1217 78.761 70.287 75.9517C73.4601 73.1424 77.6702 71.7416 82.9251 71.7416C84.4187 71.7416 85.835 71.8732 87.1738 72.1286C88.5127 72.384 89.4956 72.6471 90.107 72.9025L91.0357 73.2894C91.0899 73.0882 91.175 72.8019 91.3066 72.4381C91.4381 72.0744 91.7864 71.463 92.3513 70.5807C92.9163 69.7062 93.5896 68.9323 94.3635 68.259C95.1374 67.5934 96.2596 66.9743 97.7301 66.4016C99.2005 65.8366 100.833 65.5503 102.637 65.5503V73.6687C101.244 73.6687 99.9667 73.8621 98.8058 74.2491C97.6449 74.6361 96.8323 75.0075 96.368 75.3713L95.6714 75.9904C95.772 76.091 95.9423 76.2381 96.1745 76.4161C96.4067 76.5941 96.7781 77.012 97.2966 77.6543C97.8152 78.2967 98.2718 78.9932 98.6897 79.7439C99.0999 80.4946 99.4791 81.4697 99.8119 82.6848C100.145 83.8998 100.315 85.1458 100.315 86.4305C100.315 89.7816 99.4404 92.4748 97.6836 94.5102C95.9346 96.5456 93.458 98.3643 90.2618 99.9586L79.4424 105.368H86.3999C92.1733 105.368 96.4453 106.467 99.2314 108.657C102.018 110.848 103.403 113.874 103.403 117.743C103.403 121.613 101.692 124.894 98.264 127.448C94.8356 130.002 89.72 131.271 82.9173 131.271C76.1146 131.271 71.2544 130.25 68.0349 128.222C64.8154 126.187 63.2057 123.594 63.2057 120.452C63.2057 118.749 63.7474 117.194 64.8309 115.777C65.9144 114.361 67.0211 113.371 68.1588 112.798L69.784 111.946H65.1482V107.698L78.6763 100.74C78.3125 100.686 77.8404 100.601 77.2445 100.469C76.6486 100.338 75.6038 99.9431 74.1102 99.2698C72.6165 98.6042 71.2854 97.7916 70.1322 96.8397C68.9714 95.8878 67.9188 94.4947 66.9592 92.6683C66.0073 90.8418 65.5274 88.76 65.5274 86.446M94.1391 117.735C94.1391 113.874 90.788 111.939 84.0937 111.939H77.9101C77.4457 112.094 76.8653 112.31 76.1688 112.597C75.4723 112.883 74.559 113.587 73.4214 114.725C72.2837 115.855 71.7188 117.124 71.7188 118.509C71.7188 122.116 75.4568 123.919 82.9251 123.919C86.7869 123.919 89.6272 123.354 91.4304 122.216C93.2336 121.079 94.1313 119.585 94.1313 117.735M76.7802 81.1679C75.2091 82.561 74.4197 84.31 74.4197 86.4228C74.4197 88.5356 75.2014 90.2846 76.7802 91.6777C78.3512 93.0707 80.4021 93.7672 82.9251 93.7672C85.448 93.7672 87.4989 93.0707 89.0699 91.6777C90.641 90.2846 91.4304 88.5356 91.4304 86.4228C91.4304 84.31 90.641 82.5532 89.0699 81.1679C87.4989 79.7749 85.448 79.0783 82.9251 79.0783C80.4021 79.0783 78.3512 79.7749 76.7802 81.1679Z" fill="#3B5446" style="fill:#3B5446;fill:color(display-p3 0.2314 0.3294 0.2745);fill-opacity:1;"/>
<path d="M110.221 86.4228C110.221 82.2436 111.808 78.761 114.973 75.9517C118.146 73.1424 122.356 71.7416 127.611 71.7416C129.105 71.7416 130.521 71.8732 131.86 72.1286C133.199 72.384 134.181 72.6471 134.801 72.9025L135.729 73.2894C135.783 73.0882 135.869 72.8019 136 72.4381C136.132 72.0744 136.472 71.463 137.045 70.5807C137.61 69.7062 138.283 68.9323 139.057 68.259C139.831 67.5934 140.953 66.9743 142.424 66.4016C143.894 65.8366 145.527 65.5503 147.33 65.5503V73.6687C145.937 73.6687 144.66 73.8621 143.499 74.2491C142.338 74.6361 141.526 75.0075 141.062 75.3713L140.365 75.9904C140.466 76.091 140.636 76.2381 140.868 76.4161C141.1 76.5941 141.472 77.012 141.99 77.6543C142.501 78.2967 142.965 78.9932 143.383 79.7439C143.793 80.4946 144.165 81.4697 144.505 82.6848C144.838 83.8998 145.008 85.1458 145.008 86.4305C145.008 89.7816 144.134 92.4748 142.377 94.5102C140.62 96.5456 138.152 98.3643 134.955 99.9586L124.136 105.368H131.093C136.867 105.368 141.147 106.467 143.925 108.657C146.711 110.848 148.096 113.874 148.096 117.743C148.096 121.613 146.386 124.894 142.958 127.448C139.529 130.002 134.414 131.271 127.611 131.271C120.808 131.271 115.948 130.25 112.728 128.222C109.509 126.187 107.899 123.594 107.899 120.452C107.899 118.749 108.441 117.194 109.524 115.777C110.608 114.361 111.715 113.371 112.852 112.798L114.478 111.946H109.842V107.698L123.37 100.74C123.006 100.686 122.534 100.601 121.938 100.469C121.342 100.338 120.297 99.9431 118.804 99.2698C117.31 98.6042 115.979 97.7916 114.826 96.8397C113.665 95.8878 112.612 94.4947 111.653 92.6683C110.701 90.8418 110.221 88.76 110.221 86.446M138.825 117.735C138.825 113.874 135.474 111.939 128.772 111.939H122.588C122.124 112.094 121.543 112.31 120.847 112.597C120.15 112.883 119.237 113.587 118.099 114.725C116.962 115.855 116.397 117.124 116.397 118.509C116.397 122.116 120.135 123.919 127.603 123.919C131.465 123.919 134.305 123.354 136.108 122.216C137.912 121.079 138.809 119.585 138.809 117.735M121.466 81.1679C119.895 82.561 119.106 84.31 119.106 86.4228C119.106 88.5356 119.895 90.2846 121.466 91.6777C123.037 93.0707 125.088 93.7672 127.611 93.7672C130.134 93.7672 132.185 93.0707 133.756 91.6777C135.327 90.2846 136.116 88.5356 136.116 86.4228C136.116 84.31 135.327 82.5532 133.756 81.1679C132.185 79.7749 130.134 79.0783 127.611 79.0783C125.088 79.0783 123.037 79.7749 121.466 81.1679Z" fill="#3B5446" style="fill:#3B5446;fill:color(display-p3 0.2314 0.3294 0.2745);fill-opacity:1;"/>
<path d="M171.608 71.7339C177.637 71.7339 182.427 73.5526 185.987 77.1822C189.547 80.8119 191.32 85.7804 191.32 92.0646V94.9281H159.233C159.643 98.225 161.052 100.918 163.451 103.008C165.85 105.097 169.077 106.142 173.156 106.142C174.959 106.142 176.685 105.98 178.333 105.639C179.982 105.306 181.336 104.896 182.389 104.401C183.441 103.913 184.37 103.41 185.175 102.892C185.972 102.373 186.552 101.963 186.916 101.653L187.458 101.112H188.619V109.617C188.464 109.725 188.232 109.888 187.922 110.12C187.612 110.352 186.931 110.724 185.871 111.242C184.811 111.761 183.704 112.225 182.543 112.635C181.382 113.045 179.866 113.417 177.985 113.757C176.104 114.09 174.162 114.261 172.15 114.261C165.912 114.261 160.789 112.264 156.764 108.27C152.74 104.277 150.735 99.1847 150.735 93.0011C150.735 86.8175 152.755 81.9805 156.803 77.8865C160.85 73.7925 165.78 71.7416 171.608 71.7416M171.987 79.8522C168.791 79.8522 166.152 80.6416 164.062 82.2127C161.973 83.7837 160.494 85.703 159.62 87.9706H182.814C182.404 85.6489 181.266 83.7218 179.417 82.174C177.559 80.6262 175.091 79.8522 171.995 79.8522" fill="#3B5446" style="fill:#3B5446;fill:color(display-p3 0.2314 0.3294 0.2745);fill-opacity:1;"/>
<path d="M217.989 79.8522C216.75 79.8522 215.543 80.1463 214.351 80.7423C213.167 81.3304 212.161 82.0424 211.333 82.8705C210.505 83.6986 209.762 84.519 209.089 85.347C208.415 86.1751 207.928 86.8717 207.618 87.4366L207.154 88.3653V113.1H198.262V72.9025H206.767L207.154 79.0861H207.541C207.641 78.8849 207.788 78.6062 207.966 78.2735C208.144 77.9407 208.586 77.3602 209.282 76.5322C209.979 75.7041 210.737 74.9766 211.565 74.3265C212.386 73.6841 213.484 73.0882 214.847 72.5465C216.209 72.0047 217.64 71.7339 219.134 71.7339C220.837 71.7339 222.431 71.9893 223.925 72.5078C225.418 73.0263 226.479 73.5371 227.098 74.0556L228.026 74.8295L226.092 82.561C225.937 82.3597 225.674 82.0966 225.318 81.787C224.954 81.4775 224.064 81.075 222.648 80.5875C221.231 80.0999 219.668 79.8522 217.973 79.8522" fill="#3B5446" style="fill:#3B5446;fill:color(display-p3 0.2314 0.3294 0.2745);fill-opacity:1;"/>
<path d="M261.831 101.886C261.831 105.747 260.438 108.781 257.66 110.971C254.873 113.162 250.601 114.261 244.828 114.261C241.941 114.261 239.209 113.835 236.632 112.984C234.055 112.132 232.198 111.296 231.068 110.468L229.365 109.23L232.074 101.886C232.484 102.195 233.065 102.582 233.815 103.046C234.558 103.511 236.083 104.145 238.374 104.943C240.664 105.74 242.947 106.142 245.215 106.142C250.369 106.142 252.946 104.594 252.946 101.506C252.946 100.113 252.157 99.0066 250.586 98.1863C249.015 97.3582 247.119 96.6926 244.905 96.1741C242.692 95.6633 240.463 95.0442 238.219 94.3167C235.974 93.597 234.071 92.3432 232.5 90.5632C230.929 88.7832 230.139 86.5079 230.139 83.7218C230.139 80.3166 231.463 77.4763 234.117 75.1778C236.772 72.887 240.339 71.7339 244.82 71.7339C247.707 71.7339 250.4 72.1828 252.9 73.0882C255.4 73.9937 257.187 74.9069 258.271 75.8356L259.896 77.1513L256.421 83.7992C256.112 83.4897 255.686 83.1182 255.144 82.677C254.603 82.2359 253.388 81.6632 251.507 80.9357C249.626 80.216 247.653 79.8522 245.594 79.8522C241.469 79.8522 239.411 81.2685 239.411 84.101C239.411 85.2851 240.185 86.237 241.732 86.9645C243.28 87.6843 245.145 88.3034 247.336 88.8219C249.526 89.3405 251.716 89.9905 253.906 90.7954C256.096 91.5925 257.961 92.9237 259.509 94.7733C261.057 96.6307 261.831 98.9989 261.831 101.886Z" fill="#3B5446" style="fill:#3B5446;fill:color(display-p3 0.2314 0.3294 0.2745);fill-opacity:1;"/>
</svg>
