<svg width="20" height="20" viewBox="0 0 20 20" fill="none" xmlns="http://www.w3.org/2000/svg">
<g clip-path="url(#clip0_6073_3573)">
<path d="M0.625 10C0.625 14.0937 3.25 17.5625 6.875 18.8437V1.15625C3.25 2.4375 0.625 5.90625 0.625 10Z" fill="#2A5F9E" style="fill:#2A5F9E;fill:color(display-p3 0.1647 0.3725 0.6196);fill-opacity:1;"/>
<path d="M19.375 10C19.375 5.90625 16.7812 2.4375 13.125 1.15625V18.8437C16.7812 17.5625 19.375 14.0937 19.375 10Z" fill="#C94747" style="fill:#C94747;fill:color(display-p3 0.7882 0.2784 0.2784);fill-opacity:1;"/>
<path d="M6.875 18.8437C7.84375 19.1875 8.90625 19.375 10 19.375C11.0938 19.375 12.1563 19.1875 13.125 18.8437V1.15625C12.1563 0.8125 11.0938 0.625 10 0.625C8.90625 0.625 7.84375 0.8125 6.875 1.15625V18.8437Z" fill="#FFCE31" style="fill:#FFCE31;fill:color(display-p3 1.0000 0.8078 0.1922);fill-opacity:1;"/>
</g>
<defs>
<clipPath id="clip0_6073_3573">
<rect width="20" height="20" fill="white" style="fill:white;fill-opacity:1;"/>
</clipPath>
</defs>
</svg>
