<svg width="91" height="101" viewBox="0 0 91 101" fill="none" xmlns="http://www.w3.org/2000/svg">
<g clip-path="url(#clip0_6279_4956)">
<path d="M79.9281 47.7265C79.7348 47.7265 79.5414 47.9181 79.1548 47.9181C79.1548 47.9181 78.9615 47.9181 78.9615 48.1097C78.7681 48.1097 78.5748 48.3013 78.3815 48.3013C78.1882 48.3013 78.1882 48.3013 77.9949 48.4928C77.8015 48.4928 77.6082 48.6844 77.4149 48.6844H77.0282C76.8349 48.6844 76.6416 48.876 76.4483 48.876H76.0616C75.8683 48.876 75.675 48.876 75.4817 49.0675H75.095C74.9017 49.0675 74.515 49.0675 74.3217 49.2591H69.2373C69.044 49.2591 68.8507 49.2591 68.6574 49.0675H68.2707C68.0774 49.0675 67.8841 49.0675 67.6907 48.876H67.3041C67.1108 48.876 66.9175 48.6844 66.7241 48.6844C66.5308 48.6844 66.5308 48.6844 66.3375 48.4928C66.1442 48.4928 65.9508 48.3013 65.7575 48.3013C65.7575 48.3013 65.5642 48.3013 65.5642 48.1097C65.3709 48.1097 65.1775 47.9181 64.7909 47.9181H64.5976C64.4687 47.9181 64.3398 47.8543 64.2109 47.7265V70.3319L71.6345 63.0522C72.0212 62.6691 72.8138 62.6691 73.3938 63.0522L80.8174 70.3319V47.535C80.4307 47.535 80.2374 47.535 80.0441 47.7265H79.9281Z" fill="white" style="fill:white;fill-opacity:1;"/>
<path d="M72.5046 11.9028H72.1179C62.3551 11.9028 54.3516 19.7572 54.3516 29.3357V32.0177C54.9315 35.0828 56.3041 38.148 58.45 40.4468L58.6433 40.6384L58.8366 40.83C59.0493 41.0215 59.2426 41.2131 59.2426 41.4047C59.4359 41.5963 59.6293 41.7878 59.8226 41.7878H60.0159C60.4026 42.171 60.7892 42.5541 61.1952 42.7457C61.5818 43.1288 62.1618 43.3204 62.5484 43.7035C62.7418 43.8951 62.9544 43.8951 63.1477 44.0867C63.3411 44.2782 63.5344 44.2782 63.921 44.4698H64.1144C64.3077 44.4698 64.501 44.6614 64.6943 44.6614H64.907C65.1003 44.6614 65.2936 44.853 65.4869 44.853C65.6803 44.853 65.6803 44.853 65.8736 45.0445C66.0025 45.0445 66.1314 45.1084 66.2602 45.2361C66.3891 45.3638 66.518 45.4277 66.6469 45.4277C66.8595 45.4277 67.0529 45.6192 67.2462 45.6192C67.4395 45.6192 67.4395 45.6192 67.6328 45.8108H68.4061C68.5994 45.8108 68.8121 45.8108 69.0054 46.0024H74.8631C75.0564 46.0024 75.2497 46.0024 75.4431 45.8108H76.2164C76.3452 45.8108 76.4741 45.747 76.603 45.6192C76.8157 45.6192 77.009 45.4277 77.2023 45.4277C77.3956 45.4277 77.3956 45.4277 77.589 45.2361C77.7178 45.2361 77.8467 45.1722 77.9756 45.0445C78.1045 45.0445 78.2334 44.9807 78.3622 44.853C78.5749 44.853 78.7682 44.6614 78.9615 44.6614H79.1549C79.3482 44.6614 79.5415 44.4698 79.7348 44.4698H79.9282C80.1215 44.2782 80.3148 44.2782 80.7208 44.0867C83.4466 42.5541 85.7858 40.351 87.4484 37.7265C89.111 35.0828 90.0776 32.0177 90.0776 28.761C89.8843 19.9487 82.2674 12.0943 72.5046 11.9028ZM81.4941 30.6767C80.9141 30.6767 80.3148 30.102 80.3148 29.5273C80.3148 25.1212 76.6223 21.6729 72.3112 21.6729C68.0001 21.6729 64.3077 25.3127 64.3077 29.5273C64.3077 33.7419 68.0195 37.3817 72.3112 37.3817C72.9105 37.3817 73.4905 37.9564 73.4905 38.5311C73.4905 39.1058 72.7172 39.6805 72.1179 39.6805C66.2602 39.6805 61.5818 35.0828 61.5818 29.3357C61.5818 23.5886 66.2602 18.9909 72.1179 18.9909C77.9756 18.9909 82.6733 23.5886 82.6733 29.3357C82.6733 30.102 82.074 30.6767 81.4941 30.6767Z" fill="white" style="fill:white;fill-opacity:1;"/>
<path d="M19.3992 12.4775V1.74951L1.63281 19.1825H12.5749C16.48 19.1825 19.3992 16.1173 19.3992 12.4775Z" fill="white" style="fill:white;fill-opacity:1;"/>
<path d="M31.1143 93.3204C30.5344 93.3204 29.9544 92.7457 29.9544 92.171C29.9544 91.5963 30.5344 91.0216 31.1143 91.0216H71.3448V66.1173L63.3412 73.9717C63.1479 74.1633 62.5486 74.1633 62.162 74.1633C61.7753 73.9717 61.3887 73.5886 61.3887 73.0139V46.194C60.4027 45.6193 59.4361 44.853 58.4502 44.0867C58.2569 43.8951 58.0635 43.7035 57.8702 43.512L57.2903 42.9373L57.0969 42.7457C56.8843 42.5541 56.8843 42.3625 56.6909 42.3625C56.4976 42.171 56.4976 41.9794 56.3043 41.9794L56.111 41.7878C53.9651 39.1058 52.5925 35.8491 52.0125 32.4009V26.4622C52.0125 26.2706 52.0125 26.079 52.2059 25.8875V25.5043C52.2059 25.3127 52.2059 25.1212 52.3992 24.9296C52.3992 24.8019 52.4636 24.6742 52.5925 24.5465C52.5925 24.3549 52.7858 24.1633 52.7858 23.9717C52.7858 23.7802 52.7858 23.7802 52.9985 23.5886C52.9985 23.397 53.1918 23.2055 53.1918 23.0139C53.1918 22.8223 53.3851 22.8223 53.3851 22.6307C53.3851 22.4392 53.5785 22.2476 53.5785 22.056C53.5785 21.8645 53.7718 21.8645 53.7718 21.6729C53.7718 21.4813 53.9651 21.2898 53.9651 21.0982C53.9651 20.9066 54.1584 20.9066 54.1584 20.715C54.1584 20.5235 54.3517 20.3319 54.3517 20.3319C54.3517 20.1403 54.5451 20.1403 54.5451 19.9488C54.5451 19.7572 54.7384 19.5656 54.7384 19.5656C54.7384 19.374 54.9317 19.374 54.9317 19.1825C54.9317 18.9909 55.1444 18.7993 55.1444 18.7993C55.1444 18.6078 55.3377 18.6078 55.3377 18.4162C55.531 18.2246 55.531 18.033 55.7243 18.033C55.7243 17.8415 55.9177 17.8415 55.9177 17.6499C56.0465 17.5222 56.1754 17.3945 56.3043 17.2668C56.3043 17.0752 56.4976 17.0752 56.4976 16.8836L56.8843 16.5005C56.8843 16.3089 57.0969 16.3089 57.0969 16.1173C57.2258 15.9896 57.3547 15.8619 57.4836 15.7342C57.6125 15.6065 57.7413 15.4788 57.8702 15.3511C57.9991 15.2233 58.128 15.0956 58.2569 14.9679C58.4502 14.9679 58.4502 14.7763 58.6435 14.7763C58.7724 14.6486 58.9077 14.5209 59.0495 14.3932C59.2428 14.3932 59.2428 14.2016 59.4361 14.2016L59.8228 13.8185C60.0161 13.8185 60.0161 13.6269 60.2094 13.6269C60.3383 13.4992 60.4672 13.3715 60.5961 13.2438C60.7894 13.2438 60.7894 13.0522 61.002 13.0522C61.1954 12.8606 61.3887 12.8606 61.3887 12.8606C61.582 12.8606 61.582 12.6691 61.7753 12.6691C61.9687 12.6691 62.162 12.4775 62.162 12.4775C62.3553 12.4775 62.3553 12.2859 62.5486 12.2859C62.7419 12.2859 62.9546 12.0944 62.9546 12.0944C63.1479 12.0944 63.1479 11.9028 63.3412 11.9028C63.5346 11.9028 63.7279 11.7112 63.7279 11.7112C63.9212 11.7112 63.9212 11.5196 64.1145 11.5196C64.3079 11.5196 64.5012 11.3281 64.6945 11.3281C64.9072 11.3281 64.9072 11.1365 65.1005 11.1365C65.2938 11.1365 65.4871 10.9449 65.6805 10.9449C65.8738 10.9449 65.8738 10.9449 66.0671 10.7534C66.2604 10.7534 66.4538 10.5618 66.6471 10.5618C66.8597 10.5618 67.053 10.5618 67.053 10.3702C67.2464 10.3702 67.4397 10.3702 67.633 10.1786H71.3448V7.30508C71.3448 3.66523 68.213 0.600098 64.5012 0.600098H21.9509V13.0522C21.9509 18.033 17.8524 22.2476 12.768 22.2476H0.666016V56.9219L1.05266 93.8951C1.05266 94.125 1.07199 94.3357 1.09133 94.5465C1.43931 97.8989 4.41648 100.6 7.89629 100.6H65.1005C68.8123 100.6 71.9248 97.535 71.9248 93.8951V93.3204H31.1143ZM40.8771 45.4277H26.2426C25.6626 45.4277 25.0633 44.853 25.0633 44.2783C25.0633 43.7035 25.6626 43.1288 26.2426 43.1288H40.8771C41.4764 43.1288 42.0564 43.7035 42.0564 44.2783C42.0564 44.853 41.4764 45.4277 40.8771 45.4277ZM9.24955 28.761H41.0705C41.6698 28.761 42.2497 29.3357 42.2497 29.9104C42.2497 30.4852 41.4764 31.0599 40.8771 31.0599H9.24955C8.66958 31.0599 8.08961 30.4852 8.08961 29.9104C8.08961 29.3357 8.66958 28.761 9.24955 28.761ZM9.24955 36.0407H41.0705C41.6698 36.0407 42.2497 36.6154 42.2497 37.1901C42.2497 37.7648 41.4764 38.3396 40.8771 38.3396H9.24955C8.66958 38.3396 8.08961 37.7648 8.08961 37.1901C8.08961 36.6154 8.66958 36.0407 9.24955 36.0407Z" fill="white" style="fill:white;fill-opacity:1;"/>
<path d="M1.0914 94.5465H1.05273V93.8951C1.05273 94.125 1.07207 94.3358 1.0914 94.5465Z" fill="white" style="fill:white;fill-opacity:1;"/>
</g>
<defs>
<clipPath id="clip0_6279_4956">
<rect width="89.4118" height="100" fill="white" style="fill:white;fill-opacity:1;" transform="translate(0.666016 0.600098)"/>
</clipPath>
</defs>
</svg>
