<svg width="130" height="101" viewBox="0 0 130 101" fill="none" xmlns="http://www.w3.org/2000/svg">
<g clip-path="url(#clip0_6279_4827)">
<path d="M116.773 72.6001V3.6001C116.773 1.8501 115.521 0.600098 113.744 0.600098H69.2723C67.4955 0.600098 66.2441 1.8501 66.2441 3.6001V75.6001H113.769C115.546 75.6001 116.798 74.3501 116.798 72.6001H116.773ZM77.3309 50.6001H93.2477C93.9985 50.6001 94.7743 51.3501 94.7743 52.1001C94.7743 52.8501 94.0235 53.6001 93.2477 53.6001H77.3309C76.5801 53.6001 75.8042 52.8501 75.8042 52.1001C75.8042 51.3501 76.555 50.6001 77.3309 50.6001ZM75.8293 30.3501C75.8293 29.6001 76.5801 28.8501 77.3559 28.8501H93.2727C94.0235 28.8501 94.7993 29.6001 94.7993 30.3501C94.7993 31.1001 94.0485 31.8501 93.2727 31.8501H77.3559C76.6051 31.8501 75.8293 31.1001 75.8293 30.3501ZM80.6344 63.1001H77.3559C76.6051 63.1001 75.8293 62.3501 75.8293 61.6001C75.8293 60.8501 76.5801 60.1001 77.3559 60.1001H80.6344C81.3851 60.1001 82.161 60.8501 82.161 61.6001C82.161 62.3501 81.4102 63.1001 80.6344 63.1001ZM105.911 63.1001H89.9942C89.2434 63.1001 88.4676 62.3501 88.4676 61.6001C88.4676 60.8501 89.2184 60.1001 89.9942 60.1001H105.911C106.662 60.1001 107.438 60.8501 107.438 61.6001C107.438 62.3501 106.687 63.1001 105.911 63.1001ZM105.911 53.8501H102.633C101.882 53.8501 101.106 53.1001 101.106 52.3501C101.106 51.6001 101.857 50.8501 102.633 50.8501H105.911C106.662 50.8501 107.438 51.6001 107.438 52.3501C107.438 53.1001 106.687 53.8501 105.911 53.8501ZM105.911 22.6001H77.3559C76.6051 22.6001 75.8293 21.8501 75.8293 21.1001C75.8293 20.3501 76.5801 19.3501 77.3559 19.3501H105.911C106.662 19.3501 107.438 20.1001 107.438 20.8501C107.438 21.6001 106.687 22.6001 105.911 22.6001ZM105.911 13.1001H77.3559C76.6051 13.1001 75.8293 12.3501 75.8293 11.6001C75.8293 10.8501 76.5801 10.1001 77.3559 10.1001H105.911C106.662 10.1001 107.438 10.8501 107.438 11.6001C107.438 12.3501 106.687 13.1001 105.911 13.1001Z" fill="white" style="fill:white;fill-opacity:1;"/>
<path d="M60.1639 0.600098H15.6669C13.89 0.600098 12.6387 1.8501 12.6387 3.6001V72.6001C12.6387 74.3501 13.89 75.6001 15.6669 75.6001H63.1921V3.6001C63.1921 1.8501 61.6655 0.600098 60.1639 0.600098ZM39.442 63.1001H23.5252C22.7744 63.1001 21.9986 62.3501 21.9986 61.6001C21.9986 60.8501 22.7494 60.1001 23.5252 60.1001H39.442C40.1928 60.1001 40.9686 60.8501 40.9686 61.6001C40.9686 62.3501 40.2178 63.1001 39.442 63.1001ZM21.9986 52.1001C21.9986 51.3501 22.7494 50.6001 23.5252 50.6001H26.8036C27.5544 50.6001 28.3303 51.3501 28.3303 52.1001C28.3303 52.8501 27.5795 53.6001 26.8036 53.6001H23.5252C22.7744 53.8501 21.9986 53.1001 21.9986 52.1001ZM52.0553 63.1001H48.7769C48.0261 63.1001 47.2502 62.3501 47.2502 61.6001C47.2502 60.8501 48.001 60.1001 48.7769 60.1001H52.0553C52.8061 60.1001 53.5819 60.8501 53.5819 61.6001C53.5819 62.3501 52.8311 63.1001 52.0553 63.1001ZM52.0553 53.8501H36.1385C35.3877 53.8501 34.6119 53.1001 34.6119 52.3501C34.6119 51.6001 35.3627 50.8501 36.1385 50.8501H52.0553C52.8061 50.8501 53.5819 51.6001 53.5819 52.3501C53.5819 53.1001 52.8311 53.8501 52.0553 53.8501ZM52.0553 31.8501H36.1385C35.3877 31.8501 34.6119 31.1001 34.6119 30.3501C34.6119 29.6001 35.3627 28.8501 36.1385 28.8501H52.0553C52.8061 28.8501 53.5819 29.6001 53.5819 30.3501C53.5819 31.1001 52.8311 31.8501 52.0553 31.8501ZM52.0553 22.6001H23.7504C22.9996 22.6001 22.2238 21.8501 22.2238 21.1001C22.2238 20.3501 22.9746 19.6001 23.7504 19.6001H52.0553C52.8061 19.6001 53.5819 20.3501 53.5819 21.1001C53.5819 21.8501 52.8311 22.6001 52.0553 22.6001ZM52.0553 13.1001H23.7504C22.9996 13.1001 22.2238 12.3501 22.2238 11.6001C22.2238 10.8501 22.9746 10.1001 23.7504 10.1001H52.0553C52.8061 10.1001 53.5819 10.8501 53.5819 11.6001C53.5819 12.3501 52.8311 13.1001 52.0553 13.1001Z" fill="white" style="fill:white;fill-opacity:1;"/>
<path d="M85.1895 89.6001V100.6H97.8028V89.6001V88.1001H85.1895V89.6001Z" fill="white" style="fill:white;fill-opacity:1;"/>
<path d="M126.383 13.1001H120.076V72.6001C120.076 76.1001 117.298 78.8501 113.769 78.8501H66.2441V88.3501H82.161V86.8501C82.161 86.1001 82.9118 85.3501 83.6876 85.3501H99.6044C100.355 85.3501 101.131 86.1001 101.131 86.8501V88.3501H126.408C128.185 88.3501 129.436 87.1001 129.436 85.3501V16.1001C129.436 14.3501 128.185 13.1001 126.408 13.1001H126.383Z" fill="white" style="fill:white;fill-opacity:1;"/>
<path d="M9.35989 72.6001V13.1001H3.0282C1.25132 13.1001 0 14.3501 0 16.1001V85.1001C0 86.8501 1.27635 88.1001 3.0282 88.1001H63.1918V78.6001H15.6666C12.1378 78.8501 9.35989 75.8501 9.35989 72.6001Z" fill="white" style="fill:white;fill-opacity:1;"/>
</g>
<defs>
<clipPath id="clip0_6279_4827">
<rect width="129.412" height="100" fill="white" style="fill:white;fill-opacity:1;" transform="translate(0 0.600098)"/>
</clipPath>
</defs>
</svg>
