<svg width="112" height="116" viewBox="0 0 112 116" fill="none" xmlns="http://www.w3.org/2000/svg">
<g clip-path="url(#clip0_6279_4893)">
<path d="M8.31836 21.9769V76.0544C8.31836 81.6196 12.8577 86.1071 18.4751 86.1071H54.5375V98.7193C54.5375 98.9298 54.5375 99.3592 54.748 99.5697C53.0215 99.9991 51.514 101.498 51.514 103.417V111.542C51.514 113.681 53.2405 115.6 55.6155 115.6C57.9904 115.6 59.7169 113.891 59.7169 111.542V103.417C59.7169 101.708 58.6389 100.21 56.9124 99.5697C57.123 99.3592 57.123 98.9298 57.123 98.5004V85.8882H92.7558C98.3732 85.8882 102.904 81.4007 102.904 75.8439V21.9769H8.31836ZM34.2745 78.7991C33.306 78.9422 32.3206 78.9928 31.3521 79.1022C30.7036 79.178 30.5015 78.9338 30.5099 78.2855C30.5352 73.7812 30.5184 69.2768 30.5184 64.7725V29.7227C30.5184 28.6113 30.5184 28.6113 31.6722 28.6618C43.3869 29.2091 53.3416 37.9484 55.3797 49.4829C57.8473 63.4001 48.2716 76.7111 34.2745 78.7991ZM68.4588 69.1758C67.5829 69.3863 66.6818 69.4789 65.7891 69.5968C65.1322 69.6809 64.9132 69.521 64.9132 68.7969C64.9553 63.88 64.9385 58.9715 64.9385 54.0546V39.5649C64.9385 38.7959 65.3203 38.4451 66.0838 38.5125C73.2171 39.1355 78.9693 44.4481 80.1399 51.4951C81.479 59.5272 76.3501 67.2898 68.4588 69.1758Z" fill="white" style="fill:white;fill-opacity:1;"/>
<path d="M107.014 11.2843H61.0134C60.3649 11.2843 59.7165 10.6444 59.7165 10.0045V4.65823C59.7165 2.51971 57.99 0.600098 55.615 0.600098C53.24 0.600098 51.5136 2.30923 51.5136 4.65823V10.0045C51.5136 10.6444 50.8651 11.2843 50.2166 11.2843H4.43543C2.27943 11.2843 0.333984 12.9934 0.333984 15.3424C0.333984 17.6914 2.06046 19.4005 4.43543 19.4005H107.224C109.38 19.4005 111.326 17.6914 111.326 15.3424C111.326 12.9934 109.17 11.2843 107.005 11.2843H107.014Z" fill="white" style="fill:white;fill-opacity:1;"/>
</g>
<defs>
<clipPath id="clip0_6279_4893">
<rect width="111" height="115" fill="white" style="fill:white;fill-opacity:1;" transform="translate(0.333984 0.600098)"/>
</clipPath>
</defs>
</svg>
