<svg width="202" height="178" viewBox="0 0 202 178" fill="none" xmlns="http://www.w3.org/2000/svg">
<path d="M200.454 82.5668C200.298 60.0413 179.555 41.8413 154 41.8669C128.445 41.8926 107.749 60.1435 107.652 82.6599L200.443 82.5668L200.454 82.5668Z" stroke="#D4512E" style="stroke:#D4512E;stroke:color(display-p3 0.8314 0.3176 0.1804);stroke-opacity:1;" stroke-width="1.4321"/>
<path d="M200.348 1.00011C200.251 23.5258 179.555 41.7674 154 41.7931C128.445 41.8187 107.702 23.6094 107.547 1.09326L200.338 1.00012L200.348 1.00011Z" stroke="#D4512E" style="stroke:#D4512E;stroke:color(display-p3 0.8314 0.3176 0.1804);stroke-opacity:1;" stroke-width="1.4321"/>
<path d="M108.098 176.933C133.621 176.822 154.267 158.536 154.267 135.983C154.267 113.429 133.611 95.1433 108.098 95.032V176.924V176.933Z" stroke="#D4512E" style="stroke:#D4512E;stroke:color(display-p3 0.8314 0.3176 0.1804);stroke-opacity:1;" stroke-width="1.4321"/>
<path d="M200.521 176.933C174.998 176.822 154.352 158.536 154.352 135.983C154.352 113.429 175.009 95.1433 200.521 95.032V176.924V176.933Z" stroke="#D4512E" style="stroke:#D4512E;stroke:color(display-p3 0.8314 0.3176 0.1804);stroke-opacity:1;" stroke-width="1.4321"/>
<path d="M93.9047 82.5668C93.7495 60.0413 73.0066 41.8413 47.4516 41.8669C21.8966 41.8926 1.20064 60.1435 1.10352 82.6599L93.8942 82.5668L93.9047 82.5668Z" stroke="#D4512E" style="stroke:#D4512E;stroke:color(display-p3 0.8314 0.3176 0.1804);stroke-opacity:1;" stroke-width="1.4321"/>
<path d="M93.8012 1.00011C93.7041 23.5258 73.0081 41.7674 47.4531 41.7931C21.8981 41.8187 1.15516 23.6094 1 1.09326L93.7906 1.00012L93.8012 1.00011Z" stroke="#D4512E" style="stroke:#D4512E;stroke:color(display-p3 0.8314 0.3176 0.1804);stroke-opacity:1;" stroke-width="1.4321"/>
<path d="M1.55078 176.933C27.0743 176.822 47.7201 158.536 47.7201 135.983C47.7201 113.429 27.0638 95.1433 1.55078 95.032V176.924V176.933Z" stroke="#D4512E" style="stroke:#D4512E;stroke:color(display-p3 0.8314 0.3176 0.1804);stroke-opacity:1;" stroke-width="1.4321"/>
<path d="M93.9766 176.933C68.4531 176.822 47.8072 158.536 47.8072 135.983C47.8072 113.429 68.4636 95.1433 93.9766 95.032V176.924V176.933Z" stroke="#D4512E" style="stroke:#D4512E;stroke:color(display-p3 0.8314 0.3176 0.1804);stroke-opacity:1;" stroke-width="1.4321"/>
</svg>
