<svg width="213" height="201" viewBox="0 0 213 201" fill="none" xmlns="http://www.w3.org/2000/svg">
<path d="M211.841 93.7207C211.677 68.3912 189.854 47.9256 162.969 47.9544C136.083 47.9832 114.309 68.5061 114.207 93.8254L211.829 93.7207L211.841 93.7207Z" stroke="#DDEAE3" style="stroke:#DDEAE3;stroke:color(display-p3 0.8667 0.9176 0.8902);stroke-opacity:1;" stroke-width="2.12366"/>
<path d="M211.727 1.99999C211.625 27.3298 189.851 47.8422 162.966 47.871C136.08 47.8999 114.257 27.4238 114.094 2.10474L211.716 2L211.727 1.99999Z" stroke="#DDEAE3" style="stroke:#DDEAE3;stroke:color(display-p3 0.8667 0.9176 0.8902);stroke-opacity:1;" stroke-width="2.12366"/>
<path d="M114.676 199.834C141.528 199.708 163.249 179.146 163.249 153.785C163.249 128.424 141.517 107.862 114.676 107.737V199.823V199.834Z" stroke="#DDEAE3" style="stroke:#DDEAE3;stroke:color(display-p3 0.8667 0.9176 0.8902);stroke-opacity:1;" stroke-width="2.12366"/>
<path d="M211.91 199.834C185.058 199.708 163.337 179.146 163.337 153.785C163.337 128.424 185.069 107.862 211.91 107.737V199.823V199.834Z" stroke="#DDEAE3" style="stroke:#DDEAE3;stroke:color(display-p3 0.8667 0.9176 0.8902);stroke-opacity:1;" stroke-width="2.12366"/>
<path d="M99.7429 93.7207C99.5796 68.3912 77.7566 47.9256 50.8709 47.9544C23.9851 47.9832 2.21156 68.5061 2.10938 93.8254L99.7318 93.7207L99.7429 93.7207Z" stroke="#DDEAE3" style="stroke:#DDEAE3;stroke:color(display-p3 0.8667 0.9176 0.8902);stroke-opacity:1;" stroke-width="2.12366"/>
<path d="M99.6335 2.01226C99.5354 27.342 77.765 47.8517 50.8793 47.8772C23.9936 47.9026 2.16729 27.4238 2 2.10474L99.6224 2.01227L99.6335 2.01226Z" stroke="#DDEAE3" style="stroke:#DDEAE3;stroke:color(display-p3 0.8667 0.9176 0.8902);stroke-opacity:1;" stroke-width="2.12366"/>
<path d="M2.58008 199.834C29.4326 199.708 51.1535 179.146 51.1535 153.785C51.1535 128.424 29.4216 107.862 2.58008 107.737V199.823V199.834Z" stroke="#DDEAE3" style="stroke:#DDEAE3;stroke:color(display-p3 0.8667 0.9176 0.8902);stroke-opacity:1;" stroke-width="2.12366"/>
<path d="M99.8164 199.834C72.9639 199.708 51.243 179.146 51.243 153.785C51.243 128.424 72.9749 107.862 99.8164 107.737V199.823V199.834Z" stroke="#DDEAE3" style="stroke:#DDEAE3;stroke:color(display-p3 0.8667 0.9176 0.8902);stroke-opacity:1;" stroke-width="2.12366"/>
</svg>
