<svg width="135" height="100" viewBox="0 0 135 100" fill="none" xmlns="http://www.w3.org/2000/svg">
<g clip-path="url(#clip0_6483_6717)">
<path d="M59.6606 18.4019C56.973 18.4019 55.0117 20.5811 55.0117 23.0024V30.5085C55.2538 30.5085 55.496 30.5085 55.496 30.7506C55.7381 30.7506 55.9802 30.9927 55.9802 30.9927C56.2224 30.9927 56.4645 31.2348 56.4645 31.2348C56.7066 31.2348 56.9488 31.477 56.9488 31.477C57.1909 31.477 57.1909 31.7191 57.433 31.7191C57.6752 31.7191 57.6752 31.9612 57.9173 32.2034C58.0787 32.3648 58.2401 32.5262 58.4016 32.6876C58.563 32.8491 58.7244 33.0105 58.8858 33.1719C59.0472 33.3333 59.1279 33.4947 59.1279 33.6562C59.1279 33.8983 59.3701 33.8983 59.3701 34.1404C59.3701 34.3825 59.6122 34.3825 59.6122 34.6247C59.6122 34.8668 59.8543 34.8668 59.8543 35.1089C59.8543 35.3511 60.0965 35.5932 60.0965 35.5932C60.0965 35.8353 60.0965 36.0775 60.3386 36.0775V36.5617V65.8595H69.6364V23.0024C69.6364 20.339 67.6752 18.4019 64.9875 18.4019H59.6122H59.6606Z" fill="#D4512E" style="fill:#D4512E;fill:color(display-p3 0.8314 0.3176 0.1804);fill-opacity:1;"/>
<path d="M134.504 78.9346V11.8644C134.504 8.71672 132.058 6.29541 128.862 6.29541H85.5932V66.8281H102.47C103.196 66.8281 103.923 67.5545 103.923 68.2809C103.923 69.0073 103.196 69.7337 102.47 69.7337H25.9322C25.1816 69.7337 24.4552 69.0073 24.4552 68.2809C24.4552 67.5545 25.1816 66.8281 25.9322 66.8281H39.6126V38.2567C39.6126 33.8983 43.0508 30.5085 47.4334 30.5085H51.8402V23.0024C51.8402 18.6441 55.2542 15.2543 59.661 15.2543H64.0678V6.05328H5.61743C2.44552 6.05328 0 8.47459 0 11.6223V78.6925H9.29782V16.9492C9.29782 16.2228 10.0242 15.4964 10.7506 15.4964H38.4019C39.1283 15.4964 39.8547 16.2228 39.8547 16.9492C39.8547 17.6756 39.1283 18.402 38.4019 18.402H12.2276V78.9346H19.8063C20.5327 78.9346 21.2833 79.661 21.2833 80.3874C21.2833 81.1138 20.5327 81.8402 19.8063 81.8402H0V94.431C0 97.5787 2.44552 100 5.61743 100H128.62C131.816 100 134.262 97.5787 134.262 94.431V81.8402H38.1598C37.4092 81.8402 36.6828 81.1138 36.6828 80.3874C36.6828 79.661 37.4092 78.9346 38.1598 78.9346H122.276V18.402H96.3438C95.6174 18.402 94.891 17.6756 94.891 16.9492C94.891 16.2228 95.6174 15.4964 96.3438 15.4964H123.971C124.722 15.4964 125.448 16.2228 125.448 16.9492V78.9346H134.504ZM65.5448 86.4407C67.4818 86.4407 68.9588 87.8935 68.9588 89.8305C68.9588 91.7676 67.4818 93.2204 65.5448 93.2204C63.6077 93.2204 62.1065 91.7676 62.1065 89.8305C62.3487 87.8935 63.8257 86.4407 65.5448 86.4407ZM110.533 67.3124C110.775 67.0702 111.259 66.8281 111.501 66.8281C112.01 66.8281 112.252 67.0702 112.494 67.3124C112.736 67.5545 112.978 68.0388 112.978 68.2809C112.978 68.7652 112.736 69.0073 112.494 69.2494C112.252 69.4915 111.743 69.7337 111.501 69.7337C111.017 69.7337 110.775 69.4915 110.533 69.2494C110.291 69.0073 110.048 68.523 110.048 68.2809C110.048 68.0388 110.291 67.5545 110.533 67.3124Z" fill="#D4512E" style="fill:#D4512E;fill:color(display-p3 0.8314 0.3176 0.1804);fill-opacity:1;"/>
<path d="M47.4331 33.6562C44.7454 33.6562 42.7842 35.8354 42.7842 38.2567V66.8281H58.1837V38.2567C58.1837 35.5932 56.2224 33.6562 53.5348 33.6562H47.4331Z" fill="#D4512E" style="fill:#D4512E;fill:color(display-p3 0.8314 0.3176 0.1804);fill-opacity:1;"/>
<path d="M67.9897 15.7385C68.2318 15.7385 68.4739 15.9806 68.7161 15.9806C68.9582 15.9806 69.2003 16.2228 69.2003 16.2228C69.4424 16.2228 69.6846 16.4649 69.6846 16.4649C69.9267 16.4649 69.9267 16.707 70.1688 16.707C70.411 16.707 70.411 16.9492 70.6531 17.1913C70.8145 17.3527 70.9759 17.5141 71.1374 17.6755C71.2988 17.837 71.4602 17.9984 71.6216 18.1598C71.783 18.3212 71.8638 18.4826 71.8638 18.6441C71.8638 18.8862 72.1059 18.8862 72.1059 19.1283C72.1059 19.3705 72.348 19.3705 72.348 19.6126C72.348 19.8547 72.5901 19.8547 72.5901 20.0969C72.5901 20.339 72.8323 20.5811 72.8323 20.5811C72.8323 20.8232 72.8323 21.0654 73.0744 21.0654V21.5496V66.1017H82.3722V4.60048C82.3722 1.93705 80.1688 0 77.7233 0H71.8638C69.1761 0 67.2148 1.93705 67.2148 4.60048V4.84262V15.4964C67.457 15.4964 67.6991 15.7385 67.9412 15.7385H67.9897Z" fill="#D4512E" style="fill:#D4512E;fill:color(display-p3 0.8314 0.3176 0.1804);fill-opacity:1;"/>
</g>
<defs>
<clipPath id="clip0_6483_6717">
<rect width="134.504" height="100" fill="white" style="fill:white;fill-opacity:1;"/>
</clipPath>
</defs>
</svg>
