<svg width="156" height="100" viewBox="0 0 156 100" fill="none" xmlns="http://www.w3.org/2000/svg">
<g clip-path="url(#clip0_6483_7056)">
<path d="M152.837 54.9921V26.8789L148.543 28.3336V54.9921H152.837Z" fill="#D4512E" style="fill:#D4512E;fill:color(display-p3 0.8314 0.3176 0.1804);fill-opacity:1;"/>
<path d="M127.019 43.6034L78.9213 59.911C78.4804 60.0633 78.0135 60.1375 77.5506 60.1375C77.0877 60.1375 76.6168 60.0633 76.1759 59.911L28.0806 43.6034V83.9348H28.1307L28.0225 84.4898C28.0225 89.2885 50.1995 100 77.5226 100C104.846 100 126.963 89.2885 126.963 84.4898L126.85 83.9348H127.021V43.6034H127.019Z" fill="#D4512E" style="fill:#D4512E;fill:color(display-p3 0.8314 0.3176 0.1804);fill-opacity:1;"/>
<path d="M28.0785 35.6349L77.5506 52.4074L127.019 35.6349L148.542 28.3336L152.837 26.8789L155.097 26.1115L77.5506 0L0 26.1115L28.0785 35.6349Z" fill="#D4512E" style="fill:#D4512E;fill:color(display-p3 0.8314 0.3176 0.1804);fill-opacity:1;"/>
<path d="M145.619 61.5801V77.994C145.619 80.7951 147.888 83.0632 150.691 83.0632C153.494 83.0632 155.761 80.7931 155.761 77.994V61.5801C155.761 60.1936 155.202 58.9373 154.302 58.0236H147.082C146.18 58.9373 145.619 60.1936 145.619 61.5801Z" fill="#D4512E" style="fill:#D4512E;fill:color(display-p3 0.8314 0.3176 0.1804);fill-opacity:1;"/>
<path d="M146.432 54.9921V58.0216H147.079H154.301H154.944V54.9921H152.836H148.542H146.432Z" fill="#D4512E" style="fill:#D4512E;fill:color(display-p3 0.8314 0.3176 0.1804);fill-opacity:1;"/>
</g>
<defs>
<clipPath id="clip0_6483_7056">
<rect width="155.76" height="100" fill="white" style="fill:white;fill-opacity:1;"/>
</clipPath>
</defs>
</svg>
