<svg width="116" height="100" viewBox="0 0 116 100" fill="none" xmlns="http://www.w3.org/2000/svg">
<g clip-path="url(#clip0_6483_7232)">
<path d="M31.5889 38.4615H2.03867C0.399328 38.4615 0 38.8609 0 40.5002V97.0366C0 98.6549 1.32409 100 2.96343 100H30.6641C32.3035 100 33.6276 98.6549 33.6276 97.0366V40.5002C33.6276 38.8609 33.2282 38.4615 31.5889 38.4615ZM16.8138 52.8373C14.5229 52.8373 12.6734 50.9878 12.6734 48.6969C12.6734 46.4061 14.5229 44.5565 16.8138 44.5565C19.1047 44.5565 20.9542 46.4061 20.9542 48.6969C20.9542 50.9878 19.1047 52.8373 16.8138 52.8373Z" fill="#293832" style="fill:#293832;fill:color(display-p3 0.1608 0.2196 0.1961);fill-opacity:1;"/>
<path d="M16.814 49.9159C14.9014 49.9159 13.9346 47.4359 13.6193 46.6372C13.3882 46.0487 13.6824 45.3762 14.2709 45.145C14.8594 44.9138 15.5319 45.208 15.7631 45.7965C16.3726 47.3728 16.856 47.604 16.856 47.604C18.033 47.0786 20.3238 39.071 20.3238 24.9685C20.3238 10.8659 18.054 2.83731 16.7719 2.31187C15.595 2.83731 13.3041 10.8449 13.3041 24.9474C13.3041 29.1299 13.7665 35.3089 14.1868 39.008C14.2499 39.6385 13.8085 40.227 13.178 40.29C12.5475 40.3741 11.959 39.9117 11.8959 39.2812C11.4546 35.5401 10.9922 29.2349 10.9922 24.9685C10.9922 23.9596 11.0552 0.0209961 16.835 0.0209961C22.6147 0.0209961 22.6778 23.9596 22.6778 24.9895C22.6778 26.0193 22.6147 49.9369 16.835 49.9369L16.814 49.9159Z" fill="#293832" style="fill:#293832;fill:color(display-p3 0.1608 0.2196 0.1961);fill-opacity:1;"/>
<path d="M63.0941 38.4615H52.2702C52.2702 38.4615 40.8789 52.9214 40.8789 54.5607V97.0576C40.8789 98.6759 42.203 100.021 43.8423 100.021H71.5431C73.1824 100.021 74.5065 98.6759 74.5065 97.0576V54.5607C74.5065 52.9214 63.0941 38.4615 63.0941 38.4615ZM57.6717 52.8373C55.3808 52.8373 53.5313 50.9878 53.5313 48.6969C53.5313 46.4061 55.3808 44.5565 57.6717 44.5565C59.9626 44.5565 61.8121 46.4061 61.8121 48.6969C61.8121 50.9878 59.9626 52.8373 57.6717 52.8373Z" fill="#293832" style="fill:#293832;fill:color(display-p3 0.1608 0.2196 0.1961);fill-opacity:1;"/>
<path d="M57.6719 49.9159C55.7593 49.9159 54.7925 47.4359 54.4773 46.6372C54.2461 46.0488 54.5403 45.3762 55.1288 45.145C55.7173 44.9138 56.3898 45.2081 56.621 45.7966C57.2305 47.3728 57.7139 47.604 57.7139 47.604C58.8909 47.0786 61.1818 39.071 61.1818 24.9685C61.1818 10.8659 58.8909 2.83733 57.6088 2.3119C56.4319 2.83733 54.141 10.8659 54.141 24.9475C54.141 29.1089 54.6034 35.2879 55.0237 39.008C55.1078 39.6385 54.6454 40.227 54.0149 40.29C53.3844 40.3741 52.7959 39.9117 52.7328 39.2602C52.2915 35.4981 51.8291 29.1929 51.8291 24.9475C51.8291 23.9386 51.8922 0 57.6719 0C63.4516 0 63.5147 23.9386 63.5147 24.9685C63.5147 25.9983 63.4516 49.9159 57.6719 49.9159Z" fill="#293832" style="fill:#293832;fill:color(display-p3 0.1608 0.2196 0.1961);fill-opacity:1;"/>
<path d="M98.5501 38.4615C89.2605 38.4615 81.7363 45.9857 81.7363 55.2753V97.6461C81.7363 98.9491 82.7872 100 84.0692 100H113.031C114.334 100 115.364 98.9491 115.364 97.6461V55.2753C115.364 45.9857 107.84 38.4615 98.5501 38.4615ZM98.5501 52.8373C96.3013 52.8373 94.4728 51.0088 94.4728 48.76C94.4728 46.5112 96.3013 44.6827 98.5501 44.6827C100.799 44.6827 102.627 46.5112 102.627 48.76C102.627 51.0088 100.799 52.8373 98.5501 52.8373Z" fill="#293832" style="fill:#293832;fill:color(display-p3 0.1608 0.2196 0.1961);fill-opacity:1;"/>
<path d="M98.5494 49.9159C96.6368 49.9159 95.67 47.4359 95.3547 46.6372C95.1235 46.0488 95.4178 45.3762 96.0063 45.145C96.5948 44.9138 97.2673 45.2081 97.4985 45.7966C98.108 47.3728 98.5914 47.604 98.5914 47.604C99.7684 47.0786 102.059 39.071 102.059 24.9685C102.059 10.8659 99.7684 2.83733 98.4863 2.3119C97.3093 2.83733 95.0185 10.8659 95.0185 24.9475C95.0185 29.0878 95.4808 35.2669 95.9012 39.008C95.9853 39.6385 95.5229 40.227 94.8713 40.29C94.2198 40.3741 93.6523 39.9117 93.5893 39.2602C93.1479 35.4771 92.6855 29.1719 92.6855 24.9475C92.6855 23.9386 92.7486 0 98.5283 0C104.308 0 104.371 23.9386 104.371 24.9685C104.371 25.9983 104.308 49.9159 98.5283 49.9159H98.5494Z" fill="#293832" style="fill:#293832;fill:color(display-p3 0.1608 0.2196 0.1961);fill-opacity:1;"/>
</g>
<defs>
<clipPath id="clip0_6483_7232">
<rect width="115.364" height="100" fill="white" style="fill:white;fill-opacity:1;"/>
</clipPath>
</defs>
</svg>
