<svg width="65" height="100" viewBox="0 0 65 100" fill="none" xmlns="http://www.w3.org/2000/svg">
<g clip-path="url(#clip0_6483_6382)">
<path d="M62.6571 0H2.10057C0.972484 0 0 0.960885 0 2.07707V97.9229C0 99.0391 0.972484 100 2.10057 100H62.8127C63.9505 100 64.7577 99.0391 64.7577 97.9229V2.07707C64.7577 0.805591 63.7852 0 62.6571 0ZM60.7122 95.6809H4.04553V83.7038H60.7122V95.6809ZM60.7122 79.8699H4.04553V19.9651H60.7122V79.8699ZM60.7122 15.9759H4.04553V3.99884H60.7122V15.9759Z" fill="#D4512E" style="fill:#D4512E;fill:color(display-p3 0.8314 0.3176 0.1804);fill-opacity:1;"/>
<path d="M50.9967 34.3493C41.126 23.003 23.6408 23.003 13.9257 34.3493C6.31111 43.2884 6.15551 56.3914 13.9257 65.3305C23.6408 76.6767 41.2816 76.5117 50.9967 65.3305C58.6113 56.3914 58.7669 43.2884 50.9967 34.3493ZM22.503 32.4275C21.8514 33.3884 21.3652 34.6696 20.7233 35.941C20.0718 35.6207 19.2646 35.4654 18.613 35.1451C19.7508 34.029 21.0442 33.0681 22.503 32.4275ZM15.8609 38.1831C16.9987 38.814 18.2921 39.2993 19.4299 39.7749C18.7784 42.3372 18.2921 45.0452 18.1365 47.9278H12.1363C12.6225 44.4143 13.9257 41.056 15.8609 38.1831ZM12.1363 51.917H18.1365C18.2921 54.7899 18.613 57.5076 19.4299 60.0602C18.2921 60.3805 16.9987 60.8658 15.8609 61.4967C13.7603 58.6237 12.6225 55.2752 12.1363 51.917ZM18.613 64.6996C19.2646 64.2143 20.0718 63.894 20.7233 63.7388C21.2096 65.0199 21.8514 66.2914 22.503 67.4076C21.0442 66.6117 19.7508 65.6508 18.613 64.6996ZM30.4384 69.3294C28.6588 68.5335 27.0347 66.932 25.576 64.3793C25.2551 63.7388 24.9342 63.2535 24.7689 62.6226C26.5485 62.1373 28.4935 61.982 30.4384 61.817V69.3294ZM30.4384 57.9832C27.8419 58.1482 25.576 58.4684 23.4755 58.944C22.8239 56.7117 22.503 54.4696 22.3376 51.917H30.4384V57.9832ZM30.4384 47.9278H22.3376C22.503 45.5305 22.8239 43.1331 23.4755 40.891C25.576 41.3763 27.8419 41.6966 30.4384 41.8519V47.9278ZM30.4384 37.8628C28.3281 37.6978 26.5485 37.5425 24.7689 37.0572C25.0898 36.4263 25.4204 35.7857 25.576 35.3004C26.8791 32.9128 28.6588 31.1463 30.4384 30.3504V37.8628ZM52.4555 47.7628L46.465 47.9278C46.2996 45.0452 45.9787 42.3372 45.1716 39.7749C46.2997 39.2993 47.5931 38.814 48.7309 38.1831C50.8412 41.056 51.9692 44.4143 52.4555 47.7628ZM46.1441 34.9898C45.4925 35.4654 44.8409 35.7857 44.0338 35.941C43.5475 34.6696 42.9057 33.3884 42.2541 32.2722C43.7128 33.0681 45.0062 34.029 46.1441 34.9898ZM34.3186 30.3504C36.0983 31.1463 37.7223 32.7478 39.1811 35.3004C39.502 35.941 39.8229 36.4263 39.9882 37.0572C38.2086 37.5425 36.4289 37.6978 34.3186 37.8628V30.3504ZM34.3186 41.8519C36.7499 41.6966 39.1811 41.3763 41.2816 40.891C41.9332 43.1331 42.2541 45.3655 42.4194 47.9278H34.3186V41.8519ZM39.1811 64.3793C37.8877 66.7767 36.0983 68.5335 34.3186 69.3294V61.817C36.4289 61.982 38.2086 62.1373 39.9882 62.6226C39.6673 63.2535 39.3367 63.8941 39.1811 64.3793ZM34.3186 57.8279V51.7617H42.4194C42.2541 54.1493 41.9332 56.5467 41.2816 58.7887C39.1811 58.3034 36.9152 57.9832 34.3186 57.8279ZM42.2541 67.2523C42.9057 66.2914 43.3919 65.0199 44.0338 63.7388C44.6853 64.059 45.4925 64.2143 46.1441 64.5346C45.0062 65.6508 43.7128 66.6117 42.2541 67.2523ZM48.8962 61.4967C47.7584 60.8658 46.465 60.3805 45.3272 59.9049C45.9787 57.3523 46.465 54.6346 46.6303 51.7617H52.6208C52.1346 55.2752 50.8412 58.6237 48.8962 61.4967Z" fill="#D4512E" style="fill:#D4512E;fill:color(display-p3 0.8314 0.3176 0.1804);fill-opacity:1;"/>
<path d="M62.6571 0H2.10057C0.972484 0 0 0.960885 0 2.07707V97.9229C0 99.0391 0.972484 100 2.10057 100H62.8127C63.9505 100 64.7577 99.0391 64.7577 97.9229V2.07707C64.7577 0.805591 63.7852 0 62.6571 0ZM10.036 9.90974C10.036 8.94885 11.0085 7.98796 12.1366 7.98796C13.2647 7.98796 14.2469 8.78385 14.2469 9.90974C14.2469 11.0356 13.2744 11.9868 12.1366 11.9868C10.9988 11.9868 10.036 11.0259 10.036 9.90974ZM40.4748 11.9868H24.2829C23.1548 11.9868 22.1824 11.0259 22.1824 9.90974C22.1824 8.94885 23.1548 7.98796 24.2829 7.98796H40.4748C41.6029 7.98796 42.4198 8.78385 42.5753 9.90974C42.5753 11.0259 41.6029 11.9868 40.4748 11.9868ZM12.1366 91.6917V87.7026H16.1919V91.6917H12.1366ZM30.2734 89.6147C30.2734 88.4985 31.2459 87.5376 32.3837 87.5376C33.3465 87.5376 34.319 88.4985 34.319 89.6147C34.319 90.7309 33.5118 91.6917 32.3837 91.6917C31.2556 91.6917 30.2734 90.7309 30.2734 89.6147ZM52.6211 91.6917H48.5658V87.7026H52.6211V91.6917ZM60.7122 79.8699H4.04553V19.9651H60.7122V79.8699ZM50.9971 65.3305C58.6116 56.3913 58.7672 43.2884 50.9971 34.3492C41.1263 23.003 23.6411 23.003 13.926 34.3492C6.31142 43.2884 6.15582 56.3913 13.926 65.3305C23.6411 76.6767 41.2819 76.5117 50.9971 65.3305ZM42.2544 67.2523C42.906 66.2914 43.3922 65.0199 44.0341 63.7387C44.6856 64.059 45.4928 64.2143 46.1444 64.5346C45.0066 65.6508 43.7132 66.6117 42.2544 67.2523ZM48.8965 61.4967C47.7587 60.8658 46.4653 60.3805 45.3275 59.9049C45.979 57.3522 46.4653 54.6346 46.6306 51.7616H52.6211C52.1349 55.2752 50.8415 58.6237 48.8965 61.4967ZM52.4558 47.7628L46.4653 47.9278C46.3 45.0451 45.979 42.3372 45.1719 39.7748C46.3 39.2992 47.5934 38.8139 48.7312 38.1831C50.8415 41.056 51.9695 44.4142 52.4558 47.7628ZM46.1444 34.9898C45.4928 35.4654 44.8412 35.7857 44.0341 35.941C43.5478 34.6695 42.906 33.3883 42.2544 32.2722C43.7132 33.068 45.0066 34.0289 46.1444 34.9898ZM34.319 30.3504C36.0986 31.1463 37.7227 32.7477 39.1814 35.3004C39.5023 35.941 39.8232 36.4263 39.9885 37.0572C38.2089 37.5425 36.4293 37.6978 34.319 37.8628V30.3504ZM34.319 41.8519C36.7502 41.6966 39.1814 41.3763 41.2819 40.891C41.9335 43.1331 42.2544 45.3654 42.4198 47.9278H34.319V41.8519ZM34.319 51.7616H42.4198C42.2544 54.1493 41.9335 56.5466 41.2819 58.7887C39.1814 58.3034 36.9155 57.9831 34.319 57.8278V51.7616ZM34.319 61.8169C36.4293 61.9819 38.2089 62.1372 39.9885 62.6225C39.6676 63.2534 39.337 63.894 39.1814 64.3793C37.888 66.7767 36.0986 68.5334 34.319 69.3293V61.8169ZM18.6133 64.6996C19.2649 64.2143 20.0721 63.894 20.7236 63.7387C21.2099 65.0199 21.8517 66.2914 22.5033 67.4076C21.0446 66.6117 19.7511 65.6508 18.6133 64.6996ZM30.4387 69.3293C28.6591 68.5334 27.0351 66.932 25.5763 64.3793C25.2554 63.7387 24.9345 63.2534 24.7692 62.6225C26.5488 62.1372 28.4938 61.9819 30.4387 61.8169V69.3293ZM30.4387 57.9831C27.8422 58.1481 25.5763 58.4684 23.4758 58.944C22.8242 56.7116 22.5033 54.4696 22.338 51.9169H30.4387V57.9831ZM25.5763 35.3004C26.8795 32.9127 28.6591 31.1463 30.4387 30.3504V37.8628C28.3285 37.6978 26.5488 37.5425 24.7692 37.0572C25.0901 36.4263 25.4207 35.7857 25.5763 35.3004ZM30.4387 41.8519V47.9278H22.338C22.5033 45.5304 22.8242 43.1331 23.4758 40.891C25.5763 41.3763 27.8422 41.6966 30.4387 41.8519ZM22.5033 32.4274C21.8517 33.3883 21.3655 34.6695 20.7236 35.941C20.0721 35.6207 19.2649 35.4654 18.6133 35.1451C19.7511 34.0289 21.0446 33.068 22.5033 32.4274ZM15.8612 38.1831C16.999 38.8139 18.2924 39.2992 19.4302 39.7748C18.7787 42.3372 18.2924 45.0451 18.1368 47.9278H12.1366C12.6228 44.4143 13.926 41.056 15.8612 38.1831ZM18.1368 51.9169C18.2924 54.7899 18.6133 57.5075 19.4302 60.0602C18.2924 60.3805 16.999 60.8658 15.8612 61.4967C13.7606 58.6237 12.6228 55.2752 12.1366 51.9169H18.1368Z" fill="#D4512E" style="fill:#D4512E;fill:color(display-p3 0.8314 0.3176 0.1804);fill-opacity:1;"/>
</g>
<defs>
<clipPath id="clip0_6483_6382">
<rect width="64.7577" height="100" fill="white" style="fill:white;fill-opacity:1;"/>
</clipPath>
</defs>
</svg>
