<svg width="120" height="100" viewBox="0 0 120 100" fill="none" xmlns="http://www.w3.org/2000/svg">
<g clip-path="url(#clip0_6483_7327)">
<path d="M23.3349 17.2674H16.583C7.43613 17.2446 0 24.5438 0 33.5083V83.7592C0 92.4271 6.9115 99.5438 15.8075 100H26.2318V17.2674H23.3349ZM23.3349 97.1032H15.8759C8.59945 96.7382 2.8969 90.876 2.8969 83.7592V33.5083C2.8969 26.323 8.7135 20.438 16.0128 20.1415H23.3349V97.1032Z" fill="#293832" style="fill:#293832;fill:color(display-p3 0.1608 0.2196 0.1961);fill-opacity:1;"/>
<path d="M33.4851 17.2673L33.3711 17.792H41.2862L41.4459 17.2673H33.4851ZM85.8574 17.2673H77.9194L78.0563 17.792H85.9715L85.8574 17.2673ZM69.5709 0H49.7716C42.5408 0 36.1767 6.06752 33.987 14.8951H36.9751C38.9824 7.75547 44.0691 2.87409 49.7716 2.87409H69.5709C75.2735 2.87409 80.3601 7.75547 82.3674 14.8951H85.3556C83.1658 6.06752 76.7789 0 69.5709 0ZM69.5709 5.72536H49.7716C45.1184 5.72536 41.0353 9.30657 39.1193 14.8951H42.2215C43.8182 11.063 46.6923 8.62226 49.7716 8.62226H69.5709C72.6275 8.62226 75.5244 11.063 77.1211 14.8951H80.2005C78.3072 9.30657 74.2242 5.72536 69.5709 5.72536Z" fill="#293832" style="fill:#293832;fill:color(display-p3 0.1608 0.2196 0.1961);fill-opacity:1;"/>
<path d="M31.9346 17.2673V100H87.3862V17.2673H31.9346ZM84.5121 97.1031H34.8315V20.1642H84.5121V97.1031Z" fill="#293832" style="fill:#293832;fill:color(display-p3 0.1608 0.2196 0.1961);fill-opacity:1;"/>
<path d="M103.467 17.2673H93.1113V100H103.604C112.432 99.5438 119.343 92.427 119.343 83.7591V33.5082C119.343 24.8175 112.386 17.6779 103.467 17.2673ZM116.446 83.7591C116.446 90.8759 110.766 96.7153 103.49 97.1031H96.0082V20.1642H103.399C110.721 20.5064 116.446 26.3686 116.446 33.5082V83.7591Z" fill="#293832" style="fill:#293832;fill:color(display-p3 0.1608 0.2196 0.1961);fill-opacity:1;"/>
<path d="M26.2318 17.2673V100H15.8075C6.9115 99.5438 0 92.427 0 83.7591V33.5082C0 24.5438 7.43613 17.2445 16.583 17.2445H23.3349L26.2318 17.2673Z" fill="#293832" style="fill:#293832;fill:color(display-p3 0.1608 0.2196 0.1961);fill-opacity:1;"/>
<path d="M42.9058 33.782C44.2286 33.782 45.3009 32.7097 45.3009 31.3869C45.3009 30.0641 44.2286 28.9918 42.9058 28.9918C41.5831 28.9918 40.5107 30.0641 40.5107 31.3869C40.5107 32.7097 41.5831 33.782 42.9058 33.782Z" fill="#293832" style="fill:#293832;fill:color(display-p3 0.1608 0.2196 0.1961);fill-opacity:1;"/>
<path d="M63.8917 28.5584L62.7968 31.4553L72.149 34.9909L73.2439 32.094L63.8917 28.5584ZM63.8917 28.5584L62.7968 31.4553L72.149 34.9909L73.2439 32.094L63.8917 28.5584ZM50.9127 47.354L41.3096 51.3686L42.6326 54.5392L52.2585 50.5018L50.9127 47.354ZM63.8917 28.5584L62.7968 31.4553L72.149 34.9909L73.2439 32.094L63.8917 28.5584ZM63.8917 28.5584L62.7968 31.4553L72.149 34.9909L73.2439 32.094L63.8917 28.5584ZM50.9127 47.354L41.3096 51.3686L42.6326 54.5392L52.2585 50.5018L50.9127 47.354ZM50.9127 47.354L41.3096 51.3686L42.6326 54.5392L52.2585 50.5018L50.9127 47.354ZM63.8917 28.5584L62.7968 31.4553L72.149 34.9909L73.2439 32.094L63.8917 28.5584ZM72.2174 66.9024C69.4118 66.9024 67.1307 69.1834 67.1307 71.989C67.1307 74.7947 69.4118 77.0985 72.2174 77.0985C75.0231 77.0985 77.3269 74.7947 77.3269 71.989C77.3269 69.1834 75.0459 66.9024 72.2174 66.9024ZM72.2174 66.9024C69.4118 66.9024 67.1307 69.1834 67.1307 71.989C67.1307 74.7947 69.4118 77.0985 72.2174 77.0985C75.0231 77.0985 77.3269 74.7947 77.3269 71.989C77.3269 69.1834 75.0459 66.9024 72.2174 66.9024ZM63.8917 28.5584L62.7968 31.4553L72.149 34.9909L73.2439 32.094L63.8917 28.5584ZM50.9127 47.354L41.3096 51.3686L42.6326 54.5392L52.2585 50.5018L50.9127 47.354ZM50.9127 47.354L41.3096 51.3686L42.6326 54.5392L52.2585 50.5018L50.9127 47.354ZM63.8917 28.5584L62.7968 31.4553L72.149 34.9909L73.2439 32.094L63.8917 28.5584ZM72.2174 66.9024C69.4118 66.9024 67.1307 69.1834 67.1307 71.989C67.1307 74.7947 69.4118 77.0985 72.2174 77.0985C75.0231 77.0985 77.3269 74.7947 77.3269 71.989C77.3269 69.1834 75.0459 66.9024 72.2174 66.9024ZM72.2174 66.9024C69.4118 66.9024 67.1307 69.1834 67.1307 71.989C67.1307 74.7947 69.4118 77.0985 72.2174 77.0985C75.0231 77.0985 77.3269 74.7947 77.3269 71.989C77.3269 69.1834 75.0459 66.9024 72.2174 66.9024ZM63.8917 28.5584L62.7968 31.4553L72.149 34.9909L73.2439 32.094L63.8917 28.5584ZM50.9127 47.354L41.3096 51.3686L42.6326 54.5392L52.2585 50.5018L50.9127 47.354ZM50.9127 47.354L41.3096 51.3686L42.6326 54.5392L52.2585 50.5018L50.9127 47.354ZM63.8917 28.5584L62.7968 31.4553L72.149 34.9909L73.2439 32.094L63.8917 28.5584ZM72.2174 66.9024C69.4118 66.9024 67.1307 69.1834 67.1307 71.989C67.1307 74.7947 69.4118 77.0985 72.2174 77.0985C75.0231 77.0985 77.3269 74.7947 77.3269 71.989C77.3269 69.1834 75.0459 66.9024 72.2174 66.9024ZM72.2174 66.9024C69.4118 66.9024 67.1307 69.1834 67.1307 71.989C67.1307 74.7947 69.4118 77.0985 72.2174 77.0985C75.0231 77.0985 77.3269 74.7947 77.3269 71.989C77.3269 69.1834 75.0459 66.9024 72.2174 66.9024ZM63.8917 28.5584L62.7968 31.4553L72.149 34.9909L73.2439 32.094L63.8917 28.5584ZM50.9127 47.354L41.3096 51.3686L42.6326 54.5392L52.2585 50.5018L50.9127 47.354ZM31.9346 17.2673V100H87.3862V17.2673H31.9346ZM42.9063 36.6788C39.9866 36.6788 37.6143 34.3066 37.6143 31.3869C37.6143 28.4672 39.9866 26.1177 42.9063 26.1177C45.826 26.1177 48.1754 28.49 48.1754 31.3869C48.1754 34.2838 45.826 36.6788 42.9063 36.6788ZM49.8178 44.6852C51.2548 44.0922 52.9884 44.7993 53.5815 46.2363L54.9273 49.4069C55.5203 50.8896 54.836 52.5547 53.3762 53.1706L43.7503 57.208C43.3853 57.3449 43.0203 57.4361 42.6326 57.4361C41.4692 57.4361 40.42 56.729 39.9638 55.6569L38.6408 52.4863C38.0249 51.0036 38.732 49.3157 40.1919 48.7226L49.8178 44.6852ZM60.0824 30.4288L61.1773 27.5319C61.7247 26.0721 63.4583 25.2965 64.8953 25.844L74.2703 29.4024C75.753 29.9726 76.5057 31.615 75.9583 33.1204L74.8406 36.0173C74.43 37.135 73.3351 37.8878 72.149 37.8878C71.8068 37.8878 71.4647 37.8193 71.1225 37.6825L61.7475 34.1469C61.0404 33.8732 60.4702 33.3257 60.1508 32.6414C59.8315 31.9343 59.8087 31.1588 60.0824 30.4288ZM72.2174 79.9726C67.815 79.9726 64.2338 76.3914 64.2338 71.989C64.2338 67.5867 67.815 64.0055 72.2174 64.0055C76.6198 64.0055 80.2238 67.5867 80.2238 71.989C80.2238 76.3914 76.6426 79.9726 72.2174 79.9726ZM72.2174 66.9024C69.4118 66.9024 67.1307 69.1834 67.1307 71.989C67.1307 74.7947 69.4118 77.0985 72.2174 77.0985C75.0231 77.0985 77.3269 74.7947 77.3269 71.989C77.3269 69.1834 75.0459 66.9024 72.2174 66.9024ZM73.2439 32.094L63.8917 28.5584L62.7968 31.4553L72.149 34.9909L73.2439 32.094ZM52.2585 50.5018L50.9127 47.354L41.3096 51.3686L42.6326 54.5392L52.2585 50.5018ZM50.9127 47.354L41.3096 51.3686L42.6326 54.5392L52.2585 50.5018L50.9127 47.354ZM63.8917 28.5584L62.7968 31.4553L72.149 34.9909L73.2439 32.094L63.8917 28.5584ZM72.2174 66.9024C69.4118 66.9024 67.1307 69.1834 67.1307 71.989C67.1307 74.7947 69.4118 77.0985 72.2174 77.0985C75.0231 77.0985 77.3269 74.7947 77.3269 71.989C77.3269 69.1834 75.0459 66.9024 72.2174 66.9024ZM69.5714 0H49.7722C42.5413 0 36.1773 6.06752 33.9875 14.8951H42.222C43.8187 11.063 46.6928 8.62226 49.7722 8.62226H69.5714C72.628 8.62226 75.5249 11.063 77.1216 14.8951H85.3561C83.1663 6.06752 76.7795 0 69.5714 0ZM72.2174 66.9024C69.4118 66.9024 67.1307 69.1834 67.1307 71.989C67.1307 74.7947 69.4118 77.0985 72.2174 77.0985C75.0231 77.0985 77.3269 74.7947 77.3269 71.989C77.3269 69.1834 75.0459 66.9024 72.2174 66.9024ZM63.8917 28.5584L62.7968 31.4553L72.149 34.9909L73.2439 32.094L63.8917 28.5584ZM50.9127 47.354L41.3096 51.3686L42.6326 54.5392L52.2585 50.5018L50.9127 47.354ZM50.9127 47.354L41.3096 51.3686L42.6326 54.5392L52.2585 50.5018L50.9127 47.354ZM63.8917 28.5584L62.7968 31.4553L72.149 34.9909L73.2439 32.094L63.8917 28.5584ZM72.2174 66.9024C69.4118 66.9024 67.1307 69.1834 67.1307 71.989C67.1307 74.7947 69.4118 77.0985 72.2174 77.0985C75.0231 77.0985 77.3269 74.7947 77.3269 71.989C77.3269 69.1834 75.0459 66.9024 72.2174 66.9024ZM72.2174 66.9024C69.4118 66.9024 67.1307 69.1834 67.1307 71.989C67.1307 74.7947 69.4118 77.0985 72.2174 77.0985C75.0231 77.0985 77.3269 74.7947 77.3269 71.989C77.3269 69.1834 75.0459 66.9024 72.2174 66.9024ZM63.8917 28.5584L62.7968 31.4553L72.149 34.9909L73.2439 32.094L63.8917 28.5584ZM50.9127 47.354L41.3096 51.3686L42.6326 54.5392L52.2585 50.5018L50.9127 47.354ZM50.9127 47.354L41.3096 51.3686L42.6326 54.5392L52.2585 50.5018L50.9127 47.354ZM63.8917 28.5584L62.7968 31.4553L72.149 34.9909L73.2439 32.094L63.8917 28.5584ZM72.2174 66.9024C69.4118 66.9024 67.1307 69.1834 67.1307 71.989C67.1307 74.7947 69.4118 77.0985 72.2174 77.0985C75.0231 77.0985 77.3269 74.7947 77.3269 71.989C77.3269 69.1834 75.0459 66.9024 72.2174 66.9024ZM72.2174 66.9024C69.4118 66.9024 67.1307 69.1834 67.1307 71.989C67.1307 74.7947 69.4118 77.0985 72.2174 77.0985C75.0231 77.0985 77.3269 74.7947 77.3269 71.989C77.3269 69.1834 75.0459 66.9024 72.2174 66.9024ZM63.8917 28.5584L62.7968 31.4553L72.149 34.9909L73.2439 32.094L63.8917 28.5584ZM50.9127 47.354L41.3096 51.3686L42.6326 54.5392L52.2585 50.5018L50.9127 47.354ZM63.8917 28.5584L62.7968 31.4553L72.149 34.9909L73.2439 32.094L63.8917 28.5584ZM63.8917 28.5584L62.7968 31.4553L72.149 34.9909L73.2439 32.094L63.8917 28.5584Z" fill="#293832" style="fill:#293832;fill:color(display-p3 0.1608 0.2196 0.1961);fill-opacity:1;"/>
<path d="M119.343 33.5082V83.7591C119.343 92.427 112.432 99.5438 103.604 100H93.1113V17.2673H103.467C112.386 17.6779 119.343 24.8175 119.343 33.5082Z" fill="#293832" style="fill:#293832;fill:color(display-p3 0.1608 0.2196 0.1961);fill-opacity:1;"/>
</g>
<defs>
<clipPath id="clip0_6483_7327">
<rect width="119.343" height="100" fill="white" style="fill:white;fill-opacity:1;"/>
</clipPath>
</defs>
</svg>
