<svg width="120" height="100" viewBox="0 0 120 100" fill="none" xmlns="http://www.w3.org/2000/svg">
<g clip-path="url(#clip0_6483_6901)">
<path d="M95.943 70.727L93.1485 100H26.3859L23.6099 70.9405C23.582 70.7919 23.5635 70.6434 23.5635 70.4856C23.5635 69.0744 24.7147 67.9324 26.1259 67.9324H93.3899C93.4734 67.9324 93.557 67.9324 93.6405 67.9417C95.0425 68.0717 96.073 69.325 95.943 70.727Z" fill="#293832" style="fill:#293832;fill:color(display-p3 0.1608 0.2196 0.1961);fill-opacity:1;"/>
<path d="M97.3727 82.5457H108.922C109.981 82.5643 110.983 81.9237 111.373 80.8746L119.311 59.3538C119.451 59.0382 119.525 58.6946 119.525 58.3326C119.525 56.9214 118.383 55.7794 116.972 55.7794H2.61831C2.30264 55.7794 1.98698 55.8258 1.6806 55.9372C0.352965 56.4293 -0.324781 57.8962 0.167281 59.2238L8.10526 80.7446C8.42093 81.7937 9.39577 82.555 10.5563 82.555H22.1522L21.066 71.1912C21.0474 70.9498 21.0103 70.7362 21.0103 70.4948C21.0103 67.6725 23.3035 65.3793 26.1259 65.3793H93.3991C93.7241 65.3793 93.5569 65.3793 93.8819 65.4071C96.6857 65.6764 98.7561 68.1831 98.4868 70.9869L98.2455 73.5401L97.382 82.555L97.3727 82.5457Z" fill="#293832" style="fill:#293832;fill:color(display-p3 0.1608 0.2196 0.1961);fill-opacity:1;"/>
<path d="M13.6939 57.4413C13.731 58.2676 14.3252 58.8989 15.0308 58.8618C15.7364 58.8246 16.2749 58.119 16.2377 57.2927C16.2285 57.0606 16.2192 56.8657 16.2192 56.7171C16.2192 56.6614 16.2192 56.4664 16.2192 56.1415C16.2192 50.3017 18.2338 45.0097 21.4833 41.1847C24.7328 37.3596 29.2263 35.0014 34.1841 35.0014H34.3233C35.0289 35.0014 35.5953 34.3329 35.5953 33.5066C35.5953 32.6803 35.0289 32.0119 34.3233 32.0119H34.1841C28.5207 32.0119 23.3866 34.7136 19.6729 39.0772C15.9592 43.45 13.666 49.4754 13.666 56.1415C13.666 56.225 13.666 56.4386 13.6753 56.7914C13.6753 57.0513 13.6846 57.2649 13.6939 57.4506V57.4413Z" fill="#293832" style="fill:#293832;fill:color(display-p3 0.1608 0.2196 0.1961);fill-opacity:1;"/>
<path d="M33.8227 30.6193C32.4115 30.6193 31.2695 31.9655 31.2695 33.618C31.2695 35.2706 32.4115 36.6168 33.8227 36.6168H36.4594C37.8706 36.6168 39.0218 35.2706 39.0218 33.618C39.0218 31.9655 37.8799 30.6193 36.4594 30.6193H33.8227Z" fill="#293832" style="fill:#293832;fill:color(display-p3 0.1608 0.2196 0.1961);fill-opacity:1;"/>
<path d="M49.1973 14.9847C49.1973 23.2569 55.9097 29.9601 64.1819 29.9601C72.4542 29.9601 79.1666 23.2569 79.1666 14.9847C79.1666 6.71247 72.4542 0 64.1819 0C55.9097 0 49.1973 6.70318 49.1973 14.9847Z" fill="#293832" style="fill:#293832;fill:color(display-p3 0.1608 0.2196 0.1961);fill-opacity:1;"/>
<path d="M55.5099 31.3713C47.7297 31.3713 41.4258 37.6752 41.4258 45.4554V52.2886H86.9369V45.4554C86.9369 37.6752 80.6329 31.3713 72.8528 31.3713H55.5099ZM69.7611 49.8747H60.6812H58.6015L55.3706 32.9125C55.6863 32.8939 56.002 32.866 56.3269 32.866H72.0358C72.3607 32.866 72.6764 32.8939 72.992 32.9125L69.7611 49.8747Z" fill="#293832" style="fill:#293832;fill:color(display-p3 0.1608 0.2196 0.1961);fill-opacity:1;"/>
<path d="M60.6816 49.8747H67.6819L65.9458 38.4644H65.8808L67.5891 35.3356H60.7652L62.4735 38.4644H62.4178L60.6816 49.8747Z" fill="#293832" style="fill:#293832;fill:color(display-p3 0.1608 0.2196 0.1961);fill-opacity:1;"/>
</g>
<defs>
<clipPath id="clip0_6483_6901">
<rect width="119.525" height="100" fill="white" style="fill:white;fill-opacity:1;"/>
</clipPath>
</defs>
</svg>
