<svg width="119" height="100" viewBox="0 0 119 100" fill="none" xmlns="http://www.w3.org/2000/svg">
<g clip-path="url(#clip0_6483_6562)">
<path d="M113.387 50.4741V33.7142C113.387 28.3372 109.014 23.964 103.637 23.964H93.7858L86.3628 1.25393C86.21 0.785003 85.8696 0.395965 85.425 0.180605C84.9804 -0.0347546 84.4663 -0.0590695 84.0008 0.111134L19.4102 23.964H9.75025C4.3732 23.964 0 28.3372 0 33.7142V90.2532C0 95.6302 4.3732 100.003 9.75025 100.003H103.637C109.014 100.003 113.387 95.6302 113.387 90.2532V73.4933C116.274 72.2046 118.292 69.3112 118.292 65.9488V58.0187C118.292 54.6597 116.274 51.7628 113.387 50.4741ZM83.4902 4.18213L89.958 23.964H29.9177L83.4902 4.18213ZM114.651 65.9453C114.651 68.4914 112.581 70.5651 110.032 70.5651H82.7017C77.9673 70.5651 74.1186 66.713 74.1186 61.982C74.1186 57.251 77.9707 53.3988 82.7017 53.3988H110.032C112.578 53.3988 114.651 55.4691 114.651 58.0187V65.9488V65.9453Z" fill="#293832" style="fill:#293832;fill:color(display-p3 0.1608 0.2196 0.1961);fill-opacity:1;"/>
<path d="M84.4932 65.862C86.6361 65.862 88.3732 64.1248 88.3732 61.982C88.3732 59.8392 86.6361 58.1021 84.4932 58.1021C82.3504 58.1021 80.6133 59.8392 80.6133 61.982C80.6133 64.1248 82.3504 65.862 84.4932 65.862Z" fill="black" style="fill:black;fill-opacity:1;"/>
</g>
<defs>
<clipPath id="clip0_6483_6562">
<rect width="118.292" height="100" fill="white" style="fill:white;fill-opacity:1;"/>
</clipPath>
</defs>
</svg>
