<svg width="87" height="100" viewBox="0 0 87 100" fill="none" xmlns="http://www.w3.org/2000/svg">
<g clip-path="url(#clip0_6483_6809)">
<path d="M62.0384 0H5.57937C2.49595 0 0 2.18951 0 4.8887V31.5455C0 34.2463 2.49595 36.4358 5.57937 36.4358H28.2732L27.5269 44.808L35.8293 36.4358H62.0384C65.1202 36.4358 67.6193 34.2463 67.6193 31.5455V4.8887C67.6193 2.18951 65.1202 0 62.0384 0ZM34.3558 26.3758H10.0457V23.5734H34.3558V26.3758ZM57.5752 19.3103H10.0457V16.5079H57.5752V19.3103ZM57.5752 12.2432H10.0457V9.44079H57.5752V12.2432Z" fill="#D4512E" style="fill:#D4512E;fill:color(display-p3 0.8314 0.3176 0.1804);fill-opacity:1;"/>
<path d="M86.4723 44.9255V26.6791C86.4723 24.9881 84.9084 23.621 82.9825 23.621H70.1423V33.2412C70.1423 36.1468 67.4447 38.5094 64.131 38.5094H47.1865V44.9239C47.1865 46.6117 48.7489 47.9851 50.678 47.9851H67.902L73.0987 53.2231L72.6303 47.9851H82.9825C84.9084 47.9851 86.4723 46.6117 86.4723 44.9239V44.9255Z" fill="#D4512E" style="fill:#D4512E;fill:color(display-p3 0.8314 0.3176 0.1804);fill-opacity:1;"/>
<path d="M7.90234 62.0717C7.90234 70.4805 14.7233 77.2967 23.1337 77.2967C31.544 77.2967 38.3634 70.4805 38.3634 62.0717C38.3634 53.6629 31.5456 46.8404 23.1337 46.8404C14.7218 46.8404 7.90234 53.655 7.90234 62.0717Z" fill="#D4512E" style="fill:#D4512E;fill:color(display-p3 0.8314 0.3176 0.1804);fill-opacity:1;"/>
<path d="M31.9472 78.7352H14.3184C6.40977 78.7352 0 85.1466 0 93.052V100H46.264V93.052C46.264 85.1466 39.8558 78.7352 31.9472 78.7352ZM28.8051 97.5437H19.5738L21.3394 85.9468L19.5707 97.5437H17.4605L14.1739 80.296C14.4994 80.2737 14.8201 80.2483 15.1456 80.2483H31.1168C31.4455 80.2483 31.7646 80.2737 32.0901 80.296L28.8051 97.5437Z" fill="#D4512E" style="fill:#D4512E;fill:color(display-p3 0.8314 0.3176 0.1804);fill-opacity:1;"/>
<path d="M21.3398 85.9468H21.4017L19.6679 82.7649H26.5984L24.8662 85.9468H24.9281L26.6905 97.5437H19.5742L21.3398 85.9468Z" fill="#D4512E" style="fill:#D4512E;fill:color(display-p3 0.8314 0.3176 0.1804);fill-opacity:1;"/>
<path d="M66.8366 57.3942C60.7571 57.7721 55.8049 62.7227 55.4286 68.8054C54.9872 75.9026 60.6142 81.7964 67.6194 81.7964C67.8449 81.7964 68.0671 81.79 68.2894 81.7773H82.865C83.0333 81.7773 83.081 81.5487 82.9254 81.4852C81.1233 80.7405 79.8308 78.7209 79.8308 76.3377V69.8152H79.8245L79.8308 69.5834C79.8308 62.5798 73.9371 56.956 66.8366 57.3942Z" fill="#D4512E" style="fill:#D4512E;fill:color(display-p3 0.8314 0.3176 0.1804);fill-opacity:1;"/>
<path d="M74.6868 82.9491H60.5462C54.2111 82.9491 49.0684 88.0871 49.0684 94.4286V100H86.1678V94.4286C86.1678 88.0871 81.0267 82.9491 74.6868 82.9491Z" fill="#D4512E" style="fill:#D4512E;fill:color(display-p3 0.8314 0.3176 0.1804);fill-opacity:1;"/>
</g>
<defs>
<clipPath id="clip0_6483_6809">
<rect width="86.4723" height="100" fill="white" style="fill:white;fill-opacity:1;"/>
</clipPath>
</defs>
</svg>
