<svg width="103" height="100" viewBox="0 0 103 100" fill="none" xmlns="http://www.w3.org/2000/svg">
<g clip-path="url(#clip0_6483_6226)">
<path d="M96.145 54.7218C93.1437 54.7218 90.4787 56.7917 89.7543 59.7153H86.8823L77.4127 50.2199C77.1023 49.9353 76.6883 49.7542 76.2485 49.7542H70.8409C69.9354 49.7542 69.2109 50.4786 69.2109 51.3842C69.2109 52.2897 69.9354 53.0142 70.8409 53.0142H75.5757L85.0453 62.4838C85.3558 62.7943 85.7698 62.9754 86.2096 62.9754H89.7543C90.4787 65.8732 93.1437 67.943 96.145 67.943C99.7931 67.943 102.769 64.9676 102.769 61.3454C102.769 57.7231 99.7931 54.7218 96.145 54.7218ZM96.145 64.683C94.308 64.683 92.8073 63.1824 92.8073 61.3454C92.8073 59.5084 94.308 57.9818 96.145 57.9818C97.982 57.9818 99.5085 59.4825 99.5085 61.3454C99.5085 63.2082 98.0078 64.683 96.145 64.683Z" fill="#293832" style="fill:#293832;fill:color(display-p3 0.1608 0.2196 0.1961);fill-opacity:1;"/>
<path d="M96.1449 9.96119C92.5226 9.96119 89.5472 12.9107 89.5472 16.5589C89.5472 19.586 91.6171 22.2251 94.5149 22.9754V30.815L85.5369 39.793H67.9431V33.1177H76.2484C76.6882 33.1177 77.1022 32.9366 77.4127 32.652L80.0776 29.9612L82.3803 27.6585C82.6908 27.348 82.8719 26.9599 82.8719 26.5201V13.0142C85.7697 12.2898 87.8396 9.62484 87.8396 6.62354C87.8396 2.97542 84.8642 0 81.2419 0C77.6197 0 74.6184 2.97542 74.6184 6.62354C74.6184 9.62484 76.6882 12.2898 79.586 13.0142V25.8473L75.5757 29.8577H67.9431V26.5201C67.9431 25.6145 67.1928 24.89 66.3131 24.89H57.9819V22.2251L62.4838 17.7232C62.7943 17.4127 62.9495 16.9987 62.9495 16.5589V13.0142C65.8732 12.2898 67.9431 9.62484 67.9431 6.62354C67.9431 2.97542 64.9677 0 61.3195 0C57.6714 0 54.7219 2.97542 54.7219 6.62354C54.7219 9.62484 56.7917 12.2898 59.6895 13.0142V15.8862L55.2135 20.3881C54.903 20.6986 54.7219 21.1125 54.7219 21.5265V24.89H48.0466V21.5265C48.0466 21.1125 47.8655 20.6986 47.555 20.3881L43.053 15.8862V13.0142C45.9767 12.2898 48.0466 9.62484 48.0466 6.62354C48.0466 2.97542 45.0711 0 41.423 0C37.7749 0 34.8254 2.97542 34.8254 6.62354C34.8254 9.62484 36.8952 12.2898 39.793 13.0142V16.5589C39.793 16.9987 39.9741 17.4127 40.2846 17.7232L44.7865 22.2251V24.89H36.4554C35.5498 24.89 34.8254 25.6145 34.8254 26.5201V29.8577H27.1928L23.1565 25.8473V13.0142C26.0543 12.2898 28.1501 9.62484 28.1501 6.62354C28.1501 2.97542 25.1746 0 21.5265 0C17.8784 0 14.9288 2.97542 14.9288 6.62354C14.9288 9.62484 16.9987 12.2898 19.8965 13.0142V26.5201C19.8965 26.9599 20.0776 27.348 20.3881 27.6585L22.6908 29.9612L25.3558 32.652C25.6662 32.9625 26.0802 33.1177 26.5201 33.1177H34.8254V39.793H17.2316L8.22768 30.815V22.9754C11.1514 22.2251 13.2212 19.586 13.2212 16.5589C13.2212 12.9107 10.2458 9.96119 6.59767 9.96119C2.94955 9.96119 0 12.9107 0 16.5589C0 19.586 2.06986 22.2251 4.96766 22.9754V31.4877C4.96766 31.9276 5.14877 32.3415 5.45925 32.652L15.3946 42.5873C15.705 42.8978 16.119 43.0789 16.5589 43.0789H34.8254V49.7542H26.5201C26.0802 49.7542 25.6662 49.9353 25.3558 50.2199L15.8862 59.7154H13.0142C12.2639 56.7917 9.62484 54.7219 6.59767 54.7219C2.97542 54.7219 0 57.6973 0 61.3454C0 64.9935 2.97542 67.9431 6.59767 67.9431C9.62484 67.9431 12.2639 65.8732 13.0142 62.9754H16.5589C16.9987 62.9754 17.4127 62.7943 17.7232 62.4838L27.1928 53.0142H34.8254V56.3519C34.8254 57.2574 35.5498 57.9819 36.4554 57.9819H41.423C42.3286 57.9819 43.053 57.2574 43.053 56.3519C43.053 55.4463 42.3286 54.7219 41.423 54.7219H38.0854V28.1501H64.683V46.8564C64.683 47.762 65.4075 48.4864 66.3131 48.4864C67.2186 48.4864 67.9431 47.762 67.9431 46.8564V43.0789H86.2096C86.6494 43.0789 87.0375 42.8978 87.348 42.5873L97.3092 32.652C97.6197 32.3415 97.7749 31.9276 97.7749 31.4877V22.9754C100.699 22.2251 102.768 19.586 102.768 16.5589C102.768 12.9107 99.793 9.96119 96.1449 9.96119ZM57.9819 6.62354C57.9819 4.76067 59.4825 3.26003 61.3195 3.26003C63.1565 3.26003 64.683 4.76067 64.683 6.62354C64.683 8.48642 63.1824 9.96119 61.3195 9.96119C59.4567 9.96119 57.9819 8.46054 57.9819 6.62354ZM38.0854 6.62354C38.0854 4.76067 39.586 3.26003 41.423 3.26003C43.26 3.26003 44.7865 4.76067 44.7865 6.62354C44.7865 8.48642 43.2859 9.96119 41.423 9.96119C39.5602 9.96119 38.0854 8.46054 38.0854 6.62354ZM3.26003 16.5589C3.26003 14.7219 4.76067 13.2212 6.59767 13.2212C8.43467 13.2212 9.96119 14.7219 9.96119 16.5589C9.96119 18.3959 8.46054 19.8965 6.59767 19.8965C4.7348 19.8965 3.26003 18.3959 3.26003 16.5589ZM6.59767 64.683C4.76067 64.683 3.26003 63.1824 3.26003 61.3454C3.26003 59.5084 4.76067 57.9819 6.59767 57.9819C8.43467 57.9819 9.96119 59.4825 9.96119 61.3454C9.96119 63.2083 8.46054 64.683 6.59767 64.683ZM21.5265 9.96119C19.6895 9.96119 18.1889 8.46054 18.1889 6.62354C18.1889 4.78655 19.6895 3.26003 21.5265 3.26003C23.3635 3.26003 24.89 4.76067 24.89 6.62354C24.89 8.48642 23.3635 9.96119 21.5265 9.96119ZM77.8784 6.62354C77.8784 4.76067 79.379 3.26003 81.2419 3.26003C83.1048 3.26003 84.5796 4.76067 84.5796 6.62354C84.5796 8.48642 83.0789 9.96119 81.2419 9.96119C79.4049 9.96119 77.8784 8.46054 77.8784 6.62354ZM96.1449 19.8965C94.3079 19.8965 92.8072 18.3959 92.8072 16.5589C92.8072 14.7219 94.3079 13.2212 96.1449 13.2212C97.9819 13.2212 99.5084 14.7219 99.5084 16.5589C99.5084 18.3959 98.0078 19.8965 96.1449 19.8965Z" fill="#293832" style="fill:#293832;fill:color(display-p3 0.1608 0.2196 0.1961);fill-opacity:1;"/>
<path d="M84.5794 68.797V100H42.5872L25.5626 82.9755C25.2262 82.6391 25.2262 82.0699 25.5885 81.7336L29.0296 78.2407C29.2107 78.0596 29.4436 77.982 29.6764 77.982C29.9093 77.982 30.1163 78.0596 30.2974 78.2148L41.0348 88.9522C41.7851 89.7284 42.82 90.1424 43.9067 90.1424C44.45 90.1424 44.9934 90.0389 45.485 89.8319C47.0632 89.1851 48.0464 87.7103 48.0464 86.0027V38.9393C48.0464 38.4477 48.4086 38.0854 48.9002 38.0854H53.8679C54.3595 38.0854 54.7217 38.4477 54.7217 38.9393V76.2484C54.7217 77.154 55.4462 77.8785 56.3517 77.8785C57.2573 77.8785 57.9817 77.154 57.9817 76.2484V53.8681C57.9817 53.4024 58.3698 53.0143 58.8356 53.0143H63.8291C64.2948 53.0143 64.6829 53.4024 64.6829 53.8681V76.2484C64.6829 77.154 65.4074 77.8785 66.3129 77.8785C67.2185 77.8785 67.9429 77.154 67.9429 76.2484V58.8616C67.9429 58.3701 68.331 57.982 68.7967 57.982H73.7644C74.2301 57.982 74.6182 58.3701 74.6182 58.8616V81.242C74.6182 82.1475 75.3427 82.872 76.2482 82.872C77.1538 82.872 77.8782 82.1475 77.8782 81.242V68.797C77.8782 68.3312 78.2663 67.9431 78.7321 67.9431H83.7256C84.1913 67.9431 84.5794 68.3312 84.5794 68.797Z" fill="#293832" style="fill:#293832;fill:color(display-p3 0.1608 0.2196 0.1961);fill-opacity:1;"/>
</g>
<defs>
<clipPath id="clip0_6483_6226">
<rect width="102.768" height="100" fill="white" style="fill:white;fill-opacity:1;"/>
</clipPath>
</defs>
</svg>
