<svg width="64" height="100" viewBox="0 0 64 100" fill="none" xmlns="http://www.w3.org/2000/svg">
<g clip-path="url(#clip0_6483_6315)">
<path d="M45.836 78.8696H53.9588V45.8357H9.24609V78.8696H17.5373C18.0988 78.8696 18.679 79.4311 18.679 79.9925C18.679 80.554 18.0988 81.1342 17.5373 81.1342H9.24609V88.3025H53.9588V81.1342H45.836C45.2745 81.1342 44.7131 80.5727 44.7131 79.9925C44.7131 79.4123 45.2745 78.8696 45.836 78.8696ZM39.9966 71.7013H36.4031V75.2761C36.4031 77.9151 34.3444 79.9925 31.6867 79.9925C29.029 79.9925 26.9702 77.9151 26.9702 75.2761V71.7013H23.3954C20.7565 71.7013 18.679 69.6238 18.679 66.9849C18.679 64.3459 20.7565 62.2684 23.3954 62.2684H26.9702V58.6749C26.9702 56.036 29.0477 53.9585 31.6867 53.9585C34.3256 53.9585 36.4031 56.036 36.4031 58.6749V62.2684H39.9966C42.6356 62.2684 44.7131 64.3459 44.7131 66.9849C44.7131 69.6238 42.6356 71.7013 39.9966 71.7013Z" fill="#293832" style="fill:#293832;fill:color(display-p3 0.1608 0.2196 0.1961);fill-opacity:1;"/>
<path d="M45.6485 23.9566C45.087 23.7695 44.7127 23.3952 44.7127 22.8337V14.1494H18.6786V22.8337C18.6786 23.3952 18.3043 23.9566 17.7241 23.9566C8.10406 25.847 0.748643 33.951 0 43.5898V92.4575C0 96.6125 3.38761 100 7.54258 100H56.2231C59.8166 100 62.8299 97.5483 63.5785 93.9548L63.7657 82.2572V45.6486C63.5785 35.0927 56.0359 26.0341 45.6485 23.9566ZM56.4103 79.4311V89.4255C56.4103 90.0057 55.8488 90.5672 55.2873 90.5672H8.10406C7.54258 90.5672 6.9811 90.0057 6.9811 89.4255V44.5256C6.9811 43.9641 7.54258 43.3839 8.10406 43.3839H55.2873C55.8488 43.3839 56.4103 43.9641 56.4103 44.5256V79.4311Z" fill="#293832" style="fill:#293832;fill:color(display-p3 0.1608 0.2196 0.1961);fill-opacity:1;"/>
<path d="M42.4481 66.9849C42.4481 68.295 41.3252 69.4367 39.9963 69.4367H35.2799C34.7184 69.4367 34.1382 69.9982 34.1382 70.5597V75.2761C34.1382 76.605 33.0152 77.7279 31.6864 77.7279C30.3575 77.7279 29.2346 76.605 29.2346 75.2761V70.5597C29.2346 69.9982 28.6731 69.4367 28.1116 69.4367H23.3952C22.0663 69.4367 20.9434 68.295 20.9434 66.9849C20.9434 65.6748 22.0663 64.5331 23.3952 64.5331H28.1116C28.6731 64.5331 29.2346 63.9529 29.2346 63.3914V58.6749C29.2346 57.3648 30.3763 56.2231 31.6864 56.2231C32.9965 56.2231 34.1382 57.3648 34.1382 58.6749V63.3914C34.1382 63.9529 34.7184 64.5331 35.2799 64.5331H39.9963C41.3252 64.5331 42.4481 65.656 42.4481 66.9849Z" fill="#293832" style="fill:#293832;fill:color(display-p3 0.1608 0.2196 0.1961);fill-opacity:1;"/>
<path d="M51.6936 2.63897V9.24574C51.6936 10.743 50.5706 11.8847 49.0546 11.8847H14.5234C13.1946 11.8847 11.8845 10.5559 12.0716 9.24574V2.63897C12.0716 1.12296 13.1946 0 14.7106 0H16.6009V4.52929C16.6009 5.09077 17.1624 5.65226 17.7239 5.65226C18.2854 5.65226 18.8656 5.09077 18.8656 4.52929V0H23.582V4.52929C23.582 5.09077 24.3307 5.65226 24.8921 5.65226C25.4536 5.65226 26.0338 5.09077 26.0338 4.52929V0H30.7503V4.52929C30.7503 5.09077 31.3118 5.65226 31.8732 5.65226C32.4347 5.65226 33.0149 5.09077 33.0149 4.52929V0H37.7314V4.52929C37.7314 5.09077 38.2929 5.65226 38.8543 5.65226C39.4158 5.65226 39.996 5.09077 39.996 4.52929V0H44.7125V4.52929C44.7125 5.09077 45.274 5.65226 45.8354 5.65226C46.3969 5.65226 46.9771 5.09077 46.9771 4.52929V0H49.0546C50.5706 0 51.6936 1.12296 51.6936 2.63897Z" fill="#293832" style="fill:#293832;fill:color(display-p3 0.1608 0.2196 0.1961);fill-opacity:1;"/>
<path d="M42.4481 66.9849C42.4481 68.295 41.3252 69.4367 39.9963 69.4367H35.2799C34.7184 69.4367 34.1382 69.9982 34.1382 70.5597V75.2761C34.1382 76.605 33.0152 77.7279 31.6864 77.7279C30.3575 77.7279 29.2346 76.605 29.2346 75.2761V70.5597C29.2346 69.9982 28.6731 69.4367 28.1116 69.4367H23.3952C22.0663 69.4367 20.9434 68.295 20.9434 66.9849C20.9434 65.6748 22.0663 64.5331 23.3952 64.5331H28.1116C28.6731 64.5331 29.2346 63.9529 29.2346 63.3914V58.6749C29.2346 57.3648 30.3763 56.2231 31.6864 56.2231C32.9965 56.2231 34.1382 57.3648 34.1382 58.6749V63.3914C34.1382 63.9529 34.7184 64.5331 35.2799 64.5331H39.9963C41.3252 64.5331 42.4481 65.656 42.4481 66.9849Z" fill="#293832" style="fill:#293832;fill:color(display-p3 0.1608 0.2196 0.1961);fill-opacity:1;"/>
<path d="M45.836 78.8696H53.9588V45.8357H9.24609V78.8696H17.5373C18.0988 78.8696 18.679 79.4311 18.679 79.9925C18.679 80.554 18.0988 81.1342 17.5373 81.1342H9.24609V88.3025H53.9588V81.1342H45.836C45.2745 81.1342 44.7131 80.5727 44.7131 79.9925C44.7131 79.4123 45.2745 78.8696 45.836 78.8696ZM39.9966 71.7013H36.4031V75.2761C36.4031 77.9151 34.3444 79.9925 31.6867 79.9925C29.029 79.9925 26.9702 77.9151 26.9702 75.2761V71.7013H23.3954C20.7565 71.7013 18.679 69.6238 18.679 66.9849C18.679 64.3459 20.7565 62.2684 23.3954 62.2684H26.9702V58.6749C26.9702 56.036 29.0477 53.9585 31.6867 53.9585C34.3256 53.9585 36.4031 56.036 36.4031 58.6749V62.2684H39.9966C42.6356 62.2684 44.7131 64.3459 44.7131 66.9849C44.7131 69.6238 42.6356 71.7013 39.9966 71.7013Z" fill="#293832" style="fill:#293832;fill:color(display-p3 0.1608 0.2196 0.1961);fill-opacity:1;"/>
<path d="M45.6485 23.9566C45.087 23.7694 44.7127 23.3951 44.7127 22.8336V14.1494H18.6786V22.8336C18.6786 23.3951 18.3043 23.9566 17.7241 23.9566C8.10406 25.8469 0.748643 33.951 0 43.5897V92.4574C0 96.6124 3.38761 100 7.54258 100H56.2231C59.8166 100 62.8299 97.5482 63.5785 93.9547L63.7657 82.2572V45.6485C63.5785 35.0926 56.0359 26.0341 45.6485 23.9566ZM56.4103 79.431V89.4254C56.4103 90.0056 55.8488 90.5671 55.2873 90.5671H8.10406C7.54258 90.5671 6.9811 90.0056 6.9811 89.4254V44.5255C6.9811 43.9641 7.54258 43.3839 8.10406 43.3839H55.2873C55.8488 43.3839 56.4103 43.9641 56.4103 44.5255V79.431ZM14.5237 11.8847H49.0548C50.5708 11.8847 51.6938 10.743 51.6938 9.24574V2.63897C51.6938 1.12296 50.5708 0 49.0548 0H46.9774V4.52929C46.9774 5.09077 46.4159 5.65226 45.8357 5.65226C45.2555 5.65226 44.7127 5.09077 44.7127 4.52929V0H39.9963V4.52929C39.9963 5.09077 39.4348 5.65226 38.8546 5.65226C38.2744 5.65226 37.7316 5.09077 37.7316 4.52929V0H33.0152V4.52929C33.0152 5.09077 32.4537 5.65226 31.8735 5.65226C31.2933 5.65226 30.7505 5.09077 30.7505 4.52929V0H26.0341V4.52929C26.0341 5.09077 25.4726 5.65226 24.8924 5.65226C24.3122 5.65226 23.5823 5.09077 23.5823 4.52929V0H18.8658V4.52929C18.8658 5.09077 18.3043 5.65226 17.7241 5.65226C17.1439 5.65226 16.6012 5.09077 16.6012 4.52929V0H14.7108C13.1948 0 12.0719 1.12296 12.0719 2.63897V9.24574C11.8847 10.5559 13.1948 11.8847 14.5237 11.8847Z" fill="#293832" style="fill:#293832;fill:color(display-p3 0.1608 0.2196 0.1961);fill-opacity:1;"/>
</g>
<defs>
<clipPath id="clip0_6483_6315">
<rect width="63.7657" height="100" fill="white" style="fill:white;fill-opacity:1;"/>
</clipPath>
</defs>
</svg>
