<svg width="16" height="16" viewBox="0 0 16 16" fill="none" xmlns="http://www.w3.org/2000/svg">
<path d="M1.63614 6.46389C-0.545379 8.64541 -0.545379 12.1823 1.63614 14.3639C3.81765 16.5454 7.35459 16.5454 9.5361 14.3639L10.8528 13.0472L9.09722 11.2917L7.78056 12.6083C6.5686 13.8203 4.60364 13.8203 3.39169 12.6083C2.17973 11.3964 2.17973 9.4314 3.39169 8.21944L4.70835 6.90278L2.9528 5.14723L1.63614 6.46389Z" fill="#2D423A" style="fill:#2D423A;fill:color(display-p3 0.1765 0.2588 0.2275);fill-opacity:1;"/>
<path d="M4.70835 9.5361L6.46389 11.2917L11.2917 6.46389L9.5361 4.70835L4.70835 9.5361Z" fill="#2D423A" style="fill:#2D423A;fill:color(display-p3 0.1765 0.2588 0.2275);fill-opacity:1;"/>
<path d="M5.14723 2.9528L6.90278 4.70835L8.21944 3.39169C9.4314 2.17973 11.3964 2.17973 12.6083 3.39169C13.8203 4.60364 13.8203 6.5686 12.6083 7.78056L11.2917 9.09722L13.0472 10.8528L14.3639 9.5361C16.5454 7.35459 16.5454 3.81765 14.3639 1.63614C12.1823 -0.545379 8.64541 -0.545379 6.46389 1.63614L5.14723 2.9528Z" fill="#2D423A" style="fill:#2D423A;fill:color(display-p3 0.1765 0.2588 0.2275);fill-opacity:1;"/>
</svg>
