<svg width="16" height="16" viewBox="0 0 16 16" fill="none" xmlns="http://www.w3.org/2000/svg">
<path d="M7.50917 9.65729L2.42404 15.7582C2.28932 15.9181 2.10022 16 1.91004 16C1.75095 16 1.59122 15.9427 1.46204 15.826C1.17831 15.5696 1.14904 15.1238 1.39667 14.83L6.64362 8.53721L7.50917 9.65729ZM9.359 7.46286L14.6059 1.17003C14.8536 0.876296 14.8243 0.430465 14.5406 0.174091C14.2569 -0.0822829 13.826 -0.0519774 13.5786 0.241761L8.49345 6.34269L9.359 7.46286Z" fill="white" style="fill:white;fill-opacity:1;"/>
<path d="M15.3182 15.9998H11.7728C11.5656 15.9998 11.3697 15.9023 11.2404 15.7349L0.149403 1.14681C-0.0143253 0.934955 -0.0462344 0.644605 0.0673118 0.40009C0.180858 0.155575 0.419678 0 0.68177 0H4.22725C4.43443 0 4.63025 0.097505 4.75962 0.264939L15.8506 14.853C16.0143 15.0649 16.0462 15.3552 15.9327 15.5997C15.8191 15.8443 15.5803 15.9998 15.3182 15.9998ZM12.1005 14.5881H13.8996L3.89952 1.41175H2.10042L12.1005 14.5881Z" fill="white" style="fill:white;fill-opacity:1;"/>
</svg>
