<svg width="16" height="16" viewBox="0 0 16 16" fill="none" xmlns="http://www.w3.org/2000/svg">
<path d="M1.81333 0C1.33241 0 0.871179 0.186085 0.531113 0.517318C0.191047 0.848551 0 1.2978 0 1.76623C0 2.23467 0.191047 2.68392 0.531113 3.01515C0.871179 3.34638 1.33241 3.53247 1.81333 3.53247C2.29426 3.53247 2.75549 3.34638 3.09555 3.01515C3.43562 2.68392 3.62667 2.23467 3.62667 1.76623C3.62667 1.2978 3.43562 0.848551 3.09555 0.517318C2.75549 0.186085 2.29426 0 1.81333 0ZM0.106667 4.98701C0.0783769 4.98701 0.0512457 4.99796 0.0312419 5.01744C0.011238 5.03693 0 5.06335 0 5.09091V15.8961C0 15.9535 0.0477867 16 0.106667 16H3.52C3.54829 16 3.57542 15.9891 3.59542 15.9696C3.61543 15.9501 3.62667 15.9237 3.62667 15.8961V5.09091C3.62667 5.06335 3.61543 5.03693 3.59542 5.01744C3.57542 4.99796 3.54829 4.98701 3.52 4.98701H0.106667ZM5.65333 4.98701C5.62504 4.98701 5.59791 4.99796 5.57791 5.01744C5.5579 5.03693 5.54667 5.06335 5.54667 5.09091V15.8961C5.54667 15.9535 5.59445 16 5.65333 16H9.06667C9.09496 16 9.12209 15.9891 9.14209 15.9696C9.1621 15.9501 9.17333 15.9237 9.17333 15.8961V10.0779C9.17333 9.6646 9.3419 9.2682 9.64196 8.97594C9.94202 8.68367 10.349 8.51948 10.7733 8.51948C11.1977 8.51948 11.6046 8.68367 11.9047 8.97594C12.2048 9.2682 12.3733 9.6646 12.3733 10.0779V15.8961C12.3733 15.9535 12.4211 16 12.48 16H15.8933C15.9216 16 15.9488 15.9891 15.9688 15.9696C15.9888 15.9501 16 15.9237 16 15.8961V8.73143C16 6.71418 14.1995 5.13662 12.1387 5.31865C11.5011 5.37562 10.8766 5.5293 10.2878 5.77413L9.17333 6.23958V5.09091C9.17333 5.06335 9.1621 5.03693 9.14209 5.01744C9.12209 4.99796 9.09496 4.98701 9.06667 4.98701H5.65333Z" fill="white" style="fill:white;fill-opacity:1;"/>
</svg>
