<svg width="121" height="100" viewBox="0 0 121 100" fill="none" xmlns="http://www.w3.org/2000/svg">
<g clip-path="url(#clip0_6630_10266)">
<path d="M49.5774 19.923H39.5467C36.6056 19.923 34.2148 22.3157 34.2148 25.2539C34.2148 28.1922 36.6079 30.5848 39.5467 30.5848H72.2705C79.119 30.5848 84.6895 36.1543 84.6895 43.0016V48.5498H107.047C109.419 48.5498 111.699 48.9419 113.83 49.6622V0H61.9965V7.50626C61.9965 14.3535 56.426 19.923 49.5774 19.923Z" fill="#D4512E" style="fill:#D4512E;fill:color(display-p3 0.8314 0.3176 0.1804);fill-opacity:1;"/>
<path d="M53.0403 48.5498H77.602V43.0016C77.602 40.0609 75.2089 37.6707 72.2701 37.6707H39.5463C32.6978 37.6707 27.1273 32.1012 27.1273 25.2539C27.1273 18.4066 32.6978 12.8372 39.5463 12.8372H49.577C52.5182 12.8372 54.9089 10.4445 54.9089 7.50626V0H7.125V71.8929H31.9371V69.649C31.9371 58.0141 41.4032 48.5498 53.0403 48.5498Z" fill="#D4512E" style="fill:#D4512E;fill:color(display-p3 0.8314 0.3176 0.1804);fill-opacity:1;"/>
<path d="M70.6965 90.7483L60.543 100H100.08L90.4862 90.7483H70.6965Z" fill="#D4512E" style="fill:#D4512E;fill:color(display-p3 0.8314 0.3176 0.1804);fill-opacity:1;"/>
<path d="M31.9347 78.7425H0V85.8283C0 93.6558 6.34536 100 14.1743 100H33.8931C32.6505 97.8506 31.9347 95.3611 31.9347 92.7039V78.7425Z" fill="#D4512E" style="fill:#D4512E;fill:color(display-p3 0.8314 0.3176 0.1804);fill-opacity:1;"/>
<path d="M106.865 55.3876H52.8559C45.1285 55.3876 38.8398 61.6727 38.8398 69.401V92.4559C38.8398 96.6153 42.2251 100 46.3853 100H46.6404C48.5256 100 50.3305 99.3008 51.7219 98.0325L67.7672 83.4144H93.1605L108.169 97.886C109.581 99.2489 111.443 100 113.406 100C117.566 100 120.952 96.6153 120.952 92.4559V69.4742C120.952 61.7058 114.632 55.3876 106.862 55.3876H106.865ZM52.1802 82.583V76.475H46.0711V69.3892H52.1802V63.2812H59.2674V69.3892H65.3765V76.475H59.2674V82.583H52.1802ZM100.526 82.583V76.475H94.4173V69.3892H100.526V63.2812H107.614V69.3892H113.723V76.475H107.614V82.583H100.526Z" fill="#D4512E" style="fill:#D4512E;fill:color(display-p3 0.8314 0.3176 0.1804);fill-opacity:1;"/>
</g>
<defs>
<clipPath id="clip0_6630_10266">
<rect width="120.954" height="100" fill="white" style="fill:white;fill-opacity:1;"/>
</clipPath>
</defs>
</svg>
