<svg width="100" height="100" viewBox="0 0 100 100" fill="none" xmlns="http://www.w3.org/2000/svg">
<g clip-path="url(#clip0_6630_10235)">
<path d="M42.9258 77.4995C42.9258 81.4011 46.1005 84.5731 49.9994 84.5731C53.8983 84.5731 57.073 81.3984 57.073 77.4995C57.073 73.6005 53.8983 70.4258 49.9994 70.4258C46.1005 70.4258 42.9258 73.6005 42.9258 77.4995Z" fill="#355146" style="fill:#355146;fill:color(display-p3 0.2078 0.3176 0.2745);fill-opacity:1;"/>
<path d="M63.9648 100C61.773 94.3667 56.265 90.4324 50 90.4324C43.735 90.4324 38.2269 94.3667 36.0352 100H63.9621H63.9648Z" fill="#355146" style="fill:#355146;fill:color(display-p3 0.2078 0.3176 0.2745);fill-opacity:1;"/>
<path d="M28.15 64.6346C19.8947 64.6346 13.1777 71.3516 13.1777 79.6068V100H29.8816C30.9407 96.0548 33.1489 92.4771 36.2609 89.7462C37.6713 88.5074 39.2287 87.4782 40.8896 86.6696C38.529 84.3253 37.0669 81.0798 37.0669 77.4995C37.0669 74.6597 37.9899 72.0322 39.5473 69.8949C36.7211 66.5677 32.5962 64.6319 28.15 64.6319V64.6346Z" fill="#355146" style="fill:#355146;fill:color(display-p3 0.2078 0.3176 0.2745);fill-opacity:1;"/>
<path d="M28.1642 58.7889C32.0724 58.7889 35.2406 55.6207 35.2406 51.7126C35.2406 47.8044 32.0724 44.6362 28.1642 44.6362C24.2561 44.6362 21.0879 47.8044 21.0879 51.7126C21.0879 55.6207 24.2561 58.7889 28.1642 58.7889Z" fill="#355146" style="fill:#355146;fill:color(display-p3 0.2078 0.3176 0.2745);fill-opacity:1;"/>
<path d="M50 8.1736L100 33.0701V24.8965L50 0L0 24.8965V33.0701L50 8.1736Z" fill="#355146" style="fill:#355146;fill:color(display-p3 0.2078 0.3176 0.2745);fill-opacity:1;"/>
<path d="M86.8212 79.6041C86.8212 71.3488 80.1043 64.6319 71.849 64.6319C67.4028 64.6319 63.2779 66.5677 60.4517 69.8949C62.0091 72.0295 62.9321 74.6597 62.9321 77.4995C62.9321 81.0798 61.4672 84.3253 59.1094 86.6696C60.7702 87.4782 62.3304 88.5074 63.738 89.7462C66.8473 92.4771 69.0582 96.052 70.1173 100H86.8212V79.6068V79.6041Z" fill="#355146" style="fill:#355146;fill:color(display-p3 0.2078 0.3176 0.2745);fill-opacity:1;"/>
<path d="M100 100V39.6183L50 14.7217L0 39.6156V99.9973H7.31867V79.6041C7.31867 71.3815 12.1079 64.2562 19.0427 60.8718C16.6821 58.5276 15.2173 55.2821 15.2173 51.699C15.2173 44.5682 21.0194 38.7661 28.1502 38.7661C35.281 38.7661 41.0831 44.5682 41.0831 51.699C41.0831 55.2766 39.6237 58.5194 37.2686 60.8609C39.817 62.0998 42.1014 63.8586 43.9773 66.0559C45.7771 65.1056 47.8273 64.5638 50 64.5638C52.1727 64.5638 54.2229 65.1056 56.0227 66.0559C57.8986 63.8559 60.183 62.097 62.7314 60.8609C60.3763 58.5167 58.9169 55.2739 58.9169 51.699C58.9169 44.5682 64.719 38.7661 71.8498 38.7661C78.9806 38.7661 84.7827 44.5682 84.7827 51.699C84.7827 55.2821 83.3179 58.5276 80.9573 60.8718C87.8921 64.2562 92.6813 71.3815 92.6813 79.6041V99.9973H100V100Z" fill="#355146" style="fill:#355146;fill:color(display-p3 0.2078 0.3176 0.2745);fill-opacity:1;"/>
<path d="M71.849 58.7726C75.7557 58.7726 78.9226 55.6056 78.9226 51.699C78.9226 47.7923 75.7557 44.6254 71.849 44.6254C67.9424 44.6254 64.7754 47.7923 64.7754 51.699C64.7754 55.6056 67.9424 58.7726 71.849 58.7726Z" fill="#355146" style="fill:#355146;fill:color(display-p3 0.2078 0.3176 0.2745);fill-opacity:1;"/>
</g>
<defs>
<clipPath id="clip0_6630_10235">
<rect width="100" height="100" fill="white" style="fill:white;fill-opacity:1;"/>
</clipPath>
</defs>
</svg>
