<svg width="109" height="100" viewBox="0 0 109 100" fill="none" xmlns="http://www.w3.org/2000/svg">
<g clip-path="url(#clip0_6630_10077)">
<path d="M105.158 51.1036L100.36 41.6667H103.131C105.428 41.6667 107.297 39.7973 107.297 37.5C107.297 35.2027 105.428 33.3333 103.131 33.3333H96.6441L89.2568 8.87387C87.6351 3.55856 82.8378 0 77.2748 0H31.036C25.4955 0 20.6757 3.55856 19.0766 8.87387L11.6667 33.3333H5.18018C2.88288 33.3333 1.01351 35.2027 1.01351 37.5C1.01351 39.7973 2.88288 41.6667 5.18018 41.6667H7.95045L3.15315 51.1036C1.08108 55.1802 0 59.7522 0 64.3243V75C0 81.8468 5.63063 87.5 12.5 87.5V91.6667C12.5 96.2613 16.2387 100 20.8333 100C25.4279 100 29.1667 96.2613 29.1667 91.6667V87.5H79.1667V91.6667C79.1667 96.2613 82.9054 100 87.5 100C92.0946 100 95.8333 96.2613 95.8333 91.6667V87.5C99.0315 87.5 101.937 86.2838 104.167 84.2793C106.712 82.0045 108.333 78.6937 108.333 75V64.3243C108.333 59.7522 107.23 55.1802 105.158 51.1036ZM23.1757 62.5H13.0856C10.7883 62.5 8.91892 60.6306 8.91892 58.3333C8.91892 56.036 10.7883 54.1667 13.0856 54.1667H23.1757C25.473 54.1667 27.3423 56.036 27.3423 58.3333C27.3423 60.6306 25.473 62.5 23.1757 62.5ZM25.991 33.3333C23.1982 33.3333 21.1937 30.6306 22.0045 27.9504L27.0495 11.2838C27.5901 9.52703 29.2117 8.33333 31.036 8.33333H77.2748C79.1216 8.33333 80.7432 9.52703 81.2613 11.2838L86.3063 27.9504C87.1171 30.6306 85.1126 33.3333 82.3198 33.3333H25.991ZM75 79.1667H33.3333C31.036 79.1667 29.1667 77.2973 29.1667 75V74.3468C29.1667 70.1126 32.6126 66.6667 36.8468 66.6667H70.8333C75.4279 66.6667 79.1667 70.4054 79.1667 75C79.1667 77.2973 77.2973 79.1667 75 79.1667ZM95.6081 62.5H85.1577C82.8604 62.5 80.991 60.6306 80.991 58.3333C80.991 56.036 82.8604 54.1667 85.1577 54.1667H95.6081C97.9054 54.1667 99.7748 56.036 99.7748 58.3333C99.7748 60.6306 97.9054 62.5 95.6081 62.5Z" fill="#D4512E" style="fill:#D4512E;fill:color(display-p3 0.8314 0.3176 0.1804);fill-opacity:1;"/>
</g>
<defs>
<clipPath id="clip0_6630_10077">
<rect width="108.333" height="100" fill="white" style="fill:white;fill-opacity:1;"/>
</clipPath>
</defs>
</svg>
