<svg width="169" height="100" viewBox="0 0 169 100" fill="none" xmlns="http://www.w3.org/2000/svg">
<g clip-path="url(#clip0_6630_10075)">
<path fill-rule="evenodd" clip-rule="evenodd" d="M40.3268 71.7434C39.0998 70.6592 38.9787 68.7815 40.0572 67.544L44.7386 62.1818C45.2661 61.5965 45.9969 61.2351 46.7784 61.1722C47.56 61.129 48.3298 61.3883 48.9237 61.9068C50.1429 63.0068 50.2641 64.8845 49.1934 66.1298L44.512 71.4645C43.4334 72.7059 41.5577 72.8277 40.3229 71.7434H40.3268ZM49.0136 79.4312C50.2446 80.5194 52.1202 80.3936 53.2027 79.1562L58.4507 73.1616L60.4397 70.887C61.5183 69.6418 61.3971 67.7562 60.1662 66.6641C59.623 66.1927 58.9275 65.9334 58.2123 65.9295C57.3566 65.9216 56.5398 66.2909 55.981 66.943L48.7401 75.2122C47.6616 76.4574 47.7827 78.3391 49.0097 79.4351L49.0136 79.4312ZM57.7043 87.0915C56.4773 86.0073 56.3523 84.1295 57.4308 82.896L62.6827 76.9013C63.7574 75.6639 65.6252 75.5343 66.8601 76.6146C68.091 77.6949 68.22 79.5726 67.1453 80.814C67.1453 80.814 67.1414 80.8179 67.1375 80.8218L64.3865 83.9842L61.8895 86.8401C60.7992 88.0618 58.9314 88.1757 57.7043 87.0915ZM70.5763 94.5003L73.0733 91.6444C74.1675 90.4227 74.0737 88.541 72.8584 87.4411C71.6431 86.3412 69.7713 86.4354 68.6772 87.6572C68.6576 87.6807 68.6381 87.7043 68.6185 87.7279L66.1215 90.5602C65.0469 91.8055 65.168 93.6872 66.3911 94.7832C67.6221 95.8713 69.4978 95.7456 70.5802 94.5082L70.5763 94.5003ZM126.867 9.18057C126.929 9.05093 127.042 8.9488 127.179 8.90166L150.215 0.0275192C150.278 0.00787748 150.348 2.07833e-05 150.414 0.00394913C150.649 -0.00390756 150.86 0.137513 150.95 0.3575L168.964 47.7216C169.078 48.0123 168.933 48.3423 168.64 48.4523L145.6 57.3264C145.311 57.4246 144.991 57.2793 144.869 56.9964L126.855 9.63233C126.804 9.48305 126.808 9.32199 126.871 9.17664L126.867 9.18057ZM82.4362 16.338L64.1325 30.9554C63.5307 31.4072 63.1868 32.1221 63.1986 32.8764L62.9524 50.3732C63.097 51.6146 64.2146 52.4985 65.4494 52.3531C69.9393 51.6185 73.7259 47.313 74.8787 40.7606C74.8982 40.6427 74.9256 40.5209 74.9607 40.407C75.371 39.0282 76.0236 37.7357 76.8872 36.5886C79.5835 32.9981 84.6635 32.2793 88.2391 34.9898C88.4696 35.1666 88.6924 35.3512 88.9034 35.5516L121.474 66.4284C124.213 64.5821 127.132 61.6751 130.169 57.7585C131.943 55.3583 134.319 53.4727 137.054 52.2942L123.889 17.7012C122.041 18.3336 119.856 19.0918 117.363 19.9757C116.808 20.1839 116.203 20.1996 115.64 20.0267C106.332 17.3201 97.3675 15.7802 86.5627 15.0456C85.0699 14.916 83.5889 15.3795 82.4362 16.3341V16.338ZM55.5786 22.3523L45.2114 17.4222L31.8432 52.5731C32.5271 52.9541 33.2109 53.3313 33.8948 53.7123C34.3988 53.9755 34.8131 54.3919 35.0671 54.9026C36.0596 56.9218 37.2397 58.8427 38.5879 60.6419L40.5105 58.442C43.6405 54.8555 49.0683 54.5019 52.6361 57.6485C53.6482 58.5442 54.4375 59.6638 54.9416 60.9208C57.9662 59.6598 61.7566 60.2609 63.898 62.4136C65.8167 64.3424 67.2118 67.434 66.6881 70.4039C68.1379 70.7063 69.486 71.3859 70.5919 72.3759C73.1163 74.6072 74.1128 78.1152 73.1436 81.3522C74.4019 81.69 75.5586 82.3225 76.5277 83.1985C78.2393 84.703 79.2826 86.8322 79.4233 89.1146C79.478 89.9277 79.4155 90.7448 79.2436 91.5423L88.3524 99.3047C88.9542 99.8154 89.7318 100.063 90.5173 99.9882C91.3027 99.9332 92.0334 99.5601 92.5375 98.9512C93.0494 98.3501 93.2956 97.5645 93.2253 96.7749C93.1628 95.9892 92.7915 95.2624 92.1937 94.7518L91.6661 94.2961L79.6461 84.0549C78.4581 83.0453 78.3096 81.2579 79.3178 80.0637C80.326 78.8694 82.1001 78.7202 83.288 79.7337L95.8395 90.4306L96.6211 91.1141C97.8872 92.159 99.759 91.9744 100.798 90.7016C101.814 89.4563 101.666 87.6257 100.458 86.5612L86.8167 74.9293C85.6326 73.9119 85.4959 72.1206 86.5119 70.9342C87.5162 69.7557 89.2785 69.6103 90.4626 70.6081L104.1 82.24L104.112 82.2635H104.124L105.839 83.7288C107.105 84.7738 108.977 84.5891 110.017 83.3163C111.033 82.0711 110.884 80.2404 109.677 79.1759L95.5308 67.1119C94.3546 66.0866 94.2257 64.2992 95.2456 63.1128C96.2499 61.9461 97.9966 61.8008 99.1767 62.7868L113.323 74.8507C113.416 74.9293 113.592 75.0786 113.592 75.0786L115.429 76.646C116.031 77.1528 116.804 77.4081 117.59 77.3531C118.371 77.2785 119.094 76.9092 119.614 76.316C120.65 75.0786 120.45 73.2323 119.157 71.9909L85.0387 39.6724C84.5385 39.1735 83.839 38.9299 83.1434 39.0164C82.4401 39.0635 81.7914 39.4249 81.3811 40.0024C80.9434 40.5798 80.6113 41.232 80.3963 41.9233C78.2041 54.0109 71.4477 56.7921 68.2356 57.4246C64.2146 59.1099 59.5957 57.2007 57.9193 53.1623C57.5949 52.3767 57.3956 51.5478 57.3331 50.6993C57.3253 50.5971 57.3253 50.5225 57.3253 50.4479L57.5715 32.7978C57.5832 30.3465 58.7086 28.0366 60.6312 26.5282L65.2032 22.8866C62.6241 22.8119 59.7911 22.7098 56.7001 22.6077C56.3171 22.5998 55.9381 22.5134 55.5864 22.3562L55.5786 22.3523ZM0.0384814 47.7177L18.053 0.353572C18.1389 0.133585 18.3539 -0.00783591 18.5883 2.07832e-05C18.6547 -0.00390756 18.7212 0.00394913 18.7837 0.0235909L41.8274 8.89773C42.1165 9.00772 42.265 9.33377 42.1556 9.62447C42.1556 9.62447 42.1556 9.6284 42.1556 9.63233L24.1411 56.9964C24.0864 57.1339 23.977 57.2439 23.8403 57.2989C23.7035 57.3617 23.5511 57.3696 23.4104 57.3225L0.358912 48.4523C0.069743 48.3383 -0.0748417 48.0123 0.0345737 47.7216L0.0384814 47.7177Z" fill="#D4512E" style="fill:#D4512E;fill:color(display-p3 0.8314 0.3176 0.1804);fill-opacity:1;"/>
</g>
<defs>
<clipPath id="clip0_6630_10075">
<rect width="169" height="100" fill="white" style="fill:white;fill-opacity:1;"/>
</clipPath>
</defs>
</svg>
