<svg width="100" height="100" viewBox="0 0 100 100" fill="none" xmlns="http://www.w3.org/2000/svg">
<g clip-path="url(#clip0_6630_10244)">
<path d="M43.3337 51.6653H5.00105C2.23787 51.6653 0 53.9058 0 56.6663V94.999C0 97.7595 2.23787 100 5.00105 100H43.3337C46.0942 100 48.3321 97.7595 48.3321 94.999V56.6663C48.3321 53.9058 46.0942 51.6653 43.3337 51.6653ZM44.9989 94.999C44.9989 95.9183 44.253 96.6669 43.3337 96.6669H5.00105C4.07911 96.6669 3.33316 95.9183 3.33316 94.999V56.6663C3.33316 55.7444 4.07911 54.9984 5.00105 54.9984H43.3337C44.253 54.9984 44.9989 55.7444 44.9989 56.6663V94.999Z" fill="#D4512E" style="fill:#D4512E;fill:color(display-p3 0.8314 0.3176 0.1804);fill-opacity:1;"/>
<path d="M94.999 51.6653H56.6664C53.9058 51.6653 51.668 53.9058 51.668 56.6663V94.999C51.668 97.7595 53.9058 100 56.6664 100H94.999C97.7622 100 100 97.7595 100 94.999V56.6663C100 53.9058 97.7622 51.6653 94.999 51.6653ZM96.6669 94.999C96.6669 95.9183 95.921 96.6669 94.999 96.6669H56.6664C55.7471 96.6669 55.0011 95.9183 55.0011 94.999V56.6663C55.0011 55.7444 55.7471 54.9984 56.6664 54.9984H94.999C95.921 54.9984 96.6669 55.7444 96.6669 56.6663V94.999Z" fill="#D4512E" style="fill:#D4512E;fill:color(display-p3 0.8314 0.3176 0.1804);fill-opacity:1;"/>
<path d="M43.3337 0H5.00105C2.23787 0 0 2.23787 0 5.00105V43.3337C0 46.0942 2.23787 48.3321 5.00105 48.3321H43.3337C46.0942 48.3321 48.3321 46.0942 48.3321 43.3337V5.00105C48.3321 2.23787 46.0942 0 43.3337 0ZM44.9989 43.3337C44.9989 44.253 44.253 44.9989 43.3337 44.9989H5.00105C4.07911 44.9989 3.33316 44.253 3.33316 43.3337V5.00105C3.33316 4.07911 4.07911 3.33316 5.00105 3.33316H43.3337C44.253 3.33316 44.9989 4.07911 44.9989 5.00105V43.3337Z" fill="#D4512E" style="fill:#D4512E;fill:color(display-p3 0.8314 0.3176 0.1804);fill-opacity:1;"/>
<path d="M94.999 0H56.6664C53.9058 0 51.668 2.23787 51.668 5.00105V43.3337C51.668 46.0942 53.9058 48.3321 56.6664 48.3321H94.999C97.7622 48.3321 100 46.0942 100 43.3337V5.00105C100 2.23787 97.7622 0 94.999 0ZM96.6669 43.3337C96.6669 44.253 95.921 44.9989 94.999 44.9989H56.6664C55.7471 44.9989 55.0011 44.253 55.0011 43.3337V5.00105C55.0011 4.07911 55.7471 3.33316 56.6664 3.33316H94.999C95.921 3.33316 96.6669 4.07911 96.6669 5.00105V43.3337Z" fill="#D4512E" style="fill:#D4512E;fill:color(display-p3 0.8314 0.3176 0.1804);fill-opacity:1;"/>
<path d="M43.3337 0H5.00105C2.23787 0 0 2.23787 0 5.00105V43.3337C0 46.0942 2.23787 48.3321 5.00105 48.3321H43.3337C46.0942 48.3321 48.3321 46.0942 48.3321 43.3337V5.00105C48.3321 2.23787 46.0942 0 43.3337 0ZM35.446 26.9568L18.4913 38.0411C17.4669 38.7109 16.1589 38.766 15.0819 38.1855C14.0024 37.6024 13.3326 36.473 13.3326 35.249V13.0805C13.3326 11.8539 14.0024 10.7244 15.0819 10.1413C16.1641 9.55821 17.4748 9.61599 18.4992 10.291L35.446 21.3753C36.3863 21.9925 36.9537 23.0406 36.9537 24.1674C36.9537 25.2942 36.3863 26.3396 35.446 26.9568Z" fill="#D4512E" style="fill:#D4512E;fill:color(display-p3 0.8314 0.3176 0.1804);fill-opacity:1;"/>
<path d="M10 68.3337V81.6663H30.0016V68.3337H10ZM18.3342 78.3332H15.0011C14.0791 78.3332 13.3332 77.5872 13.3332 76.6653C13.3332 75.7433 14.0791 75 15.0011 75H18.3342C19.2535 75 19.9995 75.746 19.9995 76.6653C19.9995 77.5846 19.2535 78.3332 18.3342 78.3332ZM26.1851 77.8499C25.8699 78.1624 25.4444 78.3358 25.0005 78.3332C24.8902 78.3279 24.7773 78.3174 24.6669 78.299C24.5619 78.2806 24.4621 78.2465 24.3675 78.1992C24.2624 78.1624 24.16 78.1125 24.0681 78.0495C23.9814 77.9864 23.8974 77.9208 23.8186 77.8499C23.5139 77.5294 23.3405 77.1065 23.3353 76.6653C23.3379 76.4473 23.3825 76.2319 23.4666 76.0323C23.5533 75.83 23.6715 75.6435 23.8186 75.4833L24.0681 75.281C24.16 75.2206 24.2624 75.1681 24.3675 75.1313C24.4621 75.084 24.5619 75.0499 24.6669 75.0315C25.2159 74.9317 25.7806 75.0972 26.1851 75.4833C26.3322 75.6435 26.4504 75.83 26.5345 76.0323C26.6211 76.2319 26.6658 76.4473 26.6684 76.6653C26.671 77.1092 26.4977 77.5347 26.1851 77.8499Z" fill="#D4512E" style="fill:#D4512E;fill:color(display-p3 0.8314 0.3176 0.1804);fill-opacity:1;"/>
<path d="M33.334 71.1651L38.3324 69.3449V80.6524L33.334 78.8322V71.1651Z" fill="#D4512E" style="fill:#D4512E;fill:color(display-p3 0.8314 0.3176 0.1804);fill-opacity:1;"/>
<path d="M43.3337 51.6653H5.00105C2.23787 51.6653 0 53.9058 0 56.6663V94.999C0 97.7595 2.23787 100 5.00105 100H43.3337C46.0942 100 48.3321 97.7595 48.3321 94.999V56.6663C48.3321 53.9058 46.0942 51.6653 43.3337 51.6653ZM41.6658 80.6525C41.6658 81.7399 41.1378 82.759 40.2448 83.3815C39.3544 84.0066 38.2144 84.1564 37.1927 83.7834L33.2607 82.3519C32.935 83.8937 31.577 84.9969 30.001 84.9995H9.99947C8.15823 84.9995 6.66632 83.5076 6.66632 81.6663V68.3337C6.66632 66.4925 8.15823 65.0005 9.99947 65.0005H30.001C31.577 65.0005 32.935 66.1037 33.2607 67.6455L37.1927 66.214C38.2144 65.8437 39.3544 65.9908 40.2448 66.6159C41.1378 67.2384 41.6658 68.2575 41.6658 69.3449V80.6525Z" fill="#D4512E" style="fill:#D4512E;fill:color(display-p3 0.8314 0.3176 0.1804);fill-opacity:1;"/>
<path d="M71.666 16.2009L88.3318 10.6456V13.7976L71.666 19.3554V16.2009Z" fill="#D4512E" style="fill:#D4512E;fill:color(display-p3 0.8314 0.3176 0.1804);fill-opacity:1;"/>
<path d="M94.999 0H56.6664C53.9058 0 51.668 2.23787 51.668 5.00105V43.3337C51.668 46.0942 53.9058 48.3321 56.6664 48.3321H94.999C97.7622 48.3321 100 46.0942 100 43.3337V5.00105C100 2.23787 97.7622 0 94.999 0ZM91.6659 28.3332C91.6554 28.4277 91.637 28.5196 91.6107 28.6116C91.637 28.7954 91.658 28.9793 91.6659 29.1658C91.6659 32.3886 89.055 34.9995 85.8322 34.9995C82.6093 34.9995 80.0011 32.3886 80.0011 29.1658C80.0011 25.9429 82.612 23.3321 85.8322 23.3321C86.699 23.3374 87.5552 23.537 88.3327 23.9178V17.3119L71.6669 22.8672V34.9995C71.6564 35.094 71.638 35.186 71.6118 35.2779C71.638 35.4618 71.6564 35.6482 71.6669 35.8321C71.6669 39.0549 69.0561 41.6658 65.8332 41.6658C62.6104 41.6658 59.9995 39.0549 59.9995 35.8321C59.9995 32.6093 62.6104 29.9984 65.8332 29.9984C66.7 30.0037 67.5537 30.2033 68.3338 30.5842V16.2009C68.3338 14.7641 69.2531 13.4902 70.6136 13.0385L87.2821 7.48319C88.2986 7.14698 89.4122 7.31771 90.2816 7.94022C91.151 8.56798 91.6659 9.57396 91.6659 10.6456V28.3332Z" fill="#D4512E" style="fill:#D4512E;fill:color(display-p3 0.8314 0.3176 0.1804);fill-opacity:1;"/>
<path d="M94.999 51.6653H56.6664C53.9058 51.6653 51.668 53.9058 51.668 56.6663V94.999C51.668 97.7595 53.9058 100 56.6664 100H94.999C97.7622 100 100 97.7595 100 94.999V56.6663C100 53.9058 97.7622 51.6653 94.999 51.6653ZM90.3815 75.0105L85.5485 79.7279L86.6911 86.3942C86.9038 87.6445 86.3916 88.9053 85.3673 89.6512C84.3403 90.3972 82.9823 90.497 81.8581 89.9086L75.8774 86.7619L69.894 89.9086C68.7698 90.497 67.4118 90.3972 66.3848 89.6512C65.3604 88.9053 64.8483 87.6445 65.061 86.3942L66.201 79.7279L61.368 75.0079C60.4592 74.1227 60.1309 72.7989 60.5249 71.5907C60.9162 70.3851 61.9616 69.5052 63.2171 69.3213L69.9071 68.3521L72.9067 62.2899C73.4688 61.1526 74.6271 60.4329 75.8957 60.4329C77.1644 60.4329 78.3227 61.1526 78.8848 62.2899L81.8739 68.3521L88.5638 69.3213H88.5323C89.7905 69.5052 90.8332 70.3851 91.2272 71.5933C91.6186 72.7989 91.2903 74.1254 90.3815 75.0105Z" fill="#D4512E" style="fill:#D4512E;fill:color(display-p3 0.8314 0.3176 0.1804);fill-opacity:1;"/>
</g>
<defs>
<clipPath id="clip0_6630_10244">
<rect width="100" height="100" fill="white" style="fill:white;fill-opacity:1;"/>
</clipPath>
</defs>
</svg>
