<svg width="92" height="100" viewBox="0 0 92 100" fill="none" xmlns="http://www.w3.org/2000/svg">
<g clip-path="url(#clip0_6630_10272)">
<path d="M19.5004 56.7272H12.125C14.2236 60.8508 17.9171 63.9746 22.4152 65.3192C21.3153 63.1487 20.2154 60.2683 19.5033 56.7272H19.5004Z" fill="#355146" style="fill:#355146;fill:color(display-p3 0.2078 0.3176 0.2745);fill-opacity:1;"/>
<path d="M22.9824 56.7272C23.9463 61.0623 25.5354 64.1746 26.757 66.0552C26.9248 66.061 27.084 66.1045 27.2519 66.1045C27.4198 66.1045 27.579 66.0581 27.7469 66.0552C28.9713 64.1717 30.5604 61.0594 31.5214 56.7272H22.9824Z" fill="#355146" style="fill:#355146;fill:color(display-p3 0.2078 0.3176 0.2745);fill-opacity:1;"/>
<path d="M43.6784 44.7912H35.5273C35.6691 46.1416 35.7675 47.547 35.7675 49.0539C35.7675 50.5607 35.6662 51.9661 35.5215 53.3165H43.6784C44.0344 51.9459 44.2834 50.5346 44.2834 49.0539C44.2834 47.5731 44.0344 46.1619 43.6784 44.7912Z" fill="#355146" style="fill:#355146;fill:color(display-p3 0.2078 0.3176 0.2745);fill-opacity:1;"/>
<path d="M32.084 32.7886C33.2071 34.9938 34.307 37.8481 35.0133 41.3834H42.38C40.2814 37.2599 36.5851 34.1332 32.0869 32.7886H32.084Z" fill="#355146" style="fill:#355146;fill:color(display-p3 0.2078 0.3176 0.2745);fill-opacity:1;"/>
<path d="M27.7536 32.0554C27.5829 32.0496 27.4237 32.0032 27.2529 32.0032C27.0821 32.0032 26.9258 32.0496 26.7579 32.0525C25.4843 34.0027 23.9241 37.1063 22.9805 41.3805H31.5282C30.5874 37.1207 29.033 34.0172 27.7536 32.0525V32.0554Z" fill="#355146" style="fill:#355146;fill:color(display-p3 0.2078 0.3176 0.2745);fill-opacity:1;"/>
<path d="M32.0951 44.7912H22.4098C22.2535 46.1329 22.1406 47.5325 22.1406 49.0539C22.1406 50.5752 22.2535 51.9748 22.4127 53.3165H32.0893C32.2456 51.9748 32.3585 50.5752 32.3585 49.0539C32.3585 47.5296 32.2456 46.1329 32.0922 44.7912H32.0951Z" fill="#355146" style="fill:#355146;fill:color(display-p3 0.2078 0.3176 0.2745);fill-opacity:1;"/>
<path d="M12.125 41.3805H19.4946C20.2009 37.8452 21.3008 34.9851 22.421 32.7856C17.92 34.1302 14.2236 37.254 12.1279 41.3805H12.125Z" fill="#355146" style="fill:#355146;fill:color(display-p3 0.2078 0.3176 0.2745);fill-opacity:1;"/>
<path d="M18.7375 49.0539C18.7375 47.547 18.8359 46.1416 18.9778 44.7912H10.8237C10.4677 46.1619 10.2188 47.5731 10.2188 49.0539C10.2188 50.5346 10.4677 51.9459 10.8237 53.3165H18.9806C18.8359 51.9661 18.7346 50.5636 18.7346 49.0539H18.7375Z" fill="#355146" style="fill:#355146;fill:color(display-p3 0.2078 0.3176 0.2745);fill-opacity:1;"/>
<path d="M35.0018 56.7272C34.2926 60.2683 33.1898 63.1487 32.0898 65.3192C36.588 63.9717 40.2786 60.8508 42.3772 56.7272H35.0018Z" fill="#355146" style="fill:#355146;fill:color(display-p3 0.2078 0.3176 0.2745);fill-opacity:1;"/>
<path d="M86.9207 10.8261L47.4386 0.234704C43.803 -0.738955 40.069 1.4199 39.0935 5.05663L35.5332 18.3633H51.0974C53.2017 18.3633 55.0572 19.337 56.3076 20.838C57.6044 21.1858 60.0271 21.8349 62.2502 22.4318L73.4638 11.965L76.6044 12.8082L69.5764 24.3994C71.6402 24.9529 73.7446 25.518 75.1224 25.8889L79.3832 23.3823L81.476 23.9445L78.1733 28.9547L78.5322 34.9474L76.4394 34.3852L74.0022 30.082C72.6215 29.7111 70.5171 29.146 68.4562 28.5925L68.7543 42.1484L65.6137 41.3052L61.13 26.6278C60.0358 26.3351 58.9417 26.0396 57.9112 25.7643V66.7797L61.4194 53.4179L64.7106 54.3018L57.9112 80.1965V86.5745C57.9112 90.3416 54.8603 93.3959 51.0974 93.3959H39.3454L63.1186 99.774C66.7542 100.748 70.4882 98.5888 71.4636 94.952L82.4891 53.7541L79.1893 52.8934L80.075 49.5986L83.3719 50.4593L91.7431 19.1892C92.7157 15.5495 90.5592 11.8114 86.9265 10.8348L86.9207 10.8261ZM62.7365 48.4714L59.4453 47.5876L60.3311 44.2928L63.6222 45.1766L62.7365 48.4714ZM66.9076 46.0604L70.2016 46.9443L69.3245 50.2391L66.0305 49.3552L66.9076 46.0604ZM64.8814 93.1757L61.5902 92.2918L71.2871 56.0578L74.5782 56.9417L64.8814 93.1757ZM75.8981 52.0009L72.607 51.1171L73.4927 47.8223L76.7839 48.7061L75.8981 52.0009Z" fill="#355146" style="fill:#355146;fill:color(display-p3 0.2078 0.3176 0.2745);fill-opacity:1;"/>
<path d="M51.098 21.774H0V89.9794H51.098C52.9766 89.9794 54.505 88.4494 54.505 86.5687V25.1818C54.505 23.3012 52.9766 21.7711 51.098 21.7711V21.774ZM44.2842 83.158H10.2208V79.7473H44.2842V83.158ZM27.2525 69.5152C15.9636 69.5152 6.81384 60.3553 6.81384 49.0539C6.81384 37.7525 15.9636 28.5925 27.2525 28.5925C38.5413 28.5925 47.6911 37.7525 47.6911 49.0539C47.6911 60.3553 38.5413 69.5152 27.2525 69.5152Z" fill="#355146" style="fill:#355146;fill:color(display-p3 0.2078 0.3176 0.2745);fill-opacity:1;"/>
</g>
<defs>
<clipPath id="clip0_6630_10272">
<rect width="91.9753" height="100" fill="white" style="fill:white;fill-opacity:1;"/>
</clipPath>
</defs>
</svg>
