<svg width="100" height="100" viewBox="0 0 100 100" fill="none" xmlns="http://www.w3.org/2000/svg">
<g clip-path="url(#clip0_6630_10256)">
<path d="M13.8423 9.09719C16.4543 7.84574 19.3785 7.14195 22.4637 7.14195H22.5034C25.5292 7.14195 28.4013 7.81848 30.9761 9.02533V8.552C30.9761 3.83612 27.14 -0.00250244 22.4216 -0.00250244H22.3944C17.6785 -0.00250244 13.8398 3.83364 13.8398 8.552V9.09471L13.8423 9.09719Z" fill="#D4512E" style="fill:#D4512E;fill:color(display-p3 0.8314 0.3176 0.1804);fill-opacity:1;"/>
<path d="M41.1127 73.1048C38.4512 70.5846 36.7512 66.9839 36.7512 63.0585V60.8629C36.7512 58.7342 37.2592 56.7219 38.1563 54.9377C35.4031 52.9155 32.0081 51.7186 28.3355 51.7186H16.6337C7.46218 51.7186 -0.00195312 59.1802 -0.00195312 68.3543V96.486C-0.00195312 98.4239 1.57414 99.9975 3.50956 99.9975H32.0378V88.5188C32.0378 81.8997 35.703 76.1207 41.1078 73.1024L41.1127 73.1048Z" fill="#D4512E" style="fill:#D4512E;fill:color(display-p3 0.8314 0.3176 0.1804);fill-opacity:1;"/>
<path d="M83.3637 51.7211H71.662C67.9919 51.7211 64.5969 52.918 61.8412 54.9402C62.7383 56.7244 63.2463 58.7367 63.2463 60.8654V63.061C63.2463 66.9839 61.5488 70.5846 58.8848 73.1073C64.2896 76.1257 67.9547 81.9047 67.9547 88.5238V100.002H96.483C98.4209 100.002 99.9945 98.4264 99.9945 96.491V68.3592C99.9945 59.1877 92.5328 51.7235 83.3588 51.7235L83.3637 51.7211Z" fill="#D4512E" style="fill:#D4512E;fill:color(display-p3 0.8314 0.3176 0.1804);fill-opacity:1;"/>
<path d="M14.3228 25.4653C20.9667 25.4653 26.3913 20.1844 26.6069 13.6124C25.3084 13.2183 23.9305 13.0027 22.5031 13.0027H22.4635C15.7155 13.0027 10.058 17.7508 8.65039 24.08C10.3925 24.9895 12.3255 25.4653 14.3228 25.4653Z" fill="#D4512E" style="fill:#D4512E;fill:color(display-p3 0.8314 0.3176 0.1804);fill-opacity:1;"/>
<path d="M22.5067 45.6794C30.3128 45.6794 36.6618 39.3304 36.6618 31.5243V27.1578C36.6618 23.0639 34.9122 19.3715 32.1243 16.7844C30.4541 25.0688 23.1089 31.326 14.3264 31.326C12.2522 31.326 10.23 30.9766 8.31445 30.305V31.5268C8.31445 39.3329 14.6634 45.6818 22.4695 45.6818H22.5092L22.5067 45.6794Z" fill="#D4512E" style="fill:#D4512E;fill:color(display-p3 0.8314 0.3176 0.1804);fill-opacity:1;"/>
<path d="M77.5337 45.6794C84.5567 45.6794 90.3977 40.5397 91.4979 33.824C87.2975 32.4065 83.4812 30.1118 80.2571 27.0637C75.7172 31.3335 69.9506 34.1462 63.7949 35.0928C65.3809 41.1766 70.9195 45.6819 77.494 45.6819H77.5337V45.6794Z" fill="#D4512E" style="fill:#D4512E;fill:color(display-p3 0.8314 0.3176 0.1804);fill-opacity:1;"/>
<path d="M63.3384 24.9597V29.2295C69.0109 28.2556 74.2521 25.3166 78.0387 20.9129C78.5963 20.2661 79.4066 19.8944 80.2591 19.8944C81.1116 19.8944 81.9244 20.2661 82.4795 20.9129C85.0221 23.8693 88.1594 26.1517 91.6858 27.6361V24.9399C91.6858 17.1462 85.3269 10.8046 77.5108 10.8046C69.6948 10.8046 63.3359 17.1462 63.3359 24.9399V24.9597H63.3384Z" fill="#D4512E" style="fill:#D4512E;fill:color(display-p3 0.8314 0.3176 0.1804);fill-opacity:1;"/>
<path d="M62.0969 100V88.5213C62.0969 82.0211 56.8085 76.7353 50.3109 76.7353H49.6864C43.1862 76.7353 37.9004 82.0236 37.9004 88.5213V100H62.0969Z" fill="#D4512E" style="fill:#D4512E;fill:color(display-p3 0.8314 0.3176 0.1804);fill-opacity:1;"/>
<path d="M42.6113 60.8629V63.0585C42.6113 67.2218 46.0584 70.8745 49.9887 70.8745H50.0135C53.9438 70.8745 57.3909 67.2218 57.3909 63.0585V60.8629C57.3909 56.7963 54.0826 53.4855 50.0135 53.4855H49.9887C45.9221 53.4855 42.6113 56.7938 42.6113 60.8629Z" fill="#D4512E" style="fill:#D4512E;fill:color(display-p3 0.8314 0.3176 0.1804);fill-opacity:1;"/>
</g>
<defs>
<clipPath id="clip0_6630_10256">
<rect width="100" height="100" fill="white" style="fill:white;fill-opacity:1;"/>
</clipPath>
</defs>
</svg>
