<svg width="101" height="100" viewBox="0 0 101 100" fill="none" xmlns="http://www.w3.org/2000/svg">
<path d="M87.7816 87.9933C90.3644 90.5761 90.5387 94.6484 88.1619 97.0093C85.7851 99.3861 81.7286 99.2118 79.1458 96.6132L52.5256 67.3785C50.7034 67.3626 48.6594 66.9348 46.3618 66.0158L56.0908 56.2867L62.429 62.6249L87.7816 87.9775V87.9933ZM31.7365 55.9064L43.6998 43.9432L31.5622 31.8056C21.9599 22.1717 12.3576 12.5852 6.57407 6.80165C5.76596 5.99354 4.73601 5.61325 3.59514 5.75586C2.78703 5.85093 1.61447 6.62735 1.39264 8.60802C0.552833 16.7367 6.51069 30.8549 27.6959 52.0402C29.0903 53.4346 30.4372 54.718 31.7207 55.8906L31.7365 55.9064ZM53.9676 22.5519L55.5046 21.0149C55.5046 21.0149 55.5046 20.9991 55.5363 20.9833L53.9676 22.5519ZM98.7624 19.8424C97.4156 18.4955 95.5458 18.1628 94.6109 19.1135L75.644 38.0804C74.6933 39.0311 72.9345 38.8093 71.7302 37.5892C70.526 36.3849 70.3041 34.6261 71.239 33.6754L90.2059 14.7085C91.1408 13.7578 90.8239 11.888 89.477 10.557C88.1302 9.21014 86.2604 8.87739 85.3255 9.82811L66.3428 28.7792C65.3921 29.7299 63.6332 29.5081 62.429 28.288C61.2089 27.0837 61.0029 25.309 61.9378 24.3742L80.9205 5.4231C81.8554 4.47238 81.5385 2.60263 80.1916 1.27162C78.8448 -0.0752389 76.975 -0.407991 76.0402 0.54273L55.5521 21.0308C48.8812 27.7334 51.0203 32.3919 54.8232 36.6068L2.05814 89.3085C-0.524652 91.8913 -0.698951 95.9635 1.66201 98.3245C4.03881 100.701 8.09523 100.527 10.678 97.9442L63.4272 45.2108C67.658 49.0295 72.3165 51.1687 79.0349 44.4502L99.5071 23.978C100.442 23.0273 100.125 21.1576 98.7783 19.8265L98.7624 19.8424Z" fill="#355146" style="fill:#355146;fill:color(display-p3 0.2078 0.3176 0.2745);fill-opacity:1;"/>
</svg>
