<svg width="24" height="24" viewBox="0 0 24 24" fill="none" xmlns="http://www.w3.org/2000/svg">
<g clip-path="url(#clip0_6698_8841)">
<path d="M13.7447 23.1962C13.176 23.285 12.5945 23.3294 12 23.3294C10.3644 23.3297 8.74807 22.9759 7.26219 22.2922C5.77631 21.6085 4.45608 20.6112 3.39226 19.3688C2.32843 18.1264 1.54623 16.6684 1.09941 15.0949C0.652595 13.5215 0.551761 11.87 0.803841 10.2539C0.109055 8.9324 -0.144827 7.42329 0.0793013 5.94716C0.30343 4.47104 0.993817 3.1053 2.04956 2.04956C3.1053 0.993818 4.47104 0.30343 5.94716 0.0793013C7.42329 -0.144827 8.9324 0.109055 10.2539 0.803841C10.8244 0.714982 11.4064 0.670553 12 0.670553C13.6356 0.670254 15.2519 1.02411 16.7378 1.70781C18.2237 2.39151 19.5439 3.38883 20.6077 4.63123C21.6716 5.87363 22.4538 7.33164 22.9006 8.90506C23.3474 10.4785 23.4482 12.13 23.1962 13.7461C23.8909 15.0676 24.1448 16.5767 23.9207 18.0528C23.6966 19.529 23.0062 20.8947 21.9504 21.9504C20.8947 23.0062 19.529 23.6966 18.0528 23.9207C16.5767 24.1448 15.0663 23.8909 13.7447 23.1962ZM12.0706 18.8723H12.0173C15.8453 18.8723 17.7527 17.0249 17.7527 14.5498C17.7527 12.953 17.0183 11.2563 14.1193 10.6071L11.4762 10.0207C10.4699 9.79143 9.31426 9.48753 9.31426 8.53452C9.31426 7.58152 10.1406 6.91774 11.6121 6.91774C14.5844 6.91774 14.3139 8.95438 15.7854 8.95438C16.5531 8.95438 17.2422 8.49853 17.2422 7.7148C17.2422 5.88876 14.3139 4.5159 11.8361 4.5159C9.14232 4.5159 6.27396 5.66084 6.27396 8.70646C6.27396 10.17 6.79912 11.7321 9.68613 12.4558L13.2702 13.3502C14.3579 13.6194 14.6271 14.2286 14.6271 14.779C14.6271 15.6947 13.7154 16.5891 12.0706 16.5891C8.84908 16.5891 9.30093 14.1139 7.57352 14.1139C6.80045 14.1139 6.23664 14.6444 6.23664 15.4082C6.23664 16.893 8.03869 18.8723 12.0706 18.8723Z" fill="#2D423A" style="fill:#2D423A;fill:color(display-p3 0.1765 0.2588 0.2275);fill-opacity:1;"/>
</g>
<defs>
<clipPath id="clip0_6698_8841">
<rect width="24" height="24" fill="white" style="fill:white;fill-opacity:1;"/>
</clipPath>
</defs>
</svg>
