<svg width="64" height="65" viewBox="0 0 64 65" fill="none" xmlns="http://www.w3.org/2000/svg">
<rect y="0.980469" width="64" height="64" rx="16" fill="#F5F8F6" style="fill:#F5F8F6;fill:color(display-p3 0.9608 0.9725 0.9647);fill-opacity:1;"/>
<g clip-path="url(#clip0_6719_8387)">
<path d="M38.5 37.9805C38.5 38.8095 37.829 39.4805 37 39.4805C36.171 39.4805 35.5 38.8095 35.5 37.9805C35.5 37.1515 36.171 36.4805 37 36.4805C37.829 36.4805 38.5 37.1515 38.5 37.9805ZM43.707 44.6875C43.512 44.8825 43.256 44.9805 43 44.9805C42.744 44.9805 42.488 44.8825 42.293 44.6875L40.471 42.8655C39.49 43.5645 38.294 43.9805 37 43.9805C33.692 43.9805 31 41.2885 31 37.9805C31 34.6725 33.692 31.9805 37 31.9805C40.308 31.9805 43 34.6725 43 37.9805C43 39.2745 42.584 40.4705 41.885 41.4515L43.707 43.2735C44.098 43.6645 44.098 44.2965 43.707 44.6875ZM40.741 38.8095C41.075 38.3085 41.075 37.6525 40.741 37.1505C40.109 36.2015 38.921 34.9795 37 34.9795C35.03 34.9795 33.832 36.2635 33.213 37.2205C32.919 37.6745 32.919 38.2845 33.213 38.7385C33.833 39.6955 35.032 40.9795 37 40.9795C39.001 40.9795 40.453 39.2415 40.741 38.8085V38.8095ZM33 28.9805H39.54C39.193 28.0675 38.66 27.2275 37.949 26.5165L34.465 23.0305C33.753 22.3195 32.913 21.7865 32 21.4405V27.9805C32 28.5315 32.448 28.9805 33 28.9805ZM29 37.9805C29 34.9705 30.673 32.3455 33.136 30.9805H33C31.346 30.9805 30 29.6345 30 27.9805V21.0045C29.839 20.9935 29.678 20.9805 29.515 20.9805H25C22.243 20.9805 20 23.2235 20 25.9805V39.9805C20 42.7375 22.243 44.9805 25 44.9805H33.136C30.673 43.6155 29 40.9905 29 37.9805Z" fill="#2D423A" style="fill:#2D423A;fill:color(display-p3 0.1765 0.2588 0.2275);fill-opacity:1;"/>
</g>
<defs>
<clipPath id="clip0_6719_8387">
<rect width="24" height="24" fill="white" style="fill:white;fill-opacity:1;" transform="translate(20 20.9805)"/>
</clipPath>
</defs>
</svg>
