<svg width="64" height="64" viewBox="0 0 64 64" fill="none" xmlns="http://www.w3.org/2000/svg">
<rect width="64" height="64" rx="16" fill="#F5F8F6" style="fill:#F5F8F6;fill:color(display-p3 0.9608 0.9725 0.9647);fill-opacity:1;"/>
<g clip-path="url(#clip0_6667_6796)">
<path d="M34 24C34 23.448 34.447 23 35 23H37C39.206 23 41 24.794 41 27V29C41 29.552 40.553 30 40 30C39.447 30 39 29.552 39 29V27C39 25.897 38.103 25 37 25H35C34.447 25 34 24.552 34 24ZM29 39H27C25.897 39 25 38.103 25 37V35C25 34.448 24.553 34 24 34C23.447 34 23 34.448 23 35V37C23 39.206 24.794 41 27 41H29C29.553 41 30 40.552 30 40C30 39.448 29.553 39 29 39ZM32 26C32 29.309 29.309 32 26 32C22.691 32 20 29.309 20 26C20 22.691 22.691 20 26 20C29.309 20 32 22.691 32 26ZM24 24C24 25.105 24.895 26 26 26C27.105 26 28 25.105 28 24C28 22.895 27.105 22 26 22C24.895 22 24 22.895 24 24ZM28.776 28.87C28.331 27.775 27.262 27 26.008 27H25.992C24.738 27 23.667 27.774 23.223 28.868C23.943 29.566 24.921 30 26.001 30C27.081 30 28.056 29.567 28.777 28.87H28.776ZM44 38C44 41.309 41.309 44 38 44C34.691 44 32 41.309 32 38C32 34.691 34.691 32 38 32C41.309 32 44 34.691 44 38ZM36 36C36 37.105 36.895 38 38 38C39.105 38 40 37.105 40 36C40 34.895 39.105 34 38 34C36.895 34 36 34.895 36 36ZM40.776 40.87C40.331 39.775 39.262 39 38.008 39H37.992C36.738 39 35.667 39.774 35.223 40.868C35.943 41.566 36.921 42 38.001 42C39.081 42 40.056 41.567 40.777 40.87H40.776Z" fill="#2D423A" style="fill:#2D423A;fill:color(display-p3 0.1765 0.2588 0.2275);fill-opacity:1;"/>
</g>
<defs>
<clipPath id="clip0_6667_6796">
<rect width="24" height="24" fill="white" style="fill:white;fill-opacity:1;" transform="translate(20 20)"/>
</clipPath>
</defs>
</svg>
