<svg width="65" height="64" viewBox="0 0 65 64" fill="none" xmlns="http://www.w3.org/2000/svg">
<rect x="0.332031" width="64" height="64" rx="16" fill="#F5F8F6" style="fill:#F5F8F6;fill:color(display-p3 0.9608 0.9725 0.9647);fill-opacity:1;"/>
<g clip-path="url(#clip0_6667_6768)">
<path d="M43.6939 39.261L41.2979 36.865C40.8189 36.386 39.9999 36.725 39.9999 37.402V38.826C39.2039 38.344 38.4069 36.862 37.7439 35.617C36.7539 33.757 36.0689 32 34.4999 32C32.9309 32 32.2459 33.757 31.2559 35.617C30.4539 37.124 29.4559 39 28.4999 39H26.4999C26.4999 39 27.3199 38.154 28.0909 37C28.3759 36.618 29.1589 35.3 29.4899 34.677C30.5999 32.592 31.7299 30 34.4999 30C34.9769 30 35.6599 30.081 36.0599 30.219C34.8799 26.32 33.8419 24 31.9999 24C29.7869 24 28.7359 27.321 27.2049 32.74C26.7849 34.227 25.7999 36.195 24.9999 37.54V24H26.5589C27.2359 24 27.5749 23.181 27.0959 22.702L24.6999 20.306C24.2919 19.898 23.6299 19.898 23.2219 20.306L20.8259 22.702C20.3469 23.181 20.6859 24 21.3629 24H22.9989V37C22.9989 39.209 24.7899 41 26.9989 41H39.9989V42.598C39.9989 43.275 40.8179 43.614 41.2969 43.135L43.6929 40.739C44.1009 40.331 44.1019 39.669 43.6939 39.261Z" fill="#2D423A" style="fill:#2D423A;fill:color(display-p3 0.1765 0.2588 0.2275);fill-opacity:1;"/>
</g>
<defs>
<clipPath id="clip0_6667_6768">
<rect width="24" height="24" fill="white" style="fill:white;fill-opacity:1;" transform="translate(20 20)"/>
</clipPath>
</defs>
</svg>
