<svg width="65" height="64" viewBox="0 0 65 64" fill="none" xmlns="http://www.w3.org/2000/svg">
<rect x="0.666016" width="64" height="64" rx="16" fill="#F5F8F6" style="fill:#F5F8F6;fill:color(display-p3 0.9608 0.9725 0.9647);fill-opacity:1;"/>
<g clip-path="url(#clip0_6667_6763)">
<path d="M44 42H26C25.2044 42 24.4413 41.6839 23.8787 41.1213C23.3161 40.5587 23 39.7956 23 39V21C23 20.7348 22.8946 20.4804 22.7071 20.2929C22.5196 20.1054 22.2652 20 22 20C21.7348 20 21.4804 20.1054 21.2929 20.2929C21.1054 20.4804 21 20.7348 21 21V39C21.0016 40.3256 21.5289 41.5964 22.4662 42.5338C23.4036 43.4711 24.6744 43.9984 26 44H44C44.2652 44 44.5196 43.8946 44.7071 43.7071C44.8946 43.5196 45 43.2652 45 43C45 42.7348 44.8946 42.4804 44.7071 42.2929C44.5196 42.1054 44.2652 42 44 42Z" fill="#2D423A" style="fill:#2D423A;fill:color(display-p3 0.1765 0.2588 0.2275);fill-opacity:1;"/>
<path d="M27 40C27.2652 40 27.5196 39.8946 27.7071 39.7071C27.8946 39.5196 28 39.2652 28 39V32C28 31.7348 27.8946 31.4804 27.7071 31.2929C27.5196 31.1054 27.2652 31 27 31C26.7348 31 26.4804 31.1054 26.2929 31.2929C26.1054 31.4804 26 31.7348 26 32V39C26 39.2652 26.1054 39.5196 26.2929 39.7071C26.4804 39.8946 26.7348 40 27 40Z" fill="#2D423A" style="fill:#2D423A;fill:color(display-p3 0.1765 0.2588 0.2275);fill-opacity:1;"/>
<path d="M31 30V39C31 39.2652 31.1054 39.5196 31.2929 39.7071C31.4804 39.8946 31.7348 40 32 40C32.2652 40 32.5196 39.8946 32.7071 39.7071C32.8946 39.5196 33 39.2652 33 39V30C33 29.7348 32.8946 29.4804 32.7071 29.2929C32.5196 29.1054 32.2652 29 32 29C31.7348 29 31.4804 29.1054 31.2929 29.2929C31.1054 29.4804 31 29.7348 31 30Z" fill="#2D423A" style="fill:#2D423A;fill:color(display-p3 0.1765 0.2588 0.2275);fill-opacity:1;"/>
<path d="M36 33V39C36 39.2652 36.1054 39.5196 36.2929 39.7071C36.4804 39.8946 36.7348 40 37 40C37.2652 40 37.5196 39.8946 37.7071 39.7071C37.8946 39.5196 38 39.2652 38 39V33C38 32.7348 37.8946 32.4804 37.7071 32.2929C37.5196 32.1054 37.2652 32 37 32C36.7348 32 36.4804 32.1054 36.2929 32.2929C36.1054 32.4804 36 32.7348 36 33Z" fill="#2D423A" style="fill:#2D423A;fill:color(display-p3 0.1765 0.2588 0.2275);fill-opacity:1;"/>
<path d="M41 29V39C41 39.2652 41.1054 39.5196 41.2929 39.7071C41.4804 39.8946 41.7348 40 42 40C42.2652 40 42.5196 39.8946 42.7071 39.7071C42.8946 39.5196 43 39.2652 43 39V29C43 28.7348 42.8946 28.4804 42.7071 28.2929C42.5196 28.1054 42.2652 28 42 28C41.7348 28 41.4804 28.1054 41.2929 28.2929C41.1054 28.4804 41 28.7348 41 29Z" fill="#2D423A" style="fill:#2D423A;fill:color(display-p3 0.1765 0.2588 0.2275);fill-opacity:1;"/>
<path d="M26.9998 28.9994C27.265 28.9994 27.5193 28.894 27.7068 28.7064L31.2928 25.1204C31.4834 24.9389 31.7365 24.8376 31.9998 24.8376C32.263 24.8376 32.5162 24.9389 32.7068 25.1204L34.8788 27.2924C35.4414 27.8548 36.2043 28.1708 36.9998 28.1708C37.7953 28.1708 38.5582 27.8548 39.1208 27.2924L44.7068 21.7064C44.8889 21.5178 44.9897 21.2652 44.9875 21.003C44.9852 20.7408 44.88 20.49 44.6946 20.3046C44.5092 20.1192 44.2584 20.014 43.9962 20.0118C43.734 20.0095 43.4814 20.1103 43.2928 20.2924L37.7068 25.8774C37.5193 26.0649 37.265 26.1702 36.9998 26.1702C36.7346 26.1702 36.4803 26.0649 36.2928 25.8774L34.1208 23.7064C33.5582 23.144 32.7953 22.8281 31.9998 22.8281C31.2043 22.8281 30.4414 23.144 29.8788 23.7064L26.2928 27.2924C26.153 27.4323 26.0578 27.6104 26.0192 27.8044C25.9806 27.9984 26.0004 28.1994 26.0761 28.3821C26.1518 28.5648 26.2799 28.7209 26.4443 28.8308C26.6087 28.9407 26.802 28.9994 26.9998 28.9994Z" fill="#2D423A" style="fill:#2D423A;fill:color(display-p3 0.1765 0.2588 0.2275);fill-opacity:1;"/>
</g>
<defs>
<clipPath id="clip0_6667_6763">
<rect width="24" height="24" fill="white" style="fill:white;fill-opacity:1;" transform="translate(21 20)"/>
</clipPath>
</defs>
</svg>
