<svg width="64" height="64" viewBox="0 0 64 64" fill="none" xmlns="http://www.w3.org/2000/svg">
<rect width="64" height="64" rx="16" fill="white" style="fill:white;fill-opacity:1;"/>
<g clip-path="url(#clip0_6719_8351)">
<path d="M43.9389 30.6542L40.8679 22.3192C40.4449 21.1682 39.2339 20.5382 38.0439 20.8542L33.0009 22.1992V21.0002C32.9949 19.6922 31.0069 19.6932 31.0009 21.0002V22.7322L25.7469 24.1332C24.4919 24.4682 23.4739 25.3962 23.0239 26.6152L20.0629 34.6542C20.0219 34.7652 20.0009 35.3012 20.0009 35.3012C19.9229 39.2252 24.7499 41.5682 27.5989 38.7632C28.4899 37.9172 29.0009 36.7272 29.0009 35.4992C29.0009 35.4992 28.9799 34.7672 28.9409 34.6572L25.8709 26.2162C25.9949 26.1532 26.1259 26.1022 26.2629 26.0662L31.0009 24.8022V42.0002H25.0009C23.6929 42.0062 23.6939 43.9942 25.0009 44.0002H39.0009C40.3089 43.9942 40.3079 42.0062 39.0009 42.0002H33.0009V24.2682L37.8969 22.9622L35.0629 30.6532C35.0219 30.7642 35.0009 31.3002 35.0009 31.3002C35.0009 33.8062 36.8719 35.8672 39.2609 35.9922C40.5099 36.0582 41.6949 35.6212 42.5989 34.7632C43.4899 33.9172 44.0009 32.7272 44.0009 31.4992C44.0009 31.4992 43.9799 30.7642 43.9389 30.6532V30.6542ZM26.5729 34.0002H22.4349L24.5179 28.3472L26.5729 34.0002ZM39.5009 24.3932L41.5669 30.0002H37.4349L39.5009 24.3932Z" fill="#2D423A" style="fill:#2D423A;fill:color(display-p3 0.1765 0.2588 0.2275);fill-opacity:1;"/>
</g>
<defs>
<clipPath id="clip0_6719_8351">
<rect width="24" height="24" fill="white" style="fill:white;fill-opacity:1;" transform="translate(20 20)"/>
</clipPath>
</defs>
</svg>
