<svg width="64" height="64" viewBox="0 0 64 64" fill="none" xmlns="http://www.w3.org/2000/svg">
<rect width="64" height="64" rx="16" fill="white" style="fill:white;fill-opacity:1;"/>
<g clip-path="url(#clip0_6719_8355)">
<path d="M38 32C34.686 32 32 34.686 32 38C32 41.314 34.686 44 38 44C41.314 44 44 41.314 44 38C44 34.686 41.314 32 38 32ZM41.683 37.712L38.98 40.326C38.528 40.772 37.928 40.997 37.327 40.997C36.726 40.997 36.124 40.772 35.664 40.323L34.31 38.991C33.915 38.604 33.91 37.971 34.296 37.577C34.682 37.182 35.315 37.176 35.71 37.563L37.063 38.894C37.207 39.036 37.443 39.033 37.585 38.892L40.298 36.268C40.695 35.887 41.329 35.898 41.712 36.297C42.094 36.695 42.081 37.329 41.683 37.712ZM28.344 27.226L34.646 21.073C36.156 19.9 38.264 19.68 39.954 20.525C39.954 20.525 41.465 21.614 43.159 21.92C43.642 22.007 44 22.412 44 22.902V32.72C42.534 31.055 40.393 29.999 38 29.999C37.428 29.999 36.87 30.062 36.332 30.176L33.51 27.818L34.691 26.721C35.09 26.339 35.104 25.706 34.722 25.307C34.34 24.908 33.707 24.894 33.308 25.276L29.69 28.705C29.483 28.913 29.197 29.02 28.902 28.995C28.604 28.971 28.342 28.82 28.163 28.57C27.889 28.19 27.973 27.595 28.344 27.223V27.226ZM30.471 40.683C30.168 40.557 29.872 40.404 29.6 40.201L23.467 35.601C22.948 35.211 22.316 35.001 21.667 35.001H21C20.448 35.001 20 34.553 20 34.001V22.937C20 22.429 20.379 22.006 20.884 21.949C22.241 21.798 23.463 21.253 24.713 20.525C25.4 20.181 26.169 20 26.94 20C28.22 20 29.411 20.461 30.33 21.298L30.947 21.891L26.94 25.802C25.867 26.874 25.696 28.569 26.542 29.74C27.062 30.463 28.003 30.999 28.986 30.999C29.779 30.999 30.54 30.687 31.09 30.136L32.057 29.211L34.17 30.976C31.687 32.334 30.002 34.969 30.002 37.999C30.002 38.941 30.173 39.842 30.473 40.681L30.471 40.683Z" fill="#2D423A" style="fill:#2D423A;fill:color(display-p3 0.1765 0.2588 0.2275);fill-opacity:1;"/>
</g>
<defs>
<clipPath id="clip0_6719_8355">
<rect width="24" height="24" fill="white" style="fill:white;fill-opacity:1;" transform="translate(20 20)"/>
</clipPath>
</defs>
</svg>
