<svg width="65" height="65" viewBox="0 0 65 65" fill="none" xmlns="http://www.w3.org/2000/svg">
<rect x="0.666016" y="0.980469" width="64" height="64" rx="16" fill="white" style="fill:white;fill-opacity:1;"/>
<g clip-path="url(#clip0_6713_7982)">
<path d="M44.373 44.6874C44.178 44.8824 43.922 44.9804 43.666 44.9804C43.41 44.9804 43.154 44.8824 42.959 44.6874L36.99 38.7184C35.265 40.1304 33.063 40.9804 30.666 40.9804C25.152 40.9804 20.666 36.4944 20.666 30.9804C20.666 25.4664 25.152 20.9804 30.666 20.9804C33.675 20.9804 36.371 22.3224 38.206 24.4324L32.088 31.4884L30.16 29.5604C29.758 29.1584 29.197 28.9444 28.636 28.9694C28.07 28.9954 27.536 29.2604 27.174 29.6954L23.898 33.6264C23.544 34.0504 23.602 34.6814 24.026 35.0344C24.214 35.1904 24.44 35.2664 24.666 35.2664C24.953 35.2664 25.237 35.1434 25.436 34.9064L28.748 30.9734L30.676 32.9014C31.072 33.2974 31.624 33.5074 32.181 33.4934C32.742 33.4724 33.273 33.2174 33.639 32.7934L39.402 26.1214C40.206 27.5614 40.669 29.2164 40.669 30.9794C40.669 33.3774 39.819 35.5794 38.407 37.3034L44.376 43.2724C44.767 43.6634 44.767 44.2954 44.376 44.6864L44.373 44.6874ZM42.417 22.6284C42.778 22.2104 42.731 21.5784 42.313 21.2174C41.897 20.8584 41.265 20.9014 40.903 21.3204L38.205 24.4314C38.658 24.9514 39.06 25.5154 39.398 26.1214L42.416 22.6274L42.417 22.6284Z" fill="#2D423A" style="fill:#2D423A;fill:color(display-p3 0.1765 0.2588 0.2275);fill-opacity:1;"/>
</g>
<defs>
<clipPath id="clip0_6713_7982">
<rect width="24" height="24" fill="white" style="fill:white;fill-opacity:1;" transform="translate(20.666 20.9805)"/>
</clipPath>
</defs>
</svg>
