<svg width="65" height="64" viewBox="0 0 65 64" fill="none" xmlns="http://www.w3.org/2000/svg">
<rect x="0.666504" width="64" height="64" rx="16" fill="white" style="fill:white;fill-opacity:1;"/>
<path d="M30.7661 44C27.3273 44 27.1278 43.9334 26.7757 43.816C26.0783 43.5836 25.5569 43.0557 25.3453 42.3676C25.0161 41.2973 25.6025 40.4434 25.8233 40.122C26.0176 39.839 26.2994 39.4701 26.7259 38.9115C27.7115 37.621 29.5461 35.2189 32.6202 30.8266C33.6264 29.3215 34.2414 28.2777 34.3953 26.9577C34.3342 25.4369 33.0779 24.2186 31.5425 24.2186C30.1809 24.2186 29.0028 25.1856 28.741 26.518C28.5165 27.6611 27.4077 28.4057 26.2647 28.1812C25.1216 27.9567 24.3769 26.848 24.6015 25.7049C25.2508 22.3993 28.1699 20 31.5425 20C35.443 20 38.6163 23.1733 38.6163 27.0737C38.464 29.3093 37.5833 31.0039 36.0765 33.2456C33.9775 36.2447 32.4449 38.3337 31.3606 39.7805C33.1156 39.7781 35.2726 39.7618 37.3028 39.7362C37.3118 39.7361 37.3209 39.7361 37.3299 39.7361C38.4825 39.7361 39.424 40.663 39.4384 41.8189C39.4531 42.9837 38.5206 43.94 37.3558 43.9545C37.3321 43.9549 34.9598 43.9844 32.5633 43.9954C31.8821 43.9985 31.2869 44 30.7661 44Z" fill="#355146" style="fill:#355146;fill:color(display-p3 0.2078 0.3176 0.2745);fill-opacity:1;"/>
</svg>
