<svg width="64" height="64" viewBox="0 0 64 64" fill="none" xmlns="http://www.w3.org/2000/svg">
<rect width="64" height="64" rx="16" fill="#F5F8F6" style="fill:#F5F8F6;fill:color(display-p3 0.9608 0.9725 0.9647);fill-opacity:1;"/>
<g clip-path="url(#clip0_6881_9277)">
<path d="M39 20H25C22.243 20 20 22.243 20 25V39C20 41.757 22.243 44 25 44H39C41.757 44 44 41.757 44 39V25C44 22.243 41.757 20 39 20ZM32 39C31.172 39 30.5 38.328 30.5 37.5C30.5 36.672 31.172 36 32 36C32.828 36 33.5 36.672 33.5 37.5C33.5 38.328 32.828 39 32 39ZM33.928 32.488C33.407 32.775 33 33.44 33 34C33 34.553 32.552 35 32 35C31.448 35 31 34.553 31 34C31 32.716 31.807 31.374 32.963 30.736C33.726 30.316 34.12 29.482 33.967 28.611C33.829 27.824 33.157 27.153 32.371 27.015C31.765 26.908 31.176 27.062 30.715 27.45C30.26 27.831 30 28.39 30 28.983C30 29.535 29.552 29.983 29 29.983C28.448 29.983 28 29.535 28 28.983C28 27.798 28.521 26.681 29.429 25.919C30.337 25.157 31.538 24.842 32.716 25.046C34.329 25.328 35.654 26.652 35.937 28.266C36.235 29.965 35.428 31.661 33.928 32.488Z" fill="#355146" style="fill:#355146;fill:color(display-p3 0.2078 0.3176 0.2745);fill-opacity:1;"/>
</g>
<defs>
<clipPath id="clip0_6881_9277">
<rect width="24" height="24" fill="white" style="fill:white;fill-opacity:1;" transform="translate(20 20)"/>
</clipPath>
</defs>
</svg>
