<svg width="64" height="64" viewBox="0 0 64 64" fill="none" xmlns="http://www.w3.org/2000/svg">
<rect width="64" height="64" rx="16" fill="white" style="fill:white;fill-opacity:1;"/>
<path d="M38.375 33.9436H37.625V23.3059C37.4977 21.7776 36.5827 20.5321 35.294 20.133C34.0168 19.7375 32.6555 20.2362 31.6522 21.4673C30.5336 22.8396 25.3425 32.1984 23.7781 35.0341C23.3654 35.7821 23.4403 36.716 23.9964 37.394C24.4023 37.8888 25.0189 38.1624 25.6589 38.1624H33.4063V41.8906C33.4063 43.0556 34.3507 44 35.5157 44C36.6806 44 37.625 43.0556 37.625 41.8906V38.1623H38.375C39.54 38.1623 40.4844 37.2179 40.4844 36.0529C40.4844 34.888 39.54 33.9436 38.375 33.9436ZM33.4063 33.9436H29.209L33.4063 26.5782V33.9436Z" fill="#355146" style="fill:#355146;fill:color(display-p3 0.2078 0.3176 0.2745);fill-opacity:1;"/>
</svg>
