<svg width="64" height="64" viewBox="0 0 64 64" fill="none" xmlns="http://www.w3.org/2000/svg">
<rect width="64" height="64" rx="16" fill="white" style="fill:white;fill-opacity:1;"/>
<g clip-path="url(#clip0_6777_6322)">
<path d="M37.487 30.3788C35.9701 28.7811 33.8376 27.8648 31.6365 27.8648C31.1108 27.8648 30.6419 27.886 30.214 27.927C30.2095 27.9275 30.2059 27.9235 30.2066 27.9191L30.8187 24.2245C30.8193 24.2212 30.8222 24.2188 30.8255 24.2188H36.3058C37.5279 24.2188 38.5292 23.2009 38.4559 21.9809C38.3897 20.8758 37.4724 20 36.3505 20H29.0311C27.9992 20 27.1188 20.7466 26.9501 21.7646L25.5001 30.5164C25.3691 31.3069 25.6896 32.1073 26.3394 32.576C26.9882 33.0439 27.8378 33.1085 28.5456 32.7371C28.5597 32.7301 28.6135 32.7036 28.6997 32.6649C29.4798 32.3137 30.1056 32.0836 31.6365 32.0836C32.7016 32.0836 33.6928 32.5098 34.4275 33.2837C35.1617 34.0569 35.5355 35.0713 35.48 36.1401C35.4301 37.1022 35.0139 38.0081 34.3081 38.6909C33.602 39.3741 32.6818 39.7611 31.7169 39.7805C30.2503 39.8097 28.9397 39.0121 28.266 37.7954C27.8395 37.0251 26.9912 36.5883 26.1191 36.71C24.6638 36.9131 23.8479 38.5094 24.5526 39.7989C25.9335 42.3257 28.6168 44.0003 31.6371 44C31.6918 44 31.7471 43.9995 31.8019 43.9984C36.009 43.9136 39.4751 40.5579 39.6931 36.3588C39.8091 34.1231 39.0256 31.9994 37.487 30.3788Z" fill="#355146" style="fill:#355146;fill:color(display-p3 0.2078 0.3176 0.2745);fill-opacity:1;"/>
</g>
<defs>
<clipPath id="clip0_6777_6322">
<rect width="24" height="24" fill="white" style="fill:white;fill-opacity:1;" transform="translate(20 20)"/>
</clipPath>
</defs>
</svg>
