<svg width="64" height="64" viewBox="0 0 64 64" fill="none" xmlns="http://www.w3.org/2000/svg">
<rect width="64" height="64" rx="16" fill="white" style="fill:white;fill-opacity:1;"/>
<g clip-path="url(#clip0_6772_5411)">
<path d="M25.0001 28.9905C24.1201 28.9905 23.2401 28.6605 22.5801 27.9905L20.2901 25.7105C19.9001 25.3205 19.9001 24.6905 20.2901 24.3005C20.6801 23.9105 21.3101 23.9105 21.7001 24.3005L23.9801 26.5805C24.5401 27.1405 25.4401 27.1405 26.0001 26.5805L29.5601 23.0205C30.9001 21.6805 33.0701 21.6805 34.4101 23.0205L35.9701 24.5805C36.5101 25.1205 37.4501 25.1205 37.9901 24.5805L42.2901 20.2905C42.6801 19.9005 43.3101 19.9005 43.7001 20.2905C44.0901 20.6805 44.0901 21.3105 43.7001 21.7005L39.4201 25.9805C38.1301 27.2705 35.8701 27.2705 34.5701 25.9805L33.0101 24.4205C32.4501 23.8605 31.5501 23.8605 30.9901 24.4205L27.4301 27.9805C26.7601 28.6505 25.8801 28.9805 25.0101 28.9805L25.0001 28.9905ZM28.0001 43.0005V34.0005C28.0001 33.4505 27.5501 33.0005 27.0001 33.0005C26.4501 33.0005 26.0001 33.4505 26.0001 34.0005V43.0005C26.0001 43.5505 26.4501 44.0005 27.0001 44.0005C27.5501 44.0005 28.0001 43.5505 28.0001 43.0005ZM23.0001 43.0005V32.0005C23.0001 31.4505 22.5501 31.0005 22.0001 31.0005C21.4501 31.0005 21.0001 31.4505 21.0001 32.0005V43.0005C21.0001 43.5505 21.4501 44.0005 22.0001 44.0005C22.5501 44.0005 23.0001 43.5505 23.0001 43.0005ZM33.0001 43.0005V29.0005C33.0001 28.4505 32.5501 28.0005 32.0001 28.0005C31.4501 28.0005 31.0001 28.4505 31.0001 29.0005V43.0005C31.0001 43.5505 31.4501 44.0005 32.0001 44.0005C32.5501 44.0005 33.0001 43.5505 33.0001 43.0005ZM38.0001 43.0005V32.0005C38.0001 31.4505 37.5501 31.0005 37.0001 31.0005C36.4501 31.0005 36.0001 31.4505 36.0001 32.0005V43.0005C36.0001 43.5505 36.4501 44.0005 37.0001 44.0005C37.5501 44.0005 38.0001 43.5505 38.0001 43.0005ZM43.0001 43.0005V28.0005C43.0001 27.4505 42.5501 27.0005 42.0001 27.0005C41.4501 27.0005 41.0001 27.4505 41.0001 28.0005V43.0005C41.0001 43.5505 41.4501 44.0005 42.0001 44.0005C42.5501 44.0005 43.0001 43.5505 43.0001 43.0005Z" fill="#355146" style="fill:#355146;fill:color(display-p3 0.2078 0.3176 0.2745);fill-opacity:1;"/>
</g>
<defs>
<clipPath id="clip0_6772_5411">
<rect width="24" height="24" fill="white" style="fill:white;fill-opacity:1;" transform="translate(20 20)"/>
</clipPath>
</defs>
</svg>
