<svg width="65" height="64" viewBox="0 0 65 64" fill="none" xmlns="http://www.w3.org/2000/svg">
<rect x="0.333496" width="64" height="64" rx="16" fill="white" style="fill:white;fill-opacity:1;"/>
<path d="M39.0086 27.0547C39.0086 23.1647 35.8439 20 31.954 20C28.5904 20 25.6792 22.3928 25.0316 25.6896C24.8071 26.8328 25.5518 27.9414 26.6949 28.166C27.8381 28.3904 28.9468 27.6458 29.1713 26.5027C29.4312 25.1793 30.6015 24.2188 31.954 24.2188C33.5177 24.2188 34.7899 25.491 34.7899 27.0547C34.7899 28.6184 33.5177 29.8906 31.954 29.8906C30.789 29.8906 29.8446 30.835 29.8446 32C29.8446 33.165 30.789 34.1094 31.954 34.1094C33.5177 34.1094 34.7899 35.3816 34.7899 36.9453C34.7899 38.509 33.5177 39.7812 31.954 39.7812C30.6015 39.7812 29.4312 38.8207 29.1713 37.4973C28.9468 36.3542 27.8381 35.6094 26.695 35.834C25.5518 36.0586 24.8072 37.1672 25.0317 38.3104C25.6792 41.6072 28.5904 44 31.954 44C35.8439 44 39.0086 40.8353 39.0086 36.9453C39.0086 35.0208 38.2337 33.2741 36.9798 32C38.2337 30.7259 39.0086 28.9792 39.0086 27.0547Z" fill="#355146" style="fill:#355146;fill:color(display-p3 0.2078 0.3176 0.2745);fill-opacity:1;"/>
</svg>
