<svg width="64" height="64" viewBox="0 0 64 64" fill="none" xmlns="http://www.w3.org/2000/svg">
<rect width="64" height="64" rx="16" fill="white" style="fill:white;fill-opacity:1;"/>
<g clip-path="url(#clip0_6772_5420)">
<path d="M24 31C21.79 31 20 29.21 20 27V24C20 21.79 21.79 20 24 20C26.21 20 28 21.79 28 24V27C28 29.21 26.21 31 24 31ZM24 22C22.9 22 22 22.9 22 24V27C22 28.1 22.9 29 24 29C25.1 29 26 28.1 26 27V24C26 22.9 25.1 22 24 22ZM29.75 42.9C30.12 42.49 30.08 41.86 29.67 41.49C29.25 41.11 29 40.57 29 40V36C29 35.45 28.55 35 28 35C27.45 35 27 35.45 27 36V40C27 41.14 27.49 42.22 28.33 42.98C28.52 43.15 28.76 43.23 29 43.23C29.27 43.23 29.55 43.12 29.75 42.9ZM34 29V21C34 20.6 33.76 20.23 33.38 20.08C33.01 19.93 32.58 20.01 32.29 20.3L29.85 22.74C29.46 23.13 29.46 23.76 29.85 24.15C30.24 24.54 30.87 24.54 31.26 24.15L32 23.41V29C32 29.55 32.45 30 33 30C33.55 30 34 29.55 34 29ZM25 43V34C25 33.6 24.76 33.23 24.38 33.08C24.01 32.93 23.58 33.01 23.29 33.3L20.85 35.74C20.46 36.13 20.46 36.76 20.85 37.15C21.24 37.54 21.87 37.54 22.26 37.15L23 36.41V43C23 43.55 23.45 44 24 44C24.55 44 25 43.55 25 43ZM37 44C33.14 44 30 40.86 30 37C30 33.14 33.14 30 37 30C40.86 30 44 33.14 44 37C44 40.86 40.86 44 37 44ZM38 39.41L40.71 36.7C41.1 36.31 41.1 35.68 40.71 35.29C40.32 34.9 39.69 34.9 39.3 35.29L36.59 38L34.88 36.29C34.49 35.9 33.86 35.9 33.47 36.29C33.08 36.68 33.08 37.31 33.47 37.7L35.18 39.41C35.57 39.8 36.08 39.99 36.59 39.99C37.1 39.99 37.61 39.8 38 39.41Z" fill="#355146" style="fill:#355146;fill:color(display-p3 0.2078 0.3176 0.2745);fill-opacity:1;"/>
</g>
<defs>
<clipPath id="clip0_6772_5420">
<rect width="24" height="24" fill="white" style="fill:white;fill-opacity:1;" transform="translate(20 20)"/>
</clipPath>
</defs>
</svg>
