<svg width="64" height="64" viewBox="0 0 64 64" fill="none" xmlns="http://www.w3.org/2000/svg">
<rect width="64" height="64" rx="16" fill="white" style="fill:white;fill-opacity:1;"/>
<g clip-path="url(#clip0_6881_9280)">
<path d="M28 39.9984H36V40.3084C36 42.3434 34.345 43.9984 32.31 43.9984H31.691C29.656 43.9984 28.001 42.3434 28.001 40.3084V39.9984H28ZM41 28.9984C41 31.5884 39.882 34.0534 37.932 35.7614C37.193 36.4094 36.657 37.1744 36.338 37.9984H27.563C27.205 37.1214 26.637 36.2964 25.868 35.5814C23.719 33.5804 22.701 30.7514 23.075 27.8204C23.59 23.7804 26.904 20.5154 30.956 20.0574C33.523 19.7684 36.086 20.5794 37.994 22.2844C39.904 23.9914 41 26.4384 41 28.9984ZM31 30.0004C31 30.5524 31.447 31.0004 32 31.0004C32.553 31.0004 33 30.5524 33 30.0004V25.0004C33 24.4484 32.553 24.0004 32 24.0004C31.447 24.0004 31 24.4484 31 25.0004V30.0004ZM33.5 33.5004C33.5 32.6724 32.828 32.0004 32 32.0004C31.172 32.0004 30.5 32.6724 30.5 33.5004C30.5 34.3284 31.172 35.0004 32 35.0004C32.828 35.0004 33.5 34.3284 33.5 33.5004Z" fill="#355146" style="fill:#355146;fill:color(display-p3 0.2078 0.3176 0.2745);fill-opacity:1;"/>
</g>
<defs>
<clipPath id="clip0_6881_9280">
<rect width="24" height="24" fill="white" style="fill:white;fill-opacity:1;" transform="translate(20 20)"/>
</clipPath>
</defs>
</svg>
