<svg width="64" height="65" viewBox="0 0 64 65" fill="none" xmlns="http://www.w3.org/2000/svg">
<rect y="0.5" width="64" height="64" rx="16" fill="#3E6353" fill-opacity="0.1" style="fill:#3E6353;fill:color(display-p3 0.2431 0.3882 0.3255);fill-opacity:0.1;"/>
<g clip-path="url(#clip0_6947_10917)">
<path d="M23.9698 45.9182C23.7578 45.8069 23.4957 45.8469 23.3263 46.0169C23.2923 46.0509 23.2583 46.0856 23.223 46.1196C22.4601 46.8872 21.6965 47.6554 20.9336 48.4243C20.929 48.4283 20.9263 48.4323 20.9216 48.4369C20.8029 48.5563 20.7463 48.7237 20.7663 48.8911C20.7876 49.0578 20.8843 49.2065 21.029 49.2932C23.8958 51.009 27.2528 52 30.8358 52C36.1119 52 40.904 49.8553 44.3576 46.399C47.8133 42.9461 49.9579 38.1534 49.9579 32.8812V32.8732C49.9579 27.6004 47.8126 22.8083 44.3576 19.3554C40.9046 15.8984 36.1119 13.7544 30.8358 13.7544C27.4642 13.7544 24.3006 14.6427 21.5511 16.1751L17.7501 12.1707C17.6054 12.0186 17.386 11.9619 17.1859 12.026C16.9859 12.09 16.8385 12.264 16.8098 12.4714L15.3841 22.629L15.2634 23.4879L15.0053 25.3311C14.9806 25.5031 15.0393 25.6765 15.1633 25.7979C15.2874 25.9199 15.4621 25.9752 15.6335 25.9486L17.3626 25.6745L17.7841 25.6071L18.3396 25.5184L27.8103 24.014C27.9476 23.9927 28.067 23.9167 28.151 23.8106C28.1764 23.7219 28.213 23.6372 28.261 23.5606C28.2884 23.3932 28.2404 23.2205 28.1223 23.0958L24.6947 19.4854C26.5632 18.6252 28.6378 18.1397 30.8364 18.139C34.9149 18.1404 38.584 19.7848 41.2581 22.4562C43.9302 25.1303 45.574 28.8 45.5753 32.8779C45.574 36.955 43.9302 40.6247 41.2581 43.2988C38.584 45.9702 34.9156 47.614 30.8364 47.616C30.5517 47.616 30.2683 47.606 29.9822 47.5894H29.9842C29.9082 47.5854 29.8235 47.5767 29.7261 47.5694C29.5247 47.554 29.3247 47.5367 29.1266 47.5133C29.0413 47.504 28.9512 47.4913 28.8539 47.4787H28.8572C28.6552 47.4513 28.4558 47.4207 28.257 47.3853C28.1744 47.3706 28.099 47.358 28.033 47.3453H28.0323C27.7776 47.296 27.5268 47.2419 27.2801 47.1813L27.2741 47.1799L27.2321 47.1699C26.6699 47.0279 26.1211 46.8532 25.5856 46.6491L25.5156 46.6211L25.5123 46.6198C25.2702 46.5257 25.0295 46.4257 24.7934 46.319L24.7154 46.2837H24.7174C24.464 46.1683 24.2152 46.0469 23.9692 45.9176L23.9698 45.9182Z" fill="#2D423A" style="fill:#2D423A;fill:color(display-p3 0.1765 0.2588 0.2275);fill-opacity:1;"/>
<path d="M29.086 23.1016C28.7373 23.1016 28.4332 23.2863 28.2611 23.5604C28.2131 23.637 28.1764 23.7217 28.1511 23.8104C28.1264 23.8965 28.1097 23.9851 28.1097 24.0792V32.877C28.1097 33.1297 28.2071 33.3718 28.3825 33.5545L35.1697 40.5992C35.5438 40.9886 36.162 40.9993 36.5515 40.6259C36.9402 40.2511 36.9522 39.6316 36.5775 39.2435L30.0643 32.4816V24.0792C30.0643 23.5397 29.6268 23.1016 29.0867 23.1016H29.086Z" fill="#2D423A" style="fill:#2D423A;fill:color(display-p3 0.1765 0.2588 0.2275);fill-opacity:1;"/>
</g>
<defs>
<clipPath id="clip0_6947_10917">
<rect width="34.9592" height="40" fill="white" style="fill:white;fill-opacity:1;" transform="translate(15 12)"/>
</clipPath>
</defs>
</svg>
