<svg width="64" height="65" viewBox="0 0 64 65" fill="none" xmlns="http://www.w3.org/2000/svg">
<rect y="0.5" width="64" height="64" rx="16" fill="#3E6353" fill-opacity="0.1" style="fill:#3E6353;fill:color(display-p3 0.2431 0.3882 0.3255);fill-opacity:0.1;"/>
<g clip-path="url(#clip0_6947_10907)">
<path d="M43.0469 48.3691H37.0397V49.2467C37.0397 49.7331 36.7793 50.4094 35.5386 50.8699C34.7795 51.1517 33.7674 51.3072 32.6879 51.3072C31.6084 51.3072 30.5963 51.1521 29.8371 50.8699C28.5965 50.409 28.3361 49.7327 28.3361 49.2467V48.3691H21.9455C20.9949 48.3691 20.1342 48.7547 19.5107 49.3775C18.9906 49.8979 18.6357 51.4136 18.5331 52.453C18.5042 52.7468 18.7362 53.0005 19.0314 53.0005H45.952C46.2574 53.0005 46.4901 52.7292 46.4474 52.4268C46.1873 50.5949 44.7642 48.3691 43.0469 48.3691Z" fill="#3E6353" style="fill:#3E6353;fill:color(display-p3 0.2431 0.3882 0.3255);fill-opacity:1;"/>
<path d="M32.245 17.1484V20.0494H33.0768V17.1484C32.9416 17.1713 32.8026 17.1837 32.6609 17.1837C32.5193 17.1837 32.3803 17.1713 32.245 17.1484Z" fill="#3E6353" style="fill:#3E6353;fill:color(display-p3 0.2431 0.3882 0.3255);fill-opacity:1;"/>
<path d="M15 30.6496V34.7848C15 36.4961 16.3118 37.8836 17.9306 37.8836H18.2195V27.5508H17.9306C16.3118 27.5504 15 28.9379 15 30.6496Z" fill="#3E6353" style="fill:#3E6353;fill:color(display-p3 0.2431 0.3882 0.3255);fill-opacity:1;"/>
<path d="M49.9924 34.7848V30.6496C49.9924 28.9383 48.6806 27.5508 47.0618 27.5508H46.7729V37.8836H47.0618C48.6802 37.8836 49.9924 36.4961 49.9924 34.7848Z" fill="#3E6353" style="fill:#3E6353;fill:color(display-p3 0.2431 0.3882 0.3255);fill-opacity:1;"/>
<path d="M25.1125 44.5539H39.8796C43.2219 44.5539 45.9415 41.8347 45.9415 38.4927V26.9421C45.9415 23.5997 43.2223 20.8809 39.8796 20.8809H25.1125C21.7701 20.8809 19.0513 23.6001 19.0513 26.9421V38.4927C19.0513 41.835 21.7705 44.5539 25.1125 44.5539ZM38.6902 39.9375C38.6902 41.2861 37.5373 42.3832 36.1201 42.3832H28.9262C27.5091 42.3832 26.3561 41.2861 26.3561 39.9375V39.791C26.3561 39.5613 26.5423 39.3751 26.772 39.3751C27.0017 39.3751 27.188 39.5613 27.188 39.791V39.9375C27.188 40.8275 27.9677 41.5514 28.9262 41.5514H36.1201C37.0786 41.5514 37.8584 40.8275 37.8584 39.9375V39.791C37.8584 39.5613 38.0446 39.3751 38.2743 39.3751C38.504 39.3751 38.6902 39.5613 38.6902 39.791V39.9375ZM20.6232 29.378C20.6232 26.8604 22.6717 24.8119 25.1893 24.8119H39.8031C42.3207 24.8119 44.3693 26.8604 44.3693 29.378V32.8729C44.3693 35.3905 42.3207 37.439 39.8031 37.439H25.1893C22.6717 37.439 20.6232 35.3905 20.6232 32.8729V29.378Z" fill="#3E6353" style="fill:#3E6353;fill:color(display-p3 0.2431 0.3882 0.3255);fill-opacity:1;"/>
<path d="M32.6609 16.3514C33.5849 16.3514 34.3366 15.5997 34.3366 14.6757C34.3366 13.7517 33.5845 13 32.6609 13C31.7373 13 30.9852 13.7517 30.9852 14.6757C30.9852 15.5997 31.7369 16.3514 32.6609 16.3514Z" fill="#3E6353" style="fill:#3E6353;fill:color(display-p3 0.2431 0.3882 0.3255);fill-opacity:1;"/>
<path d="M25.1894 36.607H39.8032C41.8622 36.607 43.5375 34.9317 43.5375 32.8727V29.3779C43.5375 27.3189 41.8622 25.6436 39.8032 25.6436H25.1894C23.1304 25.6436 21.4551 27.3189 21.4551 29.3779V32.8727C21.4551 34.9317 23.1304 36.607 25.1894 36.607ZM38.6574 27.2713C40.7126 27.2713 42.3845 28.9432 42.3845 30.9984C42.3845 33.0537 40.7126 34.7256 38.6574 34.7256C36.6021 34.7256 34.9302 33.0537 34.9302 30.9984C34.9302 28.9432 36.6021 27.2713 38.6574 27.2713ZM26.3896 27.2713C28.4448 27.2713 30.1167 28.9432 30.1167 30.9984C30.1167 33.0537 28.4448 34.7256 26.3896 34.7256C24.3343 34.7256 22.6624 33.0537 22.6624 30.9984C22.6624 28.9432 24.3343 27.2713 26.3896 27.2713Z" fill="#3E6353" style="fill:#3E6353;fill:color(display-p3 0.2431 0.3882 0.3255);fill-opacity:1;"/>
<path d="M26.3895 33.8942C27.9861 33.8942 29.2848 32.5955 29.2848 30.9989C29.2848 29.4022 27.9861 28.1035 26.3895 28.1035C24.7929 28.1035 23.4941 29.4022 23.4941 30.9989C23.4941 32.5955 24.7929 33.8942 26.3895 33.8942Z" fill="#3E6353" style="fill:#3E6353;fill:color(display-p3 0.2431 0.3882 0.3255);fill-opacity:1;"/>
<path d="M38.6573 33.8942C40.2539 33.8942 41.5526 32.5955 41.5526 30.9989C41.5526 29.4022 40.2539 28.1035 38.6573 28.1035C37.0607 28.1035 35.762 29.4022 35.762 30.9989C35.762 32.5955 37.0607 33.8942 38.6573 33.8942Z" fill="#3E6353" style="fill:#3E6353;fill:color(display-p3 0.2431 0.3882 0.3255);fill-opacity:1;"/>
<path d="M32.6879 50.475C34.6289 50.475 36.2079 49.9238 36.2079 49.2463V45.3857H29.168V49.2463C29.168 49.9238 30.747 50.475 32.6879 50.475Z" fill="#3E6353" style="fill:#3E6353;fill:color(display-p3 0.2431 0.3882 0.3255);fill-opacity:1;"/>
</g>
<defs>
<clipPath id="clip0_6947_10907">
<rect width="34.9925" height="40" fill="white" style="fill:white;fill-opacity:1;" transform="translate(15 13)"/>
</clipPath>
</defs>
</svg>
