<svg width="64" height="65" viewBox="0 0 64 65" fill="none" xmlns="http://www.w3.org/2000/svg">
<rect y="0.5" width="64" height="64" rx="16" fill="white" style="fill:white;fill-opacity:1;"/>
<g clip-path="url(#clip0_6888_9455)">
<path d="M27.8633 36.541V39.1654C27.8633 40.4282 24.3121 41.4518 19.9316 41.4518C15.551 41.4518 12 40.4282 12 39.1654V36.541C12 37.8038 15.5512 38.8274 19.9318 38.8274C24.3123 38.8274 27.8636 37.8038 27.8636 36.541H27.8633Z" fill="#2D423A" style="fill:#2D423A;fill:color(display-p3 0.1765 0.2588 0.2275);fill-opacity:1;"/>
<path d="M27.8633 33.1426V35.767C27.8633 37.0295 24.3121 38.0529 19.9316 38.0529C15.551 38.0529 12 37.0295 12 35.767V33.1426C12 34.4051 15.5512 35.4286 19.9318 35.4286C24.3123 35.4286 27.8636 34.4049 27.8636 33.1426H27.8633Z" fill="#2D423A" style="fill:#2D423A;fill:color(display-p3 0.1765 0.2588 0.2275);fill-opacity:1;"/>
<path d="M27.8633 29.7461V32.3705C27.8633 33.6333 24.3121 34.6569 19.9316 34.6569C15.551 34.6569 12 33.6333 12 32.3705V29.7461C12 31.0089 15.5512 32.0325 19.9318 32.0325C24.3123 32.0325 27.8636 31.0089 27.8636 29.7461H27.8633Z" fill="#2D423A" style="fill:#2D423A;fill:color(display-p3 0.1765 0.2588 0.2275);fill-opacity:1;"/>
<path d="M19.9318 24.0625C15.5512 24.0625 12 25.0861 12 26.3489V28.9733C12 30.2359 15.5512 31.2593 19.9318 31.2593C24.3123 31.2593 27.8636 30.2356 27.8636 28.9733V26.3489C27.8636 25.0861 24.3123 24.0625 19.9318 24.0625ZM19.9318 27.9027C16.2356 27.9027 13.2392 27.2052 13.2392 26.3446C13.2392 25.484 16.2356 24.7862 19.9318 24.7862C23.628 24.7862 26.6244 25.484 26.6244 26.3446C26.6244 27.2052 23.628 27.9027 19.9318 27.9027Z" fill="#2D423A" style="fill:#2D423A;fill:color(display-p3 0.1765 0.2588 0.2275);fill-opacity:1;"/>
<path d="M52 36.541V39.1654C52 40.4282 48.4488 41.4518 44.0682 41.4518C39.6877 41.4518 36.1364 40.4282 36.1364 39.1654V36.541C36.1364 37.8038 39.6877 38.8274 44.0682 38.8274C48.4488 38.8274 52 37.8038 52 36.541Z" fill="#2D423A" style="fill:#2D423A;fill:color(display-p3 0.1765 0.2588 0.2275);fill-opacity:1;"/>
<path d="M52 33.1426V35.767C52 37.0295 48.4488 38.0529 44.0682 38.0529C39.6877 38.0529 36.1364 37.0293 36.1364 35.767V33.1426C36.1364 34.4051 39.6877 35.4286 44.0682 35.4286C48.4488 35.4286 52 34.4049 52 33.1426Z" fill="#2D423A" style="fill:#2D423A;fill:color(display-p3 0.1765 0.2588 0.2275);fill-opacity:1;"/>
<path d="M52 29.7461V32.3705C52 33.6333 48.4488 34.6569 44.0682 34.6569C39.6877 34.6569 36.1364 33.6333 36.1364 32.3705V29.7461C36.1364 31.0089 39.6877 32.0325 44.0682 32.0325C48.4488 32.0325 52 31.0089 52 29.7461Z" fill="#2D423A" style="fill:#2D423A;fill:color(display-p3 0.1765 0.2588 0.2275);fill-opacity:1;"/>
<path d="M44.0682 24.0625C39.6877 24.0625 36.1364 25.0861 36.1364 26.3489V28.9733C36.1364 30.2359 39.6877 31.2593 44.0682 31.2593C48.4488 31.2593 52 30.2356 52 28.9733V26.3489C52 25.0861 48.4488 24.0625 44.0682 24.0625ZM44.0682 27.9027C40.372 27.9027 37.3756 27.2052 37.3756 26.3446C37.3756 25.484 40.372 24.7862 44.0682 24.7862C47.7645 24.7862 50.7608 25.484 50.7608 26.3446C50.7608 27.2052 47.7645 27.9027 44.0682 27.9027Z" fill="#2D423A" style="fill:#2D423A;fill:color(display-p3 0.1765 0.2588 0.2275);fill-opacity:1;"/>
<path d="M42.9206 18.102L42.4608 22.5019L38.1962 21.3812L40.0018 20.1279C38.1343 17.3223 34.8744 15.7393 31.4844 16.0528C29.8244 16.2063 28.2396 16.8057 26.9011 17.7859C25.6 18.7386 24.5649 20.0217 23.9075 21.4962L22.5306 20.878C23.2951 19.1633 24.499 17.6713 26.0118 16.5633C27.5703 15.4219 29.415 14.7243 31.346 14.5457C35.2821 14.1816 39.0675 16.015 41.2425 19.2669L42.9206 18.102Z" fill="#2D423A" style="fill:#2D423A;fill:color(display-p3 0.1765 0.2588 0.2275);fill-opacity:1;"/>
<path d="M21.0794 47.4135L21.5392 43.0137L25.8039 44.1344L23.9982 45.3877C25.8657 48.1932 29.1256 49.7763 32.5156 49.4627C34.1756 49.3092 35.7604 48.7098 37.099 47.7296C38.4 46.7769 39.4351 45.4938 40.0925 44.0194L41.4694 44.6376C40.7049 46.3523 39.501 47.8442 37.9882 48.9522C36.4297 50.0937 34.585 50.7912 32.654 50.9698C28.7179 51.334 24.9325 49.5006 22.7575 46.2487L21.0794 47.4135Z" fill="#2D423A" style="fill:#2D423A;fill:color(display-p3 0.1765 0.2588 0.2275);fill-opacity:1;"/>
</g>
<defs>
<clipPath id="clip0_6888_9455">
<rect width="40" height="36.5152" fill="white" style="fill:white;fill-opacity:1;" transform="translate(12 14.5)"/>
</clipPath>
</defs>
</svg>
