<svg width="64" height="65" viewBox="0 0 64 65" fill="none" xmlns="http://www.w3.org/2000/svg">
<rect y="0.5" width="64" height="64" rx="16" fill="#FEF1EE" style="fill:#FEF1EE;fill:color(display-p3 0.9961 0.9451 0.9333);fill-opacity:1;"/>
<g clip-path="url(#clip0_6947_10922)">
<path fill-rule="evenodd" clip-rule="evenodd" d="M48.0459 13V16.5441H49.3346C50.311 16.5441 51.1067 15.7484 51.1067 14.772C51.1067 13.7957 50.311 13 49.3346 13H48.0459Z" fill="#933921" style="fill:#933921;fill:color(display-p3 0.5765 0.2235 0.1294);fill-opacity:1;"/>
<path fill-rule="evenodd" clip-rule="evenodd" d="M44.0267 13V16.5441H47.0859V13H44.0267Z" fill="#933921" style="fill:#933921;fill:color(display-p3 0.5765 0.2235 0.1294);fill-opacity:1;"/>
<path fill-rule="evenodd" clip-rule="evenodd" d="M37.1127 13C37.2835 13.5646 37.3714 14.1667 37.3714 14.772C37.3714 15.3773 37.2835 15.9794 37.1127 16.5441H43.0666V13H37.1127Z" fill="#933921" style="fill:#933921;fill:color(display-p3 0.5765 0.2235 0.1294);fill-opacity:1;"/>
<path fill-rule="evenodd" clip-rule="evenodd" d="M33.5686 14.772C33.5686 15.3855 33.676 15.9924 33.8794 16.5441H36.1005C36.3056 15.9924 36.413 15.3855 36.413 14.772C36.413 14.1586 36.3056 13.5516 36.1005 13H33.8794C33.676 13.5516 33.5686 14.1586 33.5686 14.772Z" fill="#933921" style="fill:#933921;fill:color(display-p3 0.5765 0.2235 0.1294);fill-opacity:1;"/>
<path fill-rule="evenodd" clip-rule="evenodd" d="M29.1915 14.772C29.1915 15.3773 29.102 15.9794 28.9327 16.5441H32.869C32.6981 15.9794 32.6102 15.3773 32.6102 14.772C32.6102 14.1667 32.6981 13.5646 32.869 13H28.9327C29.1036 13.5646 29.1915 14.1667 29.1915 14.772Z" fill="#933921" style="fill:#933921;fill:color(display-p3 0.5765 0.2235 0.1294);fill-opacity:1;"/>
<path fill-rule="evenodd" clip-rule="evenodd" d="M25.3871 14.772C25.3871 15.3855 25.4945 15.9924 25.6979 16.5441H27.919C28.124 15.9924 28.2314 15.3855 28.2314 14.772C28.2314 14.1586 28.124 13.5516 27.919 13H25.6979C25.4945 13.5516 25.3871 14.1586 25.3871 14.772Z" fill="#933921" style="fill:#933921;fill:color(display-p3 0.5765 0.2235 0.1294);fill-opacity:1;"/>
<path fill-rule="evenodd" clip-rule="evenodd" d="M18.7334 13V16.5441H24.6873C24.5165 15.9794 24.4286 15.3773 24.4286 14.772C24.4286 14.1667 24.5165 13.5646 24.6873 13H18.7334Z" fill="#933921" style="fill:#933921;fill:color(display-p3 0.5765 0.2235 0.1294);fill-opacity:1;"/>
<path fill-rule="evenodd" clip-rule="evenodd" d="M13.746 14.7721L17.7733 16.3244V13.2197L13.746 14.7721Z" fill="#933921" style="fill:#933921;fill:color(display-p3 0.5765 0.2235 0.1294);fill-opacity:1;"/>
<path fill-rule="evenodd" clip-rule="evenodd" d="M49.8407 20.8223H14.1593C12.9682 20.8223 12 21.7921 12 22.9816V48.8444C12 50.0339 12.9682 51.0037 14.1593 51.0037H49.8407C51.0318 51.0037 52 50.0339 52 48.8444V22.9799C52 21.7921 51.0318 20.8223 49.8407 20.8223ZM20.0547 23.0629H49.2793C49.5445 23.0629 49.7593 23.2777 49.7593 23.543V48.2863C49.7593 48.5515 49.5445 48.7663 49.2793 48.7663H20.0547C19.7894 48.7663 19.5746 48.5515 19.5746 48.2863V23.543C19.5746 23.2777 19.7894 23.0629 20.0547 23.0629ZM17.6074 36.8079C17.6074 37.8119 16.7905 38.6288 15.7881 38.6288C14.7858 38.6288 13.9673 37.8119 13.9673 36.8079V35.018C13.9673 34.014 14.7842 33.1972 15.7881 33.1972C16.7921 33.1972 17.6074 34.014 17.6074 35.018V36.8079ZM15.7865 39.4587C16.7466 39.4587 17.5276 40.2397 17.5276 41.1998C17.5276 42.1598 16.7466 42.9409 15.7865 42.9409C14.8265 42.9409 14.0454 42.1598 14.0454 41.1998C14.047 40.2397 14.8281 39.4587 15.7865 39.4587ZM15.7865 43.7708C16.7466 43.7708 17.5276 44.5518 17.5276 45.5119C17.5276 46.4719 16.7466 47.253 15.7865 47.253C14.8265 47.253 14.0454 46.4719 14.0454 45.5119C14.047 44.5518 14.8281 43.7708 15.7865 43.7708ZM15.7865 24.5762C16.7466 24.5762 17.5276 25.3573 17.5276 26.3157C17.5276 27.2741 16.7466 28.0568 15.7865 28.0568C14.8265 28.0568 14.0454 27.2758 14.0454 26.3157C14.047 25.3573 14.8281 24.5762 15.7865 24.5762ZM15.7865 28.8867C16.7466 28.8867 17.5276 29.6678 17.5276 30.6278C17.5276 31.5879 16.7466 32.3689 15.7865 32.3689C14.8265 32.3689 14.0454 31.5879 14.0454 30.6278C14.047 29.6678 14.8281 28.8867 15.7865 28.8867Z" fill="#933921" style="fill:#933921;fill:color(display-p3 0.5765 0.2235 0.1294);fill-opacity:1;"/>
<path fill-rule="evenodd" clip-rule="evenodd" d="M35.147 32.9622V41.4871L41.7307 38.4654V29.9404L35.147 32.9622Z" fill="#933921" style="fill:#933921;fill:color(display-p3 0.5765 0.2235 0.1294);fill-opacity:1;"/>
<path fill-rule="evenodd" clip-rule="evenodd" d="M27.6033 29.9404V38.4654L34.187 41.4871V32.9622L27.6033 29.9404Z" fill="#933921" style="fill:#933921;fill:color(display-p3 0.5765 0.2235 0.1294);fill-opacity:1;"/>
<path fill-rule="evenodd" clip-rule="evenodd" d="M34.667 26.3643L28.2883 29.2005L34.667 32.1262L41.0456 29.2005L34.667 26.3643Z" fill="#933921" style="fill:#933921;fill:color(display-p3 0.5765 0.2235 0.1294);fill-opacity:1;"/>
<path fill-rule="evenodd" clip-rule="evenodd" d="M48.7992 24.0225H20.5347V47.8057H48.7992V24.0225ZM42.6175 28.9383L34.6539 42.7158L34.6409 42.7142L34.8622 25.3991L42.3913 28.7462C42.419 28.7576 42.445 28.7707 42.471 28.7869C42.4873 28.7983 42.5036 28.8097 42.5199 28.8227L42.528 28.8292L42.5296 28.8309L42.5329 28.8325L42.5378 28.8374L42.5426 28.8422C42.5557 28.8536 42.567 28.8667 42.5784 28.8797L42.5833 28.8862L42.5882 28.8927L42.5931 28.8992L42.598 28.9057L42.6012 28.9106L42.6061 28.9171L42.6126 28.9252L42.6175 28.9334L42.6191 28.935C42.6663 29.0098 42.6923 29.0977 42.6923 29.1888V38.7698C42.6923 38.9586 42.5833 39.1278 42.4125 39.2059L34.8687 42.6686C34.8118 42.6947 34.7516 42.7093 34.6914 42.7109H34.6393C34.584 42.7077 34.527 42.6947 34.4749 42.6703L34.4717 42.6686H34.4684L34.4668 42.667L34.4636 42.6654L26.9263 39.2059C26.7555 39.1278 26.6465 38.957 26.6465 38.7698V29.2067C26.6416 29.0701 26.6953 28.9366 26.7945 28.8422L26.7994 28.8374H26.801L26.8076 28.8309C26.8254 28.8146 26.845 28.7999 26.8645 28.7869C26.8905 28.7707 26.9182 28.756 26.9459 28.7446L34.4733 25.3975C34.597 25.3454 34.7386 25.3454 34.8622 25.3991L42.6175 28.9383ZM43.3514 41.6679C43.4181 41.7004 43.4767 41.7493 43.5222 41.8111L43.5271 41.8176C43.5971 41.9169 43.6296 42.0422 43.6101 42.1674L43.3351 43.9509C43.2977 44.1868 43.0943 44.3577 42.8616 44.3577C42.8372 44.3577 42.8128 44.3544 42.7883 44.3512C42.5264 44.3105 42.3474 44.0648 42.3864 43.8044L42.5199 42.9404L38.1004 45.1517L38.8717 45.5618C39.106 45.6871 39.1955 45.9767 39.0702 46.2111C38.9839 46.3738 38.818 46.4665 38.6455 46.4665C38.569 46.4665 38.4925 46.4486 38.4209 46.4096L36.8279 45.5618C36.6473 45.4658 36.548 45.2656 36.5789 45.0639L36.8556 43.2821C36.8962 43.0201 37.1419 42.8411 37.4023 42.8802C37.6643 42.9208 37.8433 43.1666 37.8042 43.4285L37.6708 44.2926L42.0903 42.0812L41.3174 41.6695C41.083 41.5459 40.9935 41.2546 41.1188 41.0203C41.2425 40.7859 41.5338 40.6981 41.7681 40.8217L43.3514 41.6679ZM27.2436 42.0845L31.6631 44.2958L31.5297 43.4318C31.489 43.1698 31.668 42.9241 31.93 42.8834C32.192 42.8427 32.4377 43.0234 32.4784 43.2853L32.7517 45.0557C32.7648 45.1257 32.7615 45.1989 32.742 45.2705V45.2722L32.7403 45.2787V45.2803L32.7371 45.2917C32.6997 45.4072 32.6183 45.5081 32.506 45.5683L30.913 46.4161C30.8398 46.4551 30.7633 46.473 30.6868 46.473C30.5143 46.473 30.3484 46.3803 30.2621 46.2176C30.1384 45.9832 30.2263 45.6936 30.4606 45.5683L31.2336 45.1566L26.8141 42.9436L26.9475 43.8093C26.9882 44.0713 26.8092 44.3154 26.5472 44.356C26.5228 44.3593 26.4984 44.3625 26.474 44.3625C26.2413 44.3625 26.0363 44.1933 26.0005 43.9557L25.7255 42.1772C25.7092 42.0812 25.7222 41.9787 25.7694 41.8843C25.8198 41.7851 25.8979 41.7118 25.9907 41.6663L27.5658 40.8266C27.8001 40.703 28.0914 40.7908 28.2151 41.0251C28.3388 41.2595 28.2509 41.5507 28.0166 41.6744L27.2436 42.0845Z" fill="#933921" style="fill:#933921;fill:color(display-p3 0.5765 0.2235 0.1294);fill-opacity:1;"/>
<path fill-rule="evenodd" clip-rule="evenodd" d="M15.7881 25.5361C15.3569 25.5361 15.0071 25.8876 15.0071 26.3172C15.0071 26.7468 15.3569 27.0983 15.7881 27.0983C16.2193 27.0983 16.5692 26.7484 16.5692 26.3172C16.5676 25.886 16.2177 25.5361 15.7881 25.5361Z" fill="#933921" style="fill:#933921;fill:color(display-p3 0.5765 0.2235 0.1294);fill-opacity:1;"/>
<path fill-rule="evenodd" clip-rule="evenodd" d="M15.7881 29.8467C15.3569 29.8467 15.0071 30.1982 15.0071 30.6277C15.0071 31.0573 15.3569 31.4088 15.7881 31.4088C16.2193 31.4088 16.5692 31.0589 16.5692 30.6277C16.5676 30.1982 16.2177 29.8467 15.7881 29.8467Z" fill="#933921" style="fill:#933921;fill:color(display-p3 0.5765 0.2235 0.1294);fill-opacity:1;"/>
<path fill-rule="evenodd" clip-rule="evenodd" d="M14.9274 35.0196V36.8079C14.9274 37.2831 15.313 37.6687 15.7882 37.6687C16.2633 37.6687 16.6473 37.2831 16.6473 36.8079V35.018C16.6473 34.5445 16.2617 34.1572 15.7882 34.1572C15.313 34.1589 14.9274 34.5461 14.9274 35.0196Z" fill="#933921" style="fill:#933921;fill:color(display-p3 0.5765 0.2235 0.1294);fill-opacity:1;"/>
<path fill-rule="evenodd" clip-rule="evenodd" d="M15.7881 40.418C15.3569 40.418 15.0071 40.7694 15.0071 41.199C15.0071 41.6286 15.3569 41.9801 15.7881 41.9801C16.2193 41.9801 16.5692 41.6302 16.5692 41.199C16.5676 40.7694 16.2177 40.418 15.7881 40.418Z" fill="#933921" style="fill:#933921;fill:color(display-p3 0.5765 0.2235 0.1294);fill-opacity:1;"/>
<path fill-rule="evenodd" clip-rule="evenodd" d="M15.7881 44.7305C15.3569 44.7305 15.0071 45.0803 15.0071 45.5115C15.0071 45.9427 15.3569 46.2926 15.7881 46.2926C16.2193 46.2926 16.5692 45.9411 16.5692 45.5115C16.5676 45.0803 16.2177 44.7305 15.7881 44.7305Z" fill="#933921" style="fill:#933921;fill:color(display-p3 0.5765 0.2235 0.1294);fill-opacity:1;"/>
</g>
<defs>
<clipPath id="clip0_6947_10922">
<rect width="40" height="38.0034" fill="white" style="fill:white;fill-opacity:1;" transform="translate(12 13)"/>
</clipPath>
</defs>
</svg>
