<svg width="64" height="64" viewBox="0 0 64 64" fill="none" xmlns="http://www.w3.org/2000/svg">
<rect width="64" height="64" rx="16" fill="white" style="fill:white;fill-opacity:1;"/>
<g clip-path="url(#clip0_6929_9300)">
<path fill-rule="evenodd" clip-rule="evenodd" d="M39.6436 20C46.4679 20 51.9995 25.5321 51.9995 32.3559C51.9995 39.1798 46.4679 44.7119 39.6436 44.7119H23.5694C22.8903 44.7119 22.3346 44.0945 22.3346 43.3397C22.3346 42.5849 22.8903 41.9676 23.5694 41.9676H24.0278C24.7069 41.9676 25.2626 41.3502 25.2626 40.5954C25.2626 39.8406 24.7069 39.2233 24.0278 39.2233H21.8691C21.1896 39.2233 20.6344 38.6059 20.6344 37.8516C20.6344 37.0968 21.1896 36.4794 21.8691 36.4794H22.551C23.2301 36.4794 23.7858 35.862 23.7858 35.1077C23.7858 34.3529 23.2301 33.7356 22.551 33.7356H19.173C18.4986 33.729 17.949 33.1145 17.949 32.3639C17.949 31.6091 18.5042 30.9917 19.1837 30.9917H25.4098C26.0894 30.9917 26.6446 30.3744 26.6446 29.62C26.6446 28.8653 26.0894 28.2479 25.4098 28.2479H16.7656C16.0861 28.2479 15.5304 27.6305 15.5304 26.8757C15.5304 26.121 16.0861 25.5036 16.7656 25.5036H23.7044H23.6942H24.827C25.5061 25.5036 26.0618 24.8862 26.0618 24.1319C26.0618 23.4785 25.6458 22.9284 25.0934 22.7924L24.8378 22.7602H19.4267C18.7477 22.7602 18.192 22.1428 18.192 21.388C18.192 20.6333 18.7472 20.0159 19.4267 20.0159H39.0262C39.2309 20.0056 39.437 20.0005 39.6441 20.0005L39.6436 20ZM39.6436 22.1489C45.2808 22.1489 49.8506 26.7187 49.8506 32.3559C49.8506 37.9932 45.2808 42.563 39.6436 42.563C34.0063 42.563 29.4365 37.9932 29.4365 32.3559C29.4365 26.7187 34.0063 22.1489 39.6436 22.1489Z" fill="#2D423A" style="fill:#2D423A;fill:color(display-p3 0.1765 0.2588 0.2275);fill-opacity:1;"/>
<path fill-rule="evenodd" clip-rule="evenodd" d="M49.3543 29.2031C49.6763 30.1958 49.8506 31.2548 49.8506 32.355C49.8506 37.9922 45.2808 42.562 39.6436 42.562C34.3452 42.562 29.9899 38.5245 29.4856 33.3579C30.8134 37.4524 34.6583 40.4131 39.1958 40.4131C44.8331 40.4131 49.4033 35.8433 49.4033 30.2061C49.4033 29.8677 49.386 29.5331 49.3543 29.2031Z" fill="#E6E6E6" style="fill:#E6E6E6;fill:color(display-p3 0.9020 0.9020 0.9020);fill-opacity:1;"/>
<path fill-rule="evenodd" clip-rule="evenodd" d="M48.3121 30.6113C48.4248 31.1754 48.4846 31.7587 48.4846 32.356H46.3511C46.3492 32.183 46.3408 32.0111 46.3273 31.8409L48.3121 30.6113Z" fill="#2D423A" style="fill:#2D423A;fill:color(display-p3 0.1765 0.2588 0.2275);fill-opacity:1;"/>
<path fill-rule="evenodd" clip-rule="evenodd" d="M31.9701 29.8256C31.6728 30.614 31.506 31.466 31.4957 32.3558H30.8031C30.8031 31.273 30.998 30.2359 31.3541 29.2773L31.9701 29.8256Z" fill="#3E6353" style="fill:#3E6353;fill:color(display-p3 0.2431 0.3882 0.3255);fill-opacity:1;"/>
<path fill-rule="evenodd" clip-rule="evenodd" d="M33.8218 27.0454C33.1899 27.6427 32.6632 28.3498 32.2715 29.1354L31.6486 28.5806C32.0659 27.6992 32.6244 26.8972 33.2955 26.2051L33.8222 27.0454H33.8218Z" fill="#3E6353" style="fill:#3E6353;fill:color(display-p3 0.2431 0.3882 0.3255);fill-opacity:1;"/>
<path fill-rule="evenodd" clip-rule="evenodd" d="M36.9811 25.2709C36.0198 25.5303 35.136 25.9785 34.3714 26.5725L33.8251 25.7004C34.6537 24.9755 35.6188 24.4021 36.6769 24.0254L36.9811 25.2714V25.2709Z" fill="#3E6353" style="fill:#3E6353;fill:color(display-p3 0.2431 0.3882 0.3255);fill-opacity:1;"/>
<path fill-rule="evenodd" clip-rule="evenodd" d="M46.3445 26.5898C47.0689 27.4306 47.6377 28.4093 48.0059 29.4814L45.7117 29.4244C45.5163 28.9855 45.2794 28.5691 45.006 28.1803L46.3445 26.5898Z" fill="#2D423A" style="fill:#2D423A;fill:color(display-p3 0.1765 0.2588 0.2275);fill-opacity:1;"/>
<path fill-rule="evenodd" clip-rule="evenodd" d="M42.0991 23.8613C43.5334 24.2749 44.8181 25.0423 45.8529 26.063L44.5569 27.6025C43.789 26.7094 42.8123 26.0009 41.7028 25.5532L42.0991 23.8613Z" fill="#2D423A" style="fill:#2D423A;fill:color(display-p3 0.1765 0.2588 0.2275);fill-opacity:1;"/>
<path fill-rule="evenodd" clip-rule="evenodd" d="M39.6436 23.5156C40.246 23.5156 40.8344 23.5759 41.4032 23.6909L41.0223 25.3163C40.3572 25.1205 39.6524 25.0154 38.9234 25.0154C38.5 25.0154 38.0849 25.0509 37.6807 25.1191L37.3619 23.8133C38.0896 23.6194 38.8542 23.5156 39.6436 23.5156Z" fill="#3E6353" style="fill:#3E6353;fill:color(display-p3 0.2431 0.3882 0.3255);fill-opacity:1;"/>
<path fill-rule="evenodd" clip-rule="evenodd" d="M42.4968 33.4192C42.1654 34.3071 41.4256 35.0283 40.4409 35.2951C38.8182 35.7354 37.1465 34.7764 36.7058 33.1542C36.266 31.5315 37.2245 29.8593 38.8472 29.4195C39.8315 29.1522 40.8344 29.4004 41.5691 29.9991L47.7671 30.1538L42.4968 33.4192ZM39.6436 30.8796C40.4596 30.8796 41.1209 31.5409 41.1209 32.3569C41.1209 33.1729 40.4596 33.8342 39.6436 33.8342C38.8276 33.8342 38.1667 33.1729 38.1667 32.3569C38.1667 31.5409 38.828 30.8796 39.6436 30.8796Z" fill="#3E6353" style="fill:#3E6353;fill:color(display-p3 0.2431 0.3882 0.3255);fill-opacity:1;"/>
<path fill-rule="evenodd" clip-rule="evenodd" d="M13.3722 20.0156H15.6757C16.4305 20.0156 17.0479 20.633 17.0479 21.3878C17.0479 22.1426 16.4305 22.7599 15.6757 22.7599H13.3722C12.6174 22.7599 12 22.1426 12 21.3878C12 20.633 12.6174 20.0156 13.3722 20.0156Z" fill="#2D423A" style="fill:#2D423A;fill:color(display-p3 0.1765 0.2588 0.2275);fill-opacity:1;"/>
<path fill-rule="evenodd" clip-rule="evenodd" d="M14.5565 30.9922H15.6566C16.4109 30.9922 17.0288 31.6096 17.0288 32.3643C17.0288 33.1191 16.4114 33.7365 15.6566 33.7365H14.5565C13.8017 33.7365 13.1843 33.1191 13.1843 32.3643C13.1843 31.6096 13.8017 30.9922 14.5565 30.9922Z" fill="#2D423A" style="fill:#2D423A;fill:color(display-p3 0.1765 0.2588 0.2275);fill-opacity:1;"/>
<path fill-rule="evenodd" clip-rule="evenodd" d="M16.8969 41.9688H19.7768C20.5316 41.9688 21.1489 42.5861 21.1489 43.3409C21.1489 44.0957 20.5316 44.7131 19.7768 44.7131H16.8969C16.1422 44.7131 15.5248 44.0957 15.5248 43.3409C15.5248 42.5861 16.1422 41.9688 16.8969 41.9688Z" fill="#2D423A" style="fill:#2D423A;fill:color(display-p3 0.1765 0.2588 0.2275);fill-opacity:1;"/>
</g>
<defs>
<clipPath id="clip0_6929_9300">
<rect width="40" height="24.7119" fill="white" style="fill:white;fill-opacity:1;" transform="translate(12 20)"/>
</clipPath>
</defs>
</svg>
