<svg width="64" height="65" viewBox="0 0 64 65" fill="none" xmlns="http://www.w3.org/2000/svg">
<rect y="0.5" width="64" height="64" rx="16" fill="white" style="fill:white;fill-opacity:1;"/>
<g clip-path="url(#clip0_6888_9412)">
<path d="M24.4465 38.9235C25.9768 37.8574 26.975 36.127 26.975 34.1306C26.975 30.936 24.3785 28.2734 21.1178 28.2734C17.8572 28.2734 15.3267 30.936 15.3267 34.1306C15.3267 36.127 16.3249 37.8574 17.8552 38.9235C14.4625 40.2538 12 43.5825 12 47.4432V51.6361C12 52.1021 12.3981 52.5003 12.8642 52.5003H29.5035C29.9696 52.5003 30.3697 52.1021 30.3697 51.6361V47.4432C30.3017 43.5825 27.9072 40.2538 24.4465 38.9235ZM16.991 34.1306C16.991 31.8681 18.8554 29.9378 21.1839 29.9378C23.5124 29.9378 25.3767 31.8021 25.3767 34.1306C25.3767 36.4591 23.5143 38.3234 21.1839 38.3234C18.8534 38.3234 16.991 36.395 16.991 34.1306ZM28.6393 50.7699H26.975V47.4432C26.975 46.9771 26.5749 46.5771 26.1089 46.5771C25.6428 46.5771 25.3107 46.9771 25.3107 47.4432V50.7699H16.991V47.4432C16.991 46.9771 16.591 46.5771 16.1249 46.5771C15.6588 46.5771 15.3267 46.9771 15.3267 47.4432V50.7699H13.6624V47.4432C13.6624 43.3164 16.991 39.9217 21.1839 39.9217C25.3767 39.9217 28.6393 43.3164 28.6393 47.4432V50.7699Z" fill="#2D423A" style="fill:#2D423A;fill:color(display-p3 0.1765 0.2588 0.2275);fill-opacity:1;"/>
<path d="M46.0768 38.9235C47.6071 37.8574 48.6053 36.127 48.6053 34.1306C48.6053 30.936 46.0108 28.2734 42.7482 28.2734C39.4856 28.2734 36.8929 30.8699 36.8929 34.1306C36.8929 36.127 37.8892 37.8574 39.4215 38.9235C36.0268 40.2538 33.5643 43.5825 33.5643 47.4432V51.6361C33.5643 52.1021 33.9624 52.5003 34.4285 52.5003H51.0678C51.5339 52.5003 51.934 52.1021 51.934 51.6361V47.4432C51.934 43.5825 49.5375 40.2538 46.0768 38.9235ZM38.6213 34.1306C38.6213 31.8681 40.4857 29.9378 42.8142 29.9378C45.1427 29.9378 47.009 31.8021 47.009 34.1306C47.009 36.4591 45.1446 38.3234 42.8142 38.3234C40.4838 38.3234 38.6213 36.395 38.6213 34.1306ZM50.3357 50.7699H48.6053V47.4432C48.6053 46.9771 48.2072 46.5771 47.7411 46.5771C47.275 46.5771 46.875 46.9771 46.875 47.4432V50.7699H38.6213V47.4432C38.6213 46.9771 38.2232 46.5771 37.7571 46.5771C37.2911 46.5771 36.8929 46.9771 36.8929 47.4432V50.7699H35.2946V47.4432C35.2946 43.3164 38.6213 39.9217 42.8142 39.9217C47.007 39.9217 50.3357 43.2504 50.3357 47.4432V50.7699Z" fill="#2D423A" style="fill:#2D423A;fill:color(display-p3 0.1765 0.2588 0.2275);fill-opacity:1;"/>
<path d="M51.1358 12.5H36.1608C35.6928 12.5 35.2946 12.8981 35.2946 13.3642V25.0125C35.2946 25.4786 35.6928 25.8786 36.1608 25.8786H51.1358C51.5999 25.8786 52 25.4786 52 25.0125V13.3642C51.934 12.8981 51.5339 12.5 51.1358 12.5ZM50.2696 24.1464H36.959V14.1643H50.2696V24.1464Z" fill="#2D423A" style="fill:#2D423A;fill:color(display-p3 0.1765 0.2588 0.2275);fill-opacity:1;"/>
<path d="M27.8392 12.5H12.8642C12.3981 12.5 12 12.8981 12 13.3642V25.0125C12 25.4126 12.3981 25.8107 12.8642 25.8107H27.8392C28.3053 25.8107 28.7053 25.4126 28.7053 24.9465V13.3642C28.7053 12.8981 28.3053 12.5 27.8392 12.5ZM26.975 24.1464H13.6624V14.1643H26.975V24.1464Z" fill="#2D423A" style="fill:#2D423A;fill:color(display-p3 0.1765 0.2588 0.2275);fill-opacity:1;"/>
<path d="M20.7178 16.2266H19.7196L17.6571 21.6176H18.9874L19.3875 20.3534H21.0518L21.4499 21.6176H22.7822L20.7178 16.2266ZM19.5875 19.5552L20.2517 17.5569L20.8518 19.5552H19.5875Z" fill="#2D423A" style="fill:#2D423A;fill:color(display-p3 0.1765 0.2588 0.2275);fill-opacity:1;"/>
<path d="M45.1446 20.6865C46.3429 19.1562 45.8108 17.0258 44.2125 16.2276C43.5483 15.8955 42.6821 15.8955 42.016 16.2276C40.6857 16.8277 40.0196 18.424 40.6178 19.8883C40.7518 20.2204 41.3499 21.0865 42.016 21.4186C42.6821 21.7527 43.6803 21.7527 44.4785 21.2866L44.8126 21.6187H46.0108L45.1446 20.6865ZM44.3465 19.7543L44.0804 19.4222H42.8822L43.7464 20.4204C43.1482 20.7545 42.2161 20.4865 41.95 19.4882C41.6179 18.6901 41.884 17.6919 42.5501 17.2918C42.8822 17.0918 43.3483 17.0918 43.7464 17.2918C44.5465 17.7579 44.7465 18.8901 44.3465 19.7543Z" fill="#2D423A" style="fill:#2D423A;fill:color(display-p3 0.1765 0.2588 0.2275);fill-opacity:1;"/>
<path d="M30.3697 47.4432V51.6361C30.3697 52.1021 29.9696 52.5003 29.5035 52.5003H12.8642C12.3981 52.5003 12 52.1021 12 51.6361V47.4432C12 43.5825 14.4625 40.2538 17.8552 38.9235C16.3249 37.8574 15.3267 36.127 15.3267 34.1306C15.3267 30.936 17.8552 28.2734 21.1178 28.2734C24.3804 28.2734 26.975 30.936 26.975 34.1306C26.975 36.127 25.9768 37.8574 24.4465 38.9235C27.9072 40.2538 30.3017 43.5825 30.3697 47.4432Z" fill="#2D423A" style="fill:#2D423A;fill:color(display-p3 0.1765 0.2588 0.2275);fill-opacity:1;"/>
<path d="M51.934 47.4432V51.6361C51.934 52.1021 51.5339 52.5003 51.0678 52.5003H34.4285C33.9624 52.5003 33.5643 52.1021 33.5643 51.6361V47.4432C33.5643 43.5825 36.0268 40.2538 39.4215 38.9235C37.8892 37.8574 36.8929 36.127 36.8929 34.1306C36.8929 30.8699 39.4875 28.2734 42.7482 28.2734C46.0088 28.2734 48.6053 30.936 48.6053 34.1306C48.6053 36.127 47.6071 37.8574 46.0768 38.9235C49.5375 40.2538 51.934 43.5825 51.934 47.4432Z" fill="#2D423A" style="fill:#2D423A;fill:color(display-p3 0.1765 0.2588 0.2275);fill-opacity:1;"/>
</g>
<defs>
<clipPath id="clip0_6888_9412">
<rect width="40" height="40" fill="white" style="fill:white;fill-opacity:1;" transform="translate(12 12.5)"/>
</clipPath>
</defs>
</svg>
