<svg width="64" height="65" viewBox="0 0 64 65" fill="none" xmlns="http://www.w3.org/2000/svg">
<rect y="0.5" width="64" height="64" rx="16" fill="white" style="fill:white;fill-opacity:1;"/>
<g clip-path="url(#clip0_6888_9420)">
<path d="M31.583 41.2278C30.2953 35.5288 26.4183 31.3887 21.8352 31.3887C17.2521 31.3887 13.3515 35.5536 12.0758 41.2794C11.9813 41.7038 11.8625 42.7032 12.493 43.3104C13.558 44.4785 16.0391 46.6042 21.6662 46.545C26.9998 46.4888 29.6866 44.6243 30.9379 43.4677C31.8157 42.7451 31.6824 41.6687 31.5829 41.2276L31.583 41.2278Z" fill="#2D423A" style="fill:#2D423A;fill:color(display-p3 0.1765 0.2588 0.2275);fill-opacity:1;"/>
<path d="M26.4607 26.324C26.4607 28.8804 24.3896 30.9526 21.8352 30.9526C19.2808 30.9526 17.2095 28.8804 17.2095 26.324C17.2095 23.7675 19.2805 21.6953 21.8352 21.6953C24.3896 21.6953 26.4607 23.7677 26.4607 26.324Z" fill="#2D423A" style="fill:#2D423A;fill:color(display-p3 0.1765 0.2588 0.2275);fill-opacity:1;"/>
<path d="M51.928 41.2278C50.6403 35.5288 46.7632 31.3887 42.1801 31.3887C37.597 31.3887 33.6965 35.5536 32.4207 41.2794C32.3262 41.7038 32.2075 42.7032 32.8379 43.3104C33.9029 44.4785 36.384 46.6042 42.0111 46.545C47.3447 46.4888 50.0315 44.6243 51.2829 43.4677C52.1606 42.7451 52.0273 41.6687 51.9278 41.2276L51.928 41.2278Z" fill="#2D423A" style="fill:#2D423A;fill:color(display-p3 0.1765 0.2588 0.2275);fill-opacity:1;"/>
<path d="M46.8057 26.324C46.8057 28.8804 44.7345 30.9526 42.1801 30.9526C39.6258 30.9526 37.5544 28.8804 37.5544 26.324C37.5544 23.7675 39.6254 21.6953 42.1801 21.6953C44.7345 21.6953 46.8057 23.7677 46.8057 26.324Z" fill="#2D423A" style="fill:#2D423A;fill:color(display-p3 0.1765 0.2588 0.2275);fill-opacity:1;"/>
<path d="M36.6333 23.1287C36.6333 25.6851 34.5621 27.7571 32.0078 27.7571C29.4534 27.7571 27.382 25.6849 27.382 23.1287C27.382 20.5724 29.453 18.5 32.0078 18.5C34.5621 18.5 36.6333 20.5724 36.6333 23.1287Z" fill="#2D423A" style="fill:#2D423A;fill:color(display-p3 0.1765 0.2588 0.2275);fill-opacity:1;"/>
<path d="M32.0078 28.1934C29.4436 28.1934 27.1005 29.4892 25.3082 31.6289C25.3169 31.633 25.3258 31.6369 25.3346 31.641C26.4108 32.1406 27.4172 32.8664 28.3258 33.7987C29.2161 34.712 29.9924 35.8028 30.6336 37.0405C31.2207 38.1742 31.6818 39.4085 32.0076 40.7146C32.33 39.4215 32.7852 38.1986 33.3643 37.074C34.0048 35.83 34.7816 34.7336 35.6733 33.8153C36.5834 32.878 37.5919 32.1479 38.6708 31.6457C38.6829 31.64 38.695 31.6346 38.707 31.6291C36.9147 29.4894 34.5716 28.1934 32.0076 28.1934H32.0078Z" fill="#2D423A" style="fill:#2D423A;fill:color(display-p3 0.1765 0.2588 0.2275);fill-opacity:1;"/>
</g>
<defs>
<clipPath id="clip0_6888_9420">
<rect width="40" height="28.046" fill="white" style="fill:white;fill-opacity:1;" transform="translate(12 18.5)"/>
</clipPath>
</defs>
</svg>
