<svg width="64" height="65" viewBox="0 0 64 65" fill="none" xmlns="http://www.w3.org/2000/svg">
<rect y="0.5" width="64" height="64" rx="16" fill="white" style="fill:white;fill-opacity:1;"/>
<g clip-path="url(#clip0_6888_9448)">
<path d="M52 31.9302V33.0387C52 33.4342 51.6756 33.7587 51.28 33.7587H34.1502C33.7547 33.7587 33.4302 33.4342 33.4302 33.0387V31.9302C33.4302 28.0893 35.7529 24.7284 39.2276 23.3302C38.4791 22.4973 38.0205 21.4022 38.0205 20.1951C38.0205 17.6111 40.1245 15.5 42.7156 15.5C45.3067 15.5 47.4107 17.6111 47.4107 20.1951C47.4107 21.4022 46.952 22.4973 46.2036 23.3302C49.6773 24.7284 52.0009 28.0893 52.0009 31.9302H52ZM50.56 32.3178V31.9293C50.56 28.3916 48.216 25.3276 44.8338 24.3809C44.1982 24.7053 43.4782 24.8964 42.7156 24.8964C41.9529 24.8964 41.2329 24.7062 40.5973 24.3809C37.2151 25.3267 34.8711 28.3916 34.8711 31.9293V32.3178H37.5609V30.0582C37.5609 29.6627 37.8853 29.3382 38.2809 29.3382C38.6765 29.3382 39.0009 29.6627 39.0009 30.0582V32.3178H46.4293V30.0582C46.4293 29.6627 46.7467 29.3382 47.1493 29.3382C47.552 29.3382 47.8693 29.6627 47.8693 30.0582V32.3178H50.5591H50.56ZM44.3671 22.9836C45.32 22.4191 45.9698 21.388 45.9698 20.1942C45.9698 18.4004 44.5085 16.9462 42.7147 16.9462C40.9209 16.9462 39.4596 18.4004 39.4596 20.1942C39.4596 21.3871 40.1093 22.4182 41.0622 22.9836H41.0765C41.2951 23.1178 41.5209 23.2164 41.7547 23.2876C41.8116 23.3089 41.8676 23.3302 41.9245 23.3444C42.016 23.3658 42.1013 23.38 42.1929 23.3942C42.3342 23.4227 42.4898 23.4369 42.6373 23.444H42.7929C42.9485 23.4369 43.0969 23.4227 43.2373 23.3942C43.3289 23.38 43.4142 23.3658 43.4987 23.3444C43.5618 23.3302 43.6187 23.3089 43.6756 23.2876C43.9085 23.2173 44.1342 23.1178 44.3609 22.9836H44.368H44.3671Z" fill="#2D423A" style="fill:#2D423A;fill:color(display-p3 0.1765 0.2588 0.2275);fill-opacity:1;"/>
<path d="M50.56 31.9313V32.3197H47.8702V30.0601C47.8702 29.6646 47.5458 29.3401 47.1502 29.3401C46.7547 29.3401 46.4302 29.6646 46.4302 30.0601V32.3197H39.0018V30.0601C39.0018 29.6646 38.6845 29.3401 38.2818 29.3401C37.8791 29.3401 37.5618 29.6646 37.5618 30.0601V32.3197H34.872V31.9313C34.872 28.3935 37.216 25.3295 40.5982 24.3828C41.2338 24.7073 41.9538 24.8984 42.7165 24.8984C43.4791 24.8984 44.1991 24.7081 44.8347 24.3828C48.2169 25.3286 50.5609 28.3935 50.5609 31.9313H50.56Z" fill="#2D423A" style="fill:#2D423A;fill:color(display-p3 0.1765 0.2588 0.2275);fill-opacity:1;"/>
<path d="M47.6364 35.3403C48.032 35.4105 48.2862 35.7919 48.208 36.1803C46.7111 43.9261 39.8969 49.5465 32.0036 49.5465C25.7049 49.5465 20.0773 46.0372 17.2818 40.5083L16.7173 41.5465C16.5831 41.7865 16.336 41.9279 16.0818 41.9279C15.9618 41.9279 15.8489 41.8994 15.736 41.8434C15.3831 41.6532 15.256 41.215 15.4462 40.8621L16.7031 38.5465C16.7244 38.4967 16.76 38.4621 16.7947 38.4194C16.8089 38.4052 16.8231 38.3839 16.8373 38.3696C16.9004 38.3127 16.9716 38.2639 17.0489 38.2283C17.056 38.2283 17.0631 38.2212 17.0702 38.2212C17.0844 38.2141 17.1058 38.2141 17.1271 38.207C17.184 38.1927 17.24 38.1785 17.304 38.1785C17.3396 38.1714 17.3671 38.1785 17.4027 38.1785H17.4729L20.0427 38.6727C20.4382 38.7501 20.6924 39.1314 20.6142 39.5199C20.544 39.9083 20.1627 40.1696 19.7742 40.0914L18.5742 39.8585C21.1307 44.9074 26.2569 48.0985 32.0044 48.0985C39.2062 48.0985 45.4276 42.9723 46.7902 35.9119C46.8676 35.5163 47.2489 35.2621 47.6373 35.3403H47.6364Z" fill="#2D423A" style="fill:#2D423A;fill:color(display-p3 0.1765 0.2588 0.2275);fill-opacity:1;"/>
<path d="M45.9698 20.1953C45.9698 21.3882 45.32 22.4193 44.3671 22.9846H44.36C44.1342 23.1188 43.9085 23.2175 43.6747 23.2886C43.6178 23.3099 43.5618 23.3313 43.4978 23.3455C43.4133 23.3668 43.328 23.381 43.2365 23.3953C43.0951 23.4237 42.9467 23.4379 42.792 23.445H42.6365C42.488 23.4379 42.3325 23.4237 42.192 23.3953C42.1005 23.381 42.0151 23.3668 41.9236 23.3455C41.8667 23.3313 41.8107 23.3099 41.7538 23.2886C41.5209 23.2184 41.2951 23.1188 41.0756 22.9846H41.0613C40.1085 22.4202 39.4587 21.389 39.4587 20.1953C39.4587 18.4015 40.92 16.9473 42.7138 16.9473C44.5076 16.9473 45.9689 18.4015 45.9689 20.1953H45.9698Z" fill="#2D423A" style="fill:#2D423A;fill:color(display-p3 0.1765 0.2588 0.2275);fill-opacity:1;"/>
<path d="M42.9058 39.0681C43.0827 39.421 42.9342 39.8593 42.5813 40.0282C42.4756 40.085 42.3698 40.1055 42.264 40.1055C41.9956 40.1055 41.7413 39.957 41.6142 39.7028L41.2756 39.0041C39.256 42.1179 35.7609 44.0664 32.0045 44.0664C27.1111 44.0664 22.8676 40.9313 21.448 36.2566C21.328 35.8753 21.5467 35.4726 21.928 35.3526C22.3093 35.2397 22.712 35.4513 22.8249 35.8326C24.0676 39.893 27.7538 42.6255 32.0045 42.6255C35.2027 42.6255 38.1902 40.9944 39.9547 38.3819L38.7822 38.5517C38.3938 38.6086 38.0267 38.333 37.9707 37.9375C37.9138 37.5419 38.1893 37.1748 38.5849 37.1188L41.2116 36.7446C41.24 36.7375 41.2685 36.7446 41.296 36.7446H41.3876C41.4507 36.7517 41.5218 36.773 41.5778 36.7944C41.5991 36.8015 41.6133 36.8015 41.6276 36.8086L41.6347 36.8157C41.712 36.8513 41.7831 36.9073 41.8462 36.9713C41.8605 36.9855 41.8676 37.0068 41.8818 37.0281C41.9102 37.0637 41.9449 37.0984 41.9662 37.141L42.9049 39.069L42.9058 39.0681Z" fill="#2D423A" style="fill:#2D423A;fill:color(display-p3 0.1765 0.2588 0.2275);fill-opacity:1;"/>
<path d="M30.5698 31.9311V33.0396C30.5698 33.4351 30.2524 33.7596 29.8498 33.7596H12.72C12.3244 33.7596 12 33.4351 12 33.0396V31.9311C12 28.0902 14.3298 24.7293 17.7973 23.3311C17.0489 22.4982 16.5902 21.4031 16.5902 20.196C16.5893 17.6111 18.6933 15.5 21.2853 15.5C23.8773 15.5 25.9804 17.6111 25.9804 20.1951C25.9804 21.4022 25.5218 22.4973 24.7733 23.3302C28.2471 24.7284 30.5707 28.0893 30.5707 31.9302L30.5698 31.9311ZM29.1298 32.3187V31.9302C29.1298 28.3924 26.7858 25.3284 23.4036 24.3818C22.768 24.7062 22.048 24.8973 21.2853 24.8973C20.5227 24.8973 19.8027 24.7071 19.1671 24.3818C15.7849 25.3276 13.4409 28.3924 13.4409 31.9302V32.3187H16.1307V30.0591C16.1307 29.6636 16.4551 29.3391 16.8507 29.3391C17.2462 29.3391 17.5707 29.6636 17.5707 30.0591V32.3187H24.9991V30.0591C24.9991 29.6636 25.3164 29.3391 25.7191 29.3391C26.1218 29.3391 26.4391 29.6636 26.4391 30.0591V32.3187H29.1289H29.1298ZM22.9378 22.9844C23.8907 22.42 24.5404 21.3889 24.5404 20.1951C24.5404 18.4013 23.0791 16.9471 21.2853 16.9471C19.4916 16.9471 18.0302 18.4013 18.0302 20.1951C18.0302 21.388 18.68 22.4191 19.6329 22.9844H19.6471C19.8658 23.1187 20.0916 23.2102 20.3182 23.2884C20.3813 23.3098 20.4382 23.3311 20.5022 23.3453C20.5867 23.3667 20.672 23.3809 20.7564 23.3951C20.912 23.4236 21.0604 23.4449 21.2151 23.4449H21.3564C21.512 23.4449 21.6604 23.4236 21.8151 23.3951C21.8996 23.3809 21.9849 23.3667 22.0693 23.3453C22.1324 23.3311 22.1893 23.3098 22.2462 23.2884C22.4791 23.2182 22.7049 23.1187 22.9316 22.9844H22.9387H22.9378Z" fill="#2D423A" style="fill:#2D423A;fill:color(display-p3 0.1765 0.2588 0.2275);fill-opacity:1;"/>
<path d="M29.1298 31.9313V32.3197H26.44V30.0601C26.44 29.6646 26.1156 29.3401 25.72 29.3401C25.3244 29.3401 25 29.6646 25 30.0601V32.3197H17.5707V30.0601C17.5707 29.6646 17.2533 29.3401 16.8507 29.3401C16.448 29.3401 16.1307 29.6646 16.1307 30.0601V32.3197H13.4409V31.9313C13.4409 28.3935 15.7849 25.3295 19.1671 24.3828C19.8027 24.7073 20.5227 24.8984 21.2853 24.8984C22.048 24.8984 22.768 24.7081 23.4036 24.3828C26.7858 25.3286 29.1298 28.3935 29.1298 31.9313Z" fill="#2D423A" style="fill:#2D423A;fill:color(display-p3 0.1765 0.2588 0.2275);fill-opacity:1;"/>
<path d="M24.5404 20.1953C24.5404 21.3882 23.8907 22.4193 22.9378 22.9846H22.9307C22.7049 23.1188 22.4791 23.2175 22.2453 23.2886C22.1884 23.3099 22.1324 23.3313 22.0684 23.3455C21.984 23.3668 21.8987 23.381 21.8142 23.3953C21.6587 23.4237 21.5102 23.445 21.3555 23.445H21.2142C21.0587 23.445 20.9102 23.4237 20.7555 23.3953C20.6711 23.381 20.5858 23.3668 20.5013 23.3455C20.4382 23.3313 20.3813 23.3099 20.3173 23.2886C20.0915 23.2113 19.8658 23.1188 19.6462 22.9846H19.632C18.6791 22.4202 18.0293 21.389 18.0293 20.1953C18.0293 18.4015 19.4907 16.9473 21.2844 16.9473C23.0782 16.9473 24.5396 18.4015 24.5396 20.1953H24.5404Z" fill="#2D423A" style="fill:#2D423A;fill:color(display-p3 0.1765 0.2588 0.2275);fill-opacity:1;"/>
</g>
<defs>
<clipPath id="clip0_6888_9448">
<rect width="40" height="34.048" fill="white" style="fill:white;fill-opacity:1;" transform="translate(12 15.5)"/>
</clipPath>
</defs>
</svg>
