<svg width="64" height="65" viewBox="0 0 64 65" fill="none" xmlns="http://www.w3.org/2000/svg">
<rect y="0.5" width="64" height="64" rx="16" fill="#FEF1EE" style="fill:#FEF1EE;fill:color(display-p3 0.9961 0.9451 0.9333);fill-opacity:1;"/>
<g clip-path="url(#clip0_6947_10912)">
<path fill-rule="evenodd" clip-rule="evenodd" d="M37.8506 31.9765H40.2986C40.256 29.2325 39.7466 26.6885 38.8835 24.5596C36.9164 25.6316 34.6808 26.2458 32.304 26.3027V27.3605C35.0062 27.4893 37.2275 29.4182 37.8506 31.9765Z" fill="#933921" style="fill:#933921;fill:color(display-p3 0.5765 0.2235 0.1294);fill-opacity:1;"/>
<path fill-rule="evenodd" clip-rule="evenodd" d="M37.8222 22.4158C36.3928 20.0576 34.4542 18.5572 32.304 18.4141V25.6736C34.5964 25.6167 36.7466 25.0158 38.6426 23.9732C38.3875 23.4301 38.1191 22.9012 37.8222 22.4158Z" fill="#933921" style="fill:#933921;fill:color(display-p3 0.5765 0.2235 0.1294);fill-opacity:1;"/>
<path fill-rule="evenodd" clip-rule="evenodd" d="M38.36 22.0871C38.6569 22.5876 38.9262 23.1013 39.1804 23.6587C40.0862 23.1156 40.9066 22.4729 41.6569 21.744C39.4924 19.7004 36.6906 18.3573 33.5778 18C35.4311 18.5431 37.0871 20.0009 38.36 22.0871Z" fill="#933921" style="fill:#933921;fill:color(display-p3 0.5765 0.2235 0.1294);fill-opacity:1;"/>
<path fill-rule="evenodd" clip-rule="evenodd" d="M27.2533 37.1789C26.4328 36.1069 25.9795 34.8064 25.9795 33.4349C25.9795 33.1487 25.9937 32.8776 26.0222 32.6064H23.7013C23.7155 33.4207 23.7724 34.2073 23.8568 34.9789C23.9697 35.3789 24.0266 35.7931 24.0409 36.2224C24.1822 37.0367 24.3662 37.8376 24.6071 38.5807C25.3431 37.8944 26.2622 37.4091 27.2533 37.1798V37.1789Z" fill="#933921" style="fill:#933921;fill:color(display-p3 0.5765 0.2235 0.1294);fill-opacity:1;"/>
<path fill-rule="evenodd" clip-rule="evenodd" d="M40.9208 39.2787C40.6239 38.8644 40.3831 38.4209 40.2275 37.9355C40.1288 38.3355 40.0151 38.7071 39.8879 39.0929C40.0008 39.2218 40.1146 39.364 40.2275 39.5213C40.4542 39.4209 40.6799 39.3355 40.9208 39.2787Z" fill="#933921" style="fill:#933921;fill:color(display-p3 0.5765 0.2235 0.1294);fill-opacity:1;"/>
<path fill-rule="evenodd" clip-rule="evenodd" d="M39.3929 38.5787C39.6338 37.8356 39.8178 37.0356 39.9591 36.2205C39.9734 35.792 40.0303 35.3769 40.1431 34.9769C40.2285 34.2054 40.2845 33.4196 40.2987 32.6045H37.9636C38.0063 32.8756 38.0205 33.1476 38.0205 33.4329C38.0205 34.8045 37.568 36.1058 36.7467 37.1769C37.7369 37.4054 38.6569 37.8916 39.3929 38.5778V38.5787Z" fill="#933921" style="fill:#933921;fill:color(display-p3 0.5765 0.2235 0.1294);fill-opacity:1;"/>
<path fill-rule="evenodd" clip-rule="evenodd" d="M23.0791 39.2787C23.32 39.3355 23.5458 39.4218 23.7724 39.5213C23.8853 39.364 23.9849 39.2209 24.112 39.0787C23.9849 38.7071 23.8711 38.3355 23.7724 37.9355C23.6169 38.4218 23.376 38.8644 23.0791 39.2787Z" fill="#933921" style="fill:#933921;fill:color(display-p3 0.5765 0.2235 0.1294);fill-opacity:1;"/>
<path fill-rule="evenodd" clip-rule="evenodd" d="M40.9209 32.6055C40.9209 32.8766 40.9067 33.1486 40.8925 33.4197C41.1049 33.1192 41.3591 32.8481 41.6285 32.6055H40.9209Z" fill="#933921" style="fill:#933921;fill:color(display-p3 0.5765 0.2235 0.1294);fill-opacity:1;"/>
<path fill-rule="evenodd" clip-rule="evenodd" d="M40.9209 31.9764H42.52C43.2134 31.5906 44.0196 31.3764 44.8685 31.3764C45.3351 31.3764 45.7885 31.4333 46.2125 31.5622C46.0285 27.9035 44.5005 24.6164 42.1094 22.1729C41.3031 22.9586 40.3974 23.6591 39.4347 24.2449C40.3405 26.46 40.8782 29.1177 40.92 31.9764H40.9209Z" fill="#933921" style="fill:#933921;fill:color(display-p3 0.5765 0.2235 0.1294);fill-opacity:1;"/>
<path fill-rule="evenodd" clip-rule="evenodd" d="M31.6817 27.3605V26.3027C29.3191 26.2458 27.0835 25.6307 25.1164 24.5596C24.2533 26.6893 23.744 29.2325 23.7013 31.9765H26.1493C26.7715 29.4182 28.9937 27.4893 31.6817 27.3605Z" fill="#933921" style="fill:#933921;fill:color(display-p3 0.5765 0.2235 0.1294);fill-opacity:1;"/>
<path fill-rule="evenodd" clip-rule="evenodd" d="M22.3716 32.6055C22.64 32.8481 22.8951 33.1201 23.1076 33.4197C23.0934 33.1486 23.0791 32.8766 23.0791 32.6055H22.3716Z" fill="#933921" style="fill:#933921;fill:color(display-p3 0.5765 0.2235 0.1294);fill-opacity:1;"/>
<path fill-rule="evenodd" clip-rule="evenodd" d="M21.48 31.9764H23.0791C23.1217 29.1177 23.6595 26.46 24.5644 24.2449C23.5884 23.6591 22.6968 22.9586 21.8897 22.1729C19.4986 24.6164 17.9706 27.9035 17.7866 31.5622C18.2115 31.4333 18.664 31.3764 19.1306 31.3764C19.9795 31.3764 20.7857 31.5906 21.4791 31.9764H21.48Z" fill="#933921" style="fill:#933921;fill:color(display-p3 0.5765 0.2235 0.1294);fill-opacity:1;"/>
<path fill-rule="evenodd" clip-rule="evenodd" d="M25.64 22.0871C26.9137 20.0009 28.5689 18.5431 30.4222 18C27.3093 18.3573 24.5075 19.7004 22.3289 21.744C23.0933 22.4729 23.9137 23.1156 24.8186 23.6587C25.0737 23.1013 25.3422 22.5867 25.6391 22.0871H25.64Z" fill="#933921" style="fill:#933921;fill:color(display-p3 0.5765 0.2235 0.1294);fill-opacity:1;"/>
<path fill-rule="evenodd" clip-rule="evenodd" d="M26.1777 22.4158C25.8809 22.9021 25.6115 23.4301 25.3573 23.9732C27.2533 25.0167 29.4035 25.6167 31.6817 25.6736V18.4141C29.5449 18.5572 27.6071 20.0576 26.1777 22.4158Z" fill="#933921" style="fill:#933921;fill:color(display-p3 0.5765 0.2235 0.1294);fill-opacity:1;"/>
<path fill-rule="evenodd" clip-rule="evenodd" d="M48.5191 39.6504C47.8969 40.3366 47.0898 40.8655 46.1707 41.1082L44.8694 44.6948L43.568 41.1082C42.648 40.8655 41.8418 40.3366 41.2196 39.6504C40.9654 39.6931 40.7102 39.7793 40.4694 39.8788C41.0071 40.7793 41.3325 41.8371 41.3325 42.9659V47.9535H52.0009V43.9659C52.0009 41.8362 50.5014 40.0646 48.52 39.6504H48.5191Z" fill="#933921" style="fill:#933921;fill:color(display-p3 0.5765 0.2235 0.1294);fill-opacity:1;"/>
<path fill-rule="evenodd" clip-rule="evenodd" d="M22.7813 39.6504C22.1591 40.3366 21.352 40.8655 20.4329 41.1082L19.1315 44.6948L17.8302 41.1082C16.9102 40.8655 16.104 40.3366 15.4817 39.6504C13.5013 40.0646 12.0009 41.8371 12.0009 43.9659V47.9535H22.6693V42.9659C22.6693 41.8371 22.9804 40.7793 23.5324 39.8788C23.2915 39.7793 23.0373 39.6931 22.7822 39.6504H22.7813Z" fill="#933921" style="fill:#933921;fill:color(display-p3 0.5765 0.2235 0.1294);fill-opacity:1;"/>
<path fill-rule="evenodd" clip-rule="evenodd" d="M40.3831 36.3354C40.3831 38.8368 42.3919 40.8661 44.8684 40.8661C47.3448 40.8661 49.3537 38.8368 49.3537 36.3354C49.3537 33.8341 47.3448 31.8057 44.8684 31.8057C42.3919 31.8057 40.3831 33.835 40.3831 36.3354Z" fill="#933921" style="fill:#933921;fill:color(display-p3 0.5765 0.2235 0.1294);fill-opacity:1;"/>
<path fill-rule="evenodd" clip-rule="evenodd" d="M19.1316 40.8661C21.608 40.8661 23.6169 38.8368 23.6169 36.3354C23.6169 33.8341 21.608 31.8057 19.1316 31.8057C16.6551 31.8057 14.6462 33.835 14.6462 36.3354C14.6462 38.8359 16.6551 40.8661 19.1316 40.8661Z" fill="#933921" style="fill:#933921;fill:color(display-p3 0.5765 0.2235 0.1294);fill-opacity:1;"/>
<path fill-rule="evenodd" clip-rule="evenodd" d="M36.4356 37.5498C35.6996 38.364 34.7378 38.9649 33.6623 39.2787L31.9929 43.8805L30.3378 39.2787C29.2623 38.964 28.3005 38.364 27.5645 37.5498C25.0321 38.0218 23.0934 40.2796 23.0934 42.9658V47.9534H40.9076V42.9658C40.9076 40.2787 38.9689 38.0209 36.4365 37.5498H36.4356Z" fill="#933921" style="fill:#933921;fill:color(display-p3 0.5765 0.2235 0.1294);fill-opacity:1;"/>
<path fill-rule="evenodd" clip-rule="evenodd" d="M26.4036 33.4349C26.4036 36.5647 28.9076 39.0945 31.9929 39.0945C35.0782 39.0945 37.5965 36.5647 37.5965 33.4349C37.5965 30.3052 35.0916 27.7754 31.9929 27.7754C28.8942 27.7754 26.4036 30.3052 26.4036 33.4349Z" fill="#933921" style="fill:#933921;fill:color(display-p3 0.5765 0.2235 0.1294);fill-opacity:1;"/>
</g>
<defs>
<clipPath id="clip0_6947_10912">
<rect width="40" height="29.9538" fill="white" style="fill:white;fill-opacity:1;" transform="translate(12 18)"/>
</clipPath>
</defs>
</svg>
