<svg width="32" height="32" viewBox="0 0 32 32" fill="none" xmlns="http://www.w3.org/2000/svg">
<rect width="32" height="32" rx="8" fill="white" style="fill:white;fill-opacity:1;"/>
<path d="M21.9496 14.8791C21.9496 15.5047 21.4422 16.0121 20.8166 16.0121C20.1911 16.0121 19.6836 15.5047 19.6836 14.8791C19.6836 14.2536 20.1911 13.7461 20.8166 13.7461C21.4422 13.7461 21.9496 14.2536 21.9496 14.8791Z" fill="#EE7254" style="fill:#EE7254;fill:color(display-p3 0.9333 0.4471 0.3294);fill-opacity:1;"/>
<path d="M26.0668 14.8791C26.0668 15.5047 25.5593 16.0121 24.9338 16.0121C24.3083 16.0121 23.8008 15.5047 23.8008 14.8791C23.8008 14.2536 24.3083 13.7461 24.9338 13.7461C25.5593 13.7461 26.0668 14.2536 26.0668 14.8791Z" fill="#EE7254" style="fill:#EE7254;fill:color(display-p3 0.9333 0.4471 0.3294);fill-opacity:1;"/>
<path d="M9.40281 9.05859C6.20053 12.2919 6.20881 17.5096 9.43181 20.7306C12.6527 23.9515 17.8704 23.9618 21.1038 20.7596L9.40281 9.05859Z" fill="#3B5446" style="fill:#3B5446;fill:color(display-p3 0.2314 0.3294 0.2745);fill-opacity:1;"/>
<path d="M9.42322 9.02118C6.2023 12.2421 6.19195 17.4598 9.39423 20.6932L21.0952 8.99219" fill="#EE7254" style="fill:#EE7254;fill:color(display-p3 0.9333 0.4471 0.3294);fill-opacity:1;"/>
</svg>
