<svg width="64" height="64" viewBox="0 0 64 64" fill="none" xmlns="http://www.w3.org/2000/svg">
<rect width="64" height="64" rx="16" fill="#F5F8F6" style="fill:#F5F8F6;fill:color(display-p3 0.9608 0.9725 0.9647);fill-opacity:1;"/>
<g clip-path="url(#clip0_7258_9708)">
<path d="M43.7088 42.2948L37.7458 36.3318C39.1578 34.6068 40.0078 32.4048 40.0078 30.0078C40.0078 24.4938 35.5218 20.0078 30.0078 20.0078C24.4938 20.0078 20.0078 24.4938 20.0078 30.0078C20.0078 35.5218 24.4938 40.0078 30.0078 40.0078C32.4058 40.0078 34.6078 39.1578 36.3318 37.7458L42.2948 43.7088C42.4898 43.9038 42.7458 44.0018 43.0018 44.0018C43.2578 44.0018 43.5138 43.9038 43.7088 43.7088C44.0998 43.3178 44.0998 42.6858 43.7088 42.2948ZM34.0018 33.0018H26.0018C25.4498 33.0018 25.0018 32.5548 25.0018 32.0018C25.0018 31.4488 25.4498 31.0018 26.0018 31.0018V29.0018C26.0018 28.4488 26.4498 28.0018 27.0018 28.0018C27.5538 28.0018 28.0018 28.4488 28.0018 29.0018V31.0018H29.0018V26.0018C29.0018 25.4488 29.4498 25.0018 30.0018 25.0018C30.5538 25.0018 31.0018 25.4488 31.0018 26.0018V31.0018H32.0018V28.0018C32.0018 27.4488 32.4498 27.0018 33.0018 27.0018C33.5538 27.0018 34.0018 27.4488 34.0018 28.0018V31.0018C34.5538 31.0018 35.0018 31.4488 35.0018 32.0018C35.0018 32.5548 34.5538 33.0018 34.0018 33.0018Z" fill="#2D423A" style="fill:#2D423A;fill:color(display-p3 0.1765 0.2588 0.2275);fill-opacity:1;"/>
</g>
<defs>
<clipPath id="clip0_7258_9708">
<rect width="24" height="24" fill="white" style="fill:white;fill-opacity:1;" transform="translate(20 20)"/>
</clipPath>
</defs>
</svg>
