<svg width="64" height="64" viewBox="0 0 64 64" fill="none" xmlns="http://www.w3.org/2000/svg">
<rect width="64" height="64" rx="16" fill="#F5F8F6" style="fill:#F5F8F6;fill:color(display-p3 0.9608 0.9725 0.9647);fill-opacity:1;"/>
<g clip-path="url(#clip0_7258_9716)">
<path d="M34 43C34 43.55 33.55 44 33 44H21C20.45 44 20 43.55 20 43C20 39.13 23.13 36 27 36C30.87 36 34 39.13 34 43ZM31 30C31 27.79 29.21 26 27 26C24.79 26 23 27.79 23 30C23 32.21 24.79 34 27 34C29.21 34 31 32.21 31 30ZM39 20H29C26.31 20 24.13 22.14 24.02 24.8C24.9 24.29 25.91 24 27 24C29.74 24 32.04 25.84 32.76 28.35L35 30.59L38.59 27H37C36.45 27 36 26.55 36 26C36 25.45 36.45 25 37 25H40C41.1 25 42 25.9 42 27V30C42 30.55 41.55 31 41 31C40.45 31 40 30.55 40 30V28.41L36.41 32C35.63 32.78 34.36 32.78 33.58 32L32.86 31.28C32.86 31.28 32.86 31.29 32.86 31.3C32.55 32.71 31.74 33.93 30.63 34.77C32.2 35.46 33.53 36.59 34.48 38H39.01C41.77 38 44.01 35.76 44.01 33V25C44.01 22.24 41.77 20 39.01 20H39Z" fill="#2D423A" style="fill:#2D423A;fill:color(display-p3 0.1765 0.2588 0.2275);fill-opacity:1;"/>
</g>
<defs>
<clipPath id="clip0_7258_9716">
<rect width="24" height="24" fill="white" style="fill:white;fill-opacity:1;" transform="translate(20 20)"/>
</clipPath>
</defs>
</svg>
