<svg width="64" height="65" viewBox="0 0 64 65" fill="none" xmlns="http://www.w3.org/2000/svg">
<rect y="0.5" width="64" height="64" rx="16" fill="#355146" style="fill:#355146;fill:color(display-p3 0.2078 0.3176 0.2745);fill-opacity:1;"/>
<path d="M30.6086 34.7C28.2086 34.7 27.0086 35.7 27.0086 35.7L24.8086 32.7L31.2086 24.7H23.2086V19.3H41.0086V19.9L32.6086 30.1V30.3C38.0086 30.3 42.0086 34.3 42.0086 39.5C42.0086 45.1 38.0086 49.1 30.8086 49.1C25.2086 49.1 21.6086 45.7 21.6086 45.7L23.6086 41.1C23.6086 41.1 26.2086 43.7 30.6086 43.7C34.0086 43.7 36.0086 41.9 36.0086 39.1C36.0086 36.5 34.0086 34.7 30.6086 34.7Z" fill="white" style="fill:white;fill-opacity:1;"/>
</svg>
