<svg width="64" height="64" viewBox="0 0 64 64" fill="none" xmlns="http://www.w3.org/2000/svg">
<rect width="64" height="64" rx="16" fill="#F5F8F6" style="fill:#F5F8F6;fill:color(display-p3 0.9608 0.9725 0.9647);fill-opacity:1;"/>
<path d="M21.9234 43.1394C21.6866 43.1394 21.4512 43.0494 21.2698 42.868C20.9098 42.508 20.9098 41.9223 21.2712 41.5623L28.7204 34.1214C29.0804 33.7614 29.6647 33.7614 30.0261 34.1228C30.3861 34.4828 30.3861 35.0685 30.0247 35.4285L22.5755 42.8694C22.3955 43.0494 22.1601 43.1394 21.9234 43.1394Z" fill="#355146" style="fill:#355146;fill:color(display-p3 0.2078 0.3176 0.2745);fill-opacity:1;"/>
<path d="M42.6803 27.985L36.1532 21.458C35.544 20.8473 34.4778 20.8473 33.8686 21.458L32.9672 22.3593C32.3303 22.9977 32.1115 23.924 32.3954 24.7769C32.5131 25.13 32.4231 25.5135 32.1586 25.778L29.5126 28.424C29.2938 28.6413 29.0045 28.7618 28.6971 28.7618H27.6157C26.9372 28.7618 26.2989 29.0263 25.8212 29.5053L25.3837 29.9429C25.0777 30.2475 24.9102 30.6532 24.9102 31.0852C24.9102 31.5172 25.0777 31.9229 25.3837 32.2275L31.9108 38.7546C32.2154 39.0592 32.6211 39.2281 33.0531 39.2281C33.4851 39.2281 33.8908 39.0606 34.1954 38.7546L34.6329 38.3157C35.112 37.8366 35.3765 37.1983 35.3765 36.5212V35.4398C35.3765 35.1366 35.4997 34.8389 35.7143 34.6243L38.3603 31.9783C38.6234 31.7152 39.0055 31.6224 39.3614 31.7415C40.2157 32.0253 41.142 31.8066 41.7775 31.1697L42.6789 30.2683C43.3103 29.6397 43.3103 28.615 42.6803 27.985Z" fill="#355146" style="fill:#355146;fill:color(display-p3 0.2078 0.3176 0.2745);fill-opacity:1;"/>
</svg>
