<svg width="65" height="64" viewBox="0 0 65 64" fill="none" xmlns="http://www.w3.org/2000/svg">
<rect x="0.667969" width="64" height="64" rx="16" fill="#F5F8F6" style="fill:#F5F8F6;fill:color(display-p3 0.9608 0.9725 0.9647);fill-opacity:1;"/>
<g clip-path="url(#clip0_7258_9694)">
<path d="M20.668 38C20.668 40.757 22.911 43 25.668 43H39.668C42.425 43 44.668 40.757 44.668 38V30H20.668V38ZM34.668 33H38.668C39.221 33 39.668 33.448 39.668 34C39.668 34.552 39.221 35 38.668 35H34.668C34.115 35 33.668 34.553 33.668 34C33.668 33.447 34.115 33 34.668 33ZM34.668 38H38.668C39.221 38 39.668 38.447 39.668 39C39.668 39.553 39.221 40 38.668 40H34.668C34.115 40 33.668 39.553 33.668 39C33.668 38.447 34.115 38 34.668 38ZM25.695 32.995C26.075 32.593 26.708 32.577 27.108 32.956L28.123 33.916L29.961 32.078C30.352 31.687 30.984 31.687 31.375 32.078C31.766 32.469 31.766 33.101 31.375 33.492L29.393 35.474C29.041 35.826 28.584 36.002 28.127 36.002C27.686 36.002 27.244 35.838 26.897 35.509L25.734 34.406C25.333 34.027 25.316 33.394 25.696 32.993L25.695 32.995ZM25.695 37.995C26.075 37.594 26.708 37.577 27.108 37.957L28.123 38.917L29.961 37.079C30.352 36.688 30.984 36.688 31.375 37.079C31.766 37.47 31.766 38.102 31.375 38.493L29.393 40.475C29.041 40.827 28.584 41.003 28.127 41.003C27.686 41.003 27.244 40.839 26.897 40.51L25.734 39.407C25.333 39.028 25.316 38.394 25.696 37.994L25.695 37.995ZM39.668 21H25.668C22.911 21 20.668 23.243 20.668 26V28H44.668V26C44.668 23.243 42.425 21 39.668 21ZM25.168 26C24.34 26 23.668 25.328 23.668 24.5C23.668 23.672 24.34 23 25.168 23C25.996 23 26.668 23.672 26.668 24.5C26.668 25.328 25.996 26 25.168 26ZM29.168 26C28.34 26 27.668 25.328 27.668 24.5C27.668 23.672 28.34 23 29.168 23C29.996 23 30.668 23.672 30.668 24.5C30.668 25.328 29.996 26 29.168 26Z" fill="#2D423A" style="fill:#2D423A;fill:color(display-p3 0.1765 0.2588 0.2275);fill-opacity:1;"/>
</g>
<defs>
<clipPath id="clip0_7258_9694">
<rect width="24" height="24" fill="white" style="fill:white;fill-opacity:1;" transform="translate(20.668 20)"/>
</clipPath>
</defs>
</svg>
