<svg width="65" height="64" viewBox="0 0 65 64" fill="none" xmlns="http://www.w3.org/2000/svg">
<rect x="0.335938" width="64" height="64" rx="16" fill="#F5F8F6" style="fill:#F5F8F6;fill:color(display-p3 0.9608 0.9725 0.9647);fill-opacity:1;"/>
<g clip-path="url(#clip0_7258_9701)">
<path d="M31.7689 41.289L29.4949 43.478C29.1469 43.813 28.6839 44 28.2009 44H22.3359C21.2309 44 20.3359 43.105 20.3359 42V40.531C20.3359 38.895 21.3319 37.425 22.8499 36.817L25.3359 35.823V32.5C25.3359 31.673 26.0089 31 26.8359 31C27.6629 31 28.3359 31.673 28.3359 32.5V39.198L28.9579 38.625C29.6349 37.947 30.7299 37.774 31.5199 38.34C32.5169 39.058 32.5999 40.458 31.7689 41.289ZM41.8219 36.818L39.3359 35.824V32.501C39.3359 31.674 38.6629 31.001 37.8359 31.001C37.0089 31.001 36.3359 31.674 36.3359 32.501V39.199L35.7139 38.626C35.0369 37.948 33.9419 37.775 33.1519 38.341C32.1549 39.059 32.0719 40.459 32.9029 41.29L35.1769 43.479C35.5249 43.814 35.9879 44.001 36.4709 44.001H42.3359C43.4409 44.001 44.3359 43.106 44.3359 42.001V40.532C44.3359 38.896 43.3399 37.426 41.8219 36.818ZM44.3359 25V29C44.3359 31.045 43.0989 32.802 41.3359 33.576V32.5C41.3359 31.38 40.7979 30.393 39.9769 29.752C40.1919 29.569 40.3359 29.305 40.3359 29C40.3359 28.448 39.8879 28 39.3359 28H38.3359C37.7839 28 37.3359 28.448 37.3359 29C37.3359 29.015 37.3439 29.027 37.3439 29.041C37.3409 29.041 37.3389 29.043 37.3359 29.043V29.05C35.6419 29.295 34.3359 30.738 34.3359 32.5V34H30.3359V32.5C30.3359 30.738 29.0299 29.295 27.3359 29.05V29.043C27.3359 29.043 27.3309 29.041 27.3279 29.041C27.3279 29.027 27.3359 29.014 27.3359 29C27.3359 28.448 26.8879 28 26.3359 28H25.3359C24.7839 28 24.3359 28.448 24.3359 29C24.3359 29.305 24.4799 29.568 24.6949 29.752C23.8739 30.393 23.3359 31.381 23.3359 32.5V33.576C21.5729 32.802 20.3359 31.045 20.3359 29V25C20.3359 22.243 22.5789 20 25.3359 20H39.3359C42.0929 20 44.3359 22.243 44.3359 25ZM29.3359 25C29.3359 25.552 29.7829 26 30.3359 26H31.3359C31.8889 26 32.3359 25.552 32.3359 25C32.3359 24.448 31.8889 24 31.3359 24H30.3359C29.7829 24 29.3359 24.448 29.3359 25ZM27.3359 25C27.3359 24.448 26.8889 24 26.3359 24H25.3359C24.7829 24 24.3359 24.448 24.3359 25C24.3359 25.552 24.7829 26 25.3359 26H26.3359C26.8889 26 27.3359 25.552 27.3359 25ZM35.3359 29C35.3359 28.448 34.8879 28 34.3359 28H30.3359C29.7839 28 29.3359 28.448 29.3359 29C29.3359 29.552 29.7839 30 30.3359 30H34.3359C34.8879 30 35.3359 29.552 35.3359 29ZM40.3359 25C40.3359 24.448 39.8889 24 39.3359 24H35.3359C34.7829 24 34.3359 24.448 34.3359 25C34.3359 25.552 34.7829 26 35.3359 26H39.3359C39.8889 26 40.3359 25.552 40.3359 25Z" fill="#2D423A" style="fill:#2D423A;fill:color(display-p3 0.1765 0.2588 0.2275);fill-opacity:1;"/>
</g>
<defs>
<clipPath id="clip0_7258_9701">
<rect width="24" height="24" fill="white" style="fill:white;fill-opacity:1;" transform="translate(20.3359 20)"/>
</clipPath>
</defs>
</svg>
