<svg width="64" height="64" viewBox="0 0 64 64" fill="none" xmlns="http://www.w3.org/2000/svg">
<rect width="64" height="64" rx="16" fill="white" style="fill:white;fill-opacity:1;"/>
<g clip-path="url(#clip0_7274_13975)">
<path d="M34.713 27.8651C34.703 27.9651 34.643 28.0551 34.573 28.1151C34.503 28.1751 34.413 28.2051 34.313 28.2051H34.263C33.923 28.1651 33.583 28.1251 33.233 28.0951C31.533 27.9351 29.683 27.9351 27.953 28.0951C27.873 28.1051 27.803 28.1051 27.723 28.1151C27.503 28.1351 27.313 27.9751 27.293 27.7551C27.293 27.6951 27.293 27.6251 27.323 27.5751C27.373 27.4351 27.493 27.3351 27.653 27.3251C27.913 27.2951 28.173 27.2751 28.433 27.2651C30.363 27.1151 32.393 27.1651 34.213 27.3951C34.263 27.3951 34.313 27.3951 34.363 27.4151C34.583 27.4451 34.733 27.6451 34.713 27.8651Z" fill="#293832" style="fill:#293832;fill:color(display-p3 0.1608 0.2196 0.1961);fill-opacity:1;"/>
<path d="M40.8925 30.7145C40.8925 31.8645 39.5125 32.8645 37.0025 33.5245C36.9025 33.5545 36.8025 33.5745 36.7025 33.6045C36.5425 33.6445 36.3725 33.6845 36.2025 33.7145C34.5325 34.0745 32.6125 34.2545 30.5925 34.2545C28.5725 34.2545 26.6425 34.0645 24.9925 33.7145C24.8225 33.6845 24.6625 33.6445 24.5025 33.6045C24.3925 33.5745 24.2925 33.5545 24.1925 33.5245C21.6825 32.8645 20.3125 31.8645 20.3125 30.7145C20.3125 29.3045 22.3725 28.1345 25.8825 27.5645C26.0625 27.5245 26.2425 27.5045 26.4325 27.4745C26.6025 27.4445 26.7625 27.5345 26.8325 27.6745C26.8625 27.7145 26.8725 27.7645 26.8825 27.8145C26.9125 28.0345 26.7625 28.2345 26.5425 28.2645C26.4425 28.2745 26.3525 28.2945 26.2525 28.3145C22.7225 28.8545 21.1125 29.9345 21.1125 30.7145C21.1125 31.4945 22.5125 32.2945 24.6925 32.8245C26.3725 33.2345 28.4625 33.4545 30.5925 33.4545C32.7225 33.4545 34.7425 33.2445 36.4425 32.8445C36.4625 32.8445 36.4925 32.8445 36.5125 32.8245C38.6825 32.2945 40.0925 31.4645 40.0925 30.7145C40.0925 30.0545 38.8925 29.1445 36.2325 28.5445C36.1725 28.5245 36.1225 28.5145 36.0625 28.5045C35.8525 28.4545 35.7125 28.2445 35.7625 28.0245C35.7725 27.9445 35.8125 27.8745 35.8825 27.8245L36.0025 27.7345C36.0725 27.7145 36.1525 27.7045 36.2325 27.7245C36.5325 27.7945 36.8325 27.8645 37.1025 27.9345C39.5225 28.5945 40.8925 29.5845 40.8925 30.7145Z" fill="#293832" style="fill:#293832;fill:color(display-p3 0.1608 0.2196 0.1961);fill-opacity:1;"/>
<path d="M37.0032 35.1446C37.0032 35.3346 36.8832 35.4946 36.6932 35.5346C36.5332 35.5746 36.3732 35.6146 36.2032 35.6446C34.5432 36.0046 32.6132 36.1946 30.5932 36.1946C28.5732 36.1946 26.6432 36.0046 24.9932 35.6446C24.8232 35.6146 24.6632 35.5746 24.5032 35.5346C24.2932 35.4846 24.1532 35.2746 24.2132 35.0546C24.2632 34.8446 24.4832 34.7146 24.6932 34.7646C24.7932 34.7846 24.8932 34.8146 24.9932 34.8246C26.6232 35.2046 28.5932 35.3946 30.5932 35.3946C32.5932 35.3946 34.5532 35.2046 36.2032 34.8346C36.3132 34.8146 36.4132 34.7846 36.5132 34.7646C36.7232 34.7146 36.9432 34.8446 36.9932 35.0546C37.0032 35.0846 37.0032 35.1146 37.0032 35.1446Z" fill="#293832" style="fill:#293832;fill:color(display-p3 0.1608 0.2196 0.1961);fill-opacity:1;"/>
<path d="M36.2022 35.6445V41.2345C36.2022 41.5345 36.0322 41.8145 35.7722 41.9145C32.7022 43.2145 28.4922 43.2145 25.4222 41.9145C25.1722 41.8145 24.9922 41.5345 24.9922 41.2345V35.6445C26.6422 36.0045 28.6022 36.1945 30.5922 36.1945C32.5822 36.1945 34.5422 36.0045 36.2022 35.6445Z" fill="#293832" style="fill:#293832;fill:color(display-p3 0.1608 0.2196 0.1961);fill-opacity:1;"/>
<path d="M37.0014 33.2164V41.2364C37.0014 41.8664 36.6414 42.4264 36.0814 42.6564C34.4514 43.3464 32.5514 43.7164 30.5914 43.7164C28.6314 43.7164 26.7414 43.3464 25.1114 42.6564C24.5514 42.4264 24.1914 41.8664 24.1914 41.2364V33.2164C24.1914 32.9964 24.3714 32.8164 24.5914 32.8164C24.8114 32.8164 24.9914 32.9964 24.9914 33.2164V41.2364C24.9914 41.5364 25.1714 41.8164 25.4214 41.9164C28.4914 43.2164 32.7014 43.2164 35.7714 41.9164C36.0314 41.8164 36.2014 41.5364 36.2014 41.2364V33.2164C36.2014 33.0564 36.3014 32.9064 36.4414 32.8464C36.4914 32.8264 36.5414 32.8164 36.6014 32.8164C36.8214 32.8164 37.0014 32.9964 37.0014 33.2164Z" fill="#293832" style="fill:#293832;fill:color(display-p3 0.1608 0.2196 0.1961);fill-opacity:1;"/>
<path d="M34.7313 29.6069C34.4413 29.5569 34.1113 29.5069 33.7313 29.4669C33.6113 29.4669 33.5012 29.4969 33.4212 29.5669C33.3512 29.6269 33.3013 29.7169 33.2913 29.8169C33.2613 30.0369 33.4213 30.2369 33.6413 30.2569C33.6913 30.2669 33.7413 30.2669 33.7913 30.2769C34.9012 30.4169 35.4713 30.5969 35.7313 30.7169C35.1813 30.9669 33.4312 31.3269 30.5912 31.3269C27.7513 31.3269 26.0113 30.9669 25.4613 30.7169C26.0013 30.4569 27.7513 30.0969 30.5912 30.0969C31.0412 30.0969 31.4813 30.1069 31.8913 30.1169C31.9613 30.1169 32.0312 30.1269 32.1013 30.1269C32.3313 30.1469 32.5113 29.9669 32.5213 29.7469C32.5213 29.6869 32.5113 29.6369 32.4913 29.5869C32.4413 29.4469 32.3012 29.3369 32.1312 29.3269C31.9513 29.3169 31.7712 29.3169 31.5812 29.3169C31.2612 29.2969 30.9313 29.2969 30.5912 29.2969C29.1712 29.2969 24.5312 29.3969 24.5312 30.7169C24.5312 32.0369 29.1712 32.1269 30.5912 32.1269C32.0113 32.1269 36.6712 32.0269 36.6712 30.7169C36.6712 30.3569 36.4213 29.9169 34.7313 29.6069Z" fill="#293832" style="fill:#293832;fill:color(display-p3 0.1608 0.2196 0.1961);fill-opacity:1;"/>
<path d="M33.2911 29.8166C33.3011 29.7166 33.3511 29.6266 33.4211 29.5666L32.7911 30.0066L32.4911 29.5866L34.5711 28.1166C34.5011 28.1766 34.4111 28.2066 34.3111 28.2066H34.2611C33.9211 28.1666 33.5811 28.1266 33.2311 28.0966L31.7111 29.1666C31.6511 29.2066 31.6011 29.2566 31.5811 29.3166C31.5111 29.4466 31.5211 29.5966 31.6111 29.7266L31.8911 30.1166L32.3611 30.7966C32.4211 30.8766 32.5211 30.9366 32.6211 30.9566H32.6911C32.7711 30.9566 32.8511 30.9366 32.9211 30.8866L33.7911 30.2766C33.7911 30.2766 33.6911 30.2666 33.6411 30.2566C33.4211 30.2366 33.2611 30.0366 33.2911 29.8166ZM43.4911 22.9366L42.7311 21.8666C42.6711 21.7866 42.5811 21.7266 42.4811 21.7066C42.3711 21.6866 42.2611 21.7066 42.1811 21.7766L38.4511 24.4066L38.3411 24.4866L34.2111 27.3966L33.2311 28.0966L31.7111 29.1666C31.6511 29.2066 31.6011 29.2566 31.5811 29.3166C31.5111 29.4466 31.5211 29.5966 31.6111 29.7266L31.8911 30.1166L32.3611 30.7966C32.4211 30.8766 32.5211 30.9366 32.6211 30.9566H32.6911C32.7711 30.9566 32.8511 30.9366 32.9211 30.8866L33.7911 30.2766L34.7311 29.6066L36.2311 28.5466L37.1011 27.9366L43.3911 23.4966C43.5711 23.3666 43.6111 23.1166 43.4911 22.9366ZM39.4911 25.2666L38.8411 25.7266L36.0011 27.7366L35.8811 27.8266L33.4211 29.5666L32.7911 30.0066L32.4911 29.5866L34.5711 28.1166L38.5511 25.3166L39.2011 24.8566L42.3111 22.6566L42.6011 23.0666L39.4911 25.2666Z" fill="#293832" style="fill:#293832;fill:color(display-p3 0.1608 0.2196 0.1961);fill-opacity:1;"/>
<path d="M39.3913 26.2241C39.2613 26.2241 39.1412 26.1641 39.0612 26.0541L38.3112 24.9841C38.1812 24.8041 38.2312 24.5541 38.4112 24.4241C38.5912 24.3041 38.8413 24.3441 38.9713 24.5241L39.7213 25.5941C39.8513 25.7741 39.8013 26.0241 39.6213 26.1541C39.5513 26.2041 39.4713 26.2241 39.3913 26.2241Z" fill="#293832" style="fill:#293832;fill:color(display-p3 0.1608 0.2196 0.1961);fill-opacity:1;"/>
<path d="M30.4723 25.4262L28.8923 24.6562C28.5823 24.5062 28.3323 24.2563 28.1823 23.9563L27.4123 22.3663C27.2723 22.0863 26.8223 22.0863 26.6923 22.3663L25.9223 23.9563C25.7723 24.2563 25.5223 24.5062 25.2123 24.6562L23.6323 25.4262C23.4923 25.4962 23.4023 25.6363 23.4023 25.7863C23.4023 25.9463 23.4923 26.0863 23.6323 26.1463L25.2123 26.9163C25.5023 27.0563 25.7423 27.2863 25.8823 27.5663C25.9023 27.5863 25.9123 27.6063 25.9223 27.6263L26.2523 28.3162L26.6923 29.2063C26.7623 29.3463 26.9023 29.4362 27.0523 29.4362C27.2023 29.4362 27.3423 29.3463 27.4123 29.2063L27.9523 28.0963L28.1823 27.6263C28.2423 27.4963 28.3323 27.3763 28.4323 27.2663C28.5523 27.1263 28.7123 27.0063 28.8923 26.9163L30.4723 26.1463C30.6123 26.0763 30.7023 25.9463 30.7023 25.7863C30.7023 25.6363 30.6123 25.4962 30.4723 25.4262ZM28.5423 26.1962C28.0723 26.4262 27.6923 26.8063 27.4623 27.2762L27.3223 27.5763L27.0523 28.1163L26.8323 27.6762L26.6423 27.2762C26.4123 26.8063 26.0323 26.4262 25.5623 26.1962L24.7223 25.7863L25.5623 25.3763C26.0323 25.1563 26.4123 24.7663 26.6423 24.2963L27.0523 23.4563L27.4623 24.2963C27.6923 24.7663 28.0723 25.1563 28.5423 25.3763L29.3823 25.7863L28.5423 26.1962Z" fill="#293832" style="fill:#293832;fill:color(display-p3 0.1608 0.2196 0.1961);fill-opacity:1;"/>
<path d="M40.0933 30.7166C40.0933 31.4666 38.6833 32.2966 36.5133 32.8266C36.4933 32.8366 36.4633 32.8366 36.4433 32.8466C34.7433 33.2466 32.7233 33.4566 30.5933 33.4566C28.4633 33.4566 26.3733 33.2366 24.6933 32.8266C22.5133 32.2966 21.1133 31.4666 21.1133 30.7166C21.1133 29.9666 22.7233 28.8566 26.2533 28.3166L26.6933 29.2066C26.7633 29.3466 26.9033 29.4366 27.0533 29.4366C27.2033 29.4366 27.3433 29.3466 27.4133 29.2066L27.9533 28.0966C29.6833 27.9366 31.5333 27.9366 33.2333 28.0966L31.7133 29.1666C31.6533 29.2066 31.6033 29.2566 31.5833 29.3166C31.2633 29.2966 30.9333 29.2966 30.5933 29.2966C29.1733 29.2966 24.5333 29.3966 24.5333 30.7166C24.5333 32.0366 29.1733 32.1266 30.5933 32.1266C32.0133 32.1266 36.6733 32.0266 36.6733 30.7166C36.6733 30.3566 36.4233 29.9166 34.7333 29.6066L36.2333 28.5466C38.8933 29.1466 40.0933 30.0566 40.0933 30.7166Z" fill="#293832" style="fill:#293832;fill:color(display-p3 0.1608 0.2196 0.1961);fill-opacity:1;"/>
<path d="M33.5811 26.8844C33.4311 26.8844 33.2911 26.7944 33.2211 26.6544L32.5611 25.2844C32.4411 25.0344 32.2311 24.8244 31.9711 24.6944L30.6011 24.0344C30.4611 23.9644 30.3711 23.8244 30.3711 23.6744C30.3711 23.5244 30.4611 23.3844 30.6011 23.3144L31.9711 22.6544C32.2211 22.5344 32.4311 22.3244 32.5611 22.0644L33.2211 20.6944C33.3511 20.4144 33.8111 20.4144 33.9411 20.6944L34.6011 22.0644C34.7211 22.3144 34.9311 22.5244 35.1811 22.6544L36.5511 23.3144C36.6911 23.3844 36.7811 23.5244 36.7811 23.6744C36.7811 23.8244 36.6911 23.9644 36.5511 24.0344L35.1811 24.6944C34.9311 24.8144 34.7211 25.0244 34.6011 25.2844L33.9411 26.6544C33.8711 26.7944 33.7311 26.8844 33.5811 26.8844ZM31.6911 23.6744L32.3111 23.9744C32.7311 24.1744 33.0611 24.5144 33.2711 24.9344L33.5711 25.5644L33.8711 24.9344C34.0711 24.5144 34.4111 24.1844 34.8311 23.9744L35.4611 23.6744L34.8311 23.3744C34.4211 23.1744 34.0811 22.8344 33.8711 22.4144L33.5711 21.7844L33.2711 22.4044C33.0711 22.8244 32.7311 23.1544 32.3111 23.3644L31.6811 23.6644L31.6911 23.6744Z" fill="#293832" style="fill:#293832;fill:color(display-p3 0.1608 0.2196 0.1961);fill-opacity:1;"/>
<path d="M41.5597 43.3247C41.4097 43.3247 41.2697 43.2347 41.1997 43.0947L40.7897 42.2447C40.7297 42.1147 40.6197 42.0147 40.4997 41.9547L39.6597 41.5447C39.5197 41.4747 39.4297 41.3347 39.4297 41.1847C39.4297 41.0347 39.5197 40.8947 39.6597 40.8247L40.5097 40.4147C40.6397 40.3547 40.7397 40.2447 40.7997 40.1247L41.2097 39.2847C41.2797 39.1447 41.4197 39.0547 41.5697 39.0547C41.7197 39.0547 41.8597 39.1447 41.9297 39.2847L42.3397 40.1347C42.3997 40.2647 42.5097 40.3647 42.6297 40.4247L43.4697 40.8347C43.6097 40.9047 43.6997 41.0447 43.6997 41.1947C43.6997 41.3447 43.6097 41.4847 43.4697 41.5547L42.6197 41.9647C42.4897 42.0247 42.3897 42.1347 42.3297 42.2547L41.9197 43.0947C41.8497 43.2347 41.7097 43.3247 41.5597 43.3247ZM40.7397 41.1847L40.8397 41.2347C41.1297 41.3747 41.3597 41.6147 41.4997 41.8947L41.5497 41.9947L41.5997 41.8947C41.7397 41.6047 41.9797 41.3747 42.2597 41.2347L42.3597 41.1847L42.2597 41.1347C41.9697 40.9947 41.7397 40.7547 41.5997 40.4747L41.5497 40.3747L41.4997 40.4747C41.3597 40.7647 41.1197 40.9947 40.8397 41.1347L40.7397 41.1847Z" fill="#293832" style="fill:#293832;fill:color(display-p3 0.1608 0.2196 0.1961);fill-opacity:1;"/>
<path d="M21.9798 38.7153C21.8298 38.7153 21.6898 38.6253 21.6198 38.4853L21.2698 37.7553C21.2198 37.6553 21.1398 37.5753 21.0398 37.5353L20.3198 37.1853C20.1798 37.1153 20.0898 36.9753 20.0898 36.8253C20.0898 36.6753 20.1798 36.5353 20.3198 36.4653L21.0498 36.1153C21.1498 36.0653 21.2298 35.9853 21.2698 35.8953L21.6198 35.1753C21.6898 35.0353 21.8298 34.9453 21.9798 34.9453C22.1298 34.9453 22.2698 35.0353 22.3398 35.1753L22.6898 35.9053C22.7398 36.0053 22.8198 36.0853 22.9198 36.1253L23.6398 36.4753C23.7798 36.5453 23.8698 36.6853 23.8698 36.8353C23.8698 36.9853 23.7798 37.1253 23.6398 37.1953L22.9098 37.5453C22.8098 37.5953 22.7298 37.6753 22.6898 37.7653L22.3398 38.4953C22.2698 38.6353 22.1298 38.7253 21.9798 38.7253V38.7153ZM21.4198 36.8353C21.6698 36.9653 21.8698 37.1653 21.9898 37.4053C22.1098 37.1553 22.3098 36.9553 22.5598 36.8353C22.3098 36.7153 22.1098 36.5053 21.9898 36.2653C21.8698 36.5153 21.6598 36.7153 21.4198 36.8353Z" fill="#293832" style="fill:#293832;fill:color(display-p3 0.1608 0.2196 0.1961);fill-opacity:1;"/>
<path d="M22.7125 22.0152C22.4925 22.0152 22.3125 21.8352 22.3125 21.6152V20.6852C22.3125 20.4652 22.4925 20.2852 22.7125 20.2852C22.9325 20.2852 23.1125 20.4652 23.1125 20.6852V21.6152C23.1125 21.8352 22.9325 22.0152 22.7125 22.0152Z" fill="#293832" style="fill:#293832;fill:color(display-p3 0.1608 0.2196 0.1961);fill-opacity:1;"/>
<path d="M22.7125 24.5955C22.4925 24.5955 22.3125 24.4155 22.3125 24.1955V23.2555C22.3125 23.0355 22.4925 22.8555 22.7125 22.8555C22.9325 22.8555 23.1125 23.0355 23.1125 23.2555V24.1955C23.1125 24.4155 22.9325 24.5955 22.7125 24.5955Z" fill="#293832" style="fill:#293832;fill:color(display-p3 0.1608 0.2196 0.1961);fill-opacity:1;"/>
<path d="M24.4628 22.8469H23.5328C23.3128 22.8469 23.1328 22.6669 23.1328 22.4469C23.1328 22.2269 23.3128 22.0469 23.5328 22.0469H24.4628C24.6828 22.0469 24.8628 22.2269 24.8628 22.4469C24.8628 22.6669 24.6828 22.8469 24.4628 22.8469Z" fill="#293832" style="fill:#293832;fill:color(display-p3 0.1608 0.2196 0.1961);fill-opacity:1;"/>
<path d="M21.8808 22.8469H20.9508C20.7308 22.8469 20.5508 22.6669 20.5508 22.4469C20.5508 22.2269 20.7308 22.0469 20.9508 22.0469H21.8808C22.1008 22.0469 22.2808 22.2269 22.2808 22.4469C22.2808 22.6669 22.1008 22.8469 21.8808 22.8469Z" fill="#293832" style="fill:#293832;fill:color(display-p3 0.1608 0.2196 0.1961);fill-opacity:1;"/>
<path d="M41.7398 27.5933C41.5198 27.5933 41.3398 27.4133 41.3398 27.1933V26.2633C41.3398 26.0433 41.5198 25.8633 41.7398 25.8633C41.9598 25.8633 42.1398 26.0433 42.1398 26.2633V27.1933C42.1398 27.4133 41.9598 27.5933 41.7398 27.5933Z" fill="#293832" style="fill:#293832;fill:color(display-p3 0.1608 0.2196 0.1961);fill-opacity:1;"/>
<path d="M41.7398 30.1853C41.5198 30.1853 41.3398 30.0053 41.3398 29.7853V28.8453C41.3398 28.6253 41.5198 28.4453 41.7398 28.4453C41.9598 28.4453 42.1398 28.6253 42.1398 28.8453V29.7853C42.1398 30.0053 41.9598 30.1853 41.7398 30.1853Z" fill="#293832" style="fill:#293832;fill:color(display-p3 0.1608 0.2196 0.1961);fill-opacity:1;"/>
<path d="M43.5019 28.425H42.5719C42.3519 28.425 42.1719 28.245 42.1719 28.025C42.1719 27.805 42.3519 27.625 42.5719 27.625H43.5019C43.7219 27.625 43.9019 27.805 43.9019 28.025C43.9019 28.245 43.7219 28.425 43.5019 28.425Z" fill="#293832" style="fill:#293832;fill:color(display-p3 0.1608 0.2196 0.1961);fill-opacity:1;"/>
<path d="M40.912 28.425H39.982C39.762 28.425 39.582 28.245 39.582 28.025C39.582 27.805 39.762 27.625 39.982 27.625H40.912C41.132 27.625 41.312 27.805 41.312 28.025C41.312 28.245 41.132 28.425 40.912 28.425Z" fill="#293832" style="fill:#293832;fill:color(display-p3 0.1608 0.2196 0.1961);fill-opacity:1;"/>
</g>
<defs>
<clipPath id="clip0_7274_13975">
<rect width="23.8" height="23.43" fill="white" style="fill:white;fill-opacity:1;" transform="translate(20.1016 20.2852)"/>
</clipPath>
</defs>
</svg>
