<svg width="32" height="32" viewBox="0 0 32 32" fill="none" xmlns="http://www.w3.org/2000/svg">
<rect width="32" height="32" rx="8" fill="white" style="fill:white;fill-opacity:1;"/>
<path d="M19.755 7.69141C19.755 8.03641 20.035 8.31641 20.38 8.31641H23.3242L17.125 14.5164V12.6914C17.125 12.5256 17.0592 12.3667 16.9419 12.2495C16.8247 12.1323 16.6658 12.0664 16.5 12.0664C16.3342 12.0664 16.1753 12.1323 16.0581 12.2495C15.9408 12.3667 15.875 12.5256 15.875 12.6914V16.0247C15.875 16.3697 16.155 16.6497 16.5 16.6497H19.8333C19.9991 16.6497 20.1581 16.5839 20.2753 16.4667C20.3925 16.3495 20.4583 16.1905 20.4583 16.0247C20.4583 15.859 20.3925 15.7 20.2753 15.5828C20.1581 15.4656 19.9991 15.3997 19.8333 15.3997H18.0083L24.2083 9.19974V12.1447C24.2083 12.3105 24.2742 12.4695 24.3914 12.5867C24.5086 12.7039 24.6676 12.7697 24.8333 12.7697C24.9991 12.7697 25.1581 12.7039 25.2753 12.5867C25.3925 12.4695 25.4583 12.3105 25.4583 12.1447V7.69141C25.4583 7.52565 25.3925 7.36667 25.2753 7.24946C25.1581 7.13225 24.9991 7.06641 24.8333 7.06641H20.38C20.2142 7.06641 20.0553 7.13225 19.9381 7.24946C19.8208 7.36667 19.755 7.52565 19.755 7.69141Z" fill="#3B5446" style="fill:#3B5446;fill:color(display-p3 0.2314 0.3294 0.2745);fill-opacity:1;"/>
<path d="M22.9613 12.2164C22.9798 12.6994 23.1841 13.1567 23.5316 13.4927C23.8791 13.8287 24.3429 14.0175 24.8263 14.0197C24.8346 14.6247 24.8346 15.2906 24.8346 16.0247C24.8346 19.9531 24.8346 21.9172 23.6138 23.1372C22.3946 24.3581 20.4296 24.3581 16.5013 24.3581C12.573 24.3581 10.6088 24.3581 9.38797 23.1372C8.16797 21.9181 8.16797 19.9531 8.16797 16.0247C8.16797 12.0964 8.16797 10.1322 9.38797 8.91141C10.6096 7.69141 12.573 7.69141 16.5013 7.69141C17.2355 7.69141 17.9013 7.69141 18.5063 7.69974C18.5085 8.18312 18.6973 8.64696 19.0334 8.99446C19.3694 9.34196 19.8266 9.54627 20.3096 9.56474L18.1238 11.7506C17.917 11.3935 17.5982 11.1146 17.2168 10.9572C16.8354 10.7997 16.4127 10.7725 16.0142 10.8797C15.6158 10.9869 15.2638 11.2225 15.0129 11.5501C14.7619 11.8776 14.6261 12.2788 14.6263 12.6914V16.0247C14.6263 16.522 14.8238 16.9989 15.1755 17.3506C15.5271 17.7022 16.004 17.8997 16.5013 17.8997H19.8346C20.2473 17.9 20.6484 17.7641 20.976 17.5132C21.3035 17.2622 21.5392 16.9103 21.6464 16.5118C21.7535 16.1133 21.7263 15.6907 21.5688 15.3093C21.4114 14.9279 21.1325 14.609 20.7755 14.4022L22.9613 12.2164Z" fill="#3B5446" style="fill:#3B5446;fill:color(display-p3 0.2314 0.3294 0.2745);fill-opacity:1;"/>
</svg>
