<svg width="64" height="65" viewBox="0 0 64 65" fill="none" xmlns="http://www.w3.org/2000/svg">
<rect y="0.5" width="64" height="64" rx="16" fill="#355146" style="fill:#355146;fill:color(display-p3 0.2078 0.3176 0.2745);fill-opacity:1;"/>
<path d="M24 23.5H30C30.55 23.5 31 23.95 31 24.5V30.5C31 31.05 30.55 31.5 30 31.5H24C23.45 31.5 23 31.05 23 30.5V24.5C23 23.95 23.45 23.5 24 23.5ZM34 23.5H40C40.55 23.5 41 23.95 41 24.5V30.5C41 31.05 40.55 31.5 40 31.5H34C33.45 31.5 33 31.05 33 30.5V24.5C33 23.95 33.45 23.5 34 23.5ZM24 33.5H30C30.55 33.5 31 33.95 31 34.5V40.5C31 41.05 30.55 41.5 30 41.5H24C23.45 41.5 23 41.05 23 40.5V34.5C23 33.95 23.45 33.5 24 33.5ZM37 33.5C36.45 33.5 36 33.95 36 34.5V36.5H34C33.45 36.5 33 36.95 33 37.5C33 38.05 33.45 38.5 34 38.5H36V40.5C36 41.05 36.45 41.5 37 41.5C37.55 41.5 38 41.05 38 40.5V38.5H40C40.55 38.5 41 38.05 41 37.5C41 36.95 40.55 36.5 40 36.5H38V34.5C38 33.95 37.55 33.5 37 33.5Z" fill="white" style="fill:white;fill-opacity:1;"/>
</svg>
