<svg width="32" height="32" viewBox="0 0 32 32" fill="none" xmlns="http://www.w3.org/2000/svg">
<rect width="32" height="32" rx="8" fill="white" style="fill:white;fill-opacity:1;"/>
<path fill-rule="evenodd" clip-rule="evenodd" d="M24.24 8.57816C24.3472 8.68537 24.4911 8.9519 24.4281 9.5812C24.3661 10.2009 24.1126 11.0196 23.6385 11.9955C23.5812 12.1134 23.5223 12.2304 23.4618 12.3467V14.33C25.3285 11.424 25.9948 8.91871 24.9471 7.87106C23.8911 6.81506 21.354 7.50041 18.4185 9.40134L19.3972 9.96637C19.891 9.66356 20.3683 9.40045 20.8227 9.17966C21.7985 8.70557 22.6172 8.45207 23.237 8.39006C23.8663 8.3271 24.1328 8.47101 24.24 8.57816ZM23.4618 20.366V18.3827C25.3285 21.2886 25.9948 23.794 24.9471 24.8416C23.8907 25.898 21.3523 25.2118 18.4155 23.3094L19.3941 22.7444C19.8891 23.0481 20.3674 23.3118 20.8227 23.533C21.7985 24.0071 22.6172 24.2606 23.237 24.3226C23.8663 24.3856 24.1328 24.2417 24.24 24.1345C24.3472 24.0273 24.4911 23.7608 24.4281 23.1315C24.3661 22.5118 24.1126 21.693 23.6385 20.7172C23.5812 20.5993 23.5223 20.4823 23.4618 20.366ZM13.5295 22.7444L14.5081 23.3094C11.5713 25.2118 9.03291 25.898 7.97653 24.8416C6.92887 23.794 7.59516 21.2887 9.46181 18.3828V20.3661C9.40134 20.4823 9.34244 20.5994 9.28514 20.7172C8.81105 21.693 8.55755 22.5118 8.49553 23.1315C8.43258 23.7608 8.57648 24.0273 8.68364 24.1345C8.79084 24.2417 9.05737 24.3856 9.68667 24.3226C10.3064 24.2606 11.1251 24.0071 12.101 23.533C12.5563 23.3118 13.0346 23.0481 13.5295 22.7444ZM7.97653 7.87106C6.92887 8.91871 7.59516 11.4239 9.46181 14.3299V12.3465C9.40133 12.2303 9.34244 12.1133 9.28514 11.9955C8.81105 11.0196 8.55755 10.2009 8.49553 9.5812C8.43258 8.9519 8.57648 8.68537 8.68364 8.57816C8.79084 8.47101 9.05737 8.3271 9.68667 8.39006C10.3064 8.45207 11.1251 8.70552 12.101 9.17966C12.5553 9.4004 13.0326 9.66351 13.5264 9.96632L14.5051 9.40129C11.5696 7.50041 9.03258 6.81506 7.97653 7.87106ZM16.4618 9.42632L22.4618 12.8904V19.8186L16.4618 23.2827L10.4618 19.8186V12.8904L16.4618 9.42632ZM20.4618 15.1981V18.6639L17.4618 20.396V16.9302L20.4618 15.1981ZM15.4618 16.9302V20.396L12.4618 18.6639V15.1981L15.4618 16.9302ZM16.4618 15.1981L13.4632 13.4669L16.4618 11.7357L19.4603 13.4669L16.4618 15.1981Z" fill="#3B5446" style="fill:#3B5446;fill:color(display-p3 0.2314 0.3294 0.2745);fill-opacity:1;"/>
</svg>
