<svg width="64" height="65" viewBox="0 0 64 65" fill="none" xmlns="http://www.w3.org/2000/svg">
<rect y="0.5" width="64" height="64" rx="16" fill="#355146" style="fill:#355146;fill:color(display-p3 0.2078 0.3176 0.2745);fill-opacity:1;"/>
<path d="M41 26.8C41 26.01 40.53 25.29 39.81 24.97L32.81 21.86C32.29 21.63 31.7 21.63 31.19 21.86L24.19 24.97C23.47 25.29 23 26.01 23 26.8V31.5C23 37.05 26.84 42.24 32 43.5C34.3 42.94 36.33 41.6 37.88 39.79L34.76 36.67C33.7987 37.3054 32.6472 37.5888 31.5008 37.4721C30.3544 37.3555 29.2836 36.846 28.47 36.03C27.5334 35.092 27.0073 33.8206 27.0073 32.495C27.0073 31.1694 27.5334 29.898 28.47 28.96C29.408 28.0234 30.6794 27.4973 32.005 27.4973C33.3306 27.4973 34.602 28.0234 35.54 28.96C36.354 29.7748 36.8621 30.8454 36.9787 31.9912C37.0952 33.137 36.8132 34.2879 36.18 35.25L39.08 38.15C40.29 36.19 41 33.88 41 31.5V26.8Z" fill="white" style="fill:white;fill-opacity:1;"/>
<path d="M32 35.5C33.6569 35.5 35 34.1569 35 32.5C35 30.8431 33.6569 29.5 32 29.5C30.3431 29.5 29 30.8431 29 32.5C29 34.1569 30.3431 35.5 32 35.5Z" fill="white" style="fill:white;fill-opacity:1;"/>
</svg>
