<svg width="64" height="65" viewBox="0 0 64 65" fill="none" xmlns="http://www.w3.org/2000/svg">
<rect y="0.5" width="64" height="64" rx="16" fill="#355146" style="fill:#355146;fill:color(display-p3 0.2078 0.3176 0.2745);fill-opacity:1;"/>
<path d="M26 40.5C25.45 40.5 24.9793 40.3043 24.588 39.913C24.1967 39.5217 24.0007 39.0507 24 38.5C23.9993 37.9493 24.1953 37.4787 24.588 37.088C24.9807 36.6973 25.4513 36.5013 26 36.5H26.25C26.3333 36.5 26.4167 36.5167 26.5 36.55L30.05 33C29.9667 32.65 29.971 32.3043 30.063 31.963C30.155 31.6217 30.3257 31.3257 30.575 31.075C30.8243 30.8243 31.1203 30.6537 31.463 30.563C31.8057 30.4723 32.1513 30.468 32.5 30.55L36.05 27C36.0167 26.9167 36 26.8333 36 26.75V26.5C36 25.95 36.196 25.4793 36.588 25.088C36.98 24.6967 37.4507 24.5007 38 24.5C38.5493 24.4993 39.0203 24.6953 39.413 25.088C39.8057 25.4807 40.0013 25.9513 40 26.5C39.9987 27.0487 39.803 27.5197 39.413 27.913C39.023 28.3063 38.552 28.502 38 28.5L37.5 28.45L33.95 31.975C34.0333 32.325 34.0293 32.675 33.938 33.025C33.8467 33.375 33.6757 33.675 33.425 33.925C33.1583 34.1917 32.854 34.371 32.512 34.463C32.17 34.555 31.8243 34.5507 31.475 34.45L28.4 37.5H30.3C30.4833 37.2 30.725 36.9583 31.025 36.775C31.325 36.5917 31.65 36.5 32 36.5C32.3667 36.5 32.7043 36.5873 33.013 36.762C33.3217 36.9367 33.5673 37.1827 33.75 37.5H36.25C36.4333 37.1833 36.6793 36.9377 36.988 36.763C37.2967 36.5883 37.634 36.5007 38 36.5C38.55 36.5 39.021 36.696 39.413 37.088C39.805 37.48 40.0007 37.9507 40 38.5C39.9993 39.0493 39.8037 39.5203 39.413 39.913C39.0223 40.3057 38.5513 40.5013 38 40.5C37.6333 40.5 37.296 40.4083 36.988 40.225C36.68 40.0417 36.434 39.8 36.25 39.5H33.75C33.5667 39.8167 33.321 40.0627 33.013 40.238C32.705 40.4133 32.3673 40.5007 32 40.5C31.65 40.5 31.325 40.4083 31.025 40.225C30.725 40.0417 30.4833 39.8 30.3 39.5H27.7C27.5167 39.8 27.275 40.0417 26.975 40.225C26.675 40.4083 26.35 40.5 26 40.5ZM26 34.5C25.45 34.5 24.9793 34.3043 24.588 33.913C24.1967 33.5217 24.0007 33.0507 24 32.5C23.9993 31.9493 24.1953 31.4787 24.588 31.088C24.9807 30.6973 25.4513 30.5013 26 30.5C26.5487 30.4987 27.0197 30.6947 27.413 31.088C27.8063 31.4813 28.002 31.952 28 32.5C27.998 33.048 27.8023 33.519 27.413 33.913C27.0237 34.307 26.5527 34.5027 26 34.5ZM26 28.5C25.45 28.5 24.9793 28.3043 24.588 27.913C24.1967 27.5217 24.0007 27.0507 24 26.5C23.9993 25.9493 24.1953 25.4787 24.588 25.088C24.9807 24.6973 25.4513 24.5013 26 24.5C26.5487 24.4987 27.0197 24.6947 27.413 25.088C27.8063 25.4813 28.002 25.952 28 26.5C27.998 27.048 27.8023 27.519 27.413 27.913C27.0237 28.307 26.5527 28.5027 26 28.5ZM32 28.5C31.45 28.5 30.9793 28.3043 30.588 27.913C30.1967 27.5217 30.0007 27.0507 30 26.5C29.9993 25.9493 30.1953 25.4787 30.588 25.088C30.9807 24.6973 31.4513 24.5013 32 24.5C32.5487 24.4987 33.0197 24.6947 33.413 25.088C33.8063 25.4813 34.002 25.952 34 26.5C33.998 27.048 33.8023 27.519 33.413 27.913C33.0237 28.307 32.5527 28.5027 32 28.5ZM38 34.5C37.45 34.5 36.9793 34.3043 36.588 33.913C36.1967 33.5217 36.0007 33.0507 36 32.5C35.9993 31.9493 36.1953 31.4787 36.588 31.088C36.9807 30.6973 37.4513 30.5013 38 30.5C38.5487 30.4987 39.0197 30.6947 39.413 31.088C39.8063 31.4813 40.002 31.952 40 32.5C39.998 33.048 39.8023 33.519 39.413 33.913C39.0237 34.307 38.5527 34.5027 38 34.5Z" fill="white" style="fill:white;fill-opacity:1;"/>
</svg>
