<svg width="64" height="64" viewBox="0 0 64 64" fill="none" xmlns="http://www.w3.org/2000/svg">
<rect width="64" height="64" rx="16" fill="#F5F8F6" style="fill:#F5F8F6;fill:color(display-p3 0.9608 0.9725 0.9647);fill-opacity:1;"/>
<path d="M36 31C37.66 31 38.99 29.66 38.99 28C38.99 26.34 37.66 25 36 25C34.34 25 33 26.34 33 28C33 29.66 34.34 31 36 31ZM28 31C29.66 31 30.99 29.66 30.99 28C30.99 26.34 29.66 25 28 25C26.34 25 25 26.34 25 28C25 29.66 26.34 31 28 31ZM28 33C25.67 33 21 34.17 21 36.5V38C21 38.55 21.45 39 22 39H34C34.55 39 35 38.55 35 38V36.5C35 34.17 30.33 33 28 33ZM36 33C35.71 33 35.38 33.02 35.03 33.05C35.05 33.06 35.06 33.08 35.07 33.09C36.21 33.92 37 35.03 37 36.5V38C37 38.35 36.93 38.69 36.82 39H42C42.55 39 43 38.55 43 38V36.5C43 34.17 38.33 33 36 33Z" fill="#3B5446" style="fill:#3B5446;fill:color(display-p3 0.2314 0.3294 0.2745);fill-opacity:1;"/>
</svg>
