<svg width="32" height="32" viewBox="0 0 32 32" fill="none" xmlns="http://www.w3.org/2000/svg">
<rect width="32" height="32" rx="8" fill="white" style="fill:white;fill-opacity:1;"/>
<g clip-path="url(#clip0_7358_13549)">
<path fill-rule="evenodd" clip-rule="evenodd" d="M8.24714 8.24714C8.28037 8.214 8.31981 8.18773 8.36319 8.16983C8.40658 8.15194 8.45307 8.14277 8.5 8.14286H10.6429C10.927 8.14286 11.1995 8.02997 11.4005 7.82904C11.6014 7.62811 11.7143 7.35559 11.7143 7.07143C11.7143 6.78727 11.6014 6.51475 11.4005 6.31381C11.1995 6.11288 10.927 6 10.6429 6H8.5C7.83696 6 7.20107 6.26339 6.73223 6.73223C6.26339 7.20107 6 7.83696 6 8.5V10.6429C6 10.927 6.11288 11.1995 6.31381 11.4005C6.51475 11.6014 6.78727 11.7143 7.07143 11.7143C7.35559 11.7143 7.62811 11.6014 7.82904 11.4005C8.02997 11.1995 8.14286 10.927 8.14286 10.6429V8.5C8.14277 8.45307 8.15194 8.40658 8.16983 8.36319C8.18773 8.31981 8.214 8.28037 8.24714 8.24714ZM26 21.3571C26 21.073 25.8871 20.8005 25.6862 20.5995C25.4853 20.3986 25.2127 20.2857 24.9286 20.2857C24.6444 20.2857 24.3719 20.3986 24.171 20.5995C23.97 20.8005 23.8571 21.073 23.8571 21.3571V23.5C23.8571 23.5947 23.8195 23.6856 23.7525 23.7525C23.6856 23.8195 23.5947 23.8571 23.5 23.8571H21.3571C21.073 23.8571 20.8005 23.97 20.5995 24.171C20.3986 24.3719 20.2857 24.6444 20.2857 24.9286C20.2857 25.2127 20.3986 25.4853 20.5995 25.6862C20.8005 25.8871 21.073 26 21.3571 26H23.5C24.163 26 24.7989 25.7366 25.2678 25.2678C25.7366 24.7989 26 24.163 26 23.5V21.3571ZM7.07143 20.2857C7.35559 20.2857 7.62811 20.3986 7.82904 20.5995C8.02997 20.8005 8.14286 21.073 8.14286 21.3571V23.5C8.14286 23.5947 8.18048 23.6856 8.24746 23.7525C8.31444 23.8195 8.40528 23.8571 8.5 23.8571H10.6429C10.927 23.8571 11.1995 23.97 11.4005 24.171C11.6014 24.3719 11.7143 24.6444 11.7143 24.9286C11.7143 25.2127 11.6014 25.4853 11.4005 25.6862C11.1995 25.8871 10.927 26 10.6429 26H8.5C7.83696 26 7.20107 25.7366 6.73223 25.2678C6.26339 24.7989 6 24.163 6 23.5L6 21.3571C6 21.073 6.11288 20.8005 6.31381 20.5995C6.51475 20.3986 6.78727 20.2857 7.07143 20.2857ZM21.3571 6C21.073 6 20.8005 6.11288 20.5995 6.31381C20.3986 6.51475 20.2857 6.78727 20.2857 7.07143C20.2857 7.35559 20.3986 7.62811 20.5995 7.82904C20.8005 8.02997 21.073 8.14286 21.3571 8.14286H23.5C23.5947 8.14286 23.6856 8.18048 23.7525 8.24746C23.8195 8.31444 23.8571 8.40528 23.8571 8.5V10.6429C23.8571 10.927 23.97 11.1995 24.171 11.4005C24.3719 11.6014 24.6444 11.7143 24.9286 11.7143C25.2127 11.7143 25.4853 11.6014 25.6862 11.4005C25.8871 11.1995 26 10.927 26 10.6429V8.5C26 7.83696 25.7366 7.20107 25.2678 6.73223C24.7989 6.26339 24.163 6 23.5 6H21.3571ZM16 17.1086C14.7112 17.1079 13.4531 17.5016 12.3946 18.2368C11.3361 18.972 10.5279 20.0135 10.0786 21.2214C9.91857 21.6486 10.26 22.0714 10.7157 22.0714H21.2829C21.7386 22.0714 22.0786 21.6486 21.9186 21.2214C21.4694 20.014 20.6617 18.9728 19.6037 18.2376C18.5458 17.5024 17.2883 17.1085 16 17.1086ZM19.1543 12.3729C19.1543 13.2104 18.8216 14.0136 18.2294 14.6058C17.6372 15.198 16.8339 15.5307 15.9964 15.5307C15.1589 15.5307 14.3557 15.198 13.7635 14.6058C13.1713 14.0136 12.8386 13.2104 12.8386 12.3729C12.8386 11.5353 13.1713 10.7321 13.7635 10.1399C14.3557 9.5477 15.1589 9.215 15.9964 9.215C16.8339 9.215 17.6372 9.5477 18.2294 10.1399C18.8216 10.7321 19.1543 11.5353 19.1543 12.3729Z" fill="#3B5446" style="fill:#3B5446;fill:color(display-p3 0.2314 0.3294 0.2745);fill-opacity:1;"/>
</g>
<defs>
<clipPath id="clip0_7358_13549">
<rect width="20" height="20" fill="white" style="fill:white;fill-opacity:1;" transform="translate(6 6)"/>
</clipPath>
</defs>
</svg>
