<svg width="64" height="64" viewBox="0 0 64 64" fill="none" xmlns="http://www.w3.org/2000/svg">
<rect width="64" height="64" rx="16" fill="#F5F8F6" style="fill:#F5F8F6;fill:color(display-p3 0.9608 0.9725 0.9647);fill-opacity:1;"/>
<g clip-path="url(#clip0_7358_13598)">
<path d="M41.0039 26.3C41.0039 25.51 40.5339 24.79 39.8139 24.47L32.8139 21.36C32.2939 21.13 31.7039 21.13 31.1939 21.36L24.1939 24.47C23.4739 24.79 23.0039 25.51 23.0039 26.3V31C23.0039 36.55 26.8439 41.74 32.0039 43C34.3039 42.44 36.3339 41.1 37.8839 39.29L34.7639 36.17C33.8026 36.8054 32.6511 37.0888 31.5047 36.9721C30.3583 36.8555 29.2875 36.346 28.4739 35.53C27.5373 34.592 27.0112 33.3206 27.0112 31.995C27.0112 30.6694 27.5373 29.398 28.4739 28.46C29.4119 27.5234 30.6833 26.9973 32.0089 26.9973C33.3345 26.9973 34.6059 27.5234 35.5439 28.46C36.3579 29.2748 36.866 30.3454 36.9826 31.4912C37.0991 32.637 36.8171 33.7879 36.1839 34.75L39.0839 37.65C40.2939 35.69 41.0039 33.38 41.0039 31V26.3Z" fill="#3B5446" style="fill:#3B5446;fill:color(display-p3 0.2314 0.3294 0.2745);fill-opacity:1;"/>
<path d="M32.0039 35C33.6608 35 35.0039 33.6569 35.0039 32C35.0039 30.3431 33.6608 29 32.0039 29C30.3471 29 29.0039 30.3431 29.0039 32C29.0039 33.6569 30.3471 35 32.0039 35Z" fill="#3B5446" style="fill:#3B5446;fill:color(display-p3 0.2314 0.3294 0.2745);fill-opacity:1;"/>
</g>
<defs>
<clipPath id="clip0_7358_13598">
<rect width="24" height="24" fill="white" style="fill:white;fill-opacity:1;" transform="translate(20 20)"/>
</clipPath>
</defs>
</svg>
