<svg width="64" height="65" viewBox="0 0 64 65" fill="none" xmlns="http://www.w3.org/2000/svg">
<rect y="0.5" width="64" height="64" rx="16" fill="#355146" style="fill:#355146;fill:color(display-p3 0.2078 0.3176 0.2745);fill-opacity:1;"/>
<path d="M37 42.5V40.5H40V37.5H42V41C42 41.39 41.84 41.74 41.54 42.04C41.24 42.34 40.89 42.5 40.5 42.5H37ZM27 42.5H23.5C23.11 42.5 22.76 42.34 22.46 42.04C22.16 41.74 22 41.39 22 41V37.5H24V40.5H27V42.5ZM37 22.5H40.5C40.89 22.5 41.24 22.66 41.54 22.96C41.84 23.26 42 23.61 42 24V27.5H40V24.5H37V22.5ZM27 22.5V24.5H24V27.5H22V24C22 23.61 22.16 23.26 22.46 22.96C22.76 22.66 23.11 22.5 23.5 22.5H27ZM30.5 26.5C33 26.5 35 28.5 35 31C35 31.88 34.75 32.7 34.31 33.4L37.57 36.66L36.16 38.07L32.9 34.81C32.2 35.25 31.38 35.5 30.5 35.5C28 35.5 26 33.5 26 31C26 28.5 28 26.5 30.5 26.5ZM30.5 28.5C29.837 28.5 29.2011 28.7634 28.7322 29.2322C28.2634 29.7011 28 30.337 28 31C28 31.663 28.2634 32.2989 28.7322 32.7678C29.2011 33.2366 29.837 33.5 30.5 33.5C31.163 33.5 31.7989 33.2366 32.2678 32.7678C32.7366 32.2989 33 31.663 33 31C33 30.337 32.7366 29.7011 32.2678 29.2322C31.7989 28.7634 31.163 28.5 30.5 28.5Z" fill="white" style="fill:white;fill-opacity:1;"/>
</svg>
