<svg width="65" height="64" viewBox="0 0 65 64" fill="none" xmlns="http://www.w3.org/2000/svg">
<rect x="0.667969" width="64" height="64" rx="16" fill="white" style="fill:white;fill-opacity:1;"/>
<g clip-path="url(#clip0_7368_14345)">
<path d="M33.868 23.6C36.52 23.6 38.668 25.748 38.668 28.4C38.668 30.2 37.708 31.724 36.268 32.552V31.088C37 30.428 37.468 29.468 37.468 28.4C37.468 26.408 35.86 24.8 33.868 24.8C31.876 24.8 30.268 26.408 30.268 28.4C30.268 29.468 30.736 30.428 31.468 31.088V32.552C30.028 31.724 29.068 30.2 29.068 28.4C29.068 25.748 31.216 23.6 33.868 23.6ZM42.268 42.2C42.232 43.184 41.452 43.964 40.468 44H33.868C33.412 44 32.98 43.82 32.668 43.484L27.868 38.444L28.756 37.52C28.984 37.268 29.308 37.136 29.668 37.136H29.908L32.668 39.2V28.4C32.668 27.74 33.208 27.2 33.868 27.2C34.528 27.2 35.068 27.74 35.068 28.4V33.764L36.52 33.92L41.248 36.548C41.884 36.836 42.268 37.472 42.268 38.168V42.2ZM42.268 20H23.068C21.748 20 20.668 21.08 20.668 22.4V32C20.668 32.6365 20.9208 33.247 21.3709 33.6971C21.821 34.1471 22.4314 34.4 23.068 34.4H27.868V32H23.068V22.4H42.268V32H39.868V34.4H42.268V34.352L42.316 34.4C43.624 34.4 44.668 33.308 44.668 32V22.4C44.668 21.7635 44.4151 21.153 43.965 20.7029C43.5149 20.2529 42.9045 20 42.268 20Z" fill="#3E6353" style="fill:#3E6353;fill:color(display-p3 0.2431 0.3882 0.3255);fill-opacity:1;"/>
</g>
<defs>
<clipPath id="clip0_7368_14345">
<rect width="24" height="24" fill="white" style="fill:white;fill-opacity:1;" transform="translate(20.668 20)"/>
</clipPath>
</defs>
</svg>
