<svg width="65" height="64" viewBox="0 0 65 64" fill="none" xmlns="http://www.w3.org/2000/svg">
<rect x="0.335938" width="64" height="64" rx="16" fill="white" style="fill:white;fill-opacity:1;"/>
<path d="M37.3359 36.2714V30.4994C37.3357 30.769 37.4193 31.0321 37.5752 31.2521C37.731 31.4721 37.9515 31.6382 38.2059 31.7274L38.2169 31.7314L38.9899 31.9824C39.0742 32.0112 39.1506 32.0591 39.2134 32.1222C39.2762 32.1853 39.3236 32.262 39.3519 32.3464V32.3484L39.6039 33.1214L39.6079 33.1324C39.6665 33.2996 39.7586 33.4531 39.8786 33.5834C39.9986 33.7137 40.144 33.8182 40.3058 33.8903C40.4676 33.9624 40.6425 34.0007 40.8196 34.0027C40.9968 34.0048 41.1725 33.9707 41.3359 33.9024V38.2474C41.3359 38.9768 41.0462 39.6762 40.5305 40.192C40.0148 40.7077 39.3153 40.9974 38.5859 40.9974H26.0859C25.3566 40.9974 24.6571 40.7077 24.1414 40.192C23.6257 39.6762 23.3359 38.9768 23.3359 38.2474V25.7474C23.3359 25.0181 23.6257 24.3186 24.1414 23.8029C24.6571 23.2871 25.3566 22.9974 26.0859 22.9974H32.5029L32.3789 23.0374L32.3669 23.0424C32.0657 23.1487 31.8048 23.3458 31.6203 23.6066C31.4358 23.8674 31.3367 24.179 31.3367 24.4984C31.3367 24.8179 31.4358 25.1294 31.6203 25.3902C31.8048 25.651 32.0657 25.8481 32.3669 25.9544L32.3779 25.9584L33.7639 26.4084C34.0344 26.4994 34.28 26.652 34.4813 26.8541C34.6826 27.0563 34.8342 27.3026 34.9239 27.5734L34.9249 27.5744L35.3749 28.9594L35.3799 28.9714C35.4699 29.2294 35.6289 29.4574 35.8359 29.6344V36.2714C35.8359 36.6744 36.1719 37.0014 36.5859 37.0014C36.6831 37.0027 36.7796 36.9849 36.8699 36.9489C36.9602 36.913 37.0425 36.8595 37.1121 36.7918C37.1818 36.724 37.2374 36.6431 37.2758 36.5538C37.3142 36.4646 37.3346 36.3686 37.3359 36.2714ZM27.3359 29.7474V36.2544C27.3359 36.6664 27.6719 37.0004 28.0859 37.0004C28.4999 37.0004 28.8359 36.6664 28.8359 36.2544V29.7474C28.8349 29.5492 28.7554 29.3594 28.6149 29.2197C28.4743 29.0799 28.2842 29.0014 28.0859 29.0014C27.8875 29.0014 27.6972 29.08 27.5567 29.22C27.4161 29.36 27.3367 29.549 27.3359 29.7474ZM31.5859 32.7324V36.2794C31.5912 36.4739 31.6728 36.6585 31.8132 36.7933C31.9536 36.9281 32.1414 37.0021 32.3359 36.9994C32.7399 36.9944 33.0899 36.6664 33.0859 36.2654V32.7174C33.0804 32.5231 32.9987 32.3387 32.8583 32.2042C32.718 32.0696 32.5303 31.9957 32.3359 31.9984C31.9319 32.0024 31.5819 32.3304 31.5859 32.7324ZM35.4239 26.4144C35.0794 25.9697 34.6106 25.6373 34.0769 25.4594L32.6989 25.0114C32.5931 24.9737 32.5016 24.9043 32.4369 24.8125C32.3721 24.7208 32.3374 24.6112 32.3374 24.4989C32.3374 24.3866 32.3721 24.2771 32.4369 24.1853C32.5016 24.0935 32.5931 24.0241 32.6989 23.9864L34.0769 23.5384C34.4848 23.3975 34.8552 23.1655 35.16 22.86C35.4648 22.5545 35.6959 22.1836 35.8359 21.7754L35.8469 21.7414L36.2949 20.3644C36.3322 20.2579 36.4016 20.1656 36.4936 20.1004C36.5856 20.0351 36.6956 20 36.8084 20C36.9212 20 37.0313 20.0351 37.1233 20.1004C37.2153 20.1656 37.2847 20.2579 37.3219 20.3644L37.7689 21.7414C37.9087 22.1599 38.144 22.5402 38.4563 22.8519C38.7685 23.1637 39.1492 23.3984 39.5679 23.5374L40.9449 23.9854L40.9729 23.9924C41.0787 24.0301 41.1703 24.0995 41.235 24.1913C41.2998 24.2831 41.3345 24.3926 41.3345 24.5049C41.3345 24.6172 41.2998 24.7268 41.235 24.8185C41.1703 24.9103 41.0787 24.9797 40.9729 25.0174L39.5949 25.4654C39.1763 25.6046 38.7959 25.8393 38.4838 26.1511C38.1717 26.4628 37.9366 26.843 37.7969 27.2614L37.3489 28.6384L37.3359 28.6724C37.2927 28.773 37.2202 28.8583 37.1277 28.917C37.0353 28.9757 36.9273 29.0051 36.8178 29.0015C36.7084 28.9978 36.6026 28.9612 36.5143 28.8964C36.426 28.8316 36.3593 28.7417 36.3229 28.6384L35.8749 27.2614C35.7749 26.9549 35.6226 26.6681 35.4249 26.4134M43.1199 30.2144L42.3539 29.9664C42.1215 29.8887 41.9103 29.758 41.7371 29.5846C41.5639 29.4112 41.4334 29.1999 41.3559 28.9674L41.1059 28.2034C41.0852 28.1443 41.0467 28.0932 40.9956 28.057C40.9446 28.0208 40.8835 28.0013 40.8209 28.0013C40.7583 28.0013 40.6973 28.0208 40.6462 28.057C40.5952 28.0932 40.5566 28.1443 40.5359 28.2034L40.2879 28.9674C40.2119 29.1984 40.0835 29.4088 39.9128 29.582C39.7422 29.7553 39.5338 29.8869 39.3039 29.9664L38.5389 30.2144C38.4799 30.2351 38.4287 30.2737 38.3925 30.3247C38.3563 30.3758 38.3368 30.4368 38.3368 30.4994C38.3368 30.562 38.3563 30.623 38.3925 30.6741C38.4287 30.7252 38.4799 30.7637 38.5389 30.7844L39.3039 31.0334C39.5371 31.1112 39.7488 31.2422 39.9224 31.4161C40.096 31.5901 40.2267 31.8021 40.3039 32.0354L40.5519 32.7994C40.5726 32.8585 40.6112 32.9097 40.6622 32.9459C40.7133 32.9821 40.7743 33.0015 40.8369 33.0015C40.8995 33.0015 40.9606 32.9821 41.0116 32.9459C41.0627 32.9097 41.1012 32.8585 41.1219 32.7994L41.3709 32.0354C41.4485 31.8028 41.5792 31.5914 41.7526 31.418C41.9259 31.2446 42.1373 31.114 42.3699 31.0364L43.1349 30.7884C43.194 30.7677 43.2452 30.7292 43.2814 30.6781C43.3176 30.627 43.337 30.566 43.337 30.5034C43.337 30.4408 43.3176 30.3798 43.2814 30.3287C43.2452 30.2777 43.194 30.2391 43.1349 30.2184L43.1199 30.2144Z" fill="#3E6353" style="fill:#3E6353;fill:color(display-p3 0.2431 0.3882 0.3255);fill-opacity:1;"/>
</svg>
