<svg width="64" height="64" viewBox="0 0 64 64" fill="none" xmlns="http://www.w3.org/2000/svg">
<rect width="64" height="64" rx="16" fill="white" style="fill:white;fill-opacity:1;"/>
<g clip-path="url(#clip0_7368_14359)">
<path fill-rule="evenodd" clip-rule="evenodd" d="M32.0006 24.7148C32.3416 24.7148 32.6686 24.8503 32.9097 25.0914C33.1508 25.3325 33.2863 25.6596 33.2863 26.0006V32.1291L36.948 34.3268C37.0945 34.4129 37.2226 34.5271 37.3247 34.6628C37.4268 34.7986 37.501 34.9533 37.543 35.118C37.585 35.2826 37.5939 35.4539 37.5693 35.6221C37.5447 35.7902 37.487 35.9517 37.3995 36.0974C37.3121 36.2431 37.1966 36.37 37.0598 36.4708C36.923 36.5716 36.7676 36.6442 36.6025 36.6846C36.4375 36.725 36.2661 36.7322 36.0982 36.7059C35.9304 36.6796 35.7694 36.6203 35.6246 36.5314L31.3388 33.96C31.1485 33.8457 30.991 33.6842 30.8817 33.491C30.7723 33.2979 30.7149 33.0797 30.7148 32.8577V26.0006C30.7148 25.6596 30.8503 25.3325 31.0914 25.0914C31.3325 24.8503 31.6596 24.7148 32.0006 24.7148Z" fill="#3E6353" style="fill:#3E6353;fill:color(display-p3 0.2431 0.3882 0.3255);fill-opacity:1;"/>
<path fill-rule="evenodd" clip-rule="evenodd" d="M22.5729 32.0003C22.5726 30.0405 23.183 28.1293 24.3192 26.5324C25.4554 24.9356 27.061 23.7325 28.9126 23.0904C30.7643 22.4484 32.77 22.3993 34.6509 22.95C36.5317 23.5007 38.1942 24.6238 39.4072 26.1632L37.7512 27.8174C37.6311 27.9372 37.5493 28.0899 37.516 28.2562C37.4828 28.4225 37.4996 28.595 37.5644 28.7517C37.6292 28.9085 37.739 29.0425 37.88 29.1368C38.021 29.2311 38.1867 29.2814 38.3563 29.2814H43.1443C43.3717 29.2814 43.5897 29.1911 43.7504 29.0304C43.9112 28.8696 44.0015 28.6516 44.0015 28.4243V23.6346C44.0018 23.4648 43.9517 23.2988 43.8575 23.1576C43.7634 23.0163 43.6294 22.9062 43.4726 22.8412C43.3158 22.7762 43.1432 22.7593 42.9767 22.7925C42.8102 22.8257 42.6574 22.9075 42.5375 23.0277L41.2346 24.3323C39.5068 22.2523 37.1271 20.8168 34.4813 20.2585C31.8355 19.7003 29.0787 20.052 26.6578 21.2567C24.237 22.4613 22.2939 24.4483 21.1437 26.8956C19.9935 29.3428 19.7035 32.1067 20.3208 34.7394C20.9381 37.372 22.4264 39.719 24.5446 41.3999C26.6627 43.0808 29.2865 43.997 31.9905 44C34.6946 44.003 37.3204 43.0927 39.4423 41.4165C41.5642 39.7404 43.0578 37.3967 43.6809 34.7654C43.7571 34.4343 43.6991 34.0864 43.5195 33.7979C43.34 33.5094 43.0535 33.3037 42.7228 33.2258C42.392 33.1479 42.0439 33.2041 41.7544 33.3821C41.465 33.5601 41.2578 33.8454 41.1781 34.1757C40.6469 36.4267 39.307 38.4039 37.4132 39.7313C35.5193 41.0588 33.2036 41.6438 30.9065 41.3752C28.6094 41.1066 26.4911 40.0031 24.9546 38.2746C23.4181 36.546 22.5704 34.313 22.5729 32.0003Z" fill="#3E6353" style="fill:#3E6353;fill:color(display-p3 0.2431 0.3882 0.3255);fill-opacity:1;"/>
</g>
<defs>
<clipPath id="clip0_7368_14359">
<rect width="24" height="24" fill="white" style="fill:white;fill-opacity:1;" transform="translate(20 20)"/>
</clipPath>
</defs>
</svg>
