<svg width="64" height="64" viewBox="0 0 64 64" fill="none" xmlns="http://www.w3.org/2000/svg">
<rect width="64" height="64" rx="8" fill="white" style="fill:white;fill-opacity:1;"/>
<path d="M36.577 28.5275L26.658 25.2205C26.358 25.1205 26.208 25.0705 26.104 25.1455C26 25.2205 26 25.3785 26 25.6955V33.0015L36.577 29.4755C37.165 29.2795 37.459 29.1815 37.459 29.0015C37.459 28.8215 37.165 28.7235 36.577 28.5275Z" fill="#3B5446" style="fill:#3B5446;fill:color(display-p3 0.2314 0.3294 0.2745);fill-opacity:1;"/>
<path d="M26 33.0015V25.6955C26 25.3785 26 25.2205 26.104 25.1455C26.208 25.0705 26.358 25.1205 26.658 25.2205L36.577 28.5275C37.165 28.7235 37.459 28.8215 37.459 29.0015C37.459 29.1815 37.165 29.2795 36.577 29.4755L26 33.0015ZM26 33.0015V39.0015" stroke="#3B5446" style="stroke:#3B5446;stroke:color(display-p3 0.2314 0.3294 0.2745);stroke-opacity:1;" stroke-width="2" stroke-linecap="round"/>
</svg>
