<svg width="64" height="64" viewBox="0 0 64 64" fill="none" xmlns="http://www.w3.org/2000/svg">
<rect width="64" height="64" rx="8" fill="white" style="fill:white;fill-opacity:1;"/>
<g clip-path="url(#clip0_7419_9700)">
<path d="M40 33.7134V31.4274C39.887 30.2203 39.0264 30.2308 37.7143 30.2844V34.8564C39.8209 35.0754 39.9279 34.2469 40 33.7134ZM26.2857 34.8564V30.2844C24.9735 30.2308 24.113 30.2203 24 31.4274V33.7135C24.0721 34.2469 24.1791 35.0754 26.2857 34.8565M24.5714 37.714H39.4286V40H24.5714V37.714ZM34.26 26.2838C33.8998 23.3258 30.1701 23.1529 29.74 26.2838H34.26ZM24.6713 25.0269C24.9792 24.4459 25.8047 24.412 26.1537 24.9661C26.4546 25.4436 26.2085 26.0534 25.7141 26.2295L25.7143 29.7128H25.1428V26.2311C24.6737 26.0682 24.4163 25.5082 24.6713 25.0269ZM34.8572 31.1416C34.8572 31.7991 34.1406 32.2122 33.5705 31.8835C33.0003 31.5547 33.0003 30.7285 33.5705 30.3997C34.1406 30.071 34.8572 30.4841 34.8572 31.1416ZM29.5705 31.8835C30.1406 32.2122 30.8572 31.7991 30.8572 31.1416C30.8572 30.4841 30.1406 30.071 29.5705 30.3997C29.0003 30.7285 29.0003 31.5547 29.5705 31.8835ZM37.1428 29.1413V37.1425H26.8572V29.1413C26.8572 27.8789 27.8806 26.8553 29.1429 26.8553H34.8572C36.1195 26.8553 37.1429 27.8789 37.1429 29.1413M29.2841 32.3782C30.2343 32.926 31.4286 32.2375 31.4286 31.1417C31.4286 30.0458 30.2343 29.3573 29.2841 29.9052C28.3338 30.4531 28.3339 31.8302 29.2841 32.3782ZM34.8572 34.285H29.1428V35.428H34.8572L34.8572 34.285ZM35.4286 31.1417C35.4286 30.0459 34.2343 29.3573 33.2841 29.9052C32.3338 30.4531 32.3339 31.8302 33.2841 32.3782C34.2343 32.926 35.4286 32.2375 35.4286 31.1417Z" fill="#3B5446" style="fill:#3B5446;fill:color(display-p3 0.2314 0.3294 0.2745);fill-opacity:1;"/>
</g>
<defs>
<clipPath id="clip0_7419_9700">
<rect width="16" height="16" fill="white" style="fill:white;fill-opacity:1;" transform="translate(24 24)"/>
</clipPath>
</defs>
</svg>
