<svg width="64" height="64" viewBox="0 0 64 64" fill="none" xmlns="http://www.w3.org/2000/svg">
<rect width="64" height="64" rx="8" fill="white" style="fill:white;fill-opacity:1;"/>
<path d="M21.4919 24.6211C20.1769 24.6241 19.5079 26.2041 20.4219 27.1501L23.8919 30.6181C26.2985 32.9988 28.6992 35.3854 31.0939 37.7781L32.1639 38.8931C33.1039 39.8461 34.7259 39.1591 34.6959 37.8211V34.3961C34.6907 33.9996 34.5307 33.6207 34.2501 33.3405C33.9695 33.0602 33.5904 32.9008 33.1939 32.8961H29.0379C28.6939 32.8981 28.353 32.8318 28.0348 32.7011C27.7166 32.5704 27.4276 32.3779 27.1843 32.1346C26.9411 31.8914 26.7486 31.6023 26.6179 31.2842C26.4871 30.966 26.4209 30.6251 26.4229 30.2811V26.1211C26.4177 25.7246 26.2577 25.3457 25.9771 25.0655C25.6964 24.7852 25.3174 24.6258 24.9209 24.6211H21.4919ZM30.7519 24.6211C29.4369 24.6231 28.7669 26.2031 29.6799 27.1501C33.6112 31.0781 37.5409 35.0074 41.4689 38.9381C42.4089 39.8901 44.0279 39.2051 43.9989 37.8681V34.4381C43.9937 34.0417 43.8338 33.6631 43.5534 33.3828C43.273 33.1026 42.8942 32.943 42.4979 32.9381C41.0979 32.9521 39.6979 32.9201 38.2969 32.8961C37.9531 32.8978 37.6123 32.8314 37.2944 32.7005C36.9765 32.5697 36.6876 32.3771 36.4446 32.1339C36.2016 31.8907 36.0093 31.6018 35.8787 31.2837C35.7481 30.9657 35.6819 30.6249 35.6839 30.2811V26.1211C35.6787 25.7246 35.5187 25.3457 35.2381 25.0655C34.9575 24.7852 34.5784 24.6258 34.1819 24.6211H30.7519ZM39.0249 24.6211C37.6739 24.6141 37.0129 26.2661 37.9959 27.1931L41.4269 30.6231C42.3749 31.5361 43.9549 30.8661 43.9569 29.5501V26.1211C43.9517 25.7249 43.792 25.3464 43.5118 25.0662C43.2316 24.786 42.8531 24.6263 42.4569 24.6211H39.0249Z" fill="#3B5446" style="fill:#3B5446;fill:color(display-p3 0.2314 0.3294 0.2745);fill-opacity:1;"/>
</svg>
