<svg width="64" height="64" viewBox="0 0 64 64" fill="none" xmlns="http://www.w3.org/2000/svg">
<rect width="64" height="64" rx="8" fill="white" style="fill:white;fill-opacity:1;"/>
<path d="M30 31.2969V40.0009C30 40.5529 30 41.0009 31 41.0009H33C34 41.0009 34 40.5529 34 40.0009V33.2389C32.4633 33.1422 31.0264 32.4446 30 31.2969Z" fill="#3B5446" style="fill:#3B5446;fill:color(display-p3 0.2314 0.3294 0.2745);fill-opacity:1;"/>
<path fill-rule="evenodd" clip-rule="evenodd" d="M30.3985 29.1994C30.6578 29.763 31.0338 30.2651 31.5018 30.6724C31.9697 31.0797 32.5189 31.3829 33.1129 31.5618C33.7069 31.7408 34.3321 31.7915 34.9472 31.7106C35.5622 31.6297 36.1531 31.419 36.6805 31.0924L39.2935 33.7054L40.7075 32.2914L38.0945 29.6784C38.4928 29.0353 38.7175 28.3 38.7467 27.5442C38.776 26.7884 38.6088 26.038 38.2615 25.366C37.9142 24.6941 37.3986 24.1237 36.765 23.7105C36.1315 23.2973 35.4017 23.0554 34.6468 23.0085C33.8919 22.9615 33.1377 23.111 32.4578 23.4425C31.7779 23.7739 31.1956 24.276 30.7676 24.8996C30.3397 25.5233 30.0807 26.2472 30.016 27.0008C29.9513 27.7544 30.0831 28.5119 30.3985 29.1994ZM34.3755 29.7484C34.2335 29.7484 34.0945 29.7364 33.9585 29.7124C33.4546 29.6226 32.9933 29.3722 32.6435 28.9984C32.2698 28.6 32.0448 28.085 32.0065 27.5402C31.9681 26.9953 32.1187 26.4539 32.433 26.0071C32.7472 25.5603 33.2058 25.2355 33.7316 25.0874C34.2574 24.9393 34.8181 24.9769 35.3193 25.194C35.8206 25.411 36.2317 25.7942 36.4834 26.279C36.7351 26.7637 36.812 27.3205 36.7012 27.8553C36.5903 28.3902 36.2985 28.8705 35.8749 29.2153C35.4513 29.5601 34.9218 29.7484 34.3755 29.7484Z" fill="#3B5446" style="fill:#3B5446;fill:color(display-p3 0.2314 0.3294 0.2745);fill-opacity:1;"/>
<path d="M24 24C24 23.448 24 23 25 23H27C28 23 28 23.448 28 24V40C28 40.552 28 41 27 41H25C24 41 24 40.552 24 40V24ZM37 35C36 35 36 35.448 36 36V40C36 40.552 36 41 37 41H39C39.552 41 40 41 40 40V36C40 35.448 40 35 39 35H37Z" fill="#3B5446" style="fill:#3B5446;fill:color(display-p3 0.2314 0.3294 0.2745);fill-opacity:1;"/>
</svg>
