<svg width="64" height="64" viewBox="0 0 64 64" fill="none" xmlns="http://www.w3.org/2000/svg">
<rect width="64" height="64" rx="8" fill="white" style="fill:white;fill-opacity:1;"/>
<path d="M30.45 35.5C30.8667 35.9167 31.3917 36.1127 32.025 36.088C32.6583 36.0633 33.1167 35.834 33.4 35.4L37.625 29.075C37.775 28.8417 37.7543 28.629 37.563 28.437C37.3717 28.245 37.159 28.2243 36.925 28.375L30.6 32.6C30.1667 32.9 29.9293 33.3543 29.888 33.963C29.8467 34.5717 30.034 35.084 30.45 35.5ZM25.1 40C24.7333 40 24.396 39.9207 24.088 39.762C23.78 39.6033 23.534 39.366 23.35 39.05C22.9167 38.2667 22.5833 37.4543 22.35 36.613C22.1167 35.7717 22 34.9007 22 34C22 32.6167 22.2627 31.3167 22.788 30.1C23.3133 28.8833 24.0257 27.825 24.925 26.925C25.8243 26.025 26.8827 25.3127 28.1 24.788C29.3173 24.2633 30.6173 24.0007 32 24C33.3667 24 34.65 24.2583 35.85 24.775C37.05 25.2917 38.1 25.996 39 26.888C39.9 27.78 40.6167 28.8217 41.15 30.013C41.6833 31.2043 41.9583 32.4833 41.975 33.85C41.9917 34.7667 41.8877 35.6627 41.663 36.538C41.4383 37.4133 41.0923 38.2507 40.625 39.05C40.4417 39.3667 40.196 39.6043 39.888 39.763C39.58 39.9217 39.242 40.0007 38.874 40H25.1Z" fill="#3B5446" style="fill:#3B5446;fill:color(display-p3 0.2314 0.3294 0.2745);fill-opacity:1;"/>
</svg>
