<svg width="59" height="59" viewBox="0 0 59 59" fill="none" xmlns="http://www.w3.org/2000/svg">
<rect width="59" height="59" rx="16" fill="#F5F8F6" style="fill:#F5F8F6;fill:color(display-p3 0.9608 0.9725 0.9647);fill-opacity:1;"/>
<path d="M26.001 37.9984H34.001V38.3084C34.001 40.3434 32.346 41.9984 30.311 41.9984H29.692C27.657 41.9984 26.002 40.3434 26.002 38.3084V37.9984H26.001ZM39.001 26.9984C39.001 29.5884 37.883 32.0534 35.933 33.7614C35.194 34.4094 34.658 35.1744 34.339 35.9984H25.564C25.206 35.1214 24.638 34.2964 23.869 33.5814C21.72 31.5804 20.702 28.7514 21.076 25.8204C21.591 21.7804 24.905 18.5154 28.957 18.0574C31.524 17.7684 34.087 18.5794 35.995 20.2844C37.905 21.9914 39.001 24.4384 39.001 26.9984ZM29.001 28.0004C29.001 28.5524 29.448 29.0004 30.001 29.0004C30.554 29.0004 31.001 28.5524 31.001 28.0004V23.0004C31.001 22.4484 30.554 22.0004 30.001 22.0004C29.448 22.0004 29.001 22.4484 29.001 23.0004V28.0004ZM31.501 31.5004C31.501 30.6724 30.829 30.0004 30.001 30.0004C29.173 30.0004 28.501 30.6724 28.501 31.5004C28.501 32.3284 29.173 33.0004 30.001 33.0004C30.829 33.0004 31.501 32.3284 31.501 31.5004Z" fill="#355146" style="fill:#355146;fill:color(display-p3 0.2078 0.3176 0.2745);fill-opacity:1;"/>
</svg>
