<svg width="64" height="64" viewBox="0 0 64 64" fill="none" xmlns="http://www.w3.org/2000/svg">
<rect width="64" height="64" rx="8" fill="white" style="fill:white;fill-opacity:1;"/>
<g clip-path="url(#clip0_7419_9686)">
<path fill-rule="evenodd" clip-rule="evenodd" d="M34.3744 21.481V24.0867C33.5866 24.016 32.7961 23.9794 32.0052 23.977C31.2047 23.977 30.4109 24.0216 29.6378 24.0867V21.481C29.6378 21.14 29.5023 20.813 29.2612 20.5719C29.0201 20.3308 28.6931 20.1953 28.3521 20.1953C28.0111 20.1953 27.6841 20.3308 27.4429 20.5719C27.2018 20.813 27.0664 21.14 27.0664 21.481V24.361L26.7184 24.4005C26.1249 24.468 25.5718 24.7349 25.1496 25.1574C24.7274 25.58 24.4609 26.1332 24.3938 26.7267L24.3424 27.181V27.193H21.4967C21.1557 27.193 20.8286 27.3285 20.5875 27.5696C20.3464 27.8107 20.2109 28.1377 20.2109 28.4787C20.2109 28.8197 20.3464 29.1468 20.5875 29.3879C20.8286 29.629 21.1557 29.7645 21.4967 29.7645H24.0852C24.0287 30.493 23.9909 31.2387 23.9909 31.993C23.9909 32.7456 24.0287 33.4896 24.0852 34.2199H21.4967C21.1557 34.2199 20.8286 34.3553 20.5875 34.5965C20.3464 34.8376 20.2109 35.1646 20.2109 35.5056C20.2109 35.8466 20.3464 36.1736 20.5875 36.4147C20.8286 36.6559 21.1557 36.7913 21.4967 36.7913H24.3424V36.8033L24.3938 37.2576C24.4609 37.8511 24.7274 38.4044 25.1496 38.8269C25.5718 39.2494 26.1249 39.5163 26.7184 39.5839L27.0664 39.6233V42.5187C27.0664 42.8597 27.2018 43.1868 27.4429 43.4279C27.6841 43.669 28.0111 43.8045 28.3521 43.8045C28.6931 43.8045 29.0201 43.669 29.2612 43.4279C29.5023 43.1868 29.6378 42.8597 29.6378 42.5187V39.8959C30.4127 39.9627 31.2047 40.0073 32.0052 40.0073C32.8075 40.0073 33.5995 39.9627 34.3744 39.8976V42.5187C34.3744 42.8597 34.5098 43.1868 34.7509 43.4279C34.9921 43.669 35.3191 43.8045 35.6601 43.8045C36.0011 43.8045 36.3281 43.669 36.5692 43.4279C36.8103 43.1868 36.9458 42.8597 36.9458 42.5187V39.625L37.2938 39.5839C37.8872 39.5159 38.4401 39.2486 38.862 38.8258C39.2839 38.4029 39.5499 37.8495 39.6167 37.2559L39.6681 36.8033V36.7913H42.5052C42.8462 36.7913 43.1732 36.6559 43.4144 36.4147C43.6555 36.1736 43.7909 35.8466 43.7909 35.5056C43.7909 35.1646 43.6555 34.8376 43.4144 34.5965C43.1732 34.3553 42.8462 34.2199 42.5052 34.2199H39.9269C39.9835 33.4896 40.0212 32.7456 40.0212 31.9913C40.0212 31.237 39.9835 30.493 39.9269 29.7627H42.5052C42.8462 29.7627 43.1732 29.6273 43.4144 29.3862C43.6555 29.145 43.7909 28.818 43.7909 28.477C43.7909 28.136 43.6555 27.809 43.4144 27.5679C43.1732 27.3268 42.8462 27.1913 42.5052 27.1913H39.6698V27.1827L39.6184 26.7285C39.5512 26.1349 39.2848 25.5817 38.8625 25.1591C38.4403 24.7366 37.8873 24.4698 37.2938 24.4022L36.9458 24.361V21.481C36.9458 21.14 36.8103 20.813 36.5692 20.5719C36.3281 20.3308 36.0011 20.1953 35.6601 20.1953C35.3191 20.1953 34.9921 20.3308 34.7509 20.5719C34.5098 20.813 34.3744 21.14 34.3744 21.481ZM32.0001 27.1433C32.5915 27.1433 33.0715 27.6233 33.0715 28.2147V29.545H34.0812C34.7632 29.545 35.4173 29.8159 35.8995 30.2982C36.3817 30.7804 36.6527 31.4345 36.6527 32.1165V34.285C36.6527 34.967 36.3817 35.6211 35.8995 36.1033C35.4173 36.5855 34.7632 36.8565 34.0812 36.8565H29.9189C29.237 36.8565 28.5829 36.5855 28.1007 36.1033C27.6184 35.6211 27.3475 34.967 27.3475 34.285V32.1165C27.3475 31.4345 27.6184 30.7804 28.1007 30.2982C28.5829 29.8159 29.237 29.545 29.9189 29.545H30.9304V28.2147C30.9304 27.6233 31.4087 27.1433 32.0001 27.1433ZM31.0744 32.8913C31.0744 32.664 30.9841 32.446 30.8233 32.2852C30.6626 32.1245 30.4446 32.0342 30.2172 32.0342C29.9899 32.0342 29.7719 32.1245 29.6111 32.2852C29.4504 32.446 29.3601 32.664 29.3601 32.8913V33.5136C29.3601 33.7409 29.4504 33.9589 29.6111 34.1197C29.7719 34.2804 29.9899 34.3707 30.2172 34.3707C30.4446 34.3707 30.6626 34.2804 30.8233 34.1197C30.9841 33.9589 31.0744 33.7409 31.0744 33.5136V32.8913ZM33.7829 32.0342C34.0103 32.0342 34.2283 32.1245 34.389 32.2852C34.5498 32.446 34.6401 32.664 34.6401 32.8913V33.5136C34.6401 33.7409 34.5498 33.9589 34.389 34.1197C34.2283 34.2804 34.0103 34.3707 33.7829 34.3707C33.5556 34.3707 33.3376 34.2804 33.1768 34.1197C33.0161 33.9589 32.9258 33.7409 32.9258 33.5136V32.8913C32.9258 32.664 33.0161 32.446 33.1768 32.2852C33.3376 32.1245 33.5556 32.0342 33.7829 32.0342Z" fill="#3B5446" style="fill:#3B5446;fill:color(display-p3 0.2314 0.3294 0.2745);fill-opacity:1;"/>
</g>
<defs>
<clipPath id="clip0_7419_9686">
<rect width="24" height="24" fill="white" style="fill:white;fill-opacity:1;" transform="translate(20 20)"/>
</clipPath>
</defs>
</svg>
