<svg width="32" height="32" viewBox="0 0 32 32" fill="none" xmlns="http://www.w3.org/2000/svg">
<rect width="32" height="32" rx="8" fill="#F5F8F6" style="fill:#F5F8F6;fill:color(display-p3 0.9608 0.9725 0.9647);fill-opacity:1;"/>
<g clip-path="url(#clip0_7539_10643)">
<path d="M19.9108 17.1134L15.9042 23.9818C15.3767 24.8868 16.0292 26.0234 17.0767 26.0234H25.09C26.1375 26.0234 26.7908 24.8868 26.2625 23.9818L22.2558 17.1134C21.7317 16.2151 20.4342 16.2151 19.9108 17.1134ZM21.0833 25.1901C20.6233 25.1901 20.25 24.8168 20.25 24.3568C20.25 23.8968 20.6233 23.5234 21.0833 23.5234C21.5433 23.5234 21.9167 23.8968 21.9167 24.3568C21.9167 24.8168 21.5433 25.1901 21.0833 25.1901ZM20.25 21.8568V20.1884C20.25 19.7284 20.6233 19.3551 21.0833 19.3551C21.5433 19.3551 21.9167 19.7284 21.9167 20.1884V21.8568C21.9167 22.3168 21.5433 22.6901 21.0833 22.6901C20.6233 22.6901 20.25 22.3168 20.25 21.8568ZM12.78 11.8568H10.6667C10.6667 8.6401 13.2833 6.02344 16.5 6.02344C19.7167 6.02344 22.3333 8.6401 22.3333 11.8568H20.1958C19.9858 9.98677 18.4133 8.52344 16.4883 8.52344C14.5633 8.52344 12.9908 9.98677 12.7808 11.8568H12.78ZM14.4467 11.8568H18.5292C18.3358 10.9068 17.4942 10.1901 16.4883 10.1901C15.4825 10.1901 14.64 10.9068 14.4467 11.8568ZM14.3817 26.0234H8.58333C7.435 26.0234 6.5 25.0884 6.5 23.9401C6.5 23.0543 7.0575 22.3018 7.83833 22.0001L7.34417 17.1326C7.27167 16.1893 7.59167 15.2709 8.22083 14.5918C8.84917 13.9126 9.74083 13.5234 10.6667 13.5234H22.3333C23.2583 13.5234 24.15 13.9126 24.7792 14.5918C25.4083 15.2709 25.7283 16.1893 25.6575 17.1118L25.4392 19.2618L23.6958 16.2726C22.6283 14.2951 19.5383 14.2951 18.4708 16.2726L14.4642 23.1418C13.94 24.0401 13.9167 25.1043 14.3808 26.0226L14.3817 26.0234Z" fill="#3B5446" style="fill:#3B5446;fill:color(display-p3 0.2314 0.3294 0.2745);fill-opacity:1;"/>
</g>
<defs>
<clipPath id="clip0_7539_10643">
<rect width="20" height="20" fill="white" style="fill:white;fill-opacity:1;" transform="translate(6.5 6.02344)"/>
</clipPath>
</defs>
</svg>
