<svg width="64" height="64" viewBox="0 0 64 64" fill="none" xmlns="http://www.w3.org/2000/svg">
<rect width="64" height="64" rx="16" fill="white" style="fill:white;fill-opacity:1;"/>
<path d="M32 40.9982C28.1358 40.9938 25.0044 37.8624 25 33.9982V24.9982C25 24.7982 25.013 24.5983 25.03 24.4062C23.194 25.195 22.003 27 22 28.9982V38.9982C22.0033 41.7583 24.2399 43.9949 27 43.9982H33C34.9982 43.9952 36.8032 42.8042 37.592 40.9682C37.392 40.9852 37.2 40.9982 37 40.9982H32Z" fill="#2D423A" style="fill:#2D423A;fill:color(display-p3 0.1765 0.2588 0.2275);fill-opacity:1;"/>
<path d="M41.155 23.2728L38.871 20.9138C38.6195 20.6591 38.3246 20.4515 38 20.3008V24.0008H41.66C41.5288 23.7344 41.3586 23.489 41.155 23.2728Z" fill="#2D423A" style="fill:#2D423A;fill:color(display-p3 0.1765 0.2588 0.2275);fill-opacity:1;"/>
<path d="M37 23.9984C37 24.5506 37.4477 24.9983 38 24.9983H41.966C41.8923 24.349 41.6074 23.7419 41.155 23.2703L38.871 20.9114C38.3714 20.4049 37.7085 20.0917 37 20.0273V23.9984Z" fill="#2D423A" style="fill:#2D423A;fill:color(display-p3 0.1765 0.2588 0.2275);fill-opacity:1;"/>
<path d="M35 24V20H32C29.24 20.0033 27.0033 22.24 27 25V34C27.0033 36.7601 29.24 38.9967 32 39H37C39.7601 38.9967 41.9967 36.7601 42 34V27H38C36.3432 27 35 25.6569 35 24Z" fill="#2D423A" style="fill:#2D423A;fill:color(display-p3 0.1765 0.2588 0.2275);fill-opacity:1;"/>
</svg>
