<svg width="64" height="64" viewBox="0 0 64 64" fill="none" xmlns="http://www.w3.org/2000/svg">
<rect width="64" height="64" rx="16" fill="white" style="fill:white;fill-opacity:1;"/>
<g clip-path="url(#clip0_7539_10826)">
<path d="M31.433 41.289L29.159 43.478C28.811 43.813 28.348 44 27.865 44H22C20.895 44 20 43.105 20 42V40.531C20 38.895 20.996 37.425 22.514 36.817L25 35.823V32.5C25 31.673 25.673 31 26.5 31C27.327 31 28 31.673 28 32.5V39.198L28.622 38.625C29.299 37.947 30.394 37.774 31.184 38.34C32.181 39.058 32.264 40.458 31.433 41.289ZM41.486 36.818L39 35.824V32.501C39 31.674 38.327 31.001 37.5 31.001C36.673 31.001 36 31.674 36 32.501V39.199L35.378 38.626C34.701 37.948 33.606 37.775 32.816 38.341C31.819 39.059 31.736 40.459 32.567 41.29L34.841 43.479C35.189 43.814 35.652 44.001 36.135 44.001H42C43.105 44.001 44 43.106 44 42.001V40.532C44 38.896 43.004 37.426 41.486 36.818ZM44 25V29C44 31.045 42.763 32.802 41 33.576V32.5C41 31.38 40.462 30.393 39.641 29.752C39.856 29.569 40 29.305 40 29C40 28.448 39.552 28 39 28H38C37.448 28 37 28.448 37 29C37 29.015 37.008 29.027 37.008 29.041C37.005 29.041 37.003 29.043 37 29.043V29.05C35.306 29.295 34 30.738 34 32.5V34H30V32.5C30 30.738 28.694 29.295 27 29.05V29.043C27 29.043 26.995 29.041 26.992 29.041C26.992 29.027 27 29.014 27 29C27 28.448 26.552 28 26 28H25C24.448 28 24 28.448 24 29C24 29.305 24.144 29.568 24.359 29.752C23.538 30.393 23 31.381 23 32.5V33.576C21.237 32.802 20 31.045 20 29V25C20 22.243 22.243 20 25 20H39C41.757 20 44 22.243 44 25ZM29 25C29 25.552 29.447 26 30 26H31C31.553 26 32 25.552 32 25C32 24.448 31.553 24 31 24H30C29.447 24 29 24.448 29 25ZM27 25C27 24.448 26.553 24 26 24H25C24.447 24 24 24.448 24 25C24 25.552 24.447 26 25 26H26C26.553 26 27 25.552 27 25ZM35 29C35 28.448 34.552 28 34 28H30C29.448 28 29 28.448 29 29C29 29.552 29.448 30 30 30H34C34.552 30 35 29.552 35 29ZM40 25C40 24.448 39.553 24 39 24H35C34.447 24 34 24.448 34 25C34 25.552 34.447 26 35 26H39C39.553 26 40 25.552 40 25Z" fill="#2D423A" style="fill:#2D423A;fill:color(display-p3 0.1765 0.2588 0.2275);fill-opacity:1;"/>
</g>
<defs>
<clipPath id="clip0_7539_10826">
<rect width="24" height="24" fill="white" style="fill:white;fill-opacity:1;" transform="translate(20 20)"/>
</clipPath>
</defs>
</svg>
