<svg width="64" height="64" viewBox="0 0 64 64" fill="none" xmlns="http://www.w3.org/2000/svg">
<rect width="64" height="64" rx="16" fill="white" style="fill:white;fill-opacity:1;"/>
<g clip-path="url(#clip0_7539_10920)">
<path d="M32.8376 20.0293C31.1231 19.9093 29.4029 20.159 27.7934 20.7615C26.1838 21.364 24.7224 22.3051 23.5081 23.5213C22.2938 24.7375 21.3549 26.2004 20.7549 27.8109C20.155 29.4214 19.908 31.142 20.0306 32.8563C20.4716 39.2093 26.0836 44.0013 33.0846 44.0013H39.0016C40.3272 43.9997 41.598 43.4724 42.5354 42.5351C43.4727 41.5977 44 40.3269 44.0016 39.0013V32.3413C44.0389 29.2587 42.9087 26.2762 40.8379 23.9924C38.7671 21.7087 35.9091 20.2929 32.8376 20.0293ZM38.7016 29.7133L31.9086 36.4203C31.5337 36.7937 31.0262 37.0033 30.4971 37.0033C29.968 37.0033 29.4604 36.7937 29.0856 36.4203L25.3016 32.7163C25.112 32.5306 25.0038 32.2772 25.001 32.0119C24.9982 31.7465 25.1009 31.4909 25.2866 31.3013C25.4722 31.1116 25.7256 31.0035 25.991 31.0007C26.2563 30.9979 26.512 31.1006 26.7016 31.2863L30.4946 34.9933L37.3006 28.2933C37.4925 28.1244 37.7418 28.0354 37.9973 28.0447C38.2528 28.0539 38.495 28.1607 38.6743 28.343C38.8535 28.5253 38.9561 28.7693 38.961 29.0249C38.9659 29.2805 38.8727 29.5282 38.7006 29.7173L38.7016 29.7133Z" fill="#7A3522" style="fill:#7A3522;fill:color(display-p3 0.4784 0.2078 0.1333);fill-opacity:1;"/>
</g>
<defs>
<clipPath id="clip0_7539_10920">
<rect width="24" height="24" fill="white" style="fill:white;fill-opacity:1;" transform="translate(20 20)"/>
</clipPath>
</defs>
</svg>
