<svg width="64" height="64" viewBox="0 0 64 64" fill="none" xmlns="http://www.w3.org/2000/svg">
<rect width="64" height="64" rx="16" fill="white" style="fill:white;fill-opacity:1;"/>
<g clip-path="url(#clip0_7541_10942)">
<path d="M32 20C25.383 20 20 25.383 20 32C20 38.617 25.383 44 32 44C38.617 44 44 38.617 44 32C44 25.383 38.617 20 32 20ZM35.534 33.511L33.293 38.367C33.115 38.753 32.729 39 32.304 39H32.091C31.489 39 31.001 38.512 31.001 37.91V35.545C31.001 35.196 30.862 34.861 30.615 34.614L29.425 33.424C29.153 33.152 29 32.783 29 32.399V31.436C29 31.157 28.889 30.889 28.691 30.691L28.318 30.318C28.114 30.114 27.838 30 27.55 30H25.601C25.217 30 24.85 29.843 24.585 29.564L22.927 27.821C24.514 24.391 27.979 22 32 22C32.206 22 32.407 22.019 32.609 22.031C32.076 22.839 31.593 23.582 31.3 24.036C31.115 24.321 31.111 24.684 31.286 24.976L32.123 26.372C32.345 26.741 32.286 27.214 31.982 27.519L31.979 27.522C31.693 27.808 31.257 27.879 30.895 27.698L30.015 27.258C29.708 27.104 29.337 27.165 29.094 27.407L28.565 27.936C28.253 28.248 28.253 28.753 28.565 29.064L29.157 29.656C29.377 29.876 29.676 30 29.987 30H31.418C31.799 30 32.172 30.107 32.495 30.309L35.057 31.91C35.596 32.247 35.801 32.933 35.534 33.511ZM39.524 32.26C39.192 32.095 38.949 31.793 38.859 31.433L38.232 28.926C38.095 28.378 38.338 27.805 38.827 27.523L40.41 26.61C41.412 28.167 42 30.015 42 32C42 32.488 41.953 32.963 41.885 33.432L39.524 32.26Z" fill="#7A3522" style="fill:#7A3522;fill:color(display-p3 0.4784 0.2078 0.1333);fill-opacity:1;"/>
</g>
<defs>
<clipPath id="clip0_7541_10942">
<rect width="24" height="24" fill="white" style="fill:white;fill-opacity:1;" transform="translate(20 20)"/>
</clipPath>
</defs>
</svg>
