<svg width="64" height="64" viewBox="0 0 64 64" fill="none" xmlns="http://www.w3.org/2000/svg">
<rect width="64" height="64" rx="16" fill="white" style="fill:white;fill-opacity:1;"/>
<g clip-path="url(#clip0_7539_10833)">
<path d="M38 28C35.794 28 34 26.206 34 24C34 21.794 35.794 20 38 20C40.206 20 42 21.794 42 24C42 26.206 40.206 28 38 28ZM32 35C29.794 35 28 33.206 28 31C28 28.794 29.794 27 32 27C34.206 27 36 28.794 36 31C36 33.206 34.206 35 32 35ZM26 28C23.794 28 22 26.206 22 24C22 21.794 23.794 20 26 20C28.206 20 30 21.794 30 24C30 26.206 28.206 28 26 28ZM43 42H38C38 38.691 35.309 36 32 36C28.691 36 26 38.691 26 42H21C20.447 42 20 42.447 20 43C20 43.553 20.447 44 21 44H43C43.553 44 44 43.553 44 43C44 42.447 43.553 42 43 42ZM21 37H25.764C26.322 36.305 26.994 35.708 27.75 35.231C26.669 34.145 26 32.65 26 31C26 30.66 26.035 30.329 26.09 30.005C26.06 30.005 26.031 30 26 30C22.691 30 20 32.691 20 36C20 36.553 20.447 37 21 37ZM44 36C44 32.691 41.309 30 38 30C37.97 30 37.941 30.004 37.91 30.005C37.965 30.33 38 30.661 38 31C38 32.65 37.331 34.145 36.25 35.231C37.006 35.708 37.678 36.305 38.236 37H43C43.553 37 44 36.553 44 36Z" fill="#2D423A" style="fill:#2D423A;fill:color(display-p3 0.1765 0.2588 0.2275);fill-opacity:1;"/>
</g>
<defs>
<clipPath id="clip0_7539_10833">
<rect width="24" height="24" fill="white" style="fill:white;fill-opacity:1;" transform="translate(20 20)"/>
</clipPath>
</defs>
</svg>
