<svg width="32" height="32" viewBox="0 0 32 32" fill="none" xmlns="http://www.w3.org/2000/svg">
<rect width="32" height="32" rx="8" fill="#F5F8F6" style="fill:#F5F8F6;fill:color(display-p3 0.9608 0.9725 0.9647);fill-opacity:1;"/>
<g clip-path="url(#clip0_7539_10626)">
<mask id="mask0_7539_10626" style="mask-type:luminance" maskUnits="userSpaceOnUse" x="6" y="6" width="20" height="20">
<path d="M6 6H26V26H6V6Z" fill="white" style="fill:white;fill-opacity:1;"/>
<path fill-rule="evenodd" clip-rule="evenodd" d="M17.2961 11.3095C17.2123 11.2531 17.1181 11.2138 17.019 11.1939C16.92 11.174 16.8179 11.1737 16.7188 11.1932C16.6196 11.2127 16.5253 11.2516 16.4412 11.3076C16.357 11.3635 16.2848 11.4355 16.2285 11.5195L14.2985 14.3933L13.0215 13.5356L14.9515 10.6618C15.2927 10.1537 15.8218 9.80194 16.4224 9.68393C17.0229 9.56593 17.6457 9.69132 18.1538 10.0325L20.7077 11.7479C20.9593 11.9168 21.1752 12.1336 21.3431 12.386C21.5109 12.6383 21.6274 12.9212 21.6859 13.2186C21.7444 13.5159 21.7438 13.8219 21.684 14.119C21.6243 14.4162 21.5066 14.6986 21.3377 14.9502L19.4077 17.8233L18.1308 16.9656L20.06 14.0918C20.1163 14.0079 20.1556 13.9137 20.1755 13.8146C20.1955 13.7156 20.1957 13.6136 20.1762 13.5144C20.1567 13.4153 20.1179 13.3209 20.0619 13.2368C20.0059 13.1526 19.9339 13.0804 19.85 13.0241L17.2961 11.3095ZM10.2438 14.9133C10.3575 14.744 10.5338 14.6268 10.7338 14.5875C10.9339 14.5481 11.1414 14.5898 11.3108 14.7033L18.9746 19.8495C19.0603 19.9049 19.1342 19.9769 19.1918 20.0613C19.2494 20.1456 19.2897 20.2405 19.3102 20.3406C19.3308 20.4406 19.3312 20.5437 19.3114 20.6439C19.2917 20.7441 19.2522 20.8394 19.1953 20.9242C19.1383 21.009 19.0651 21.0815 18.9798 21.1377C18.8945 21.1939 18.7989 21.2325 18.6985 21.2513C18.5981 21.2701 18.495 21.2688 18.3951 21.2473C18.2953 21.2259 18.2007 21.1848 18.1169 21.1264L10.4531 15.9802C10.2839 15.8664 10.1669 15.6901 10.1277 15.4901C10.0884 15.29 10.1302 15.0826 10.2438 14.9133Z" fill="black" style="fill:black;fill-opacity:1;"/>
<path fill-rule="evenodd" clip-rule="evenodd" d="M13.1719 14.7771C12.8565 14.8179 12.5672 14.8848 12.4065 14.9656C12.2503 15.0448 12.0295 15.2317 11.8142 15.4525C11.7063 15.5637 11.6026 15.6789 11.5034 15.7979L11.4872 15.8179L11.4842 15.8217C11.357 15.9813 11.1716 16.0838 10.9688 16.1066C10.7661 16.1295 10.5625 16.0709 10.403 15.9437C10.2435 15.8165 10.141 15.6311 10.1181 15.4283C10.0953 15.2256 10.1539 15.0221 10.2811 14.8625L10.2826 14.861L10.2849 14.8579L10.2926 14.8487L10.3172 14.8179L10.4065 14.7125C10.4811 14.6264 10.5872 14.5071 10.7134 14.3787C10.948 14.1379 11.3157 13.7941 11.7119 13.5925C12.1203 13.3864 12.6311 13.2956 12.9742 13.251C13.1757 13.225 13.3781 13.2071 13.5811 13.1971L13.6219 13.1964H13.6395L13.6595 13.9287L13.6403 13.1956C13.7413 13.1929 13.8419 13.2101 13.9363 13.2462C14.0306 13.2823 14.117 13.3367 14.1903 13.4062C14.2637 13.4757 14.3226 13.559 14.3638 13.6513C14.405 13.7435 14.4276 13.843 14.4303 13.9441C14.433 14.0451 14.4158 14.1456 14.3797 14.24C14.3436 14.3344 14.2892 14.4207 14.2197 14.4941C14.1502 14.5674 14.0669 14.6264 13.9746 14.6676C13.8824 14.7087 13.7829 14.7313 13.6819 14.7341H13.6811L13.6603 13.9648L13.6819 14.7341H13.6757L13.6495 14.7348L13.5419 14.741C13.4184 14.7493 13.2953 14.7614 13.1726 14.7771M18.2057 18.1564C18.2865 18.4641 18.3349 18.7571 18.3211 18.9371C18.3057 19.111 18.2165 19.3856 18.0942 19.6694C18.032 19.8114 17.9645 19.951 17.8919 20.0879L17.8795 20.1102L17.8772 20.1148C17.8279 20.203 17.7965 20.3 17.7847 20.4004C17.7729 20.5007 17.781 20.6024 17.8085 20.6996C17.836 20.7968 17.8824 20.8877 17.945 20.967C18.0076 21.0463 18.0852 21.1124 18.1734 21.1617C18.2616 21.211 18.3586 21.2425 18.459 21.2543C18.5593 21.2661 18.661 21.258 18.7582 21.2305C18.8554 21.203 18.9462 21.1566 19.0255 21.094C19.1048 21.0314 19.171 20.9538 19.2203 20.8656L19.2211 20.8633L19.2234 20.8602L19.2288 20.8494L19.248 20.8148L19.3119 20.6917C19.3634 20.5902 19.4334 20.4471 19.5049 20.2817C19.6388 19.9741 19.818 19.5025 19.8542 19.0602C19.8903 18.6041 19.7811 18.0964 19.6926 17.7625C19.6401 17.5661 19.5798 17.3718 19.5119 17.1802L19.498 17.1417L19.4942 17.131L19.4926 17.1271V17.1256C19.4919 17.1248 19.4919 17.1248 18.8057 17.3848L19.4919 17.1248C19.4157 16.9396 19.2704 16.7914 19.0868 16.7117C18.9031 16.6319 18.6956 16.6269 18.5083 16.6977C18.3211 16.7685 18.1688 16.9096 18.0838 17.0909C17.9989 17.2722 17.988 17.4794 18.0534 17.6687V17.6694L18.7726 17.3971C18.0534 17.6694 18.0534 17.6687 18.0534 17.6687L18.0549 17.6741L18.0642 17.6994L18.0988 17.801C18.1288 17.8902 18.168 18.0148 18.2057 18.1564ZM14.7142 17.9156C14.8834 18.0293 15.0006 18.2055 15.04 18.4056C15.0794 18.6056 15.0377 18.8132 14.9242 18.9825L13.6372 20.8979C13.5824 20.985 13.5107 21.0602 13.4263 21.119C13.3418 21.1779 13.2465 21.2192 13.1458 21.2406C13.0452 21.2619 12.9412 21.2628 12.8402 21.2433C12.7392 21.2238 12.6431 21.1841 12.5576 21.1268C12.4722 21.0695 12.3991 20.9956 12.3427 20.9095C12.2864 20.8234 12.2478 20.7268 12.2294 20.6256C12.211 20.5244 12.2131 20.4204 12.2356 20.32C12.2581 20.2196 12.3005 20.1247 12.3603 20.041L13.6465 18.1248C13.7028 18.0409 13.775 17.9689 13.8592 17.9129C13.9433 17.857 14.0377 17.8181 14.1368 17.7986C14.236 17.7791 14.338 17.7793 14.437 17.7993C14.5361 17.8192 14.6303 17.8592 14.7142 17.9156Z" fill="black" style="fill:black;fill-opacity:1;"/>
</mask>
<g mask="url(#mask0_7539_10626)">
<path d="M16 26C21.5228 26 26 21.5228 26 16C26 10.4772 21.5228 6 16 6C10.4772 6 6 10.4772 6 16C6 21.5228 10.4772 26 16 26Z" fill="#3B5446" style="fill:#3B5446;fill:color(display-p3 0.2314 0.3294 0.2745);fill-opacity:1;"/>
</g>
</g>
<defs>
<clipPath id="clip0_7539_10626">
<rect width="20" height="20" fill="white" style="fill:white;fill-opacity:1;" transform="translate(6 6)"/>
</clipPath>
</defs>
</svg>
