<svg width="64" height="64" viewBox="0 0 64 64" fill="none" xmlns="http://www.w3.org/2000/svg">
<rect width="64" height="64" rx="16" fill="white" style="fill:white;fill-opacity:1;"/>
<g clip-path="url(#clip0_7539_10848)">
<path d="M36 32C36 30.845 35.122 29.901 34 29.775V26C34 25.447 33.553 25 33 25C32.447 25 32 25.447 32 26C32 27.903 29.084 28 28.5 28H23.5C21.57 28 20 29.57 20 31.5V32.5C20 34.43 21.57 36 23.5 36H28.5C29.084 36 32 36.097 32 38C32 38.553 32.448 39 33 39C33.552 39 34 38.553 34 38V34.225C35.122 34.099 36 33.155 36 32ZM39.5 21.5C39.5 20.672 40.172 20 41 20C41.828 20 42.5 20.672 42.5 21.5C42.5 22.328 41.828 23 41 23C40.172 23 39.5 22.328 39.5 21.5ZM41 28.5C41.828 28.5 42.5 29.172 42.5 30C42.5 30.828 41.828 31.5 41 31.5C40.172 31.5 39.5 30.828 39.5 30C39.5 29.172 40.172 28.5 41 28.5ZM41 40C40.172 40 39.5 39.328 39.5 38.5C39.5 37.672 40.172 37 41 37C41.828 37 42.5 37.672 42.5 38.5C42.5 39.328 41.828 40 41 40ZM43.829 42.44C44.036 42.747 44.057 43.142 43.883 43.468C43.71 43.795 43.37 43.999 43 43.999H39C38.63 43.999 38.29 43.795 38.117 43.468C37.943 43.142 37.964 42.746 38.171 42.44C38.78 41.538 39.838 41 41 41C42.162 41 43.22 41.538 43.829 42.44ZM38.117 26.468C37.943 26.142 37.964 25.746 38.171 25.44C38.78 24.538 39.838 24 41 24C42.162 24 43.22 24.538 43.829 25.44C44.036 25.747 44.057 26.142 43.883 26.468C43.71 26.795 43.37 26.999 43 26.999H39C38.63 26.999 38.29 26.795 38.117 26.468ZM43.829 33.94C44.036 34.247 44.057 34.642 43.883 34.968C43.71 35.295 43.37 35.499 43 35.499H39C38.63 35.499 38.29 35.295 38.117 34.968C37.943 34.642 37.964 34.246 38.171 33.94C38.78 33.038 39.838 32.5 41 32.5C42.162 32.5 43.22 33.038 43.829 33.94ZM27.81 41.078C28.437 42.444 27.439 43.999 25.936 43.999C25.121 43.999 24.383 43.519 24.052 42.775L21.603 37.632C22.213 37.866 22.872 38 23.564 38H26.397L27.81 41.079V41.078Z" fill="#2D423A" style="fill:#2D423A;fill:color(display-p3 0.1765 0.2588 0.2275);fill-opacity:1;"/>
</g>
<defs>
<clipPath id="clip0_7539_10848">
<rect width="24" height="24" fill="white" style="fill:white;fill-opacity:1;" transform="translate(20 20)"/>
</clipPath>
</defs>
</svg>
