<svg width="65" height="64" viewBox="0 0 65 64" fill="none" xmlns="http://www.w3.org/2000/svg">
<rect x="0.667969" width="64" height="64" rx="16" fill="white" style="fill:white;fill-opacity:1;"/>
<g clip-path="url(#clip0_7538_10460)">
<path d="M39.62 43.0009H39.587C39.076 42.9929 38.59 42.7759 38.243 42.4009L36.325 40.5199C35.941 40.1229 35.95 39.4899 36.347 39.1059C36.348 39.1049 36.349 39.1039 36.35 39.1029C36.747 38.7219 37.377 38.7329 37.76 39.1269L39.621 40.9499L42.962 37.6089C43.352 37.2189 43.986 37.2189 44.376 37.6089C44.766 37.9989 44.766 38.6329 44.376 39.0229L40.955 42.4439C40.603 42.8009 40.122 43.0019 39.62 43.0009Z" fill="#2D423A" style="fill:#2D423A;fill:color(display-p3 0.1765 0.2588 0.2275);fill-opacity:1;"/>
<path d="M34.7034 40.0145C34.6994 36.7175 37.3684 34.0415 40.6644 34.0365C41.9474 34.0345 43.1974 34.4465 44.2274 35.2115C46.0004 28.8265 42.2614 22.2135 35.8774 20.4405C29.4934 18.6675 22.8814 22.4055 21.1084 28.7905C19.3354 35.1755 23.0744 41.7895 29.4584 43.5625C31.5584 44.1455 33.7774 44.1455 35.8774 43.5625C35.1154 42.5365 34.7034 41.2925 34.7034 40.0145ZM33.6684 32.0215C33.6684 32.2875 33.5624 32.5415 33.3744 32.7295L30.3694 35.7355C29.9714 36.1195 29.3374 36.1085 28.9534 35.7105C28.5784 35.3225 28.5784 34.7065 28.9534 34.3185L31.6654 31.6065V27.0125C31.6654 26.4595 32.1134 26.0105 32.6674 26.0105C33.2204 26.0105 33.6684 26.4595 33.6684 27.0125V32.0215Z" fill="#2D423A" style="fill:#2D423A;fill:color(display-p3 0.1765 0.2588 0.2275);fill-opacity:1;"/>
</g>
<defs>
<clipPath id="clip0_7538_10460">
<rect width="24" height="24" fill="white" style="fill:white;fill-opacity:1;" transform="translate(20.668 20)"/>
</clipPath>
</defs>
</svg>
