<svg width="65" height="64" viewBox="0 0 65 64" fill="none" xmlns="http://www.w3.org/2000/svg">
<rect x="0.328125" width="64" height="64" rx="16" fill="white" style="fill:white;fill-opacity:1;"/>
<g clip-path="url(#clip0_7538_10467)">
<path d="M32.3281 20C25.7111 20 20.3281 25.383 20.3281 32C20.3281 38.617 25.7111 44 32.3281 44C38.9451 44 44.3281 38.617 44.3281 32C44.3281 25.383 38.9451 20 32.3281 20ZM35.8621 33.511L33.6211 38.367C33.4431 38.753 33.0571 39 32.6321 39H32.4191C31.8171 39 31.3291 38.512 31.3291 37.91V35.545C31.3291 35.196 31.1901 34.861 30.9431 34.614L29.7531 33.424C29.4811 33.152 29.3281 32.783 29.3281 32.399V31.436C29.3281 31.157 29.2171 30.889 29.0191 30.691L28.6461 30.318C28.4421 30.114 28.1661 30 27.8781 30H25.9291C25.5451 30 25.1781 29.843 24.9131 29.564L23.2551 27.821C24.8421 24.391 28.3071 22 32.3281 22C32.5341 22 32.7351 22.019 32.9371 22.031C32.4041 22.839 31.9211 23.582 31.6281 24.036C31.4431 24.321 31.4391 24.684 31.6141 24.976L32.4511 26.372C32.6731 26.741 32.6141 27.214 32.3101 27.519L32.3071 27.522C32.0211 27.808 31.5851 27.879 31.2231 27.698L30.3431 27.258C30.0361 27.104 29.6651 27.165 29.4221 27.407L28.8931 27.936C28.5811 28.248 28.5811 28.753 28.8931 29.064L29.4851 29.656C29.7051 29.876 30.0041 30 30.3151 30H31.7461C32.1271 30 32.5001 30.107 32.8231 30.309L35.3851 31.91C35.9241 32.247 36.1291 32.933 35.8621 33.511ZM39.8521 32.26C39.5201 32.095 39.2771 31.793 39.1871 31.433L38.5601 28.926C38.4231 28.378 38.6661 27.805 39.1551 27.523L40.7381 26.61C41.7401 28.167 42.3281 30.015 42.3281 32C42.3281 32.488 42.2811 32.963 42.2131 33.432L39.8521 32.26Z" fill="#2D423A" style="fill:#2D423A;fill:color(display-p3 0.1765 0.2588 0.2275);fill-opacity:1;"/>
</g>
<defs>
<clipPath id="clip0_7538_10467">
<rect width="24" height="24" fill="white" style="fill:white;fill-opacity:1;" transform="translate(20.3281 20)"/>
</clipPath>
</defs>
</svg>
