<svg width="64" height="64" viewBox="0 0 64 64" fill="none" xmlns="http://www.w3.org/2000/svg">
<rect width="64" height="64" rx="16" fill="white" style="fill:white;fill-opacity:1;"/>
<g clip-path="url(#clip0_7539_10908)">
<path d="M28 24.0003C28 21.7943 26.206 20.0002 24 20.0002C21.794 20.0002 20 21.7943 20 24.0003C20 25.8603 21.276 27.4283 23 27.8733V36.1263C21.276 36.5713 20 38.1393 20 39.9993C20 42.2053 21.794 43.9993 24 43.9993C26.206 43.9993 28 42.2053 28 39.9993C28 38.1393 26.724 36.5713 25 36.1263V27.8733C26.724 27.4283 28 25.8603 28 24.0003ZM41 36.1273V30.0003C41 29.4483 40.553 29.0003 40 29.0003C39.447 29.0003 39 29.4483 39 30.0003V36.1273C37.276 36.5723 36 38.1403 36 40.0003C36 42.2063 37.794 44.0003 40 44.0003C42.206 44.0003 44 42.2063 44 40.0003C44 38.1403 42.724 36.5723 41 36.1273ZM43.707 26.2933C44.098 26.6843 44.098 27.3163 43.707 27.7073C43.512 27.9023 43.256 28.0003 43 28.0003C42.744 28.0003 42.488 27.9023 42.293 27.7073L40 25.4143L37.707 27.7073C37.512 27.9023 37.256 28.0003 37 28.0003C36.744 28.0003 36.488 27.9023 36.293 27.7073C35.902 27.3163 35.902 26.6843 36.293 26.2933L38.586 24.0003L36.293 21.7073C35.902 21.3163 35.902 20.6843 36.293 20.2933C36.684 19.9022 37.316 19.9022 37.707 20.2933L40 22.5863L42.293 20.2933C42.684 19.9022 43.316 19.9022 43.707 20.2933C44.098 20.6843 44.098 21.3163 43.707 21.7073L41.414 24.0003L43.707 26.2933Z" fill="#7A3522" style="fill:#7A3522;fill:color(display-p3 0.4784 0.2078 0.1333);fill-opacity:1;"/>
</g>
<defs>
<clipPath id="clip0_7539_10908">
<rect width="24" height="24" fill="white" style="fill:white;fill-opacity:1;" transform="translate(20 20)"/>
</clipPath>
</defs>
</svg>
