<svg width="64" height="64" viewBox="0 0 64 64" fill="none" xmlns="http://www.w3.org/2000/svg">
<rect width="64" height="64" rx="16" fill="white" style="fill:white;fill-opacity:1;"/>
<g clip-path="url(#clip0_7538_10474)">
<path d="M37 40C35.665 40 34.409 39.48 33.465 38.536C31.515 36.586 31.515 33.414 33.465 31.465L35.016 29.826L35.566 29.261C36.351 28.454 37.646 28.453 38.432 29.259L38.959 29.799L40.556 31.485C42.486 33.415 42.486 36.587 40.537 38.537C39.592 39.481 38.336 40.001 37.001 40.001L37 40ZM23 22H24V27H34V22H35C35.552 22 36 21.552 36 21C36 20.448 35.552 20 35 20H23C22.448 20 22 20.448 22 21C22 21.552 22.448 22 23 22ZM32.051 39.95C29.322 37.221 29.322 32.78 32.051 30.051L33.044 29.001H24V39.001C24 41.758 26.243 44.001 29 44.001C31.014 44.001 32.743 42.798 33.534 41.078C32.999 40.772 32.498 40.398 32.051 39.95Z" fill="#2D423A" style="fill:#2D423A;fill:color(display-p3 0.1765 0.2588 0.2275);fill-opacity:1;"/>
</g>
<defs>
<clipPath id="clip0_7538_10474">
<rect width="24" height="24" fill="white" style="fill:white;fill-opacity:1;" transform="translate(20 20)"/>
</clipPath>
</defs>
</svg>
