<svg width="32" height="32" viewBox="0 0 32 32" fill="none" xmlns="http://www.w3.org/2000/svg">
<rect width="32" height="32" rx="8" fill="#F5F8F6" style="fill:#F5F8F6;fill:color(display-p3 0.9608 0.9725 0.9647);fill-opacity:1;"/>
<g clip-path="url(#clip0_7539_10649)">
<path d="M16 6C10.4858 6 6 10.4858 6 16V21.8333C6 24.1308 7.86917 26 10.1667 26H16C21.5142 26 26 21.5142 26 16C26 10.4858 21.5142 6 16 6ZM21 13.9167C21 14.6058 20.4392 15.1667 19.75 15.1667H17.6667C17.2067 15.1667 16.8333 14.7933 16.8333 14.3333C16.8333 13.8733 17.2067 13.5 17.6667 13.5H18.2033C17.6067 12.9725 16.8342 12.6667 16 12.6667C14.1617 12.6667 12.6667 14.1617 12.6667 16C12.6667 17.8383 14.1617 19.3333 16 19.3333C17.3258 19.3333 18.5258 18.5483 19.0558 17.3333C19.24 16.9117 19.7317 16.7208 20.1533 16.9033C20.575 17.0875 20.7675 17.5792 20.5833 18.0008C19.7867 19.8233 17.9883 21.0008 16 21.0008C13.2425 21.0008 11 18.7583 11 16.0008C11 13.2433 13.2425 11.0008 16 11.0008C17.2467 11.0008 18.4283 11.4825 19.3333 12.2908V11.8342C19.3333 11.3742 19.7067 11.0008 20.1667 11.0008C20.6267 11.0008 21 11.3742 21 11.8342V13.9175V13.9167Z" fill="#3B5446" style="fill:#3B5446;fill:color(display-p3 0.2314 0.3294 0.2745);fill-opacity:1;"/>
</g>
<defs>
<clipPath id="clip0_7539_10649">
<rect width="20" height="20" fill="white" style="fill:white;fill-opacity:1;" transform="translate(6 6)"/>
</clipPath>
</defs>
</svg>
