<svg width="64" height="64" viewBox="0 0 64 64" fill="none" xmlns="http://www.w3.org/2000/svg">
<rect width="64" height="64" rx="16" fill="white" style="fill:white;fill-opacity:1;"/>
<path d="M36 22H35.829C35.416 20.836 34.304 20 33 20H31C29.696 20 28.584 20.836 28.171 22H28C25.243 22 23 24.243 23 27V39C23 41.757 25.243 44 28 44H36C38.757 44 41 41.757 41 39V27C41 24.243 38.757 22 36 22ZM27 37C25.692 36.994 25.692 35.006 27 35C28.308 35.006 28.308 36.994 27 37ZM27.667 32C27.222 32 26.803 31.827 26.489 31.512L25.481 30.561C25.08 30.182 25.061 29.549 25.44 29.147C25.819 28.745 26.452 28.727 26.854 29.106L27.665 29.872L29.305 28.282C29.701 27.898 30.334 27.907 30.719 28.304C31.103 28.7 31.094 29.333 30.697 29.718L28.835 31.523C28.532 31.827 28.113 32 27.668 32H27.667ZM37 37H31C29.692 36.994 29.693 35.006 31 35H37C38.308 35.006 38.307 36.994 37 37ZM37 32H33C31.692 31.994 31.693 30.006 33 30H37C38.308 30.006 38.307 31.994 37 32Z" fill="#2D423A" style="fill:#2D423A;fill:color(display-p3 0.1765 0.2588 0.2275);fill-opacity:1;"/>
</svg>
