<svg width="64" height="64" viewBox="0 0 64 64" fill="none" xmlns="http://www.w3.org/2000/svg">
<rect width="64" height="64" rx="16" fill="white" style="fill:white;fill-opacity:1;"/>
<g clip-path="url(#clip0_7539_10916)">
<path d="M32 27V20.46C32.913 20.806 33.753 21.339 34.465 22.05L37.949 25.536C38.661 26.247 39.194 27.087 39.54 28H33C32.448 28 32 27.551 32 27ZM39.5 38C42.544 38 43.779 37.189 44 36.921V34.5C44 33.617 42.15 33 39.5 33C36.85 33 35 33.617 35 34.5V36.921C35.221 37.189 36.456 38 39.5 38ZM39.5 44C42.359 44 44 43.21 44 41.833V39.223C42.921 39.689 41.43 40 39.5 40C37.57 40 36.079 39.689 35 39.223V41.833C35 43.21 36.641 44 39.5 44ZM33 41.833V34.5C33 33.448 33.634 31 39.5 31C39.675 31 39.83 31.009 39.996 31.013C39.991 30.612 39.984 30.102 39.977 30H33.001C31.347 30 30.001 28.654 30.001 27V20.024C29.84 20.013 29.679 20 29.516 20H25C22.243 20 20 22.243 20 25V39C20 41.757 22.243 44 25 44H33.751C33.1 43.158 33 42.273 33 41.833ZM26 39C26 39.552 25.553 40 25 40C24.447 40 24 39.552 24 39V36C24 35.448 24.447 35 25 35C25.553 35 26 35.448 26 36V39ZM30 39C30 39.552 29.553 40 29 40C28.447 40 28 39.552 28 39V32C28 31.448 28.447 31 29 31C29.553 31 30 31.448 30 32V39Z" fill="#7A3522" style="fill:#7A3522;fill:color(display-p3 0.4784 0.2078 0.1333);fill-opacity:1;"/>
</g>
<defs>
<clipPath id="clip0_7539_10916">
<rect width="24" height="24" fill="white" style="fill:white;fill-opacity:1;" transform="translate(20 20)"/>
</clipPath>
</defs>
</svg>
