<svg width="64" height="64" viewBox="0 0 64 64" fill="none" xmlns="http://www.w3.org/2000/svg">
<rect width="64" height="64" rx="16" fill="white" style="fill:white;fill-opacity:1;"/>
<g clip-path="url(#clip0_7539_10841)">
<path d="M28.679 25.2665L26.346 22.9335C25.915 22.5025 26.009 21.7745 26.537 21.4695C27.56 20.8795 28.685 20.4485 29.88 20.2135C30.457 20.0995 31 20.5365 31 21.1255V24.3285C31 24.7395 30.745 25.1265 30.35 25.2375C30.138 25.2975 29.93 25.3675 29.728 25.4495C29.366 25.5955 28.955 25.5425 28.679 25.2665ZM25 31.0015H22C21.448 31.0015 21 31.4495 21 32.0015V33.0015C21 33.5535 21.448 34.0015 22 34.0015H25C25.552 34.0015 26 33.5535 26 33.0015V32.0015C26 31.4495 25.552 31.0015 25 31.0015ZM38.25 29.0015H41.625C42.245 29.0015 42.698 28.3995 42.517 27.8055C42.118 26.4965 41.482 25.2915 40.657 24.2385C40.312 23.7985 39.659 23.7555 39.263 24.1505L37.018 26.3955C36.706 26.7075 36.654 27.1995 36.908 27.5605C37.104 27.8395 37.276 28.1355 37.423 28.4465C37.578 28.7745 37.888 29.0005 38.25 29.0005V29.0015ZM35.321 25.2665L37.654 22.9335C38.085 22.5025 37.991 21.7745 37.463 21.4695C36.44 20.8795 35.315 20.4485 34.12 20.2135C33.543 20.0995 33 20.5365 33 21.1255V24.3285C33 24.7395 33.255 25.1265 33.65 25.2375C33.862 25.2975 34.07 25.3675 34.272 25.4495C34.634 25.5955 35.045 25.5425 35.321 25.2665ZM26.981 26.3975L24.736 24.1525C24.341 23.7575 23.687 23.8005 23.342 24.2405C22.518 25.2935 21.881 26.4985 21.482 27.8075C21.301 28.4015 21.754 29.0035 22.374 29.0035H25.749C26.111 29.0035 26.421 28.7775 26.576 28.4495C26.723 28.1385 26.895 27.8425 27.091 27.5635C27.345 27.2025 27.293 26.7095 26.981 26.3975ZM38 32.0025V33.0025C38 33.5545 38.448 34.0025 39 34.0025H42C42.552 34.0025 43 33.5545 43 33.0025V32.0025C43 31.4505 42.552 31.0025 42 31.0025H39C38.448 31.0025 38 31.4505 38 32.0025ZM25 36.0025H22C21.448 36.0025 21 36.4505 21 37.0025V38.0025C21 38.5545 21.448 39.0025 22 39.0025H25C25.552 39.0025 26 38.5545 26 38.0025V37.0025C26 36.4505 25.552 36.0025 25 36.0025ZM39 39.0025H42C42.552 39.0025 43 38.5545 43 38.0025V37.0025C43 36.4505 42.552 36.0025 42 36.0025H39C38.448 36.0025 38 36.4505 38 37.0025V38.0025C38 38.5545 38.448 39.0025 39 39.0025ZM25 41.0025H22C21.448 41.0025 21 41.4505 21 42.0025V43.0025C21 43.5545 21.448 44.0025 22 44.0025H25C25.552 44.0025 26 43.5545 26 43.0025V42.0025C26 41.4505 25.552 41.0025 25 41.0025ZM39 44.0025H42C42.552 44.0025 43 43.5545 43 43.0025V42.0025C43 41.4505 42.552 41.0025 42 41.0025H39C38.448 41.0025 38 41.4505 38 42.0025V43.0025C38 43.5545 38.448 44.0025 39 44.0025ZM33 28.6225V43.0025C33 43.5545 33.448 44.0025 34 44.0025H35C35.552 44.0025 36 43.5545 36 43.0025V31.0015C36 29.7285 35.403 28.6015 34.475 27.8735C33.879 27.4055 33 27.8635 33 28.6215V28.6225ZM31 28.6225C31 27.8645 30.121 27.4055 29.525 27.8745C28.597 28.6025 28 29.7305 28 31.0025V43.0025C28 43.5545 28.448 44.0025 29 44.0025H30C30.552 44.0025 31 43.5545 31 43.0025V28.6215V28.6225Z" fill="#2D423A" style="fill:#2D423A;fill:color(display-p3 0.1765 0.2588 0.2275);fill-opacity:1;"/>
</g>
<defs>
<clipPath id="clip0_7539_10841">
<rect width="24" height="24" fill="white" style="fill:white;fill-opacity:1;" transform="translate(20 20)"/>
</clipPath>
</defs>
</svg>
