<svg width="64" height="64" viewBox="0 0 64 64" fill="none" xmlns="http://www.w3.org/2000/svg">
<rect width="64" height="64" rx="16" fill="white" style="fill:white;fill-opacity:1;"/>
<g clip-path="url(#clip0_7596_10224)">
<path d="M27.293 27.121C26.902 26.73 26.902 26.098 27.293 25.707C27.684 25.316 28.316 25.316 28.707 25.707L31 28V21C31 20.447 31.447 20 32 20C32.553 20 33 20.447 33 21V28L35.293 25.707C35.684 25.316 36.316 25.316 36.707 25.707C37.098 26.098 37.098 26.73 36.707 27.121L33.414 30.414C33.027 30.801 32.518 30.996 32.009 30.998L32 31L31.991 30.998C31.482 30.996 30.973 30.801 30.586 30.414L27.293 27.121ZM41 32H38C36.897 32 36 32.897 36 34C36 35.103 35.103 36 34 36H30C28.897 36 28 35.103 28 34C28 32.897 27.103 32 26 32H23C21.346 32 20 33.346 20 35V39C20 41.757 22.243 44 25 44H39C41.757 44 44 41.757 44 39V35C44 33.346 42.654 32 41 32Z" fill="#D4512E" style="fill:#D4512E;fill:color(display-p3 0.8314 0.3176 0.1804);fill-opacity:1;"/>
</g>
<defs>
<clipPath id="clip0_7596_10224">
<rect width="24" height="24" fill="white" style="fill:white;fill-opacity:1;" transform="translate(20 20)"/>
</clipPath>
</defs>
</svg>
