<svg width="64" height="64" viewBox="0 0 64 64" fill="none" xmlns="http://www.w3.org/2000/svg">
<rect width="64" height="64" rx="16" fill="#F5F8F6" style="fill:#F5F8F6;fill:color(display-p3 0.9608 0.9725 0.9647);fill-opacity:1;"/>
<g clip-path="url(#clip0_7593_10394)">
<path d="M28.433 32.544C28.457 32.53 28.469 32.521 28.488 32.509C28.47 32.521 28.47 32.521 28.446 32.538L29.185 34.968C29.341 35.482 28.957 36.001 28.42 36.001C28.044 36.025 27.693 35.79 27.588 35.424L26.883 33.001H26.599V35.201C26.599 35.643 26.241 36.001 25.799 36.001C25.357 36.001 24.999 35.643 24.999 35.201V28.801C24.999 28.359 25.357 28.001 25.799 28.001H26.942C28.312 28.001 29.47 29.079 29.498 30.448C29.516 31.316 29.089 32.083 28.432 32.545L28.433 32.544ZM27.9 30.5C27.9 30.004 27.496 29.6 27 29.6H26.6V31.4H27C27.496 31.4 27.9 30.996 27.9 30.5ZM44 30.3V33.7C44 34.97 42.97 36 41.7 36H40.75C40.336 36 40 35.664 40 35.25V28.75C40 28.336 40.336 28 40.75 28H41.7C42.97 28 44 29.03 44 30.3ZM42.4 30.351C42.4 29.965 42.086 29.651 41.7 29.651C41.592 29.651 41.634 29.651 41.599 29.651V34.452H41.7C42.086 34.452 42.4 34.138 42.4 33.752V30.352V30.351ZM38.252 36C37.938 36.011 37.648 35.825 37.53 35.534L36.5 33V35.25C36.5 35.664 36.164 36 35.75 36C35.336 36 35 35.664 35 35.25V28.753C35 28.338 35.338 28.002 35.753 28.005C36.069 28.007 36.35 28.208 36.454 28.506L37.5 31.5V28.75C37.5 28.336 37.836 28 38.25 28C38.664 28 39 28.336 39 28.75V35.252C39 35.665 38.665 36 38.252 36ZM32.684 35H31.317L31.27 35.309C31.21 35.706 30.868 36 30.466 36C29.962 36 29.579 35.546 29.665 35.049L30.694 29.083C30.821 28.349 31.411 27.982 32.001 27.982C32.591 27.982 33.182 28.349 33.308 29.083L34.337 35.049C34.423 35.546 34.04 36 33.536 36C33.134 36 32.792 35.706 32.732 35.309L32.685 35H32.684ZM32.441 33.4L32 30.5L31.559 33.4H32.44H32.441ZM24.5 33.444C24.528 34.849 23.357 35.999 21.951 35.999H20.8C20.358 35.999 20 35.641 20 35.199V28.799C20 28.357 20.358 27.999 20.8 27.999H21.647C22.909 27.999 23.975 28.993 23.999 30.254C24.008 30.751 23.86 31.212 23.601 31.591C24.155 32.034 24.484 32.677 24.499 33.443L24.5 33.444ZM21.601 29.599V30.999H21.701C22.087 30.999 22.401 30.685 22.401 30.299C22.401 29.913 22.087 29.599 21.701 29.599H21.601ZM22.901 33.499C22.901 33.003 22.497 32.599 22.001 32.599H21.601V34.399H22.001C22.497 34.399 22.901 33.995 22.901 33.499ZM41.701 37.999H40.751C40.302 37.999 39.877 37.891 39.502 37.699C39.127 37.891 38.702 37.999 38.253 37.999H38.225C37.784 37.999 37.362 37.895 36.986 37.706C36.288 38.059 35.37 38.084 34.651 37.769C33.797 38.137 32.747 38.032 32.002 37.549C31.281 38.016 30.276 38.132 29.441 37.805C28.681 38.102 27.781 38.034 27.091 37.683C26.184 38.155 24.942 38.049 24.129 37.442C23.504 37.78 22.803 37.967 22.089 37.989C22.333 38.921 22.818 39.784 23.517 40.484C24.667 41.633 26.254 42.215 27.794 42.039C28.842 43.284 30.376 43.998 32.002 43.998C33.628 43.998 35.162 43.284 36.126 42.073C37.746 42.212 39.336 41.634 40.487 40.483C41.194 39.776 41.683 38.902 41.916 37.976C41.843 37.98 41.775 37.998 41.702 37.998L41.701 37.999ZM23.978 26.676C24.468 26.255 25.105 26 25.8 26H26.943C27.963 26 28.91 26.339 29.674 26.909C30.272 26.326 31.09 25.981 32 25.981C32.754 25.981 33.445 26.218 34.001 26.632C34.496 26.222 35.095 26.006 35.765 26.005C36.202 26.008 36.619 26.115 36.993 26.305C37.745 25.917 38.749 25.915 39.501 26.301C39.876 26.109 40.301 26 40.751 26H41.701C41.775 26 41.844 26.018 41.918 26.022C41.675 25.084 41.189 24.217 40.486 23.514C39.336 22.365 37.751 21.783 36.209 21.959C35.161 20.714 33.627 20 32.001 20C30.375 20 28.841 20.714 27.877 21.925C26.253 21.785 24.666 22.364 23.516 23.515C22.807 24.225 22.316 25.103 22.084 26.032C22.773 26.101 23.42 26.323 23.979 26.676H23.978Z" fill="#2D423A" style="fill:#2D423A;fill:color(display-p3 0.1765 0.2588 0.2275);fill-opacity:1;"/>
</g>
<defs>
<clipPath id="clip0_7593_10394">
<rect width="24" height="24" fill="white" style="fill:white;fill-opacity:1;" transform="translate(20 20)"/>
</clipPath>
</defs>
</svg>
