<svg width="64" height="64" viewBox="0 0 64 64" fill="none" xmlns="http://www.w3.org/2000/svg">
<rect width="64" height="64" rx="16" fill="white" style="fill:white;fill-opacity:1;"/>
<g clip-path="url(#clip0_7592_9952)">
<path d="M25.5 41C24.837 41 24.2011 40.7366 23.7322 40.2678C23.2634 39.7989 23 39.163 23 38.5V21.5C23 21.1022 22.842 20.7206 22.5607 20.4393C22.2794 20.158 21.8978 20 21.5 20C21.1022 20 20.7206 20.158 20.4393 20.4393C20.158 20.7206 20 21.1022 20 21.5V38.5C20 39.9587 20.5795 41.3576 21.6109 42.3891C22.6424 43.4205 24.0413 44 25.5 44H42.5C42.8978 44 43.2794 43.842 43.5607 43.5607C43.842 43.2794 44 42.8978 44 42.5C44 42.1022 43.842 41.7206 43.5607 41.4393C43.2794 41.158 42.8978 41 42.5 41H25.5Z" fill="#2D423A" style="fill:#2D423A;fill:color(display-p3 0.1765 0.2588 0.2275);fill-opacity:1;"/>
<path d="M39.5 38C39.8978 38 40.2794 37.842 40.5607 37.5607C40.842 37.2794 41 36.8978 41 36.5V30.5C41 30.1022 40.842 29.7206 40.5607 29.4393C40.2794 29.158 39.8978 29 39.5 29C39.1022 29 38.7206 29.158 38.4393 29.4393C38.158 29.7206 38 30.1022 38 30.5V36.5C38 36.8978 38.158 37.2794 38.4393 37.5607C38.7206 37.842 39.1022 38 39.5 38Z" fill="#2D423A" style="fill:#2D423A;fill:color(display-p3 0.1765 0.2588 0.2275);fill-opacity:1;"/>
<path d="M27.5 38C27.8978 38 28.2794 37.842 28.5607 37.5607C28.842 37.2794 29 36.8978 29 36.5V30.5C29 30.1022 28.842 29.7206 28.5607 29.4393C28.2794 29.158 27.8978 29 27.5 29C27.1022 29 26.7206 29.158 26.4393 29.4393C26.158 29.7206 26 30.1022 26 30.5V36.5C26 36.8978 26.158 37.2794 26.4393 37.5607C26.7206 37.842 27.1022 38 27.5 38Z" fill="#2D423A" style="fill:#2D423A;fill:color(display-p3 0.1765 0.2588 0.2275);fill-opacity:1;"/>
<path d="M33.5 38C33.8978 38 34.2794 37.842 34.5607 37.5607C34.842 37.2794 35 36.8978 35 36.5V25.5C35 25.1022 34.842 24.7206 34.5607 24.4393C34.2794 24.158 33.8978 24 33.5 24C33.1022 24 32.7206 24.158 32.4393 24.4393C32.158 24.7206 32 25.1022 32 25.5V36.5C32 36.8978 32.158 37.2794 32.4393 37.5607C32.7206 37.842 33.1022 38 33.5 38Z" fill="#2D423A" style="fill:#2D423A;fill:color(display-p3 0.1765 0.2588 0.2275);fill-opacity:1;"/>
</g>
<defs>
<clipPath id="clip0_7592_9952">
<rect width="24" height="24" fill="white" style="fill:white;fill-opacity:1;" transform="translate(20 20)"/>
</clipPath>
</defs>
</svg>
