<svg width="64" height="64" viewBox="0 0 64 64" fill="none" xmlns="http://www.w3.org/2000/svg">
<rect width="64" height="64" rx="16" fill="#F5F8F6" style="fill:#F5F8F6;fill:color(display-p3 0.9608 0.9725 0.9647);fill-opacity:1;"/>
<g clip-path="url(#clip0_7592_10034)">
<path d="M31.257 44H25C22.239 44 20 41.761 20 39V25C20 22.239 22.239 20 25 20H33C35.761 20 38 22.239 38 25H35C32.669 25 30.728 26.602 30.174 28.76L26.414 25H28C28.552 25 29 24.552 29 24C29 23.448 28.552 23 28 23H25C23.895 23 23 23.895 23 25V28C23 28.552 23.448 29 24 29C24.552 29 25 28.552 25 28V26.414L30 31.414V39H28C27.448 39 27 39.448 27 40C27 40.552 27.448 41 28 41H30.025C30.127 42.134 30.571 43.17 31.257 44ZM40 27H35.586C33.606 27 32 28.605 32 30.586C32 32.567 38 36.586 38 36.586V35C38 34.448 38.448 34 39 34C39.552 34 40 34.448 40 35V38C40 39.105 39.105 40 38 40H35C34.448 40 34 39.552 34 39C34 38.448 34.448 38 35 38H36.586L32 33.414V40.414C32 42.394 33.605 44 35.586 44H40.414C42.394 44 44 42.395 44 40.414V31C44 28.791 42.209 27 40 27Z" fill="#2D423A" style="fill:#2D423A;fill:color(display-p3 0.1765 0.2588 0.2275);fill-opacity:1;"/>
</g>
<defs>
<clipPath id="clip0_7592_10034">
<rect width="24" height="24" fill="white" style="fill:white;fill-opacity:1;" transform="translate(20 20)"/>
</clipPath>
</defs>
</svg>
