<svg width="64" height="64" viewBox="0 0 64 64" fill="none" xmlns="http://www.w3.org/2000/svg">
<rect width="64" height="64" rx="16" fill="#F5F8F6" style="fill:#F5F8F6;fill:color(display-p3 0.9608 0.9725 0.9647);fill-opacity:1;"/>
<path d="M37 20H27C24.243 20 22 22.243 22 25V39C22 41.757 24.243 44 27 44H37C39.757 44 42 41.757 42 39V25C42 22.243 39.757 20 37 20ZM27.5 24.5C28.328 24.5 29 25.172 29 26C29 26.828 28.328 27.5 27.5 27.5C26.672 27.5 26 26.828 26 26C26 25.172 26.672 24.5 27.5 24.5ZM27.5 39.5C26.672 39.5 26 38.828 26 38C26 37.172 26.672 36.5 27.5 36.5C28.328 36.5 29 37.172 29 38C29 38.828 28.328 39.5 27.5 39.5ZM28.865 33.521C28.546 33.84 28.124 34 27.7 34C27.273 34 26.845 33.838 26.518 33.513L25.837 32.858C25.439 32.476 25.426 31.842 25.809 31.444C26.192 31.045 26.826 31.034 27.223 31.416L27.695 31.87L29.561 30.055C29.957 29.67 30.59 29.678 30.975 30.075C31.36 30.471 31.351 31.104 30.955 31.489L28.864 33.523L28.865 33.521ZM37 39H32C31.448 39 31 38.552 31 38C31 37.448 31.448 37 32 37H37C37.552 37 38 37.448 38 38C38 38.552 37.552 39 37 39ZM37 33H34C33.448 33 33 32.552 33 32C33 31.448 33.448 31 34 31H37C37.552 31 38 31.448 38 32C38 32.552 37.552 33 37 33ZM37 27H32C31.448 27 31 26.552 31 26C31 25.448 31.448 25 32 25H37C37.552 25 38 25.448 38 26C38 26.552 37.552 27 37 27Z" fill="#2D423A" style="fill:#2D423A;fill:color(display-p3 0.1765 0.2588 0.2275);fill-opacity:1;"/>
</svg>
