<svg width="64" height="64" viewBox="0 0 64 64" fill="none" xmlns="http://www.w3.org/2000/svg">
<rect width="64" height="64" rx="16" fill="white" style="fill:white;fill-opacity:1;"/>
<path d="M39 23H25C22.239 23 20 25.239 20 28V36C20 38.761 22.239 41 25 41H39C41.761 41 44 38.761 44 36V28C44 25.239 41.761 23 39 23ZM26.802 37.359C24.893 36.91 23.398 35.301 23.073 33.367C22.604 30.576 24.45 28.118 27 27.6V32.085C27 32.615 27.211 33.124 27.586 33.499L30.755 36.668C29.662 37.392 28.272 37.704 26.802 37.359ZM32.168 35.254L29.292 32.378C29.104 32.19 28.999 31.936 28.999 31.671V27.601C31.281 28.064 32.999 30.081 32.999 32.5C32.999 33.519 32.691 34.464 32.167 35.254H32.168ZM40 37H37C36.448 37 36 36.552 36 36C36 35.448 36.448 35 37 35H40C40.552 35 41 35.448 41 36C41 36.552 40.552 37 40 37ZM40 33H37C36.448 33 36 32.552 36 32C36 31.448 36.448 31 37 31H40C40.552 31 41 31.448 41 32C41 32.552 40.552 33 40 33ZM40 29H37C36.448 29 36 28.552 36 28C36 27.448 36.448 27 37 27H40C40.552 27 41 27.448 41 28C41 28.552 40.552 29 40 29Z" fill="#2D423A" style="fill:#2D423A;fill:color(display-p3 0.1765 0.2588 0.2275);fill-opacity:1;"/>
</svg>
