<svg width="65" height="64" viewBox="0 0 65 64" fill="none" xmlns="http://www.w3.org/2000/svg">
<rect x="0.328125" width="64" height="64" rx="16" fill="#F5F8F6" style="fill:#F5F8F6;fill:color(display-p3 0.9608 0.9725 0.9647);fill-opacity:1;"/>
<g clip-path="url(#clip0_7594_9999)">
<path d="M44.0351 40.588L41.5001 43.123C40.9151 43.707 40.1461 44 39.3781 44C38.6101 44 37.8421 43.708 37.2571 43.124L34.6211 40.488C34.2301 40.097 34.2301 39.465 34.6211 39.074C35.0121 38.683 35.6441 38.683 36.0351 39.074L38.3281 41.367V21C38.3281 20.448 38.7751 20 39.3281 20C39.8811 20 40.3281 20.448 40.3281 21V41.467L42.6211 39.174C43.0121 38.783 43.6441 38.783 44.0351 39.174C44.4261 39.565 44.4261 40.197 44.0351 40.588ZM26.8281 22C23.2381 22 20.3281 23.343 20.3281 25C20.3281 26.657 23.2381 28 26.8281 28C30.4181 28 33.3281 26.657 33.3281 25C33.3281 23.343 30.4181 22 26.8281 22ZM26.8281 34C23.0361 34 20.3281 32.471 20.3281 30.5V32.5C20.3281 34.495 23.1221 36 26.8281 36C30.5341 36 33.3281 34.495 33.3281 32.5V30.5C33.3281 32.471 30.6201 34 26.8281 34ZM26.8281 30C23.0361 30 20.3281 28.471 20.3281 26.5V28.5C20.3281 30.495 23.1221 32 26.8281 32C30.5341 32 33.3281 30.495 33.3281 28.5V26.5C33.3281 28.471 30.6201 30 26.8281 30ZM26.8281 42C23.0361 42 20.3281 40.471 20.3281 38.5V40.5C20.3281 42.495 23.1221 44 26.8281 44C30.5341 44 33.3281 42.495 33.3281 40.5V38.5C33.3281 40.471 30.6201 42 26.8281 42ZM26.8281 38C23.0361 38 20.3281 36.471 20.3281 34.5V36.5C20.3281 38.495 23.1221 40 26.8281 40C30.5341 40 33.3281 38.495 33.3281 36.5V34.5C33.3281 36.471 30.6201 38 26.8281 38Z" fill="#2D423A" style="fill:#2D423A;fill:color(display-p3 0.1765 0.2588 0.2275);fill-opacity:1;"/>
</g>
<defs>
<clipPath id="clip0_7594_9999">
<rect width="24" height="24" fill="white" style="fill:white;fill-opacity:1;" transform="translate(20.3281 20)"/>
</clipPath>
</defs>
</svg>
