<svg width="65" height="64" viewBox="0 0 65 64" fill="none" xmlns="http://www.w3.org/2000/svg">
<rect x="0.664062" width="64" height="64" rx="16" fill="#F5F8F6" style="fill:#F5F8F6;fill:color(display-p3 0.9608 0.9725 0.9647);fill-opacity:1;"/>
<g clip-path="url(#clip0_7592_10042)">
<path d="M20.6641 30V38C20.6641 40.757 22.9071 43 25.6641 43H39.6641C42.4211 43 44.6641 40.757 44.6641 38V30H20.6641ZM29.6641 39C29.6641 39.553 29.2161 40 28.6641 40C28.1121 40 27.6641 39.553 27.6641 39V37C27.6641 36.447 28.1121 36 28.6641 36C29.2161 36 29.6641 36.447 29.6641 37V39ZM33.6641 39C33.6641 39.553 33.2161 40 32.6641 40C32.1121 40 31.6641 39.553 31.6641 39V33C31.6641 32.447 32.1121 32 32.6641 32C33.2161 32 33.6641 32.447 33.6641 33V39ZM37.6641 39C37.6641 39.553 37.2161 40 36.6641 40C36.1121 40 35.6641 39.553 35.6641 39V35C35.6641 34.447 36.1121 34 36.6641 34C37.2161 34 37.6641 34.447 37.6641 35V39ZM39.6641 21H25.6641C22.9071 21 20.6641 23.243 20.6641 26V28H44.6641V26C44.6641 23.243 42.4211 21 39.6641 21ZM25.1641 26C24.3361 26 23.6641 25.328 23.6641 24.5C23.6641 23.672 24.3361 23 25.1641 23C25.9921 23 26.6641 23.672 26.6641 24.5C26.6641 25.328 25.9921 26 25.1641 26ZM29.1641 26C28.3361 26 27.6641 25.328 27.6641 24.5C27.6641 23.672 28.3361 23 29.1641 23C29.9921 23 30.6641 23.672 30.6641 24.5C30.6641 25.328 29.9921 26 29.1641 26Z" fill="#2D423A" style="fill:#2D423A;fill:color(display-p3 0.1765 0.2588 0.2275);fill-opacity:1;"/>
</g>
<defs>
<clipPath id="clip0_7592_10042">
<rect width="24" height="24" fill="white" style="fill:white;fill-opacity:1;" transform="translate(20.6641 20)"/>
</clipPath>
</defs>
</svg>
