<svg width="64" height="64" viewBox="0 0 64 64" fill="none" xmlns="http://www.w3.org/2000/svg">
<rect width="64" height="64" rx="16" fill="white" style="fill:white;fill-opacity:1;"/>
<path d="M20 30V38C20 40.757 22.243 43 25 43H39C41.757 43 44 40.757 44 38V30H20ZM29 39C29 39.553 28.552 40 28 40C27.448 40 27 39.553 27 39V37C27 36.447 27.448 36 28 36C28.552 36 29 36.447 29 37V39ZM33 39C33 39.553 32.552 40 32 40C31.448 40 31 39.553 31 39V33C31 32.447 31.448 32 32 32C32.552 32 33 32.447 33 33V39ZM37 39C37 39.553 36.552 40 36 40C35.448 40 35 39.553 35 39V35C35 34.447 35.448 34 36 34C36.552 34 37 34.447 37 35V39ZM39 21H25C22.243 21 20 23.243 20 26V28H44V26C44 23.243 41.757 21 39 21ZM24.5 26C23.672 26 23 25.328 23 24.5C23 23.672 23.672 23 24.5 23C25.328 23 26 23.672 26 24.5C26 25.328 25.328 26 24.5 26ZM28.5 26C27.672 26 27 25.328 27 24.5C27 23.672 27.672 23 28.5 23C29.328 23 30 23.672 30 24.5C30 25.328 29.328 26 28.5 26Z" fill="#2D423A" style="fill:#2D423A;fill:color(display-p3 0.1765 0.2588 0.2275);fill-opacity:1;"/>
</svg>
