<svg width="64" height="64" viewBox="0 0 64 64" fill="none" xmlns="http://www.w3.org/2000/svg">
<rect width="64" height="64" rx="16" fill="white" style="fill:white;fill-opacity:1;"/>
<g clip-path="url(#clip0_7596_10229)">
<path d="M40 20H24C21.794 20 20 21.794 20 24V36C20 38.206 21.794 40 24 40H26.923L30.672 43.157C31.054 43.496 31.533 43.664 32.009 43.664C32.477 43.664 32.94 43.501 33.301 43.18L37.149 40H40.001C42.207 40 44.001 38.206 44.001 36V24C44.001 21.794 42.206 20 40 20ZM27 32C26.172 32 25.5 31.328 25.5 30.5C25.5 29.672 26.172 29 27 29C27.828 29 28.5 29.672 28.5 30.5C28.5 31.328 27.828 32 27 32ZM32 32C31.172 32 30.5 31.328 30.5 30.5C30.5 29.672 31.172 29 32 29C32.828 29 33.5 29.672 33.5 30.5C33.5 31.328 32.828 32 32 32ZM37 32C36.172 32 35.5 31.328 35.5 30.5C35.5 29.672 36.172 29 37 29C37.828 29 38.5 29.672 38.5 30.5C38.5 31.328 37.828 32 37 32Z" fill="#D4512E" style="fill:#D4512E;fill:color(display-p3 0.8314 0.3176 0.1804);fill-opacity:1;"/>
</g>
<defs>
<clipPath id="clip0_7596_10229">
<rect width="24" height="24" fill="white" style="fill:white;fill-opacity:1;" transform="translate(20 20)"/>
</clipPath>
</defs>
</svg>
