<svg width="64" height="64" viewBox="0 0 64 64" fill="none" xmlns="http://www.w3.org/2000/svg">
<rect width="64" height="64" rx="16" fill="#F5F8F6" style="fill:#F5F8F6;fill:color(display-p3 0.9608 0.9725 0.9647);fill-opacity:1;"/>
<path d="M40.4804 40.0005C40.2907 40.0003 40.105 39.9462 39.945 39.8445C39.7849 39.7429 39.6571 39.5977 39.5763 39.4261C39.4956 39.2545 39.4654 39.0635 39.4891 38.8754C39.5128 38.6872 39.5896 38.5097 39.7104 38.3635C41.1786 36.5679 41.9807 34.3199 41.9807 32.0005C41.9807 29.6811 41.1786 27.433 39.7104 25.6375C39.6267 25.5362 39.5638 25.4194 39.5253 25.2938C39.4868 25.1681 39.4734 25.0362 39.4859 24.9054C39.4984 24.7746 39.5365 24.6475 39.5981 24.5315C39.6597 24.4154 39.7435 24.3126 39.8449 24.229C40.0495 24.0601 40.3128 23.9793 40.577 24.0045C40.8411 24.0298 41.0844 24.1589 41.2534 24.3635C43.0149 26.5188 43.9772 29.2169 43.9772 32.0005C43.9772 34.7841 43.0149 37.4822 41.2534 39.6375C41.1593 39.7513 41.0412 39.8429 40.9076 39.9057C40.7739 39.9684 40.628 40.0008 40.4804 40.0005ZM24.1474 39.7715C24.2487 39.6879 24.3326 39.5852 24.3942 39.4692C24.4558 39.3532 24.494 39.2262 24.5065 39.0955C24.5191 38.9647 24.5057 38.8328 24.4673 38.7072C24.4288 38.5816 24.366 38.4648 24.2824 38.3635C22.8142 36.5679 22.0121 34.3199 22.0121 32.0005C22.0121 29.6811 22.8142 27.433 24.2824 25.6375C24.366 25.5362 24.4289 25.4195 24.4674 25.294C24.506 25.1684 24.5194 25.0365 24.507 24.9057C24.4945 24.775 24.4565 24.648 24.3949 24.532C24.3334 24.4159 24.2496 24.3131 24.1484 24.2295C24.0471 24.1458 23.9304 24.083 23.8048 24.0444C23.6793 24.0059 23.5474 23.9924 23.4166 24.0049C23.2859 24.0173 23.1589 24.0554 23.0428 24.1169C22.9268 24.1785 22.824 24.2622 22.7404 24.3635C20.9783 26.5186 20.0156 29.2167 20.0156 32.0005C20.0156 34.7843 20.9783 37.4824 22.7404 39.6375C22.9093 39.8417 23.1523 39.9705 23.4161 39.9956C23.68 40.0208 23.943 39.9402 24.1474 39.7715ZM39.9964 32.0005C39.994 34.1215 39.1504 36.1549 37.6506 37.6547C36.1508 39.1545 34.1174 39.9981 31.9964 40.0005C21.4084 39.6245 21.4114 24.3745 31.9964 24.0005C34.1174 24.0029 36.1508 24.8465 37.6506 26.3463C39.1504 27.846 39.994 29.8795 39.9964 32.0005ZM32.9964 36.0005C32.9964 35.7353 32.891 35.4809 32.7035 35.2934C32.5159 35.1059 32.2616 35.0005 31.9964 35.0005C31.7311 35.0005 31.4768 35.1059 31.2893 35.2934C31.1017 35.4809 30.9964 35.7353 30.9964 36.0005C30.9964 36.2657 31.1017 36.5201 31.2893 36.7076C31.4768 36.8951 31.7311 37.0005 31.9964 37.0005C32.2616 37.0005 32.5159 36.8951 32.7035 36.7076C32.891 36.5201 32.9964 36.2657 32.9964 36.0005ZM32.9964 28.0005C32.9964 27.7353 32.891 27.4809 32.7035 27.2934C32.5159 27.1059 32.2616 27.0005 31.9964 27.0005C31.7311 27.0005 31.4768 27.1059 31.2893 27.2934C31.1017 27.4809 30.9964 27.7353 30.9964 28.0005V32.0005C30.9964 32.2657 31.1017 32.5201 31.2893 32.7076C31.4768 32.8951 31.7311 33.0005 31.9964 33.0005C32.2616 33.0005 32.5159 32.8951 32.7035 32.7076C32.891 32.5201 32.9964 32.2657 32.9964 32.0005V28.0005Z" fill="#355146" style="fill:#355146;fill:color(display-p3 0.2078 0.3176 0.2745);fill-opacity:1;"/>
</svg>
