<svg width="64" height="64" viewBox="0 0 64 64" fill="none" xmlns="http://www.w3.org/2000/svg">
<rect width="64" height="64" rx="16" fill="#F5F8F6" style="fill:#F5F8F6;fill:color(display-p3 0.9608 0.9725 0.9647);fill-opacity:1;"/>
<g clip-path="url(#clip0_7593_10404)">
<path d="M40 20H24C21.794 20 20 21.794 20 24V36C20 38.206 21.794 40 24 40H26.923L30.671 43.157C31.053 43.496 31.533 43.664 32.008 43.664C32.476 43.664 32.939 43.502 33.301 43.18L37.148 40H40C42.206 40 44 38.206 44 36V24C44 21.794 42.206 20 40 20ZM37.702 27.712L31.909 33.419C31.523 33.806 31.013 33.999 30.502 33.999C29.991 33.999 29.477 33.804 29.086 33.414L26.304 30.718C25.907 30.333 25.897 29.7 26.282 29.304C26.667 28.907 27.3 28.898 27.696 29.282L30.489 31.989L36.298 26.288C36.694 25.901 37.325 25.905 37.712 26.299C38.1 26.692 38.096 27.324 37.702 27.712Z" fill="#2D423A" style="fill:#2D423A;fill:color(display-p3 0.1765 0.2588 0.2275);fill-opacity:1;"/>
</g>
<defs>
<clipPath id="clip0_7593_10404">
<rect width="24" height="24" fill="white" style="fill:white;fill-opacity:1;" transform="translate(20 20)"/>
</clipPath>
</defs>
</svg>
