<svg width="64" height="64" viewBox="0 0 64 64" fill="none" xmlns="http://www.w3.org/2000/svg">
<rect width="64" height="64" rx="16" fill="white" style="fill:white;fill-opacity:1;"/>
<path d="M28.001 39.9984H36.001V40.3084C36.001 42.3434 34.346 43.9984 32.311 43.9984H31.692C29.657 43.9984 28.002 42.3434 28.002 40.3084V39.9984H28.001ZM41.001 28.9984C41.001 31.5884 39.883 34.0534 37.933 35.7614C37.194 36.4094 36.658 37.1744 36.339 37.9984H27.564C27.206 37.1214 26.638 36.2964 25.869 35.5814C23.72 33.5804 22.702 30.7514 23.076 27.8204C23.591 23.7804 26.905 20.5154 30.957 20.0574C33.524 19.7684 36.087 20.5794 37.995 22.2844C39.905 23.9914 41.001 26.4384 41.001 28.9984ZM31.001 30.0004C31.001 30.5524 31.448 31.0004 32.001 31.0004C32.554 31.0004 33.001 30.5524 33.001 30.0004V25.0004C33.001 24.4484 32.554 24.0004 32.001 24.0004C31.448 24.0004 31.001 24.4484 31.001 25.0004V30.0004ZM33.501 33.5004C33.501 32.6724 32.829 32.0004 32.001 32.0004C31.173 32.0004 30.501 32.6724 30.501 33.5004C30.501 34.3284 31.173 35.0004 32.001 35.0004C32.829 35.0004 33.501 34.3284 33.501 33.5004Z" fill="#EA7F62" style="fill:#EA7F62;fill:color(display-p3 0.9176 0.4980 0.3843);fill-opacity:1;"/>
</svg>
