<svg width="65" height="64" viewBox="0 0 65 64" fill="none" xmlns="http://www.w3.org/2000/svg">
<rect x="0.328125" width="64" height="64" rx="16" fill="#F5F8F6" style="fill:#F5F8F6;fill:color(display-p3 0.9608 0.9725 0.9647);fill-opacity:1;"/>
<g clip-path="url(#clip0_7594_10007)">
<path d="M28.8291 20C30.2101 20 31.3291 21.119 31.3291 22.5C31.3291 23.881 30.2101 25 28.8291 25C27.4481 25 26.3291 23.881 26.3291 22.5C26.3291 21.119 27.4481 20 28.8291 20ZM32.7731 28.33C32.9131 27.929 32.7851 27.482 32.4521 27.218C31.4671 26.433 30.1801 26 28.8291 26C27.4781 26 26.1911 26.433 25.2061 27.218C24.8731 27.483 24.7451 27.929 24.8851 28.33C25.0261 28.731 25.4051 29 25.8291 29H31.8291C32.2541 29 32.6331 28.731 32.7731 28.33ZM43.4771 28.681C42.9621 28.212 42.2911 27.969 41.5991 28.003C40.9021 28.035 40.2601 28.337 39.8051 28.838L36.2641 32.575C36.2961 32.785 36.3291 32.995 36.3291 33.213C36.3291 35.296 34.7741 37.089 32.7121 37.383L28.4601 37.979C27.9131 38.057 27.4071 37.677 27.3291 37.131C27.2511 36.584 27.6311 36.078 28.1771 36L32.3391 35.417C33.2751 35.283 34.0871 34.611 34.2791 33.685C34.5751 32.26 33.4891 31 32.1151 31H24.3281C22.1191 31 20.3281 32.791 20.3281 35V40C20.3281 42.209 22.1191 44 24.3281 44H28.5901C31.3951 44 34.0701 42.822 35.9641 40.754L43.6661 32.345C44.6141 31.283 44.5281 29.639 43.4771 28.681Z" fill="#2D423A" style="fill:#2D423A;fill:color(display-p3 0.1765 0.2588 0.2275);fill-opacity:1;"/>
</g>
<defs>
<clipPath id="clip0_7594_10007">
<rect width="24" height="24" fill="white" style="fill:white;fill-opacity:1;" transform="translate(20.3281 20)"/>
</clipPath>
</defs>
</svg>
