<svg width="64" height="64" viewBox="0 0 64 64" fill="none" xmlns="http://www.w3.org/2000/svg">
<rect width="64" height="64" rx="16" fill="#F5F8F6" style="fill:#F5F8F6;fill:color(display-p3 0.9608 0.9725 0.9647);fill-opacity:1;"/>
<g clip-path="url(#clip0_7593_10420)">
<path d="M39.68 35.667V36C39.68 37.105 38.849 38 37.823 38H37.204C36.178 38 35.347 37.105 35.347 36C35.347 37.105 34.516 38 33.49 38H32.871C31.942 38 31.172 37.265 31.035 36.306C31.007 36.107 31.053 35.903 31.13 35.717L31.485 34.856C31.948 33.733 33.043 33 34.258 33H40.767C41.982 33 43.077 33.733 43.54 34.856L43.895 35.717C43.972 35.903 44.019 36.107 43.99 36.306C43.853 37.265 43.084 38 42.154 38H41.535C40.509 38 39.678 37.105 39.678 36M33.998 26C33.998 22.691 31.307 20 27.998 20C24.689 20 22 22.691 22 26C22 29.309 24.691 32 28 32C31.309 32 34 29.309 34 26H33.998ZM42.154 40H41.535C40.862 40 40.229 39.82 39.679 39.505C39.127 39.82 38.494 40 37.822 40H37.203C36.53 40 35.897 39.82 35.346 39.505C34.795 39.82 34.162 40 33.49 40H32.871C32.576 40 32.292 39.953 32.014 39.887V41C32.014 42.654 33.36 44 35.014 44H40.014C41.668 44 43.014 42.654 43.014 41V39.887C42.736 39.954 42.451 40 42.157 40H42.154ZM30.012 41V38.661C29.517 38.093 29.167 37.385 29.053 36.588C28.978 36.054 29.053 35.506 29.278 34.959L29.606 34.162C29.086 34.056 28.549 34 27.998 34C23.589 34 20 37.589 20 42V43C20 43.552 20.447 44 21 44H31.039C30.404 43.162 30.012 42.13 30.012 41Z" fill="#2D423A" style="fill:#2D423A;fill:color(display-p3 0.1765 0.2588 0.2275);fill-opacity:1;"/>
</g>
<defs>
<clipPath id="clip0_7593_10420">
<rect width="24" height="24" fill="white" style="fill:white;fill-opacity:1;" transform="translate(20 20)"/>
</clipPath>
</defs>
</svg>
