<svg width="64" height="64" viewBox="0 0 64 64" fill="none" xmlns="http://www.w3.org/2000/svg">
<rect width="64" height="64" rx="16" fill="white" style="fill:white;fill-opacity:1;"/>
<g clip-path="url(#clip0_7596_10234)">
<path d="M43.707 43.7089C43.512 43.9039 43.256 44.0019 43 44.0019C42.744 44.0019 42.488 43.9039 42.293 43.7089L36.324 37.7399C34.599 39.1519 32.397 40.0019 30 40.0019C24.486 40.0019 20 35.5159 20 30.0019C20 24.4879 24.486 20.0019 30 20.0019C33.009 20.0019 35.705 21.3439 37.54 23.4539L31.422 30.5099L29.494 28.5819C29.092 28.1799 28.531 27.9659 27.97 27.9909C27.404 28.0169 26.87 28.2819 26.508 28.7169L23.232 32.6479C22.878 33.0719 22.936 33.7029 23.36 34.0559C23.548 34.2119 23.774 34.2879 24 34.2879C24.287 34.2879 24.571 34.1649 24.77 33.9279L28.082 29.9949L30.01 31.9229C30.406 32.3189 30.958 32.5289 31.515 32.5149C32.076 32.4939 32.607 32.2389 32.973 31.8149L38.736 25.1429C39.54 26.5829 40.003 28.2379 40.003 30.0009C40.003 32.3989 39.153 34.6009 37.741 36.3249L43.71 42.2939C44.101 42.6849 44.101 43.3169 43.71 43.7079L43.707 43.7089ZM41.751 21.6499C42.112 21.2319 42.065 20.5999 41.647 20.2389C41.231 19.8799 40.599 19.9229 40.237 20.3419L37.539 23.4529C37.992 23.9729 38.394 24.5369 38.732 25.1429L41.75 21.6489L41.751 21.6499Z" fill="#D4512E" style="fill:#D4512E;fill:color(display-p3 0.8314 0.3176 0.1804);fill-opacity:1;"/>
</g>
<defs>
<clipPath id="clip0_7596_10234">
<rect width="24" height="24" fill="white" style="fill:white;fill-opacity:1;" transform="translate(20 20)"/>
</clipPath>
</defs>
</svg>
