<svg width="65" height="64" viewBox="0 0 65 64" fill="none" xmlns="http://www.w3.org/2000/svg">
<rect x="0.664062" width="64" height="64" rx="16" fill="#F5F8F6" style="fill:#F5F8F6;fill:color(display-p3 0.9608 0.9725 0.9647);fill-opacity:1;"/>
<g clip-path="url(#clip0_7592_10027)">
<path d="M30.6641 43C30.6641 43.2652 30.5587 43.5196 30.3712 43.7071C30.1836 43.8946 29.9293 44 29.6641 44H21.6641C21.3988 44 21.1445 43.8946 20.957 43.7071C20.7694 43.5196 20.6641 43.2652 20.6641 43C20.6641 42.7348 20.7694 42.4804 20.957 42.2929C21.1445 42.1054 21.3988 42 21.6641 42H29.6641C29.9293 42 30.1836 42.1054 30.3712 42.2929C30.5587 42.4804 30.6641 42.7348 30.6641 43Z" fill="#2D423A" style="fill:#2D423A;fill:color(display-p3 0.1765 0.2588 0.2275);fill-opacity:1;"/>
<path d="M21.6641 40H27.6641C27.9293 40 28.1836 39.8946 28.3712 39.7071C28.5587 39.5196 28.6641 39.2652 28.6641 39C28.6641 38.7348 28.5587 38.4804 28.3712 38.2929C28.1836 38.1054 27.9293 38 27.6641 38H21.6641C21.3988 38 21.1445 38.1054 20.957 38.2929C20.7694 38.4804 20.6641 38.7348 20.6641 39C20.6641 39.2652 20.7694 39.5196 20.957 39.7071C21.1445 39.8946 21.3988 40 21.6641 40Z" fill="#2D423A" style="fill:#2D423A;fill:color(display-p3 0.1765 0.2588 0.2275);fill-opacity:1;"/>
<path d="M21.6641 36H25.6641C25.9293 36 26.1836 35.8946 26.3712 35.7071C26.5587 35.5196 26.6641 35.2652 26.6641 35C26.6641 34.7348 26.5587 34.4804 26.3712 34.2929C26.1836 34.1054 25.9293 34 25.6641 34H21.6641C21.3988 34 21.1445 34.1054 20.957 34.2929C20.7694 34.4804 20.6641 34.7348 20.6641 35C20.6641 35.2652 20.7694 35.5196 20.957 35.7071C21.1445 35.8946 21.3988 36 21.6641 36Z" fill="#2D423A" style="fill:#2D423A;fill:color(display-p3 0.1765 0.2588 0.2275);fill-opacity:1;"/>
<path d="M32.6641 20C29.4815 20 26.4292 21.2643 24.1788 23.5147C21.9283 25.7652 20.6641 28.8174 20.6641 32C20.6641 32.061 20.6721 32.12 20.6731 32.181C20.9907 32.0646 21.3258 32.0034 21.6641 32H25.6641C26.155 31.9983 26.6387 32.1176 27.0726 32.3472C27.5065 32.5768 27.8772 32.9097 28.152 33.3165C28.4267 33.7233 28.5971 34.1915 28.648 34.6797C28.699 35.168 28.6289 35.6612 28.4441 36.116C28.8535 36.2234 29.2353 36.417 29.564 36.6838C29.8926 36.9506 30.1605 37.2845 30.3498 37.6631C30.5392 38.0417 30.6455 38.4564 30.6617 38.8794C30.678 39.3024 30.6038 39.724 30.4441 40.116C30.844 40.218 31.218 40.4028 31.542 40.6585C31.866 40.9142 32.1327 41.235 32.3249 41.6003C32.5171 41.9655 32.6305 42.367 32.6577 42.7788C32.685 43.1907 32.6255 43.6036 32.4831 43.991C32.5441 43.991 32.6031 44 32.6641 44C35.8467 44 38.8989 42.7357 41.1493 40.4853C43.3998 38.2348 44.6641 35.1826 44.6641 32C44.6641 28.8174 43.3998 25.7652 41.1493 23.5147C38.8989 21.2643 35.8467 20 32.6641 20ZM36.3711 35.707C36.1835 35.8945 35.9292 35.9998 35.6641 35.9998C35.3989 35.9998 35.1446 35.8945 34.9571 35.707L31.9571 32.707C31.7695 32.5195 31.6641 32.2652 31.6641 32V27C31.6641 26.7348 31.7694 26.4804 31.957 26.2929C32.1445 26.1054 32.3988 26 32.6641 26C32.9293 26 33.1836 26.1054 33.3712 26.2929C33.5587 26.4804 33.6641 26.7348 33.6641 27V31.586L36.3711 34.293C36.5585 34.4805 36.6638 34.7348 36.6638 35C36.6638 35.2652 36.5585 35.5195 36.3711 35.707Z" fill="#2D423A" style="fill:#2D423A;fill:color(display-p3 0.1765 0.2588 0.2275);fill-opacity:1;"/>
</g>
<defs>
<clipPath id="clip0_7592_10027">
<rect width="24" height="24" fill="white" style="fill:white;fill-opacity:1;" transform="translate(20.6641 20)"/>
</clipPath>
</defs>
</svg>
