<svg width="64" height="64" viewBox="0 0 64 64" fill="none" xmlns="http://www.w3.org/2000/svg">
<rect width="64" height="64" rx="16" fill="#F5F8F6" style="fill:#F5F8F6;fill:color(display-p3 0.9608 0.9725 0.9647);fill-opacity:1;"/>
<g clip-path="url(#clip0_7592_10049)">
<path d="M38 32C34.686 32 32 34.686 32 38C32 41.314 34.686 44 38 44C41.314 44 44 41.314 44 38C44 34.686 41.314 32 38 32ZM41.683 37.712L38.98 40.326C38.528 40.772 37.928 40.997 37.327 40.997C36.726 40.997 36.124 40.772 35.664 40.323L34.31 38.991C33.915 38.604 33.91 37.971 34.296 37.577C34.682 37.182 35.315 37.176 35.71 37.563L37.064 38.894C37.208 39.036 37.444 39.033 37.586 38.892L40.299 36.268C40.696 35.887 41.33 35.898 41.713 36.297C42.095 36.695 42.082 37.328 41.684 37.711L41.683 37.712ZM38 30V24.5C38 22.019 35.982 20 33.5 20H24.5C22.018 20 20 22.019 20 24.5V43C20 43.371 20.205 43.711 20.533 43.885C20.861 44.057 21.258 44.035 21.564 43.825L23.669 42.386L25.775 43.825C25.945 43.941 26.142 44 26.339 44C26.536 44 26.734 43.941 26.904 43.825L29.004 42.386L31.104 43.825C31.445 44.057 31.893 44.057 32.234 43.825L32.401 43.71C30.92 42.258 29.999 40.237 29.999 37.999C29.999 33.581 33.581 29.999 37.999 29.999L38 30ZM28.25 33H28V34C28 34.552 27.553 35 27 35C26.447 35 26 34.552 26 34V33H25.516C24.4 33 23.554 32.226 23.135 31.501C22.858 31.023 23.022 30.411 23.499 30.135C23.976 29.858 24.589 30.021 24.865 30.499C25.031 30.785 25.31 31 25.515 31H28.249C28.662 31 28.999 30.664 28.999 30.25C28.999 29.98 28.806 29.752 28.54 29.708L25.165 29.27C23.895 29.059 22.999 28.001 22.999 26.75C22.999 25.233 24.232 24 25.749 24H25.999V23C25.999 22.448 26.446 22 26.999 22C27.552 22 27.999 22.448 27.999 23V24H28.483C29.599 24 30.445 24.774 30.864 25.499C31.141 25.977 30.977 26.589 30.5 26.865C30.023 27.141 29.41 26.978 29.134 26.501C28.968 26.215 28.689 26 28.484 26H25.75C25.337 26 25 26.337 25 26.75C25 27.02 25.193 27.247 25.459 27.292L28.834 27.73C30.104 27.941 31 28.999 31 30.25C31 31.767 29.767 33 28.25 33Z" fill="#2D423A" style="fill:#2D423A;fill:color(display-p3 0.1765 0.2588 0.2275);fill-opacity:1;"/>
</g>
<defs>
<clipPath id="clip0_7592_10049">
<rect width="24" height="24" fill="white" style="fill:white;fill-opacity:1;" transform="translate(20 20)"/>
</clipPath>
</defs>
</svg>
