<svg width="64" height="64" viewBox="0 0 64 64" fill="none" xmlns="http://www.w3.org/2000/svg">
<rect width="64" height="64" rx="16" fill="#F5F8F6" style="fill:#F5F8F6;fill:color(display-p3 0.9608 0.9725 0.9647);fill-opacity:1;"/>
<g clip-path="url(#clip0_7593_10399)">
<path d="M43.7088 42.2948L37.7458 36.3318C39.1578 34.6068 40.0078 32.4048 40.0078 30.0078C40.0078 24.4938 35.5218 20.0078 30.0078 20.0078C24.4938 20.0078 20.0078 24.4938 20.0078 30.0078C20.0078 35.5218 24.4938 40.0078 30.0078 40.0078C32.4058 40.0078 34.6078 39.1578 36.3318 37.7458L42.2948 43.7088C42.4898 43.9038 42.7458 44.0018 43.0018 44.0018C43.2578 44.0018 43.5138 43.9038 43.7088 43.7088C44.0998 43.3178 44.0998 42.6858 43.7088 42.2948ZM30.0018 36.0018C29.1738 36.0018 28.5018 35.3298 28.5018 34.5018C28.5018 33.6738 29.1738 33.0018 30.0018 33.0018C30.8298 33.0018 31.5018 33.6738 31.5018 34.5018C31.5018 35.3298 30.8298 36.0018 30.0018 36.0018ZM31.3808 29.6668C31.2068 29.7568 31.0768 29.9538 31.0258 30.2048C31.0098 30.2788 31.0028 30.3548 31.0028 30.4318V31.0028C31.0028 31.5548 30.5558 32.0028 30.0028 32.0028C29.4498 32.0028 29.0028 31.5548 29.0028 31.0028V30.4318C29.0028 30.2188 29.0238 30.0058 29.0678 29.7988C29.2418 28.9568 29.7498 28.2608 30.4608 27.8918C30.7958 27.7188 31.0028 27.3778 31.0028 27.0028C31.0028 26.4518 30.5548 26.0028 30.0028 26.0028C29.4508 26.0028 29.0028 26.4518 29.0028 27.0028C29.0028 27.5538 28.5558 28.0028 28.0028 28.0028C27.4498 28.0028 27.0028 27.5548 27.0028 27.0028C27.0028 25.3488 28.3488 24.0028 30.0028 24.0028C31.6568 24.0028 33.0028 25.3488 33.0028 27.0028C33.0028 28.1278 32.3818 29.1488 31.3818 29.6678L31.3808 29.6668Z" fill="#2D423A" style="fill:#2D423A;fill:color(display-p3 0.1765 0.2588 0.2275);fill-opacity:1;"/>
</g>
<defs>
<clipPath id="clip0_7593_10399">
<rect width="24" height="24" fill="white" style="fill:white;fill-opacity:1;" transform="translate(20 20)"/>
</clipPath>
</defs>
</svg>
