<svg width="64" height="64" viewBox="0 0 64 64" fill="none" xmlns="http://www.w3.org/2000/svg">
<rect width="64" height="64" rx="16" fill="#F5F8F6" style="fill:#F5F8F6;fill:color(display-p3 0.9608 0.9725 0.9647);fill-opacity:1;"/>
<g clip-path="url(#clip0_7593_10414)">
<path d="M30.559 30.728C30.43 31.056 30.315 31.381 30.211 31.705C30.004 32.346 30.494 33.001 31.167 33.001C31.607 33.001 31.987 32.711 32.122 32.292C32.208 32.024 32.302 31.755 32.407 31.488C33.531 28.47 36.374 24.845 39.995 22.841C37.856 25.192 35.38 28.956 34.767 31.082C36.131 30.71 37.673 30.038 39.167 28.831C42.096 26.466 43.515 23.06 43.969 21.272C44.134 20.621 43.632 20.003 42.96 20.002C41.19 20.001 37.64 20.353 34.767 22.673C31.544 25.276 30.752 29.142 30.559 30.73V30.728ZM23 21.5V25H22.5C21.119 25 20 23.881 20 22.5V21.5C20 20.672 20.672 20 21.5 20C22.328 20 23 20.672 23 21.5ZM43.992 41.168C43.978 41.324 43.962 41.443 43.945 41.5C43.515 42.946 42.175 44 40.59 44H31.24C31.72 43.284 32 42.424 32 41.5C32 40.119 33.119 39 34.5 39H41.998C43.168 39 44.097 40.003 43.991 41.168H43.992ZM30 41.505C29.997 42.985 28.708 44.164 27.19 43.982C25.911 43.828 25 42.647 25 41.358V21.5C25 20.964 24.878 20.455 24.662 20H35.165C34.604 20.324 34.048 20.681 33.51 21.115C29.88 24.047 28.879 28.293 28.607 30.231C28.499 30.519 28.399 30.805 28.306 31.092C28.016 31.996 28.177 32.994 28.738 33.764C29.302 34.538 30.211 35 31.168 35C32.288 35 33.292 34.38 33.81 33.415L35.294 33.01C37.01 32.542 38.585 31.754 40.001 30.694V37.001H34.502C32.014 37.001 30.005 39.018 30.001 41.506L30 41.505Z" fill="#2D423A" style="fill:#2D423A;fill:color(display-p3 0.1765 0.2588 0.2275);fill-opacity:1;"/>
</g>
<defs>
<clipPath id="clip0_7593_10414">
<rect width="24" height="24" fill="white" style="fill:white;fill-opacity:1;" transform="translate(20 20)"/>
</clipPath>
</defs>
</svg>
