<svg width="64" height="64" viewBox="0 0 64 64" fill="none" xmlns="http://www.w3.org/2000/svg">
<rect width="64" height="64" rx="16" fill="white" style="fill:white;fill-opacity:1;"/>
<g clip-path="url(#clip0_7583_10729)">
<path d="M44 32C44 31.428 43.782 30.856 43.346 30.419L40.706 27.791C40.314 27.4 39.682 27.403 39.291 27.795C38.902 28.186 38.903 28.819 39.294 29.209L41.094 31H34.5V27C35.878 27 37 25.879 37 24.5V22.5C37 21.121 35.878 20 34.5 20H32.5C31.122 20 30 21.121 30 22.5V24.5C30 25.879 31.122 27 32.5 27V31H24.5V27C25.878 27 27 25.879 27 24.5V22.5C27 21.121 25.878 20 24.5 20H22.5C21.122 20 20 21.121 20 22.5V24.5C20 25.879 21.122 27 22.5 27V31H21C20.448 31 20 31.447 20 32C20 32.553 20.448 33 21 33H27.5V37C26.122 37 25 38.121 25 39.5V41.5C25 42.879 26.122 44 27.5 44H29.5C30.878 44 32 42.879 32 41.5V39.5C32 38.121 30.878 37 29.5 37V33H41.094L39.295 34.791C38.904 35.181 38.902 35.814 39.292 36.205C39.488 36.401 39.744 36.5 40.001 36.5C40.256 36.5 40.511 36.403 40.707 36.209L43.349 33.579C43.784 33.144 44.002 32.572 44.002 32.001L44 32Z" fill="#2D423A" style="fill:#2D423A;fill:color(display-p3 0.1765 0.2588 0.2275);fill-opacity:1;"/>
</g>
<defs>
<clipPath id="clip0_7583_10729">
<rect width="24" height="24" fill="white" style="fill:white;fill-opacity:1;" transform="translate(20 20)"/>
</clipPath>
</defs>
</svg>
