<svg width="64" height="64" viewBox="0 0 64 64" fill="none" xmlns="http://www.w3.org/2000/svg">
<rect width="64" height="64" rx="16" fill="white" style="fill:white;fill-opacity:1;"/>
<g clip-path="url(#clip0_7583_10723)">
<path d="M43.707 40.588L41.172 43.123C40.587 43.707 39.818 44 39.05 44C38.282 44 37.514 43.708 36.929 43.124L34.293 40.488C33.902 40.097 33.902 39.465 34.293 39.074C34.684 38.683 35.316 38.683 35.707 39.074L38 41.367V21C38 20.448 38.447 20 39 20C39.553 20 40 20.448 40 21V41.467L42.293 39.174C42.684 38.783 43.316 38.783 43.707 39.174C44.098 39.565 44.098 40.197 43.707 40.588ZM26.5 22C22.91 22 20 23.343 20 25C20 26.657 22.91 28 26.5 28C30.09 28 33 26.657 33 25C33 23.343 30.09 22 26.5 22ZM26.5 34C22.708 34 20 32.471 20 30.5V32.5C20 34.495 22.794 36 26.5 36C30.206 36 33 34.495 33 32.5V30.5C33 32.471 30.292 34 26.5 34ZM26.5 30C22.708 30 20 28.471 20 26.5V28.5C20 30.495 22.794 32 26.5 32C30.206 32 33 30.495 33 28.5V26.5C33 28.471 30.292 30 26.5 30ZM26.5 42C22.708 42 20 40.471 20 38.5V40.5C20 42.495 22.794 44 26.5 44C30.206 44 33 42.495 33 40.5V38.5C33 40.471 30.292 42 26.5 42ZM26.5 38C22.708 38 20 36.471 20 34.5V36.5C20 38.495 22.794 40 26.5 40C30.206 40 33 38.495 33 36.5V34.5C33 36.471 30.292 38 26.5 38Z" fill="#2D423A" style="fill:#2D423A;fill:color(display-p3 0.1765 0.2588 0.2275);fill-opacity:1;"/>
</g>
<defs>
<clipPath id="clip0_7583_10723">
<rect width="24" height="24" fill="white" style="fill:white;fill-opacity:1;" transform="translate(20 20)"/>
</clipPath>
</defs>
</svg>
