<svg width="40" height="40" viewBox="0 0 40 40" fill="none" xmlns="http://www.w3.org/2000/svg">
<rect width="40" height="40" rx="8" fill="white" style="fill:white;fill-opacity:1;"/>
<g clip-path="url(#clip0_7579_10493)">
<path d="M18 31C18 31.2652 17.8946 31.5196 17.7071 31.7071C17.5196 31.8946 17.2652 32 17 32H9C8.73478 32 8.48043 31.8946 8.29289 31.7071C8.10536 31.5196 8 31.2652 8 31C8 30.7348 8.10536 30.4804 8.29289 30.2929C8.48043 30.1054 8.73478 30 9 30H17C17.2652 30 17.5196 30.1054 17.7071 30.2929C17.8946 30.4804 18 30.7348 18 31Z" fill="#355146" style="fill:#355146;fill:color(display-p3 0.2078 0.3176 0.2745);fill-opacity:1;"/>
<path d="M9 28H15C15.2652 28 15.5196 27.8946 15.7071 27.7071C15.8946 27.5196 16 27.2652 16 27C16 26.7348 15.8946 26.4804 15.7071 26.2929C15.5196 26.1054 15.2652 26 15 26H9C8.73478 26 8.48043 26.1054 8.29289 26.2929C8.10536 26.4804 8 26.7348 8 27C8 27.2652 8.10536 27.5196 8.29289 27.7071C8.48043 27.8946 8.73478 28 9 28Z" fill="#355146" style="fill:#355146;fill:color(display-p3 0.2078 0.3176 0.2745);fill-opacity:1;"/>
<path d="M9 24H13C13.2652 24 13.5196 23.8946 13.7071 23.7071C13.8946 23.5196 14 23.2652 14 23C14 22.7348 13.8946 22.4804 13.7071 22.2929C13.5196 22.1054 13.2652 22 13 22H9C8.73478 22 8.48043 22.1054 8.29289 22.2929C8.10536 22.4804 8 22.7348 8 23C8 23.2652 8.10536 23.5196 8.29289 23.7071C8.48043 23.8946 8.73478 24 9 24Z" fill="#355146" style="fill:#355146;fill:color(display-p3 0.2078 0.3176 0.2745);fill-opacity:1;"/>
<path d="M20 8C16.8174 8 13.7652 9.26428 11.5147 11.5147C9.26428 13.7652 8 16.8174 8 20C8 20.061 8.008 20.12 8.009 20.181C8.3266 20.0646 8.66176 20.0034 9 20H13C13.4909 19.9983 13.9747 20.1176 14.4086 20.3472C14.8425 20.5768 15.2132 20.9097 15.4879 21.3165C15.7627 21.7233 15.933 22.1915 15.984 22.6797C16.0349 23.168 15.9649 23.6612 15.78 24.116C16.1894 24.2234 16.5712 24.417 16.8999 24.6838C17.2285 24.9506 17.4965 25.2845 17.6858 25.6631C17.8751 26.0417 17.9814 26.4564 17.9977 26.8794C18.0139 27.3024 17.9397 27.724 17.78 28.116C18.1799 28.218 18.554 28.4028 18.878 28.6585C19.2019 28.9142 19.4687 29.235 19.6609 29.6003C19.853 29.9655 19.9664 30.367 19.9937 30.7788C20.0209 31.1907 19.9614 31.6036 19.819 31.991C19.88 31.991 19.939 32 20 32C23.1826 32 26.2348 30.7357 28.4853 28.4853C30.7357 26.2348 32 23.1826 32 20C32 16.8174 30.7357 13.7652 28.4853 11.5147C26.2348 9.26428 23.1826 8 20 8ZM23.707 23.707C23.5195 23.8945 23.2652 23.9998 23 23.9998C22.7348 23.9998 22.4805 23.8945 22.293 23.707L19.293 20.707C19.1055 20.5195 19.0001 20.2652 19 20V15C19 14.7348 19.1054 14.4804 19.2929 14.2929C19.4804 14.1054 19.7348 14 20 14C20.2652 14 20.5196 14.1054 20.7071 14.2929C20.8946 14.4804 21 14.7348 21 15V19.586L23.707 22.293C23.8945 22.4805 23.9998 22.7348 23.9998 23C23.9998 23.2652 23.8945 23.5195 23.707 23.707Z" fill="#355146" style="fill:#355146;fill:color(display-p3 0.2078 0.3176 0.2745);fill-opacity:1;"/>
</g>
<defs>
<clipPath id="clip0_7579_10493">
<rect width="24" height="24" fill="white" style="fill:white;fill-opacity:1;" transform="translate(8 8)"/>
</clipPath>
</defs>
</svg>
