<svg width="64" height="64" viewBox="0 0 64 64" fill="none" xmlns="http://www.w3.org/2000/svg">
<rect width="64" height="64" rx="16" fill="white" style="fill:white;fill-opacity:1;"/>
<g clip-path="url(#clip0_7587_10129)">
<path d="M43 37.0006H42.119C41.923 36.1966 41.504 35.4826 40.923 34.9296L41.304 34.2686C41.58 33.7896 41.415 33.1786 40.937 32.9026C40.458 32.6276 39.846 32.7926 39.572 33.2706L39.187 33.9396C38.808 33.8286 38.416 33.7506 38.001 33.7506C37.586 33.7506 37.194 33.8286 36.815 33.9396L36.43 33.2706C36.156 32.7926 35.543 32.6276 35.065 32.9026C34.586 33.1786 34.421 33.7896 34.698 34.2686L35.079 34.9296C34.498 35.4826 34.079 36.1966 33.883 37.0006H33.002C32.45 37.0006 32.002 37.4486 32.002 38.0006C32.002 38.5526 32.45 39.0006 33.002 39.0006H33.883C34.079 39.8046 34.498 40.5186 35.079 41.0716L34.698 41.7326C34.422 42.2116 34.587 42.8226 35.065 43.0986C35.222 43.1886 35.394 43.2316 35.563 43.2316C35.909 43.2316 36.246 43.0516 36.43 42.7306L36.815 42.0616C37.194 42.1726 37.586 42.2506 38.001 42.2506C38.416 42.2506 38.808 42.1726 39.187 42.0616L39.572 42.7306C39.757 43.0516 40.093 43.2316 40.439 43.2316C40.608 43.2316 40.78 43.1886 40.937 43.0986C41.416 42.8226 41.581 42.2116 41.304 41.7326L40.923 41.0716C41.504 40.5186 41.923 39.8046 42.119 39.0006H43C43.553 39.0006 44 38.5526 44 38.0006C44 37.4486 43.553 37.0006 43 37.0006ZM36.5 38.0006C36.5 37.1736 37.173 36.5006 38 36.5006C38.827 36.5006 39.5 37.1736 39.5 38.0006C39.5 38.8276 38.827 39.5006 38 39.5006C37.173 39.5006 36.5 38.8276 36.5 38.0006ZM33 27.0006H33.881C34.077 27.8046 34.496 28.5186 35.077 29.0716L34.696 29.7326C34.42 30.2116 34.585 30.8226 35.063 31.0986C35.22 31.1886 35.392 31.2316 35.561 31.2316C35.907 31.2316 36.244 31.0516 36.428 30.7306L36.813 30.0616C37.192 30.1726 37.584 30.2506 37.999 30.2506C38.414 30.2506 38.806 30.1726 39.185 30.0616L39.57 30.7306C39.755 31.0516 40.091 31.2316 40.437 31.2316C40.606 31.2316 40.778 31.1886 40.935 31.0986C41.414 30.8226 41.579 30.2116 41.302 29.7326L40.921 29.0716C41.502 28.5186 41.921 27.8046 42.117 27.0006H42.998C43.551 27.0006 43.998 26.5526 43.998 26.0006C43.998 25.4486 43.551 25.0006 42.998 25.0006H42.117C41.921 24.1966 41.502 23.4826 40.921 22.9296L41.302 22.2686C41.578 21.7896 41.413 21.1786 40.935 20.9026C40.456 20.6276 39.844 20.7926 39.57 21.2706L39.185 21.9396C38.806 21.8286 38.414 21.7506 37.999 21.7506C37.584 21.7506 37.192 21.8286 36.813 21.9396L36.428 21.2706C36.154 20.7926 35.541 20.6276 35.063 20.9026C34.584 21.1786 34.419 21.7896 34.696 22.2686L35.077 22.9296C34.496 23.4826 34.077 24.1966 33.881 25.0006H33C32.448 25.0006 32 25.4486 32 26.0006C32 26.5526 32.448 27.0006 33 27.0006ZM39.5 26.0006C39.5 26.8276 38.827 27.5006 38 27.5006C37.173 27.5006 36.5 26.8276 36.5 26.0006C36.5 25.1736 37.173 24.5006 38 24.5006C38.827 24.5006 39.5 25.1736 39.5 26.0006ZM26 26.0006C22.686 26.0006 20 28.6866 20 32.0006C20 35.3146 22.686 38.0006 26 38.0006C29.314 38.0006 32 35.3146 32 32.0006C32 28.6866 29.314 26.0006 26 26.0006ZM29.301 33.9356C29.148 35.0156 28.193 35.8006 27.102 35.8006H26.822V36.2086C26.822 36.6456 26.469 37.0006 26.032 37.0006H26.012C25.576 37.0006 25.223 36.6446 25.223 36.2086V35.8006H25.023C24.312 35.8006 23.675 35.4756 23.253 34.9676C22.835 34.4636 23.19 33.7016 23.845 33.7016C24.072 33.7016 24.355 33.8086 24.509 33.9756C24.637 34.1146 24.821 34.2016 25.024 34.2016H27.127C27.405 34.2016 27.659 34.0146 27.713 33.7416C27.776 33.4236 27.567 33.1266 27.262 33.0646L24.471 32.5056C23.359 32.2826 22.583 31.2246 22.746 30.0666C22.898 28.9866 23.854 28.2006 24.945 28.2006H25.225V27.8006C25.225 27.3586 25.583 27.0006 26.025 27.0006C26.467 27.0006 26.825 27.3586 26.825 27.8006V28.2006H27.025C27.736 28.2006 28.373 28.5246 28.795 29.0336C29.213 29.5376 28.858 30.2996 28.203 30.2996C27.976 30.2996 27.693 30.1926 27.539 30.0256C27.411 29.8866 27.227 29.7996 27.024 29.7996H24.922C24.644 29.7996 24.39 29.9856 24.335 30.2576C24.271 30.5756 24.481 30.8746 24.784 30.9356L27.576 31.4946C28.688 31.7166 29.465 32.7766 29.301 33.9336V33.9356Z" fill="#2D423A" style="fill:#2D423A;fill:color(display-p3 0.1765 0.2588 0.2275);fill-opacity:1;"/>
</g>
<defs>
<clipPath id="clip0_7587_10129">
<rect width="24" height="24" fill="white" style="fill:white;fill-opacity:1;" transform="translate(20 20)"/>
</clipPath>
</defs>
</svg>
