<svg width="40" height="40" viewBox="0 0 40 40" fill="none" xmlns="http://www.w3.org/2000/svg">
<rect width="40" height="40" rx="8" fill="white" style="fill:white;fill-opacity:1;"/>
<g clip-path="url(#clip0_7588_10587)">
<path d="M31.707 28.588L29.172 31.123C28.587 31.707 27.818 32 27.05 32C26.282 32 25.514 31.708 24.929 31.124L22.293 28.488C21.902 28.097 21.902 27.465 22.293 27.074C22.684 26.683 23.316 26.683 23.707 27.074L26 29.367V9C26 8.448 26.447 8 27 8C27.553 8 28 8.448 28 9V29.467L30.293 27.174C30.684 26.783 31.316 26.783 31.707 27.174C32.098 27.565 32.098 28.197 31.707 28.588ZM14.5 10C10.91 10 8 11.343 8 13C8 14.657 10.91 16 14.5 16C18.09 16 21 14.657 21 13C21 11.343 18.09 10 14.5 10ZM14.5 22C10.708 22 8 20.471 8 18.5V20.5C8 22.495 10.794 24 14.5 24C18.206 24 21 22.495 21 20.5V18.5C21 20.471 18.292 22 14.5 22ZM14.5 18C10.708 18 8 16.471 8 14.5V16.5C8 18.495 10.794 20 14.5 20C18.206 20 21 18.495 21 16.5V14.5C21 16.471 18.292 18 14.5 18ZM14.5 30C10.708 30 8 28.471 8 26.5V28.5C8 30.495 10.794 32 14.5 32C18.206 32 21 30.495 21 28.5V26.5C21 28.471 18.292 30 14.5 30ZM14.5 26C10.708 26 8 24.471 8 22.5V24.5C8 26.495 10.794 28 14.5 28C18.206 28 21 26.495 21 24.5V22.5C21 24.471 18.292 26 14.5 26Z" fill="#355146" style="fill:#355146;fill:color(display-p3 0.2078 0.3176 0.2745);fill-opacity:1;"/>
</g>
<defs>
<clipPath id="clip0_7588_10587">
<rect width="24" height="24" fill="white" style="fill:white;fill-opacity:1;" transform="translate(8 8)"/>
</clipPath>
</defs>
</svg>
