<svg width="40" height="40" viewBox="0 0 40 40" fill="none" xmlns="http://www.w3.org/2000/svg">
<rect width="40" height="40" rx="8" fill="white" style="fill:white;fill-opacity:1;"/>
<g clip-path="url(#clip0_7579_10488)">
<path d="M27.68 23.667V24C27.68 25.105 26.849 26 25.823 26H25.204C24.178 26 23.347 25.105 23.347 24C23.347 25.105 22.516 26 21.49 26H20.871C19.942 26 19.172 25.265 19.035 24.306C19.007 24.107 19.053 23.903 19.13 23.717L19.485 22.856C19.948 21.733 21.043 21 22.258 21H28.767C29.982 21 31.077 21.733 31.54 22.856L31.895 23.717C31.972 23.903 32.019 24.107 31.99 24.306C31.853 25.265 31.084 26 30.154 26H29.535C28.509 26 27.678 25.105 27.678 24M21.998 14C21.998 10.691 19.307 8 15.998 8C12.689 8 10 10.691 10 14C10 17.309 12.691 20 16 20C19.309 20 22 17.309 22 14H21.998ZM30.154 28H29.535C28.862 28 28.229 27.82 27.679 27.505C27.127 27.82 26.494 28 25.822 28H25.203C24.53 28 23.897 27.82 23.346 27.505C22.795 27.82 22.162 28 21.49 28H20.871C20.576 28 20.292 27.953 20.014 27.887V29C20.014 30.654 21.36 32 23.014 32H28.014C29.668 32 31.014 30.654 31.014 29V27.887C30.736 27.954 30.451 28 30.157 28H30.154ZM18.012 29V26.661C17.517 26.093 17.167 25.385 17.053 24.588C16.978 24.054 17.053 23.506 17.278 22.959L17.606 22.162C17.086 22.056 16.549 22 15.998 22C11.589 22 8 25.589 8 30V31C8 31.552 8.447 32 9 32H19.039C18.404 31.162 18.012 30.13 18.012 29Z" fill="#355146" style="fill:#355146;fill:color(display-p3 0.2078 0.3176 0.2745);fill-opacity:1;"/>
</g>
<defs>
<clipPath id="clip0_7579_10488">
<rect width="24" height="24" fill="white" style="fill:white;fill-opacity:1;" transform="translate(8 8)"/>
</clipPath>
</defs>
</svg>
