<svg width="64" height="64" viewBox="0 0 64 64" fill="none" xmlns="http://www.w3.org/2000/svg">
<rect width="64" height="64" rx="16" fill="white" style="fill:white;fill-opacity:1;"/>
<g clip-path="url(#clip0_7587_10123)">
<path d="M32 33C32 34.657 29.314 36 26 36C22.686 36 20 34.657 20 33C20 31.343 22.686 30 26 30C29.314 30 32 31.343 32 33ZM32 38.5V40.5C32 42.495 29.421 44 26 44C22.579 44 20 42.495 20 40.5V38.5C20 40.471 22.5 42 26 42C29.5 42 32 40.471 32 38.5ZM32 34.5V36.5C32 38.495 29.421 40 26 40C22.579 40 20 38.495 20 36.5V34.5C20 36.471 22.5 38 26 38C29.5 38 32 36.471 32 34.5ZM38 26H30V28H38V26ZM39 20H29C26.243 20 24 22.243 24 25V28.139C24.633 28.048 25.302 28 26 28C26.698 28 27.367 28.048 28 28.139V26C28 24.897 28.897 24 30 24H38C39.103 24 40 24.897 40 26V28C40 29.103 39.103 30 38 30H32.531C33.186 30.574 33.643 31.25 33.859 32H34.999C35.552 32 35.999 32.448 35.999 33V34C35.999 34.552 35.552 35 34.999 35H33.999V37H38.999C39.552 37 39.999 37.448 39.999 38C39.999 38.552 39.552 39 38.999 39H33.999V40.5C33.999 41.865 33.382 43.069 32.312 44H38.999C41.756 44 43.999 41.757 43.999 39V25C43.999 22.243 41.757 20 39 20ZM40 34C40 34.552 39.553 35 39 35C38.447 35 38 34.552 38 34V33C38 32.448 38.447 32 39 32C39.553 32 40 32.448 40 33V34Z" fill="#2D423A" style="fill:#2D423A;fill:color(display-p3 0.1765 0.2588 0.2275);fill-opacity:1;"/>
</g>
<defs>
<clipPath id="clip0_7587_10123">
<rect width="24" height="24" fill="white" style="fill:white;fill-opacity:1;" transform="translate(20 20)"/>
</clipPath>
</defs>
</svg>
