<svg width="40" height="40" viewBox="0 0 40 40" fill="none" xmlns="http://www.w3.org/2000/svg">
<rect width="40" height="40" rx="8" fill="white" style="fill:white;fill-opacity:1;"/>
<g clip-path="url(#clip0_7588_10582)">
<path d="M8.55568 21.5887C8.01211 20.789 7.90346 19.7708 8.26604 18.8745C9.07636 17.2214 10.4338 15.8998 12.108 15.1341C13.3201 14.5313 14.633 14.1575 15.9807 14.0312C15.3935 14.7539 14.8056 15.5249 14.217 16.3444C13.0192 18.1582 11.9938 20.0803 11.1544 22.0854L10.7931 22.8956C9.88805 22.8207 9.06549 22.3403 8.55568 21.5887ZM9.93221 25.7929C9.06746 26.987 8.44679 28.3399 8.10582 29.7742C7.89324 30.7062 8.47641 31.6341 9.40843 31.8466C9.66207 31.9045 9.92546 31.9044 10.1791 31.8465C11.6112 31.5049 12.962 30.8847 14.1544 30.021C15.322 28.854 15.3225 26.9615 14.1554 25.7939C12.9884 24.6263 11.0958 24.6259 9.92827 25.7929H9.93221ZM17.832 28.759L17.0159 29.1213V29.4139C17.0179 30.1149 17.2986 30.7864 17.7962 31.2802C18.2696 31.7405 18.9037 31.9983 19.5639 31.9988C21.9099 31.965 23.812 29.829 24.8103 27.8404C25.4219 26.6096 25.797 25.275 25.9161 23.9059C25.1862 24.5031 24.4035 25.1003 23.5681 25.6974C21.7549 26.8956 19.8331 27.9206 17.8281 28.759L17.832 28.759ZM31.9457 10.9438C31.8133 15.2764 28.694 19.5732 22.4085 24.082C20.6981 25.1908 18.8936 26.1473 17.0159 26.9406V26.3802C17.0066 24.4601 15.4524 22.9058 13.5323 22.8966H12.972C13.7671 21.0188 14.7252 19.2144 15.8355 17.504C20.3333 11.2334 24.6231 8.11008 28.9488 7.96875C31.1046 7.96875 31.9457 8.84663 31.9457 10.9438ZM25.9738 16.427C25.9738 15.0527 24.8597 13.9387 23.4855 13.9387C22.1112 13.9387 20.9971 15.0527 20.9971 16.427C20.9971 17.8012 22.1112 18.9153 23.4855 18.9153C24.8597 18.9153 25.9738 17.8012 25.9738 16.427Z" fill="#355146" style="fill:#355146;fill:color(display-p3 0.2078 0.3176 0.2745);fill-opacity:1;"/>
</g>
<defs>
<clipPath id="clip0_7588_10582">
<rect width="24" height="24" fill="white" style="fill:white;fill-opacity:1;" transform="translate(8 8)"/>
</clipPath>
</defs>
</svg>
