<svg width="40" height="40" viewBox="0 0 40 40" fill="none" xmlns="http://www.w3.org/2000/svg">
<rect width="40" height="40" rx="8" fill="white" style="fill:white;fill-opacity:1;"/>
<g clip-path="url(#clip0_7588_10592)">
<path d="M31.6161 26.5659L28.0881 23.0379C28.1461 22.6119 28.1331 22.1869 28.0381 21.7689C27.9741 21.4849 28.1101 21.1779 28.3781 21.0049C28.8761 20.6839 29.2801 20.2469 29.5801 19.7069C29.8651 19.1919 30.0141 18.6009 30.0111 18.0069C30.0141 17.4029 29.8651 16.8119 29.5801 16.2969C29.2811 15.7579 28.8761 15.3209 28.3781 14.9999C28.1101 14.8269 27.9731 14.5209 28.0381 14.2349C28.1721 13.6419 28.1521 13.0359 27.9791 12.4309C27.6491 11.2829 26.7321 10.3659 25.5831 10.0349C24.9771 9.86287 24.3711 9.84388 23.7801 9.97688C23.4931 10.0359 23.1891 9.90388 23.0161 9.63588C22.6951 9.13788 22.2591 8.73388 21.7191 8.43388C20.6751 7.85588 19.3761 7.85488 18.3311 8.43388C17.7931 8.73288 17.3571 9.13688 17.0361 9.63488C16.8631 9.90288 16.5601 10.0399 16.2711 9.97488C15.6811 9.84288 15.0741 9.86187 14.4671 10.0349C13.3191 10.3639 12.4011 11.2819 12.0731 12.4289C11.8991 13.0349 11.8791 13.6429 12.0131 14.2349C12.0771 14.5189 11.9411 14.8259 11.6731 14.9989C11.1741 15.3209 10.7701 15.7569 10.4701 16.2969C10.1851 16.8119 10.0361 17.4029 10.0391 17.9969C10.0361 18.6009 10.1851 19.1919 10.4711 19.7079C10.7701 20.2469 11.1751 20.6829 11.6731 21.0039C11.9411 21.1779 12.0781 21.4839 12.0131 21.7689C11.9191 22.1819 11.9051 22.6029 11.9611 23.0249L8.42208 26.5649C8.00608 26.9799 7.88708 27.5749 8.11208 28.1189C8.33708 28.6599 8.84108 28.9969 9.42708 28.9969H10.9891V30.5589C10.9891 31.4529 11.7181 31.9859 12.4241 31.9859C12.8001 31.9859 13.1441 31.8409 13.4211 31.5659L17.7871 27.1999C17.7871 27.1999 17.7931 27.1889 17.7971 27.1839C17.9661 27.3209 18.1341 27.4599 18.3311 27.5699C18.8531 27.8589 19.4391 28.0039 20.0241 28.0039C20.6091 28.0039 21.1961 27.8589 21.7191 27.5689C21.9131 27.4619 22.0771 27.3249 22.2431 27.1909C22.2461 27.1939 22.2461 27.1969 22.2491 27.1999L26.6171 31.5679C26.8921 31.8409 27.2361 31.9859 27.6121 31.9859C28.3171 31.9859 29.0461 31.4529 29.0461 30.5589V28.9969H30.6081C31.1951 28.9969 31.6991 28.6599 31.9241 28.1189C32.1491 27.5749 32.0311 26.9799 31.6161 26.5659ZM24.2321 16.6819L20.9971 20.1579C20.4461 20.7109 19.7461 21.0009 19.0001 21.0009C18.2541 21.0009 17.5551 20.7109 17.0281 20.1839L15.5521 18.7079C15.1611 18.3169 15.1611 17.6849 15.5521 17.2939C15.9431 16.9029 16.5751 16.9029 16.9661 17.2939L18.4421 18.7699C18.7401 19.0679 19.2601 19.0679 19.5571 18.7699L22.7681 15.3199C23.1451 14.9149 23.7781 14.8939 24.1811 15.2689C24.5851 15.6449 24.6081 16.2779 24.2321 16.6819Z" fill="#355146" style="fill:#355146;fill:color(display-p3 0.2078 0.3176 0.2745);fill-opacity:1;"/>
</g>
<defs>
<clipPath id="clip0_7588_10592">
<rect width="24" height="24" fill="white" style="fill:white;fill-opacity:1;" transform="translate(8 8)"/>
</clipPath>
</defs>
</svg>
