<svg width="64" height="64" viewBox="0 0 64 64" fill="none" xmlns="http://www.w3.org/2000/svg">
<rect width="64" height="64" rx="16" fill="white" style="fill:white;fill-opacity:1;"/>
<g clip-path="url(#clip0_7588_10554)">
<path d="M27 30H23C21.343 30 20 31.343 20 33V41C20 42.657 21.343 44 23 44H27C28.657 44 30 42.657 30 41V33C30 31.343 28.657 30 27 30ZM23.5 41H23C22.448 41 22 40.552 22 40C22 39.448 22.448 39 23 39H23.5C24.052 39 24.5 39.448 24.5 40C24.5 40.552 24.052 41 23.5 41ZM23.5 38H23C22.448 38 22 37.552 22 37C22 36.448 22.448 36 23 36H23.5C24.052 36 24.5 36.448 24.5 37C24.5 37.552 24.052 38 23.5 38ZM27 41H26.5C25.948 41 25.5 40.552 25.5 40C25.5 39.448 25.948 39 26.5 39H27C27.552 39 28 39.448 28 40C28 40.552 27.552 41 27 41ZM27 38H26.5C25.948 38 25.5 37.552 25.5 37C25.5 36.448 25.948 36 26.5 36H27C27.552 36 28 36.448 28 37C28 37.552 27.552 38 27 38ZM27 35H23C22.448 35 22 34.552 22 34C22 33.448 22.448 33 23 33H27C27.552 33 28 33.448 28 34C28 34.552 27.552 35 27 35ZM44 23C44 23.552 43.552 24 43 24H31C30.448 24 30 23.552 30 23V22.5C30 21.576 29.72 20.716 29.24 20H41C42.657 20 44 21.343 44 23ZM41 26V40C41 42.209 39.209 44 37 44H30.997C31.626 43.164 32 42.125 32 41V33C32 30.243 29.757 28 27 28H23V22.643C23 21.335 23.941 20.143 25.242 20.013C26.738 19.863 28 21.034 28 22.5V23C28 24.657 29.343 26 31 26H41Z" fill="#D4512E" style="fill:#D4512E;fill:color(display-p3 0.8314 0.3176 0.1804);fill-opacity:1;"/>
</g>
<defs>
<clipPath id="clip0_7588_10554">
<rect width="24" height="24" fill="white" style="fill:white;fill-opacity:1;" transform="translate(20 20)"/>
</clipPath>
</defs>
</svg>
