<svg width="64" height="64" viewBox="0 0 64 64" fill="none" xmlns="http://www.w3.org/2000/svg">
<rect width="64" height="64" rx="16" fill="white" style="fill:white;fill-opacity:1;"/>
<path d="M41 24H40.899C40.434 21.721 38.415 20 36 20H27C24.243 20 22 22.243 22 25V39C22 41.757 24.243 44 27 44H36C38.414 44 40.434 42.279 40.899 40H41C41.553 40 42 39.553 42 39V25C42 24.447 41.553 24 41 24ZM28 40H27C26.448 40 26 39.553 26 39C26 38.447 26.448 38 27 38H28C28.552 38 29 38.447 29 39C29 39.553 28.552 40 28 40ZM28 36H27C26.448 36 26 35.553 26 35C26 34.447 26.448 34 27 34H28C28.552 34 29 34.447 29 35C29 35.553 28.552 36 28 36ZM28 32H27C26.448 32 26 31.553 26 31C26 30.447 26.448 30 27 30H28C28.552 30 29 30.447 29 31C29 31.553 28.552 32 28 32ZM32 40H31C30.448 40 30 39.553 30 39C30 38.447 30.448 38 31 38H32C32.552 38 33 38.447 33 39C33 39.553 32.552 40 32 40ZM32 36H31C30.448 36 30 35.553 30 35C30 34.447 30.448 34 31 34H32C32.552 34 33 34.447 33 35C33 35.553 32.552 36 32 36ZM32 32H31C30.448 32 30 31.553 30 31C30 30.447 30.448 30 31 30H32C32.552 30 33 30.447 33 31C33 31.553 32.552 32 32 32ZM36 40H35C34.447 40 34 39.553 34 39C34 38.447 34.447 38 35 38H36C36.553 38 37 38.447 37 39C37 39.553 36.553 40 36 40ZM36 36H35C34.447 36 34 35.553 34 35C34 34.447 34.447 34 35 34H36C36.553 34 37 34.447 37 35C37 35.553 36.553 36 36 36ZM36 32H35C34.447 32 34 31.553 34 31C34 30.447 34.447 30 35 30H36C36.553 30 37 30.447 37 31C37 31.553 36.553 32 36 32ZM37 27C37 27.553 36.553 28 36 28H27C26.448 28 26 27.553 26 27V25C26 24.447 26.448 24 27 24H36C36.553 24 37 24.447 37 25V27Z" fill="#2D423A" style="fill:#2D423A;fill:color(display-p3 0.1765 0.2588 0.2275);fill-opacity:1;"/>
</svg>
